<?xml version="1.0" encoding="utf-8"?>
<!-- Generator: Adobe Illustrator 18.0.0, SVG Export Plug-In . SVG Version: 6.00 Build 0)  -->
<!DOCTYPE svg PUBLIC "-//W3C//DTD SVG 1.1//EN" "http://www.w3.org/Graphics/SVG/1.1/DTD/svg11.dtd">
<svg version="1.1" id="Layer_1" xmlns="http://www.w3.org/2000/svg" xmlns:xlink="http://www.w3.org/1999/xlink" x="0px" y="0px"
	 viewBox="0 0 612 792" enable-background="new 0 0 612 792" xml:space="preserve">
<g>
	<path fill="#FFFFFF" d="M273.9,398.8C430.3,368,546.3,217.1,567.3,178c20.9-37.7,30.8-75.4,30.8-75.4
		c-34.9,46.1-156.5,78.3-237.5,99.2C354.9,301,273.9,398.8,273.9,398.8L273.9,398.8z M468.1,337.4c-88,74-157.9,62.9-266.9,134.1
		c-79.7,53.1-89.4,122.9-89.4,149.5c15.4,1.4,72.6,1.4,219.4-23.7c160.6-28,258.5-197,275.2-285.1c11.2-53.1,5.6-118.8,0-162.1
		C575.7,250.7,505.8,306.6,468.1,337.4z M181.7,433.7c57.3-51.7,99.2-117.4,122.9-159.3c12.6-22.3,14-44.7,12.6-60.1
		c-1.4,0-2.8,1.4-5.6,1.4C246,236.7,116,267.4,37.8,398.8c-79.7,132.8-8.4,290.6-8.4,290.6l7-7C41.9,572,127.1,482.6,181.7,433.7
		L181.7,433.7z"/>
</g>
</svg>
