<?xml version="1.0" standalone="no"?>
<!DOCTYPE svg PUBLIC "-//W3C//DTD SVG 1.1//EN" "http://www.w3.org/Graphics/SVG/1.1/DTD/svg11.dtd" >
<svg>
<metadata>
Created by FontForge 20090622 at Mon Mar  7 13:59:21 2016
 By deploy user
Typeface &#194;&#169; FontSite Inc., 1996-2008. All Rights Reserved. www.fontsite.com
</metadata>
<defs>
<font id="AlternateGothicFSThree" horiz-adv-x="277" >
  <font-face 
    font-family="Alternate Gothic FS No 3"
    font-weight="400"
    font-stretch="normal"
    units-per-em="1000"
    panose-1="2 11 6 3 2 2 2 5 2 4"
    ascent="823"
    descent="-177"
    x-height="497"
    cap-height="667"
    bbox="-93 -177 822 846"
    underline-thickness="50"
    underline-position="-50"
    unicode-range="U+0020-U+FB04"
  />
<missing-glyph horiz-adv-x="500" 
d="M50 0v668h400v-668h-400zM250 382l128 240h-256zM404 94v479l-128 -239zM96 94l128 240l-128 239v-479zM122 46h256l-128 240z" />
    <glyph glyph-name="f_t" unicode="ft" horiz-adv-x="518" 
d="M73 0v414h-67v83h67v47q0 45 6.5 67.5t24.5 37.5q29 25 86 25q27 0 62 -7v-87q-28 9 -42 9q-25 0 -34.5 -14t-9.5 -51v-27h78v-83h-78v-414h-93zM350 30q-13 16 -18 39t-5 70v275h-72v83h72v136h93v-136h85v-83h-85v-265q0 -38 13.5 -54.5t44.5 -16.5q12 0 36 6v-84
q-36 -7 -63 -7q-71 0 -101 37z" />
    <glyph glyph-name="f_f" unicode="ff" horiz-adv-x="489" 
d="M318 0v414h-67v83h67v47q0 45 6.5 67.5t24.5 37.5q29 25 86 25q27 0 61 -7v-87q-22 9 -41 9q-25 0 -34.5 -14t-9.5 -51v-27h78v-83h-78v-414h-93zM73 0v414h-67v83h67v47q0 45 6.5 67.5t24.5 37.5q29 25 86 25q27 0 62 -7v-87q-28 9 -42 9q-25 0 -34.5 -14t-9.5 -51v-27
h78v-83h-78v-414h-93z" />
    <glyph glyph-name="f_i" unicode="fi" horiz-adv-x="415" 
d="M73 0v414h-67v83h67v47q0 45 7 67.5t24 37.5q31 25 94 25q33 0 100 -7v-87q-54 9 -82 9q-29 0 -39.5 -13.5t-10.5 -51.5v-27h205v-497h-93v414h-112v-414h-93z" />
    <glyph glyph-name="f_l" unicode="fl" horiz-adv-x="415" 
d="M73 0v414h-67v83h67v47q0 45 7 67.5t24 37.5q29 25 83 25q15 0 57 -4q24 -3 34 -3h93v-667h-93v581q-38 8 -68 8q-25 0 -34.5 -14t-9.5 -51v-27h71v-83h-71v-414h-93z" />
    <glyph glyph-name="f_f_i" unicode="ffi" horiz-adv-x="669" 
d="M318 0v414h-67v83h67v47q0 45 6.5 67.5t24.5 37.5q29 25 86 25q27 0 61 -7v-87q-22 9 -41 9q-25 0 -34.5 -14t-9.5 -51v-27h78v-83h-78v-414h-93zM73 0v414h-67v83h67v47q0 45 6.5 67.5t24.5 37.5q29 25 86 25q27 0 62 -7v-87q-28 9 -42 9q-25 0 -34.5 -14t-9.5 -51v-27
h78v-83h-78v-414h-93zM533 570v97h93v-97h-93zM533 0v497h93v-497h-93z" />
    <glyph glyph-name="f_f_l" unicode="ffl" horiz-adv-x="669" 
d="M318 0v414h-67v83h67v47q0 45 6.5 67.5t24.5 37.5q29 25 86 25q27 0 61 -7v-87q-22 9 -41 9q-25 0 -34.5 -14t-9.5 -51v-27h78v-83h-78v-414h-93zM73 0v414h-67v83h67v47q0 45 6.5 67.5t24.5 37.5q29 25 86 25q27 0 62 -7v-87q-28 9 -42 9q-25 0 -34.5 -14t-9.5 -51v-27
h78v-83h-78v-414h-93zM533 0v667h93v-667h-93z" />
    <glyph glyph-name=".notdef" horiz-adv-x="500" 
d="M50 0v668h400v-668h-400zM250 382l128 240h-256zM404 94v479l-128 -239zM96 94l128 240l-128 239v-479zM122 46h256l-128 240z" />
    <glyph glyph-name=".null" horiz-adv-x="0" 
 />
    <glyph glyph-name="nonmarkingreturn" horiz-adv-x="333" 
 />
    <glyph glyph-name="space" unicode=" " horiz-adv-x="153" 
 />
    <glyph glyph-name="exclam" unicode="!" horiz-adv-x="217" 
d="M77 201l-24 466h110l-24 -466h-62zM60 0v107h97v-107h-97z" />
    <glyph glyph-name="quotedbl" unicode="&#x22;" horiz-adv-x="362" 
d="M227 400l-17 267h109l-17 -267h-75zM59 400l-17 267h109l-17 -267h-75z" />
    <glyph glyph-name="numbersign" unicode="#" horiz-adv-x="441" 
d="M51 0l34 182h-55l14 68h53l30 159h-58l15 68h56l35 190h66l-35 -190h84l36 190h66l-36 -190h55l-12 -68h-56l-29 -159h60l-13 -68h-60l-34 -182h-66l34 182h-84l-34 -182h-66zM163 250h85l30 159h-85z" />
    <glyph glyph-name="dollar" unicode="$" horiz-adv-x="410" 
d="M27 86l69 65q32 -40 56.5 -55t55.5 -15q32 0 51 21.5t19 58.5q0 41 -27 73q-19 21 -86 69q-73 52 -101 95t-28 104q0 69 38.5 116t102.5 57v62h53v-62q76 -9 135 -74l-69 -68q-39 52 -90 52q-34 0 -53.5 -20.5t-19.5 -55.5q0 -40 26 -68q13 -14 79 -60q80 -55 110 -101.5
t30 -113.5q0 -74 -39 -120t-109 -55v-76h-53v76q-87 11 -150 95z" />
    <glyph glyph-name="percent" unicode="%" horiz-adv-x="537" 
d="M123 317q-93 0 -93 116v124q0 117 93 117q92 0 92 -117v-124q0 -116 -92 -116zM103 0l276 667h55l-276 -667h-55zM123 370q18 0 25 11.5t7 41.5v145q0 30 -7 41.5t-25 11.5q-19 0 -26 -11.5t-7 -41.5v-145q0 -30 7 -41.5t26 -11.5zM322 110v124q0 116 93 116
q92 0 92 -116v-124q0 -117 -92 -117q-93 0 -93 117zM382 99q0 -29 7 -41t26 -12q18 0 25 11.5t7 41.5v145q0 30 -7 41.5t-25 11.5q-19 0 -26 -11.5t-7 -41.5v-145z" />
    <glyph glyph-name="ampersand" unicode="&#x26;" horiz-adv-x="469" 
d="M33 157q0 86 89 191q-44 91 -44 161q0 73 39 119t100 46q54 0 89 -39t35 -98q0 -58 -40 -115q-15 -22 -67 -86q30 -75 76 -130q22 42 27 103l90 -11q-6 -93 -53 -166q21 -30 68 -42v-100q-66 3 -126 66q-63 -63 -131 -63q-64 0 -108 47.5t-44 116.5zM191 423q3 4 8 9
q21 25 35 59t14 62q0 25 -10.5 39.5t-28.5 14.5q-20 0 -32 -18.5t-12 -49.5q0 -57 26 -116zM195 92q30 0 62 33q-54 55 -90 134q-32 -47 -32 -88q0 -32 17.5 -55.5t42.5 -23.5z" />
    <glyph glyph-name="quotesingle" unicode="'" horiz-adv-x="197" 
d="M59 400l-17 267h112l-17 -267h-78z" />
    <glyph glyph-name="parenleft" unicode="(" horiz-adv-x="262" 
d="M175 -112q-69 92 -106.5 199t-37.5 211t37.5 211t106.5 199l59 -40q-110 -174 -110 -370t110 -370z" />
    <glyph glyph-name="parenright" unicode=")" horiz-adv-x="262" 
d="M28 -72q110 174 110 370t-110 370l58 40q70 -92 107.5 -199t37.5 -211t-37.5 -211t-107.5 -199z" />
    <glyph glyph-name="asterisk" unicode="*" horiz-adv-x="306" 
d="M118 445l-59 44l44 51l-66 16l23 69l63 -26l-6 68h73l-6 -68l63 26l23 -69l-66 -16l44 -51l-59 -44l-35 59z" />
    <glyph glyph-name="plus" unicode="+" horiz-adv-x="410" 
d="M165 177v125h-127v79h127v122h81v-122h127v-79h-127v-125h-81z" />
    <glyph glyph-name="comma" unicode="," horiz-adv-x="173" 
d="M38 0v107h97v-107l-59 -138h-38l44 138h-44z" />
    <glyph glyph-name="hyphen" unicode="-" horiz-adv-x="143" 
d="M0 212v83h143v-83h-143z" />
    <glyph glyph-name="period" unicode="." horiz-adv-x="173" 
d="M38 0v107h97v-107h-97z" />
    <glyph glyph-name="slash" unicode="/" horiz-adv-x="371" 
d="M17 -67l247 734h84l-247 -734h-84z" />
    <glyph glyph-name="zero" unicode="0" horiz-adv-x="410" 
d="M73 54q-35 53 -35 158v243q0 105 35 158q44 64 133 64q88 0 132 -64q35 -53 35 -158v-243q0 -105 -35 -158q-44 -64 -132 -64q-89 0 -133 64zM147 114q17 -32 59 -32q41 0 58 32q12 22 12 77v285q0 55 -12 78q-17 31 -58 31q-42 0 -59 -31q-12 -23 -12 -78v-285
q0 -55 12 -77z" />
    <glyph glyph-name="one" unicode="1" horiz-adv-x="410" 
d="M178 0v510h-96v61q40 17 79 44.5t57 51.5h57v-667h-97z" />
    <glyph glyph-name="two" unicode="2" horiz-adv-x="410" 
d="M33 0v90q160 209 199.5 276.5t39.5 134.5q0 84 -65 84q-42 0 -61 -39q-9 -19 -9 -73h-97q0 95 28 135q47 69 142 69q76 0 119 -47t43 -130q0 -77 -43 -153q-23 -41 -41.5 -67l-107.5 -144q-12 -15 -34 -46h212v-90h-325z" />
    <glyph glyph-name="three" unicode="3" horiz-adv-x="410" 
d="M34 166v24h100v-14q0 -44 18 -69t51 -25q69 0 69 113q0 59 -21 83.5t-74 25.5v93q51 1 68 21q19 22 19 73q0 94 -61 94q-46 0 -58 -45q-5 -18 -5 -43h-97v12q0 75 45 121.5t118 46.5q74 0 114.5 -48t40.5 -136q0 -61 -18 -92.5t-62 -47.5q51 -15 71 -49.5t20 -108.5
q0 -99 -45 -151q-48 -54 -126 -54q-75 0 -121 48.5t-46 127.5z" />
    <glyph glyph-name="four" unicode="4" horiz-adv-x="410" 
d="M14 169v104l197 394h106v-408h75v-90h-75v-169h-97v169h-206zM104 259h116v245z" />
    <glyph glyph-name="five" unicode="5" horiz-adv-x="410" 
d="M45 169q0 11 1 19h96v-17q0 -89 62 -89q38 0 55 33q12 25 12 117q0 86 -14 118q-15 34 -54 34q-21 0 -36 -11.5t-31 -41.5h-89l7 336h292v-90h-207l-3 -152q45 41 101 41q71 0 104 -55q30 -48 30 -172q0 -76 -7.5 -115.5t-27.5 -71.5q-39 -62 -133 -62q-77 0 -117.5 45.5
t-40.5 133.5z" />
    <glyph glyph-name="six" unicode="6" horiz-adv-x="410" 
d="M84 46q-43 57 -43 178v238q0 104 40 157q45 58 127 58q72 0 115 -45.5t43 -121.5v-16h-97v16q0 75 -62 75q-39 0 -55 -31q-14 -29 -14 -110v-83q40 53 101 53q135 0 135 -201q0 -223 -167 -223q-81 0 -123 56zM206 82q37 0 52.5 28.5t15.5 94.5q0 63 -15.5 90t-50.5 27
q-37 0 -70 -41v-91q0 -108 68 -108z" />
    <glyph glyph-name="seven" unicode="7" horiz-adv-x="410" 
d="M108 0l147 577h-217v90h320v-71l-149 -596h-101z" />
    <glyph glyph-name="eight" unicode="8" horiz-adv-x="410" 
d="M80 40q-44 51 -44 150q0 69 18.5 106t62.5 55q-40 19 -56.5 52t-16.5 95q0 86 41.5 132.5t119.5 46.5t119.5 -46.5t41.5 -132.5q0 -61 -16 -94t-57 -53q44 -18 62.5 -55t18.5 -106q0 -99 -44 -150q-45 -50 -125 -50t-125 50zM205 396q64 0 64 93q0 96 -64 96t-64 -94
q0 -95 64 -95zM205 82q69 0 69 108q0 111 -69 111t-69 -109q0 -110 69 -110z" />
    <glyph glyph-name="nine" unicode="9" horiz-adv-x="410" 
d="M45 157v16h97v-16q0 -75 62 -75q40 0 55 31q14 29 14 110v83q-40 -53 -101 -53q-135 0 -135 201q0 223 167 223q81 0 123 -56q43 -57 43 -178v-238q0 -104 -40 -157q-45 -58 -127 -58q-72 0 -115 45.5t-43 121.5zM203 345q37 0 70 41v91q0 108 -68 108q-37 0 -52.5 -28.5
t-15.5 -94.5q0 -63 15.5 -90t50.5 -27z" />
    <glyph glyph-name="colon" unicode=":" horiz-adv-x="173" 
d="M38 390v107h97v-107h-97zM38 0v107h97v-107h-97z" />
    <glyph glyph-name="semicolon" unicode=";" horiz-adv-x="173" 
d="M38 390v107h97v-107h-97zM38 0v107h97v-107l-59 -138h-38l44 138h-44z" />
    <glyph glyph-name="less" unicode="&#x3c;" horiz-adv-x="500" 
d="M33 293v86l433 212v-101l-325 -154l325 -155v-100z" />
    <glyph glyph-name="equal" unicode="=" horiz-adv-x="410" 
d="M38 384v79h335v-79h-335zM38 217v79h335v-79h-335z" />
    <glyph glyph-name="greater" unicode="&#x3e;" horiz-adv-x="500" 
d="M34 81v101l325 154l-324 155l-1 100l433 -212v-87z" />
    <glyph glyph-name="question" unicode="?" horiz-adv-x="355" 
d="M132 203q-1 11 -1 27q0 75 12.5 120t55.5 121q27 49 27 75q0 19 -12 31t-32 12q-23 0 -39 -18.5t-30 -61.5l-93 27q22 72 62 105t105 33q63 0 102 -36t39 -94q0 -29 -10.5 -54t-39.5 -68q-40 -60 -51 -94t-11 -95v-30h-84zM127 0v107h97v-107h-97z" />
    <glyph glyph-name="at" unicode="@" horiz-adv-x="471" 
d="M108 31q-26 21 -41 56.5t-15 74.5v349q0 80 49.5 123t140.5 43q88 0 138 -42.5t50 -118.5v-339h-63l-12 28q-34 -38 -75 -38q-80 0 -80 84v188q0 43 23 67t64 24q31 0 60 -26v21q0 36 -28.5 57.5t-75.5 21.5q-48 0 -79 -26q-17 -13 -23 -30.5t-6 -52.5v-311q0 -56 19 -80
q32 -41 94 -41q55 0 99 32l50 -46q-56 -59 -150 -59q-88 0 -139 41zM315 235q18 0 25 8.5t7 29.5v151q0 22 -7 30t-25 8t-25 -8.5t-7 -29.5v-151q0 -21 7 -29.5t25 -8.5z" />
    <glyph glyph-name="A" unicode="A" horiz-adv-x="451" 
d="M27 0l128 667h141l135 -667h-106l-28 145h-142l-27 -145h-101zM171 240h109l-55 299z" />
    <glyph glyph-name="B" unicode="B" horiz-adv-x="456" 
d="M51 0v667h154q94 0 144.5 -44t50.5 -125q0 -115 -110 -149q67 -19 96.5 -56.5t29.5 -103.5q0 -89 -52.5 -139t-145.5 -50h-167zM154 395h37q47 0 75.5 25.5t28.5 68.5q0 39 -25 62q-24 21 -77 21h-39v-177zM154 95h52q49 0 76 24.5t27 69.5q0 50 -32 80.5t-86 30.5h-37
v-205z" />
    <glyph glyph-name="C" unicode="C" horiz-adv-x="444" 
d="M76 64q-19 31 -25.5 68t-6.5 111v187q0 79 8 116.5t31 68.5q45 62 141 62q86 0 133.5 -54.5t47.5 -152.5v-20h-103v14q0 116 -79 116q-41 0 -60 -33q-16 -29 -16 -96v-222q0 -69 11 -99q17 -43 67 -43q80 0 80 130q0 10 -1 17h104v-23q0 -108 -46.5 -164.5t-136.5 -56.5
q-104 0 -149 74z" />
    <glyph glyph-name="D" unicode="D" horiz-adv-x="450" 
d="M51 0v667h163q98 0 145.5 -51.5t47.5 -157.5v-249q0 -106 -47.5 -157.5t-145.5 -51.5h-163zM154 95h51q55 0 77 32t22 110v193q0 79 -22 110.5t-77 31.5h-51v-477z" />
    <glyph glyph-name="E" unicode="E" horiz-adv-x="373" 
d="M51 0v667h302v-95h-199v-176h147v-95h-147v-206h199v-95h-302z" />
    <glyph glyph-name="F" unicode="F" horiz-adv-x="367" 
d="M51 0v667h305v-95h-202v-180h150v-95h-150v-297h-103z" />
    <glyph glyph-name="G" unicode="G" horiz-adv-x="448" 
d="M73 68q-29 57 -29 178v184q0 79 8 116t31 69q45 62 141 62q111 0 157 -89q24 -47 24 -138h-103q0 68 -19 99t-60 31q-43 0 -61 -34q-15 -28 -15 -96v-204q0 -75 11 -109q18 -50 70 -50q41 0 59 31t18 101v27h-85v85h188v-331h-53l-19 57q-47 -67 -125 -67q-46 0 -82 20.5
t-56 57.5z" />
    <glyph glyph-name="H" unicode="H" horiz-adv-x="454" 
d="M51 0v667h103v-278h147v278h103v-667h-103v294h-147v-294h-103z" />
    <glyph glyph-name="I" unicode="I" horiz-adv-x="205" 
d="M51 0v667h103v-667h-103z" />
    <glyph glyph-name="J" unicode="J" horiz-adv-x="259" 
d="M13 0v97h24q38 0 53 16.5t15 57.5v496h103v-504q0 -52 -6 -79t-23 -47q-30 -37 -104 -37h-62z" />
    <glyph glyph-name="K" unicode="K" horiz-adv-x="444" 
d="M51 0v667h103v-276l149 276h111l-141 -242l161 -425h-113l-112 315l-55 -93v-222h-103z" />
    <glyph glyph-name="L" unicode="L" horiz-adv-x="372" 
d="M51 0v667h103v-572h205v-95h-308z" />
    <glyph glyph-name="M" unicode="M" horiz-adv-x="587" 
d="M51 0v667h151l92 -419l93 419h149v-667h-98v491l-116 -491h-58l-115 491v-491h-98z" />
    <glyph glyph-name="N" unicode="N" horiz-adv-x="471" 
d="M51 0v667h104l168 -415v415h98v-667h-92l-180 444v-444h-98z" />
    <glyph glyph-name="O" unicode="O" horiz-adv-x="452" 
d="M82 54q-38 53 -38 158v243q0 105 38 158q46 64 144 64t144 -64q38 -53 38 -158v-243q0 -105 -38 -158q-47 -64 -144 -64t-144 64zM160 123q20 -36 66 -36t66 36q13 24 13 91v239q0 66 -13 91q-20 36 -66 36t-66 -36q-13 -26 -13 -91v-239q0 -65 13 -91z" />
    <glyph glyph-name="P" unicode="P" horiz-adv-x="435" 
d="M51 0v667h171q96 0 140 -43q53 -50 53 -156q0 -105 -53 -155q-44 -43 -140 -43h-68v-270h-103zM154 365h45q62 0 85.5 22.5t23.5 81.5t-23.5 81t-85.5 22h-45v-207z" />
    <glyph glyph-name="Q" unicode="Q" horiz-adv-x="452" 
d="M82 54q-38 53 -38 158v243q0 105 38 158q46 64 144 64t144 -64q38 -53 38 -158v-243q0 -91 -25 -137q16 -25 55 -28v-96q-90 0 -125 56q-44 -17 -89 -17q-95 0 -142 64zM160 123q20 -36 66 -36t66 36q13 24 13 91v239q0 66 -13 91q-20 36 -66 36t-66 -36q-13 -26 -13 -91
v-239q0 -65 13 -91z" />
    <glyph glyph-name="R" unicode="R" horiz-adv-x="439" 
d="M51 0v667h161q86 0 132 -40q60 -51 60 -151q0 -126 -90 -173l98 -303h-108l-88 274h-62v-274h-103zM154 369h38q59 0 80 21q25 25 25 80q0 56 -25 81q-21 21 -80 21h-38v-203z" />
    <glyph glyph-name="S" unicode="S" horiz-adv-x="426" 
d="M20 178l99 29q20 -120 103 -120q34 0 55 21t21 55q0 31 -20 57t-79 73q-69 55 -85.5 70t-36.5 39q-37 48 -37 111q0 72 49 118t125 46q144 0 187 -167l-99 -29q-24 99 -88 99q-29 0 -48 -19.5t-19 -48.5q0 -37 28 -67q17 -18 88 -73q71 -56 99 -90q43 -53 43 -122
q0 -76 -50.5 -123t-132.5 -47q-171 0 -202 188z" />
    <glyph glyph-name="T" unicode="T" horiz-adv-x="375" 
d="M136 0v572h-129v95h362v-95h-130v-572h-103z" />
    <glyph glyph-name="U" unicode="U" horiz-adv-x="454" 
d="M89 50q-38 52 -38 165v452h103v-469q0 -58 17.5 -84.5t56.5 -26.5t56 26t17 85v469h103v-452q0 -113 -38 -165q-46 -60 -139 -60t-138 60z" />
    <glyph glyph-name="V" unicode="V" horiz-adv-x="433" 
d="M160 0l-143 667h107l100 -507l88 507h105l-129 -667h-128z" />
    <glyph glyph-name="W" unicode="W" horiz-adv-x="637" 
d="M145 0l-125 667h100l76 -430l80 430h89l88 -430l67 430h97l-113 -667h-96l-86 452l-81 -452h-96z" />
    <glyph glyph-name="X" unicode="X" horiz-adv-x="450" 
d="M13 0l149 348l-143 319h114l89 -214l83 214h112l-137 -319l156 -348h-114l-102 243l-94 -243h-113z" />
    <glyph glyph-name="Y" unicode="Y" horiz-adv-x="440" 
d="M167 0v260l-150 407h114l89 -282l92 282h112l-154 -407v-260h-103z" />
    <glyph glyph-name="Z" unicode="Z" horiz-adv-x="389" 
d="M20 0v97l233 475h-211v95h324v-95l-232 -477h235v-95h-349z" />
    <glyph glyph-name="bracketleft" unicode="[" horiz-adv-x="262" 
d="M49 -95v762h173v-87h-78v-588h78v-87h-173z" />
    <glyph glyph-name="backslash" unicode="\" horiz-adv-x="371" 
d="M270 -67l-247 734h84l247 -734h-84z" />
    <glyph glyph-name="bracketright" unicode="]" horiz-adv-x="262" 
d="M39 -8h79v588h-79v87h174v-762h-174v87z" />
    <glyph glyph-name="asciicircum" unicode="^" horiz-adv-x="500" 
d="M26 366l167 303h114l167 -303h-93l-132 234l-130 -234h-93z" />
    <glyph glyph-name="underscore" unicode="_" horiz-adv-x="500" 
d="M0 -66h500v-64h-500v64z" />
    <glyph glyph-name="grave" unicode="`" horiz-adv-x="500" 
d="M221 578l-72 89h97l45 -89h-70z" />
    <glyph glyph-name="a" unicode="a" horiz-adv-x="396" 
d="M37 125q0 47 19 78.5t62 58.5q30 19 132 63v26q0 38 -11.5 54.5t-37.5 16.5t-39 -16.5t-16 -54.5h-98q6 74 48.5 113.5t117.5 39.5q70 0 102 -38q16 -18 21.5 -40.5t5.5 -69.5v-221q0 -90 11 -135h-96q-8 22 -8 58q-34 -37 -58 -51t-54 -14q-47 0 -74 35t-27 97zM135 131
q0 -25 13.5 -40.5t33.5 -15.5q40 0 68 45v136q-62 -33 -88.5 -62t-26.5 -63z" />
    <glyph glyph-name="b" unicode="b" horiz-adv-x="387" 
d="M43 0v667h93v-219q59 56 110 56q57 0 80 -51q20 -43 20 -145v-119q0 -103 -20 -145q-23 -51 -80 -51q-51 0 -110 56v-49h-93zM136 100q37 -25 65 -25q32 0 43 26q9 19 9 82v131q0 63 -9 82q-11 26 -43 26q-30 0 -65 -25v-297z" />
    <glyph glyph-name="c" unicode="c" horiz-adv-x="377" 
d="M71 42q-31 42 -31 134v144q0 93 31 135q38 52 125 52q78 0 118 -45q35 -38 35 -119v-18h-93v13q0 84 -60 84q-37 0 -51 -27q-12 -23 -12 -87v-120q0 -63 12 -86q14 -27 51 -27q60 0 60 87v14h93v-19q0 -83 -35 -121q-41 -46 -118 -46q-87 0 -125 52z" />
    <glyph glyph-name="d" unicode="d" horiz-adv-x="387" 
d="M60 44q-20 43 -20 145v119q0 102 20 145q23 51 80 51q51 0 110 -56v219h93v-667h-93v49q-60 -56 -110 -56q-57 0 -80 51zM142 101q11 -26 43 -26q30 0 65 25v297q-37 25 -65 25q-32 0 -43 -26q-9 -19 -9 -82v-131q0 -63 9 -82z" />
    <glyph glyph-name="e" unicode="e" horiz-adv-x="389" 
d="M71 42q-31 44 -31 135v148q0 60 8.5 89.5t31.5 51.5q41 41 113 41q77 0 117 -46q21 -24 29.5 -56.5t8.5 -89.5v-82h-215v-44q0 -64 12 -87q14 -27 51 -27q44 0 56 42q4 15 4 55h93q-1 -85 -19 -115q-39 -67 -134 -67q-87 0 -125 52zM133 315h122v27q0 44 -14.5 63.5
t-46.5 19.5t-46.5 -19.5t-14.5 -63.5v-27z" />
    <glyph glyph-name="f" unicode="f" horiz-adv-x="245" 
d="M73 0v414h-67v83h67v47q0 45 6.5 67.5t24.5 37.5q29 25 86 25q27 0 62 -7v-87q-28 9 -42 9q-25 0 -34.5 -14t-9.5 -51v-27h78v-83h-78v-414h-93z" />
    <glyph glyph-name="g" unicode="g" horiz-adv-x="404" 
d="M43 60q0 28 17.5 45.5t59.5 31.5q-44 23 -63.5 65t-19.5 112q0 93 39 141.5t114 48.5q42 0 70 -14.5t51 -48.5q18 64 87 61v-99q-14 13 -32 13q-21 0 -36 -19q10 -37 10 -83q0 -93 -38.5 -142t-111.5 -49q-15 0 -36 4q-22 -11 -22 -29q0 -16 20 -22q13 -3 77 -6
q82 -5 117 -27q47 -30 47 -96q0 -64 -48 -94t-150 -30q-172 0 -172 90q0 29 18.5 48.5t59.5 33.5q-58 23 -58 65zM188 205q57 0 57 81v55q0 81 -56 81q-57 0 -57 -81v-55q0 -81 56 -81zM118 -58q0 -22 21.5 -31.5t70.5 -9.5q95 0 95 43q0 26 -39 33q-20 3 -74 5q-26 2 -49 5
l-3 -3q-22 -18 -22 -42z" />
    <glyph glyph-name="h" unicode="h" horiz-adv-x="385" 
d="M43 0v667h93v-234q61 71 124 71q81 0 81 -116v-388h-93v364q0 33 -8 45.5t-28 12.5q-40 0 -76 -50v-372h-93z" />
    <glyph glyph-name="i" unicode="i" horiz-adv-x="180" 
d="M43 570v97h93v-97h-93zM43 0v497h93v-497h-93z" />
    <glyph glyph-name="j" unicode="j" horiz-adv-x="193" 
d="M57 570v97h93v-97h-93zM57 13v484h93v-504q0 -50 -6 -74.5t-22 -43.5q-36 -42 -106 -42q-20 0 -40 5v90q21 -3 29 -3q28 0 40 20t12 68z" />
    <glyph glyph-name="k" unicode="k" horiz-adv-x="374" 
d="M43 0v667h93v-369l112 199h106l-101 -162l110 -335h-104l-70 232l-53 -84v-148h-93z" />
    <glyph glyph-name="l" unicode="l" horiz-adv-x="180" 
d="M43 0v667h93v-667h-93z" />
    <glyph glyph-name="m" unicode="m" horiz-adv-x="589" 
d="M43 0v497h93v-64q61 71 124 71q64 0 78 -71q62 71 126 71q82 0 82 -116v-388h-93v364q0 33 -8 45.5t-28 12.5q-40 0 -76 -50v-372h-93v364q0 33 -8 45.5t-28 12.5q-40 0 -76 -50v-372h-93z" />
    <glyph glyph-name="n" unicode="n" horiz-adv-x="385" 
d="M43 0v497h93v-64q61 71 124 71q81 0 81 -116v-388h-93v364q0 33 -8 45.5t-28 12.5q-40 0 -76 -50v-372h-93z" />
    <glyph glyph-name="o" unicode="o" horiz-adv-x="385" 
d="M79 31q-22 22 -30.5 52.5t-8.5 88.5v153q0 59 8.5 89.5t30.5 52.5q40 40 114 40q71 0 113 -40q22 -22 30.5 -52.5t8.5 -89.5v-153q0 -59 -8.5 -89t-30.5 -52q-41 -41 -113 -41q-73 0 -114 41zM192 75q31 0 45.5 22t14.5 69v165q0 91 -59 91q-31 0 -45.5 -22t-14.5 -69
v-165q0 -91 59 -91z" />
    <glyph glyph-name="p" unicode="p" horiz-adv-x="387" 
d="M136 49v-219h-93v667h93v-49q60 56 110 56q57 0 80 -51q20 -43 20 -145v-119q0 -103 -20 -145q-23 -51 -80 -51q-51 0 -110 56zM136 100q37 -25 65 -25q32 0 43 26q9 19 9 82v131q0 63 -9 82q-11 26 -43 26q-30 0 -65 -25v-297z" />
    <glyph glyph-name="q" unicode="q" horiz-adv-x="387" 
d="M60 44q-20 43 -20 145v119q0 102 20 145q23 51 80 51q51 0 110 -56v49h93v-667h-93v219q-59 -56 -110 -56q-57 0 -80 51zM142 101q11 -26 43 -26q30 0 65 25v297q-35 25 -65 25q-32 0 -43 -26q-9 -19 -9 -82v-131q0 -63 9 -82z" />
    <glyph glyph-name="r" unicode="r" horiz-adv-x="255" 
d="M43 0v497h93v-86q19 49 47 71t72 22v-108q-23 9 -45 9q-38 0 -58 -26q-16 -21 -16 -80v-299h-93z" />
    <glyph glyph-name="s" unicode="s" horiz-adv-x="362" 
d="M20 130l87 30q15 -46 34.5 -65.5t48.5 -19.5q23 0 38 14t15 36q0 21 -15 37t-55 38q-82 46 -109 74q-36 38 -36 94q0 60 41 99.5t104 39.5q115 0 161 -120l-85 -37q-14 39 -32 55.5t-45 16.5q-22 0 -35.5 -12t-13.5 -32t15.5 -35t68.5 -44q74 -41 101 -68q35 -37 35 -94
q0 -66 -42.5 -106.5t-110.5 -40.5q-64 0 -105 34t-65 106z" />
    <glyph glyph-name="t" unicode="t" horiz-adv-x="273" 
d="M106 30q-13 16 -18 39t-5 70v275h-72v83h72v136h93v-136h85v-83h-85v-265q0 -38 13.5 -54.5t44.5 -16.5q12 0 36 6v-84q-36 -7 -63 -7q-71 0 -101 37z" />
    <glyph glyph-name="u" unicode="u" horiz-adv-x="385" 
d="M43 109v388h93v-364q0 -33 8 -45.5t28 -12.5q40 0 76 50v372h93v-497h-93v64q-61 -71 -124 -71q-81 0 -81 116z" />
    <glyph glyph-name="v" unicode="v" horiz-adv-x="351" 
d="M132 0l-122 497h99l71 -316l63 316h98l-111 -497h-98z" />
    <glyph glyph-name="w" unicode="w" horiz-adv-x="540" 
d="M119 0l-106 497h95l60 -310l61 310h85l63 -310l56 310h94l-105 -497h-88l-64 305l-63 -305h-88z" />
    <glyph glyph-name="x" unicode="x" horiz-adv-x="368" 
d="M13 0l115 260l-107 237h101l61 -153l58 153h100l-103 -237l117 -260h-102l-71 176l-70 -176h-99z" />
    <glyph glyph-name="y" unicode="y" horiz-adv-x="354" 
d="M25 -81q6 -1 15 -1q39 0 62.5 22.5t23.5 59.5q0 15 -7 43l-109 454h98l73 -339l67 339h96l-108 -476q-28 -123 -67.5 -160.5t-143.5 -37.5v96z" />
    <glyph glyph-name="z" unicode="z" horiz-adv-x="341" 
d="M23 0v93l188 314h-172v90h279v-93l-188 -314h188v-90h-295z" />
    <glyph glyph-name="braceleft" unicode="{" horiz-adv-x="293" 
d="M79 53v101q0 44 -13 65t-44 29v79q31 8 44 29t13 61v113q0 74 36 107q21 20 48 25t108 5v-92q-58 -1 -77 -18.5t-19 -69.5v-86q0 -48 -12 -73t-44 -42q31 -18 43.5 -44t12.5 -74v-84q0 -55 19 -73t77 -19v-86q-85 0 -111 5.5t-47 26.5q-34 34 -34 115z" />
    <glyph glyph-name="bar" unicode="|" horiz-adv-x="500" 
d="M199 -167v834h102v-834h-102z" />
    <glyph glyph-name="braceright" unicode="}" horiz-adv-x="293" 
d="M23 -8q58 1 77 19t19 73v84q0 48 12.5 74t43.5 44q-32 17 -44 42t-12 73v86q0 52 -19 69.5t-77 18.5v92q81 0 108 -5t48 -25q36 -33 36 -107v-113q0 -40 13 -61t44 -29v-79q-31 -8 -44 -29t-13 -65v-101q0 -81 -34 -115q-21 -21 -47 -26.5t-111 -5.5v86z" />
    <glyph glyph-name="asciitilde" unicode="~" horiz-adv-x="667" 
d="M146 571l-52 42q52 120 140 120q37 0 115 -37q64 -31 87 -31q48 0 86 71l52 -42q-51 -119 -149 -119q-19 0 -39 7.5t-77 34.5q-53 25 -79 25q-45 0 -84 -71z" />
    <glyph glyph-name="uni00A0" unicode="&#xa0;" horiz-adv-x="153" 
 />
    <glyph glyph-name="exclamdown" unicode="&#xa1;" horiz-adv-x="217" 
d="M60 390v107h97v-107h-97zM53 -170l24 465h62l24 -465h-110z" />
    <glyph glyph-name="cent" unicode="&#xa2;" horiz-adv-x="410" 
d="M179 -31v108q-71 11 -100 52t-29 132v144q0 67 14 104t47 59q28 18 68 22v100h53v-100q40 -4 71 -25q30 -20 43 -52t13 -85v-18h-94q1 6 1 13q0 84 -60 84q-37 0 -51 -27q-12 -23 -12 -87v-120q0 -63 12 -86q14 -27 51 -27q60 0 60 87q0 8 -1 14h94v-19
q0 -78 -29.5 -116.5t-97.5 -48.5v-108h-53z" />
    <glyph glyph-name="sterling" unicode="&#xa3;" horiz-adv-x="410" 
d="M12 54q40 73 96 79q25 36 25 73q0 33 -25 86h-85v61h63q-25 70 -32.5 98.5t-7.5 59.5q0 77 45 121.5t121 44.5q49 0 86.5 -21.5t56.5 -60.5q19 -38 19 -109h-96q-2 52 -17.5 75.5t-49.5 23.5q-30 0 -48 -19.5t-18 -51.5q0 -31 30 -119l8 -24l6 -18h116v-61h-96
q16 -47 16 -84q0 -45 -31 -91q57 -21 69 -21q20 0 32 21.5t12 57.5h88q0 -85 -30.5 -133.5t-83.5 -48.5q-34 0 -101 32q-27 13 -40 13q-30 0 -65 -48z" />
    <glyph glyph-name="currency" unicode="&#xa4;" horiz-adv-x="416" 
d="M94 167l-56 56l44 44q-17 34 -17 66q0 37 19 72l-42 42l58 58l43 -44q35 17 66 17q33 0 67 -17l47 47l56 -56l-46 -46q20 -33 20 -72q0 -35 -16 -66l42 -43l-57 -57l-41 41q-34 -19 -72 -19q-35 0 -72 19zM209 257q31 0 54 22.5t23 52.5q0 32 -23 55t-55 23
q-31 0 -53.5 -22.5t-22.5 -53.5q0 -32 23 -54.5t54 -22.5z" />
    <glyph glyph-name="yen" unicode="&#xa5;" horiz-adv-x="410" 
d="M154 0v285h-99v61h77l-114 321h102l84 -283l88 283h99l-117 -321h76v-61h-98v-285h-98z" />
    <glyph glyph-name="brokenbar" unicode="&#xa6;" horiz-adv-x="500" 
d="M199 327v340h102v-340h-102zM199 153h102v-320h-102v320z" />
    <glyph glyph-name="section" unicode="&#xa7;" horiz-adv-x="410" 
d="M67 76q0 10 2 20h92q0 -3 -0.5 -6t-1 -5t-0.5 -4v-3q0 -23 12 -36.5t32 -13.5q15 0 24 9t9 24t-18 36l-119 132q-39 44 -52.5 68.5t-13.5 52.5q0 75 100 109l-10 13q-28 36 -36.5 53t-8.5 41q0 49 36 80t93 31q60 0 96 -35t36 -94q0 -17 -2 -31h-91v22q0 55 -40 55
q-14 0 -23.5 -8.5t-9.5 -21.5q0 -11 25 -41l140 -161q39 -45 39 -93q0 -85 -87 -118l11 -12q30 -33 30 -81q0 -52 -35 -83.5t-93 -31.5q-64 0 -100 35.5t-36 97.5zM244 207q38 17 38 55q0 24 -27 55l-82 92q-45 -21 -45 -51q0 -23 20 -45z" />
    <glyph glyph-name="dieresis" unicode="&#xa8;" horiz-adv-x="500" 
d="M283 578v89h87v-89h-87zM130 578v89h87v-89h-87z" />
    <glyph glyph-name="copyright" unicode="&#xa9;" horiz-adv-x="778" 
d="M44 333q0 145 102 245.5t248 100.5q139 0 239.5 -102t100.5 -244q0 -143 -101 -244t-244 -101t-244 101t-101 244zM104 333q0 -119 84 -204t201 -85q118 0 201.5 85t83.5 205q0 118 -83 203.5t-198 85.5q-121 0 -205 -84t-84 -206zM297 174q-19 32 -19 108v110
q0 47 5 69.5t19 41.5q28 38 86 38q110 0 110 -141h-67q-2 42 -8 53q-11 24 -36 24q-22 0 -31.5 -16.5t-9.5 -56.5v-130q0 -46 9.5 -63.5t32.5 -17.5q25 0 34 19t10 68h68v-17q0 -65 -28.5 -99.5t-82.5 -34.5q-64 0 -92 45z" />
    <glyph glyph-name="ordfeminine" unicode="&#xaa;" horiz-adv-x="263" 
d="M93 263q-31 0 -48.5 21.5t-17.5 59.5q0 53 53 84q14 9 79 36v13q0 22 -6 30.5t-20 8.5q-28 0 -31 -42h-69q8 97 108 97q43 0 66 -24q18 -19 18 -67v-130q0 -56 8 -83h-68q-3 9 -6 29q-33 -33 -66 -33zM121 318q22 0 38 24v73q-63 -33 -63 -67q0 -13 7 -21.5t18 -8.5z" />
    <glyph glyph-name="guillemotleft" unicode="&#xab;" horiz-adv-x="309" 
d="M173 178v144l103 85v-120l-38 -37l38 -37v-120zM136 93l-103 85v144l103 85v-120l-38 -37l38 -37v-120z" />
    <glyph glyph-name="logicalnot" unicode="&#xac;" horiz-adv-x="500" 
d="M33 193v89h433v-282h-99v193h-334z" />
    <glyph glyph-name="uni00AD" unicode="&#xad;" horiz-adv-x="143" 
d="M0 212v83h143v-83h-143z" />
    <glyph glyph-name="registered" unicode="&#xae;" horiz-adv-x="778" 
d="M44 333q0 145 101.5 245.5t248.5 100.5q139 0 239.5 -102t100.5 -244q0 -143 -101 -244t-244 -101t-244 101t-101 244zM104 333q0 -119 84 -204t201 -85q118 0 201.5 85t83.5 204t-83 204.5t-198 85.5q-121 0 -205 -84t-84 -206zM288 132v400h99q57 0 87 -30t30 -86
q0 -77 -53 -104l59 -180h-71l-52 161h-31v-161h-68zM356 356h19q33 0 46 12.5t13 44.5q0 31 -13 43.5t-46 12.5h-19v-113z" />
    <glyph glyph-name="macron" unicode="&#xaf;" horiz-adv-x="500" 
d="M148 589v67h205v-67h-205z" />
    <glyph glyph-name="degree" unicode="&#xb0;" horiz-adv-x="380" 
d="M191 386q-60 0 -102 42t-42 101q0 60 42 102.5t102 42.5t101.5 -42.5t41.5 -103.5q0 -58 -42 -100t-101 -42zM190 453q31 0 54 22.5t23 52.5q0 32 -22.5 55t-55.5 23q-30 0 -52.5 -22.5t-22.5 -53.5t22.5 -54t53.5 -23z" />
    <glyph glyph-name="plusminus" unicode="&#xb1;" horiz-adv-x="410" 
d="M165 173v126h-127v79h127v122h81v-122h127v-79h-127v-126h-81zM38 48v79h335v-79h-335z" />
    <glyph glyph-name="two.superior" unicode="&#xb2;" 
d="M25 266v58q100 120 126.5 161.5t26.5 79.5q0 47 -38 47q-42 0 -42 -52v-15h-69v17q0 52 30 81.5t83 29.5q50 0 78.5 -29t28.5 -79q0 -48 -28 -92q-20 -33 -96 -125q-6 -8 -18 -22h133v-60h-215z" />
    <glyph glyph-name="three.superior" unicode="&#xb3;" 
d="M136 260q-51 0 -81 30t-30 81q0 9 1 14h70v-11q0 -53 41 -53t41 63q0 35 -13 48t-48 14v62q35 1 46.5 11t11.5 41q0 52 -37 52q-20 0 -29 -12t-9 -40h-69v10q0 46 30 74.5t78 28.5q49 0 76 -29.5t27 -82.5q0 -63 -45 -83q52 -15 52 -93q0 -59 -29.5 -92t-83.5 -33z" />
    <glyph glyph-name="acute" unicode="&#xb4;" horiz-adv-x="500" 
d="M202 578l46 89h96l-72 -89h-70z" />
    <glyph glyph-name="mu" unicode="&#xb5;" horiz-adv-x="385" 
d="M136 24v-194h-93v667h93v-353q0 -41 10.5 -58.5t36.5 -17.5q37 0 65 62v367h93v-497h-93v57q-26 -64 -68 -64q-28 0 -44 31z" />
    <glyph glyph-name="paragraph" unicode="&#xb6;" horiz-adv-x="418" 
d="M189 -100v420q-63 2 -106 52t-43 120q0 77 47.5 126t121.5 49h172v-30h-40v-737h-48v737h-55v-737h-49z" />
    <glyph glyph-name="periodcentered" unicode="&#xb7;" horiz-adv-x="173" 
d="M38 200v107h97v-107h-97z" />
    <glyph glyph-name="cedilla" unicode="&#xb8;" horiz-adv-x="500" 
d="M210 -46h80v-68l-22 -56h-47l17 56h-28v68z" />
    <glyph glyph-name="one.superior" unicode="&#xb9;" 
d="M118 267v301h-62v42q63 25 89 57h42v-400h-69z" />
    <glyph glyph-name="ordmasculine" unicode="&#xba;" horiz-adv-x="256" 
d="M128 261q-46 0 -73 25q-26 23 -26 85v91q0 63 26 86q27 25 73 25q45 0 72 -25q26 -23 26 -86v-91q0 -62 -26 -85q-27 -25 -72 -25zM127 318q33 0 33 50v97q0 51 -32 51q-33 0 -33 -51v-97q0 -50 32 -50z" />
    <glyph glyph-name="guillemotright" unicode="&#xbb;" horiz-adv-x="309" 
d="M173 93v120l38 37l-38 37v120l103 -85v-144zM33 93v120l38 37l-38 37v120l103 -85v-144z" />
    <glyph glyph-name="onequarter" unicode="&#xbc;" horiz-adv-x="673" 
d="M183 -33l250 733h57l-255 -733h-52zM118 267v301h-62v42q63 25 89 57h42v-400h-69zM409 100v66l128 234h73v-240h48v-60h-48v-100h-69v100h-132zM471 158h72v145z" />
    <glyph glyph-name="onehalf" unicode="&#xbd;" horiz-adv-x="673" 
d="M183 -33l250 733h57l-255 -733h-52zM118 267v301h-62v42q63 25 89 57h42v-400h-69zM421 0v58q99 118 126 160.5t27 80.5q0 46 -38 46q-42 0 -42 -51v-15h-69v17q0 52 30 81t83 29q50 0 78.5 -29t28.5 -79q0 -47 -28 -91q-20 -33 -96 -125q-5 -8 -18 -22h133v-60h-215z
" />
    <glyph glyph-name="threequarters" unicode="&#xbe;" horiz-adv-x="673" 
d="M184 -33l250 733h56l-254 -733h-52zM136 260q-51 0 -81 30t-30 81q0 9 1 14h70v-11q0 -53 41 -53t41 63q0 35 -13 48t-48 14v62q35 1 46.5 11t11.5 41q0 52 -37 52q-20 0 -29 -12t-9 -40h-69v10q0 46 30 74.5t78 28.5q49 0 76 -29.5t27 -82.5q0 -63 -45 -83
q52 -15 52 -93q0 -59 -29.5 -92t-83.5 -33zM410 100v66l127 234h73v-240h49v-60h-49v-100h-69v100h-131zM472 158h71v145z" />
    <glyph glyph-name="questiondown" unicode="&#xbf;" horiz-adv-x="355" 
d="M131 390v107h97v-107h-97zM27 -47q0 28 10.5 53t39.5 69q44 66 53.5 99.5t8.5 119.5h85v-27q0 -75 -12.5 -120t-55.5 -121q-27 -49 -27 -75q0 -19 12 -31t32 -12q23 0 39 18.5t30 61.5l93 -27q-22 -72 -62 -105t-105 -33q-63 0 -102 36t-39 94z" />
    <glyph glyph-name="Agrave" unicode="&#xc0;" horiz-adv-x="451" 
d="M193 720l-72 89h97l45 -89h-70zM27 0l128 667h141l135 -667h-106l-28 145h-142l-27 -145h-101zM171 240h109l-55 299z" />
    <glyph glyph-name="Aacute" unicode="&#xc1;" horiz-adv-x="451" 
d="M195 720l46 89h96l-72 -89h-70zM27 0l128 667h141l135 -667h-106l-28 145h-142l-27 -145h-101zM171 240h109l-55 299z" />
    <glyph glyph-name="Acircumflex" unicode="&#xc2;" horiz-adv-x="451" 
d="M114 720l63 89h104l63 -89h-84l-31 34l-31 -34h-84zM27 0l128 667h141l135 -667h-106l-28 145h-142l-27 -145h-101zM171 240h109l-55 299z" />
    <glyph glyph-name="Atilde" unicode="&#xc3;" horiz-adv-x="451" 
d="M132 725v69q27 15 58 15q23 0 44 -8q34 -12 49 -12q19 0 49 18v-70q-30 -17 -49 -17q-15 0 -49 12q-21 8 -44 8q-31 0 -58 -15zM27 0l128 667h141l135 -667h-106l-28 145h-142l-27 -145h-101zM171 240h109l-55 299z" />
    <glyph glyph-name="Adieresis" unicode="&#xc4;" horiz-adv-x="451" 
d="M259 720v89h87v-89h-87zM106 720v89h87v-89h-87zM27 0l128 667h141l135 -667h-106l-28 145h-142l-27 -145h-101zM171 240h109l-55 299z" />
    <glyph glyph-name="Aring" unicode="&#xc5;" horiz-adv-x="451" 
d="M232 707q-31 0 -52.5 20.5t-21.5 49.5t21.5 49t52.5 20q30 0 51.5 -20.5t21.5 -48.5q0 -29 -21.5 -49.5t-51.5 -20.5zM232 742q15 0 25.5 10.5t10.5 24.5q0 13 -11 23.5t-25 10.5q-15 0 -26 -10t-11 -24t11 -24.5t26 -10.5zM27 0l128 667h141l135 -667h-106l-28 145h-142
l-27 -145h-101zM171 240h109l-55 299z" />
    <glyph glyph-name="AE" unicode="&#xc6;" horiz-adv-x="635" 
d="M4 0l254 667h357v-95h-199v-176h146v-95h-146v-206h199v-95h-302v145h-143l-55 -145h-111zM205 240h108v299z" />
    <glyph glyph-name="Ccedilla" unicode="&#xc7;" horiz-adv-x="444" 
d="M76 64q-19 31 -25.5 68t-6.5 111v187q0 79 8 116.5t31 68.5q45 62 141 62q86 0 133.5 -54.5t47.5 -152.5v-20h-103v14q0 116 -79 116q-41 0 -60 -33q-16 -29 -16 -96v-222q0 -69 11 -99q17 -43 67 -43q80 0 80 130q0 10 -1 17h104v-23q0 -108 -46.5 -164.5t-136.5 -56.5
q-104 0 -149 74zM183 -46h80v-68l-22 -56h-47l17 56h-28v68z" />
    <glyph glyph-name="Egrave" unicode="&#xc8;" horiz-adv-x="373" 
d="M168 720l-72 89h97l45 -89h-70zM51 0v667h302v-95h-199v-176h147v-95h-147v-206h199v-95h-302z" />
    <glyph glyph-name="Eacute" unicode="&#xc9;" horiz-adv-x="373" 
d="M166 720l46 89h96l-72 -89h-70zM51 0v667h302v-95h-199v-176h147v-95h-147v-206h199v-95h-302z" />
    <glyph glyph-name="Ecircumflex" unicode="&#xca;" horiz-adv-x="373" 
d="M92 720l63 89h104l63 -89h-84l-31 34l-31 -34h-84zM51 0v667h302v-95h-199v-176h147v-95h-147v-206h199v-95h-302z" />
    <glyph glyph-name="Edieresis" unicode="&#xcb;" horiz-adv-x="373" 
d="M237 720v89h87v-89h-87zM84 720v89h87v-89h-87zM51 0v667h302v-95h-199v-176h147v-95h-147v-206h199v-95h-302z" />
    <glyph glyph-name="Igrave" unicode="&#xcc;" horiz-adv-x="205" 
d="M70 720l-72 89h97l45 -89h-70zM51 0v667h103v-667h-103z" />
    <glyph glyph-name="Iacute" unicode="&#xcd;" horiz-adv-x="205" 
d="M71 720l46 89h96l-72 -89h-70zM51 0v667h103v-667h-103z" />
    <glyph glyph-name="Icircumflex" unicode="&#xce;" horiz-adv-x="205" 
d="M-9 720l63 89h104l63 -89h-84l-31 34l-31 -34h-84zM51 0v667h103v-667h-103z" />
    <glyph glyph-name="Idieresis" unicode="&#xcf;" horiz-adv-x="205" 
d="M132 720v89h87v-89h-87zM-8 720v89h87v-89h-87zM50 0v667h103v-667h-103z" />
    <glyph glyph-name="Eth" unicode="&#xd0;" horiz-adv-x="454" 
d="M54 0v301h-23v95h23v271h163q98 0 145.5 -51.5t47.5 -157.5v-250q0 -106 -47.5 -157t-145.5 -51h-163zM157 95h50q55 0 77.5 32t22.5 110v193q0 78 -22.5 110t-77.5 32h-50v-176h77v-95h-77v-206z" />
    <glyph glyph-name="Ntilde" unicode="&#xd1;" horiz-adv-x="471" 
d="M146 725v69q27 15 58 15q23 0 44 -8q34 -12 49 -12q19 0 49 18v-70q-30 -17 -49 -17q-15 0 -49 12q-21 8 -44 8q-31 0 -58 -15zM51 0v667h104l168 -415v415h98v-667h-92l-180 444v-444h-98z" />
    <glyph glyph-name="Ograve" unicode="&#xd2;" horiz-adv-x="452" 
d="M193 720l-72 89h97l45 -89h-70zM82 54q-38 53 -38 158v243q0 105 38 158q46 64 144 64t144 -64q38 -53 38 -158v-243q0 -105 -38 -158q-47 -64 -144 -64t-144 64zM160 123q20 -36 66 -36t66 36q13 24 13 91v239q0 66 -13 91q-20 36 -66 36t-66 -36q-13 -26 -13 -91v-239
q0 -65 13 -91z" />
    <glyph glyph-name="Oacute" unicode="&#xd3;" horiz-adv-x="452" 
d="M191 720l46 89h96l-72 -89h-70zM82 54q-38 53 -38 158v243q0 105 38 158q46 64 144 64t144 -64q38 -53 38 -158v-243q0 -105 -38 -158q-47 -64 -144 -64t-144 64zM160 123q20 -36 66 -36t66 36q13 24 13 91v239q0 66 -13 91q-20 36 -66 36t-66 -36q-13 -26 -13 -91v-239
q0 -65 13 -91z" />
    <glyph glyph-name="Ocircumflex" unicode="&#xd4;" horiz-adv-x="452" 
d="M114 720l63 89h104l63 -89h-84l-31 34l-31 -34h-84zM82 54q-38 53 -38 158v243q0 105 38 158q46 64 144 64t144 -64q38 -53 38 -158v-243q0 -105 -38 -158q-47 -64 -144 -64t-144 64zM160 123q20 -36 66 -36t66 36q13 24 13 91v239q0 66 -13 91q-20 36 -66 36t-66 -36
q-13 -26 -13 -91v-239q0 -65 13 -91z" />
    <glyph glyph-name="Otilde" unicode="&#xd5;" horiz-adv-x="452" 
d="M136 725v69q27 15 58 15q23 0 44 -8q34 -12 49 -12q19 0 49 18v-70q-30 -17 -49 -17q-15 0 -49 12q-21 8 -44 8q-31 0 -58 -15zM82 54q-38 53 -38 158v243q0 105 38 158q46 64 144 64t144 -64q38 -53 38 -158v-243q0 -105 -38 -158q-47 -64 -144 -64t-144 64zM160 123
q20 -36 66 -36t66 36q13 24 13 91v239q0 66 -13 91q-20 36 -66 36t-66 -36q-13 -26 -13 -91v-239q0 -65 13 -91z" />
    <glyph glyph-name="Odieresis" unicode="&#xd6;" horiz-adv-x="452" 
d="M262 720v89h87v-89h-87zM109 720v89h87v-89h-87zM82 54q-38 53 -38 158v243q0 105 38 158q46 64 144 64t144 -64q38 -53 38 -158v-243q0 -105 -38 -158q-47 -64 -144 -64t-144 64zM160 123q20 -36 66 -36t66 36q13 24 13 91v239q0 66 -13 91q-20 36 -66 36t-66 -36
q-13 -26 -13 -91v-239q0 -65 13 -91z" />
    <glyph glyph-name="multiply" unicode="&#xd7;" horiz-adv-x="410" 
d="M114 195l-56 56l90 90l-87 86l58 58l86 -87l90 90l56 -56l-90 -90l89 -88l-58 -58l-88 88z" />
    <glyph glyph-name="Oslash" unicode="&#xd8;" horiz-adv-x="452" 
d="M75 -22l21 60q-29 31 -40.5 70t-11.5 104v243q0 105 38 158q46 64 144 64q49 0 88 -18l10 29h53l-20 -59q28 -30 39.5 -69.5t11.5 -104.5v-243q0 -105 -38 -158q-47 -64 -143 -64q-47 0 -89 18l-10 -30h-53zM147 185l132 376q-22 20 -54 20q-46 0 -65 -37
q-13 -26 -13 -91v-268zM173 107q20 -20 53 -20q46 0 66 36q13 25 13 91v267z" />
    <glyph glyph-name="Ugrave" unicode="&#xd9;" horiz-adv-x="454" 
d="M195 720l-72 89h97l45 -89h-70zM89 50q-38 52 -38 165v452h103v-469q0 -58 17.5 -84.5t56.5 -26.5t56 26t17 85v469h103v-452q0 -113 -38 -165q-46 -60 -139 -60t-138 60z" />
    <glyph glyph-name="Uacute" unicode="&#xda;" horiz-adv-x="454" 
d="M199 720l46 89h96l-72 -89h-70zM89 50q-38 52 -38 165v452h103v-469q0 -58 17.5 -84.5t56.5 -26.5t56 26t17 85v469h103v-452q0 -113 -38 -165q-46 -60 -139 -60t-138 60z" />
    <glyph glyph-name="Ucircumflex" unicode="&#xdb;" horiz-adv-x="454" 
d="M119 720l63 89h104l63 -89h-84l-31 34l-31 -34h-84zM89 50q-38 52 -38 165v452h103v-469q0 -58 17.5 -84.5t56.5 -26.5t56 26t17 85v469h103v-452q0 -113 -38 -165q-46 -60 -139 -60t-138 60z" />
    <glyph glyph-name="Udieresis" unicode="&#xdc;" horiz-adv-x="454" 
d="M264 720v89h87v-89h-87zM111 720v89h87v-89h-87zM89 50q-38 52 -38 165v452h103v-469q0 -58 17.5 -84.5t56.5 -26.5t56 26t17 85v469h103v-452q0 -113 -38 -165q-46 -60 -139 -60t-138 60z" />
    <glyph glyph-name="Yacute" unicode="&#xdd;" horiz-adv-x="440" 
d="M193 720l46 89h96l-72 -89h-70zM167 0v260l-150 407h114l89 -282l92 282h112l-154 -407v-260h-103z" />
    <glyph glyph-name="Thorn" unicode="&#xde;" horiz-adv-x="435" 
d="M51 0v667h103v-104h68q96 0 140 -43q53 -50 53 -155t-53 -155q-44 -43 -140 -43h-68v-167h-103zM154 262h45q62 0 85.5 22t23.5 81t-23.5 81t-85.5 22h-45v-206z" />
    <glyph glyph-name="germandbls" unicode="&#xdf;" horiz-adv-x="386" 
d="M43 0v491q0 94 34 136q38 47 105 47q58 0 94.5 -36t36.5 -94t-48 -90q48 -17 64 -58t16 -146q0 -155 -32 -202q-32 -50 -100 -50q-6 0 -28 2v91q5 -1 12 -1q30 0 40 31.5t10 124.5q0 69 -6.5 101.5t-23.5 45.5t-52 14v90q55 0 55 48q0 20 -11 32t-29 12q-44 0 -44 -76
v-513h-93z" />
    <glyph glyph-name="agrave" unicode="&#xe0;" horiz-adv-x="396" 
d="M169 578l-72 89h97l45 -89h-70zM37 125q0 47 19 78.5t62 58.5q30 19 132 63v26q0 38 -11.5 54.5t-37.5 16.5t-39 -16.5t-16 -54.5h-98q6 74 48.5 113.5t117.5 39.5q70 0 102 -38q16 -18 21.5 -40.5t5.5 -69.5v-221q0 -90 11 -135h-96q-8 22 -8 58q-34 -37 -58 -51
t-54 -14q-47 0 -74 35t-27 97zM135 131q0 -25 13.5 -40.5t33.5 -15.5q40 0 68 45v136q-62 -33 -88.5 -62t-26.5 -63z" />
    <glyph glyph-name="aacute" unicode="&#xe1;" horiz-adv-x="396" 
d="M180 578l46 89h96l-72 -89h-70zM37 125q0 47 19 78.5t62 58.5q30 19 132 63v26q0 38 -11.5 54.5t-37.5 16.5t-39 -16.5t-16 -54.5h-98q6 74 48.5 113.5t117.5 39.5q70 0 102 -38q16 -18 21.5 -40.5t5.5 -69.5v-221q0 -90 11 -135h-96q-8 22 -8 58q-34 -37 -58 -51
t-54 -14q-47 0 -74 35t-27 97zM135 131q0 -25 13.5 -40.5t33.5 -15.5q40 0 68 45v136q-62 -33 -88.5 -62t-26.5 -63z" />
    <glyph glyph-name="acircumflex" unicode="&#xe2;" horiz-adv-x="396" 
d="M100 578l63 89h104l63 -89h-84l-31 34l-31 -34h-84zM37 125q0 47 19 78.5t62 58.5q30 19 132 63v26q0 38 -11.5 54.5t-37.5 16.5t-39 -16.5t-16 -54.5h-98q6 74 48.5 113.5t117.5 39.5q70 0 102 -38q16 -18 21.5 -40.5t5.5 -69.5v-221q0 -90 11 -135h-96q-8 22 -8 58
q-34 -37 -58 -51t-54 -14q-47 0 -74 35t-27 97zM135 131q0 -25 13.5 -40.5t33.5 -15.5q40 0 68 45v136q-62 -33 -88.5 -62t-26.5 -63z" />
    <glyph glyph-name="atilde" unicode="&#xe3;" horiz-adv-x="396" 
d="M111 583v69q27 15 58 15q20 0 44 -8q31 -11 49 -11q19 0 49 17v-69q-30 -17 -49 -17q-17 0 -49 11q-24 8 -44 8q-31 0 -58 -15zM37 125q0 47 19 78.5t62 58.5q30 19 132 63v26q0 38 -11.5 54.5t-37.5 16.5t-39 -16.5t-16 -54.5h-98q6 74 48.5 113.5t117.5 39.5
q70 0 102 -38q16 -18 21.5 -40.5t5.5 -69.5v-221q0 -90 11 -135h-96q-8 22 -8 58q-34 -37 -58 -51t-54 -14q-47 0 -74 35t-27 97zM135 131q0 -25 13.5 -40.5t33.5 -15.5q40 0 68 45v136q-62 -33 -88.5 -62t-26.5 -63z" />
    <glyph glyph-name="adieresis" unicode="&#xe4;" horiz-adv-x="396" 
d="M236 578v89h87v-89h-87zM93 578v89h87v-89h-87zM37 125q0 47 19 78.5t62 58.5q30 19 132 63v26q0 38 -11.5 54.5t-37.5 16.5t-39 -16.5t-16 -54.5h-98q6 74 48.5 113.5t117.5 39.5q70 0 102 -38q16 -18 21.5 -40.5t5.5 -69.5v-221q0 -90 11 -135h-96q-8 22 -8 58
q-34 -37 -58 -51t-54 -14q-47 0 -74 35t-27 97zM135 131q0 -25 13.5 -40.5t33.5 -15.5q40 0 68 45v136q-62 -33 -88.5 -62t-26.5 -63z" />
    <glyph glyph-name="aring" unicode="&#xe5;" horiz-adv-x="396" 
d="M213 552q-31 0 -52.5 20.5t-21.5 49.5t21.5 49.5t52.5 20.5q30 0 51.5 -20.5t21.5 -48.5q0 -29 -21.5 -50t-51.5 -21zM213 587q15 0 25.5 10.5t10.5 24.5t-11 24.5t-25 10.5q-15 0 -26 -10.5t-11 -24.5t11 -24.5t26 -10.5zM37 125q0 47 19 78.5t62 58.5q30 19 132 63v26
q0 38 -11.5 54.5t-37.5 16.5t-39 -16.5t-16 -54.5h-98q6 74 48.5 113.5t117.5 39.5q70 0 102 -38q16 -18 21.5 -40.5t5.5 -69.5v-221q0 -90 11 -135h-96q-8 22 -8 58q-34 -37 -58 -51t-54 -14q-47 0 -74 35t-27 97zM135 131q0 -25 13.5 -40.5t33.5 -15.5q40 0 68 45v136
q-62 -33 -88.5 -62t-26.5 -63z" />
    <glyph glyph-name="ae" unicode="&#xe6;" horiz-adv-x="599" 
d="M37 126q0 46 19 77.5t62 59.5q30 18 132 62v26q0 38 -11.5 54.5t-37.5 16.5t-39 -16.5t-16 -54.5h-98q6 74 48.5 113.5t116.5 39.5q58 0 91 -26q40 26 99 26q77 0 117 -45q21 -24 29.5 -55.5t8.5 -88.5v-82h-215v-44q0 -64 12 -87q14 -27 51 -27q44 0 56 42q4 15 4 55h93
q-1 -83 -19 -114q-37 -65 -135 -65q-90 0 -129 57q-65 -57 -127 -57q-53 0 -82.5 35t-29.5 98zM343 315h122v27q0 44 -14.5 63.5t-46.5 19.5t-46.5 -19.5t-14.5 -63.5v-27zM135 131q0 -25 13.5 -40.5t33.5 -15.5q40 0 68 45v136q-62 -33 -88.5 -62t-26.5 -63z" />
    <glyph glyph-name="ccedilla" unicode="&#xe7;" horiz-adv-x="377" 
d="M71 42q-31 42 -31 134v144q0 93 31 135q38 52 125 52q78 0 118 -45q35 -38 35 -119v-18h-93v13q0 84 -60 84q-37 0 -51 -27q-12 -23 -12 -87v-120q0 -63 12 -86q14 -27 51 -27q60 0 60 87v14h93v-19q0 -83 -35 -121q-41 -46 -118 -46q-87 0 -125 52zM158 -46h80v-68
l-22 -56h-47l17 56h-28v68z" />
    <glyph glyph-name="egrave" unicode="&#xe8;" horiz-adv-x="389" 
d="M162 578l-72 89h97l45 -89h-70zM71 42q-31 44 -31 135v148q0 60 8.5 89.5t31.5 51.5q41 41 113 41q77 0 117 -46q21 -24 29.5 -56.5t8.5 -89.5v-82h-215v-44q0 -64 12 -87q14 -27 51 -27q44 0 56 42q4 15 4 55h93q-1 -85 -19 -115q-39 -67 -134 -67q-87 0 -125 52z
M133 315h122v27q0 44 -14.5 63.5t-46.5 19.5t-46.5 -19.5t-14.5 -63.5v-27z" />
    <glyph glyph-name="eacute" unicode="&#xe9;" horiz-adv-x="389" 
d="M164 578l46 89h96l-72 -89h-70zM71 42q-31 44 -31 135v148q0 60 8.5 89.5t31.5 51.5q41 41 113 41q77 0 117 -46q21 -24 29.5 -56.5t8.5 -89.5v-82h-215v-44q0 -64 12 -87q14 -27 51 -27q44 0 56 42q4 15 4 55h93q-1 -85 -19 -115q-39 -67 -134 -67q-87 0 -125 52z
M133 315h122v27q0 44 -14.5 63.5t-46.5 19.5t-46.5 -19.5t-14.5 -63.5v-27z" />
    <glyph glyph-name="ecircumflex" unicode="&#xea;" horiz-adv-x="389" 
d="M83 578l63 89h104l63 -89h-84l-31 34l-31 -34h-84zM71 42q-31 44 -31 135v148q0 60 8.5 89.5t31.5 51.5q41 41 113 41q77 0 117 -46q21 -24 29.5 -56.5t8.5 -89.5v-82h-215v-44q0 -64 12 -87q14 -27 51 -27q44 0 56 42q4 15 4 55h93q-1 -85 -19 -115q-39 -67 -134 -67
q-87 0 -125 52zM133 315h122v27q0 44 -14.5 63.5t-46.5 19.5t-46.5 -19.5t-14.5 -63.5v-27z" />
    <glyph glyph-name="edieresis" unicode="&#xeb;" horiz-adv-x="389" 
d="M231 578v89h87v-89h-87zM78 578v89h87v-89h-87zM71 42q-31 44 -31 135v148q0 60 8.5 89.5t31.5 51.5q41 41 113 41q77 0 117 -46q21 -24 29.5 -56.5t8.5 -89.5v-82h-215v-44q0 -64 12 -87q14 -27 51 -27q44 0 56 42q4 15 4 55h93q-1 -85 -19 -115q-39 -67 -134 -67
q-87 0 -125 52zM133 315h122v27q0 44 -14.5 63.5t-46.5 19.5t-46.5 -19.5t-14.5 -63.5v-27z" />
    <glyph glyph-name="igrave" unicode="&#xec;" horiz-adv-x="180" 
d="M57 578l-72 89h97l45 -89h-70zM43 0v497h93v-497h-93z" />
    <glyph glyph-name="iacute" unicode="&#xed;" horiz-adv-x="180" 
d="M62 578l46 89h96l-72 -89h-70zM43 0v497h93v-497h-93z" />
    <glyph glyph-name="icircumflex" unicode="&#xee;" horiz-adv-x="180" 
d="M-22 578l63 89h104l63 -89h-84l-31 34l-31 -34h-84zM43 0v497h93v-497h-93z" />
    <glyph glyph-name="idieresis" unicode="&#xef;" horiz-adv-x="180" 
d="M120 578v89h87v-89h-87zM-20 578v89h87v-89h-87zM43 0v497h93v-497h-93z" />
    <glyph glyph-name="eth" unicode="&#xf0;" horiz-adv-x="385" 
d="M79 31q-22 22 -30.5 52.5t-8.5 88.5v136q0 97 23 142q25 50 87 50q49 0 102 -41q-11 58 -45 112l-48 -42l-29 32l49 43l-29 29l46 48q27 -19 37 -28l53 48l29 -33l-51 -46q81 -93 81 -237v-213q0 -59 -8.5 -89t-30.5 -52q-41 -41 -113 -41q-73 0 -114 41zM192 75
q31 0 45.5 22t14.5 69v165q0 91 -59 91q-31 0 -45.5 -22t-14.5 -69v-165q0 -91 59 -91z" />
    <glyph glyph-name="ntilde" unicode="&#xf1;" horiz-adv-x="385" 
d="M102 583v69q27 15 58 15q20 0 44 -8q31 -11 49 -11q19 0 49 17v-69q-30 -17 -49 -17q-17 0 -49 11q-24 8 -44 8q-31 0 -58 -15zM43 0v497h93v-64q61 71 124 71q81 0 81 -116v-388h-93v364q0 33 -8 45.5t-28 12.5q-40 0 -76 -50v-372h-93z" />
    <glyph glyph-name="ograve" unicode="&#xf2;" horiz-adv-x="385" 
d="M160 578l-72 89h97l45 -89h-70zM79 31q-22 22 -30.5 52.5t-8.5 88.5v153q0 59 8.5 89.5t30.5 52.5q40 40 114 40q71 0 113 -40q22 -22 30.5 -52.5t8.5 -89.5v-153q0 -59 -8.5 -89t-30.5 -52q-41 -41 -113 -41q-73 0 -114 41zM192 75q31 0 45.5 22t14.5 69v165
q0 91 -59 91q-31 0 -45.5 -22t-14.5 -69v-165q0 -91 59 -91z" />
    <glyph glyph-name="oacute" unicode="&#xf3;" horiz-adv-x="385" 
d="M161 578l46 89h96l-72 -89h-70zM79 31q-22 22 -30.5 52.5t-8.5 88.5v153q0 59 8.5 89.5t30.5 52.5q40 40 114 40q71 0 113 -40q22 -22 30.5 -52.5t8.5 -89.5v-153q0 -59 -8.5 -89t-30.5 -52q-41 -41 -113 -41q-73 0 -114 41zM192 75q31 0 45.5 22t14.5 69v165
q0 91 -59 91q-31 0 -45.5 -22t-14.5 -69v-165q0 -91 59 -91z" />
    <glyph glyph-name="ocircumflex" unicode="&#xf4;" horiz-adv-x="385" 
d="M81 578l63 89h104l63 -89h-84l-31 34l-31 -34h-84zM79 31q-22 22 -30.5 52.5t-8.5 88.5v153q0 59 8.5 89.5t30.5 52.5q40 40 114 40q71 0 113 -40q22 -22 30.5 -52.5t8.5 -89.5v-153q0 -59 -8.5 -89t-30.5 -52q-41 -41 -113 -41q-73 0 -114 41zM192 75q31 0 45.5 22
t14.5 69v165q0 91 -59 91q-31 0 -45.5 -22t-14.5 -69v-165q0 -91 59 -91z" />
    <glyph glyph-name="otilde" unicode="&#xf5;" horiz-adv-x="385" 
d="M102 583v69q27 15 58 15q20 0 44 -8q31 -11 49 -11q19 0 49 17v-69q-30 -17 -49 -17q-17 0 -49 11q-24 8 -44 8q-31 0 -58 -15zM79 31q-22 22 -30.5 52.5t-8.5 88.5v153q0 59 8.5 89.5t30.5 52.5q40 40 114 40q71 0 113 -40q22 -22 30.5 -52.5t8.5 -89.5v-153
q0 -59 -8.5 -89t-30.5 -52q-41 -41 -113 -41q-73 0 -114 41zM192 75q31 0 45.5 22t14.5 69v165q0 91 -59 91q-31 0 -45.5 -22t-14.5 -69v-165q0 -91 59 -91z" />
    <glyph glyph-name="odieresis" unicode="&#xf6;" horiz-adv-x="385" 
d="M229 578v89h87v-89h-87zM76 578v89h87v-89h-87zM79 31q-22 22 -30.5 52.5t-8.5 88.5v153q0 59 8.5 89.5t30.5 52.5q40 40 114 40q71 0 113 -40q22 -22 30.5 -52.5t8.5 -89.5v-153q0 -59 -8.5 -89t-30.5 -52q-41 -41 -113 -41q-73 0 -114 41zM192 75q31 0 45.5 22t14.5 69
v165q0 91 -59 91q-31 0 -45.5 -22t-14.5 -69v-165q0 -91 59 -91z" />
    <glyph glyph-name="divide" unicode="&#xf7;" horiz-adv-x="410" 
d="M164 432v91h83v-91h-83zM38 302v79h335v-79h-335zM164 157v91h83v-91h-83z" />
    <glyph glyph-name="oslash" unicode="&#xf8;" horiz-adv-x="385" 
d="M71 -40l20 60q-30 25 -40.5 56t-10.5 96v153q0 59 8.5 89.5t30.5 52.5q40 40 115 40q35 0 58 -9l13 39h46l-19 -58q31 -25 42 -56.5t11 -97.5v-153q0 -59 -8.5 -89.5t-30.5 -52.5q-42 -40 -113 -40q-31 0 -62 9l-13 -39h-47zM133 146l90 268q-15 8 -30 8q-32 0 -46 -21.5
t-14 -69.5v-185zM160 85q15 -10 33 -10q59 0 59 91v193z" />
    <glyph glyph-name="ugrave" unicode="&#xf9;" horiz-adv-x="385" 
d="M159 578l-72 89h97l45 -89h-70zM43 109v388h93v-364q0 -33 8 -45.5t28 -12.5q40 0 76 50v372h93v-497h-93v64q-61 -71 -124 -71q-81 0 -81 116z" />
    <glyph glyph-name="uacute" unicode="&#xfa;" horiz-adv-x="385" 
d="M164 578l46 89h96l-72 -89h-70zM43 109v388h93v-364q0 -33 8 -45.5t28 -12.5q40 0 76 50v372h93v-497h-93v64q-61 -71 -124 -71q-81 0 -81 116z" />
    <glyph glyph-name="ucircumflex" unicode="&#xfb;" horiz-adv-x="385" 
d="M80 578l63 89h104l63 -89h-84l-31 34l-31 -34h-84zM43 109v388h93v-364q0 -33 8 -45.5t28 -12.5q40 0 76 50v372h93v-497h-93v64q-61 -71 -124 -71q-81 0 -81 116z" />
    <glyph glyph-name="udieresis" unicode="&#xfc;" horiz-adv-x="385" 
d="M228 578v89h87v-89h-87zM75 578v89h87v-89h-87zM43 109v388h93v-364q0 -33 8 -45.5t28 -12.5q40 0 76 50v372h93v-497h-93v64q-61 -71 -124 -71q-81 0 -81 116z" />
    <glyph glyph-name="yacute" unicode="&#xfd;" horiz-adv-x="354" 
d="M149 578l46 89h96l-72 -89h-70zM25 -81q6 -1 15 -1q39 0 62.5 22.5t23.5 59.5q0 15 -7 43l-109 454h98l73 -339l67 339h96l-108 -476q-28 -123 -67.5 -160.5t-143.5 -37.5v96z" />
    <glyph glyph-name="thorn" unicode="&#xfe;" horiz-adv-x="387" 
d="M136 49v-219h-93v837h93v-219q60 56 110 56q57 0 80 -51q20 -43 20 -145v-119q0 -103 -20 -145q-23 -51 -80 -51q-51 0 -110 56zM136 100q37 -25 65 -25q32 0 43 26q9 19 9 82v131q0 63 -9 82q-11 26 -43 26q-30 0 -65 -25v-297z" />
    <glyph glyph-name="ydieresis" unicode="&#xff;" horiz-adv-x="354" 
d="M217 578v89h87v-89h-87zM64 578v89h87v-89h-87zM25 -81q6 -1 15 -1q39 0 62.5 22.5t23.5 59.5q0 15 -7 43l-109 454h98l73 -339l67 339h96l-108 -476q-28 -123 -67.5 -160.5t-143.5 -37.5v96z" />
    <glyph glyph-name="dotlessi" unicode="&#x131;" horiz-adv-x="180" 
d="M43 0v497h93v-497h-93z" />
    <glyph glyph-name="Lslash" unicode="&#x141;" horiz-adv-x="352" 
d="M30 0v279l-27 -20v101l27 20v287h103v-221l73 57v-101l-73 -57v-250h205v-95h-308z" />
    <glyph glyph-name="lslash" unicode="&#x142;" horiz-adv-x="218" 
d="M65 0v293l-45 -34v94l45 35v279h93v-218l45 35v-95l-45 -34v-355h-93z" />
    <glyph glyph-name="OE" unicode="&#x152;" horiz-adv-x="619" 
d="M44 208v250q0 106 47.5 157.5t145.5 51.5h362v-95h-200v-176h147v-95h-147v-206h200v-95h-362q-98 0 -145.5 51t-47.5 157zM246 95h50v477h-50q-55 0 -77 -32t-22 -110v-193q0 -78 22 -110t77 -32z" />
    <glyph glyph-name="oe" unicode="&#x153;" horiz-adv-x="601" 
d="M79 31q-22 22 -30.5 52.5t-8.5 88.5v153q0 59 8.5 89.5t30.5 52.5q40 40 113 40q67 0 107 -34q41 34 106 34q76 0 117 -46q21 -23 29.5 -55.5t8.5 -90.5v-82h-215v-33q0 -66 6 -84q12 -41 57 -41q43 0 55 42q4 15 4 55h94q-1 -85 -19 -115q-39 -67 -134 -67
q-68 0 -109 34q-44 -34 -106 -34q-73 0 -114 41zM345 315h121v27q0 44 -14.5 63.5t-46.5 19.5t-46 -19.5t-14 -63.5v-27zM192 75q31 0 45.5 22t14.5 69v165q0 91 -59 91q-31 0 -45.5 -22t-14.5 -69v-165q0 -91 59 -91z" />
    <glyph glyph-name="Scaron" unicode="&#x160;" horiz-adv-x="426" 
d="M164 720l-63 89h84l31 -34l31 34h84l-63 -89h-104zM20 178l99 29q20 -120 103 -120q34 0 55 21t21 55q0 31 -20 57t-79 73q-69 55 -85.5 70t-36.5 39q-37 48 -37 111q0 72 49 118t125 46q144 0 187 -167l-99 -29q-24 99 -88 99q-29 0 -48 -19.5t-19 -48.5q0 -37 28 -67
q17 -18 88 -73q71 -56 99 -90q43 -53 43 -122q0 -76 -50.5 -123t-132.5 -47q-171 0 -202 188z" />
    <glyph glyph-name="scaron" unicode="&#x161;" horiz-adv-x="362" 
d="M122 578l-63 89h84l31 -34l31 34h84l-63 -89h-104zM20 130l87 30q15 -46 34.5 -65.5t48.5 -19.5q23 0 38 14t15 36q0 21 -15 37t-55 38q-82 46 -109 74q-36 38 -36 94q0 60 41 99.5t104 39.5q115 0 161 -120l-85 -37q-14 39 -32 55.5t-45 16.5q-22 0 -35.5 -12t-13.5 -32
t15.5 -35t68.5 -44q74 -41 101 -68q35 -37 35 -94q0 -66 -42.5 -106.5t-110.5 -40.5q-64 0 -105 34t-65 106z" />
    <glyph glyph-name="Ydieresis" unicode="&#x178;" horiz-adv-x="440" 
d="M260 720v89h87v-89h-87zM107 720v89h87v-89h-87zM167 0v260l-150 407h114l89 -282l92 282h112l-154 -407v-260h-103z" />
    <glyph glyph-name="Zcaron" unicode="&#x17d;" horiz-adv-x="389" 
d="M162 720l-63 89h84l31 -34l31 34h84l-63 -89h-104zM20 0v97l233 475h-211v95h324v-95l-232 -477h235v-95h-349z" />
    <glyph glyph-name="zcaron" unicode="&#x17e;" horiz-adv-x="341" 
d="M135 578l-63 89h84l31 -34l31 34h84l-63 -89h-104zM23 0v93l188 314h-172v90h279v-93l-188 -314h188v-90h-295z" />
    <glyph glyph-name="florin" unicode="&#x192;" horiz-adv-x="410" 
d="M40 -170l113 584h-80l12 61h80l27 136q9 45 20 67t32 37q34 25 90 25q24 0 60 -6l-17 -87q-27 8 -39 8q-25 0 -37.5 -14t-19.5 -50l-22 -116h90l-12 -61h-90l-114 -584h-93z" />
    <glyph glyph-name="circumflex" unicode="&#x2c6;" horiz-adv-x="500" 
d="M135 578l63 89h104l63 -89h-84l-31 34l-31 -34h-84z" />
    <glyph glyph-name="caron" unicode="&#x2c7;" horiz-adv-x="500" 
d="M198 578l-63 89h84l31 -34l31 34h84l-63 -89h-104z" />
    <glyph glyph-name="breve" unicode="&#x2d8;" horiz-adv-x="500" 
d="M250 581q-76 0 -115 50l60 34q29 -18 55 -18t54 18l60 -34q-38 -50 -114 -50z" />
    <glyph glyph-name="dotaccent" unicode="&#x2d9;" horiz-adv-x="500" 
d="M207 578v89h87v-89h-87z" />
    <glyph glyph-name="ring" unicode="&#x2da;" horiz-adv-x="500" 
d="M251 552q-31 0 -52.5 20.5t-21.5 49.5t21.5 49.5t52.5 20.5q30 0 51.5 -20.5t21.5 -48.5q0 -29 -21.5 -50t-51.5 -21zM251 587q15 0 25.5 10.5t10.5 24.5t-11 24.5t-25 10.5q-15 0 -26 -10.5t-11 -24.5t11 -24.5t26 -10.5z" />
    <glyph glyph-name="ogonek" unicode="&#x2db;" horiz-adv-x="500" 
d="M201 -98q0 48 57 98h52q-49 -40 -49 -76q0 -37 48 -37q16 0 30 6l-8 -57q-21 -7 -39 -7q-41 0 -66 20t-25 53z" />
    <glyph glyph-name="tilde" unicode="&#x2dc;" horiz-adv-x="500" 
d="M150 583v69q27 15 58 15q20 0 44 -8q31 -11 49 -11q19 0 49 17v-69q-30 -17 -49 -17q-17 0 -49 11q-24 8 -44 8q-31 0 -58 -15z" />
    <glyph glyph-name="hungarumlaut" unicode="&#x2dd;" horiz-adv-x="500" 
d="M279 578l46 89h96l-72 -89h-70zM139 578l46 89h96l-72 -89h-70z" />
    <glyph glyph-name="uni03A9" unicode="&#x3a9;" horiz-adv-x="666" 
d="M28 0v84h170q-172 101 -172 282q0 133 89.5 225t217.5 92q129 0 218.5 -92.5t89.5 -225.5q0 -180 -172 -281h170v-84h-263v78q60 33 99 80q68 84 68 191q0 104 -60.5 176.5t-148.5 72.5t-149 -72.5t-61 -176.5q0 -180 167 -271v-78h-263z" />
    <glyph glyph-name="pi" unicode="&#x3c0;" horiz-adv-x="575" 
d="M92 0v406h-73v73h536v-73h-72v-406h-90v406h-211v-406h-90z" />
    <glyph glyph-name="endash" unicode="&#x2013;" horiz-adv-x="410" 
d="M38 212v83h335v-83h-335z" />
    <glyph glyph-name="emdash" unicode="&#x2014;" horiz-adv-x="503" 
d="M0 212v83h503v-83h-503z" />
    <glyph glyph-name="quoteleft" unicode="&#x2018;" horiz-adv-x="177" 
d="M40 422v107l59 138h38l-44 -138h44v-107h-97z" />
    <glyph glyph-name="quoteright" unicode="&#x2019;" horiz-adv-x="177" 
d="M40 422l44 138h-44v107h97v-107l-59 -138h-38z" />
    <glyph glyph-name="quotesinglbase" unicode="&#x201a;" horiz-adv-x="177" 
d="M40 0v107h97v-107l-59 -138h-38l44 138h-44z" />
    <glyph glyph-name="quotedblleft" unicode="&#x201c;" horiz-adv-x="323" 
d="M186 422v107l59 138h38l-44 -138h44v-107h-97zM40 422v107l59 138h38l-44 -138h44v-107h-97z" />
    <glyph glyph-name="quotedblright" unicode="&#x201d;" horiz-adv-x="323" 
d="M186 422l44 138h-44v107h97v-107l-59 -138h-38zM40 422l44 138h-44v107h97v-107l-59 -138h-38z" />
    <glyph glyph-name="quotedblbase" unicode="&#x201e;" horiz-adv-x="323" 
d="M186 0v107h97v-107l-59 -138h-38l44 138h-44zM40 0v107h97v-107l-59 -138h-38l44 138h-44z" />
    <glyph glyph-name="dagger" unicode="&#x2020;" horiz-adv-x="410" 
d="M159 0v419h-126v83h126v165h93v-165h126v-83h-126v-419h-93z" />
    <glyph glyph-name="daggerdbl" unicode="&#x2021;" horiz-adv-x="410" 
d="M159 0v165h-126v83h126v171h-126v83h126v165h93v-165h126v-83h-126v-171h126v-83h-126v-165h-93z" />
    <glyph glyph-name="bullet" unicode="&#x2022;" horiz-adv-x="667" 
d="M335 201q-57 0 -98 40.5t-41 97.5q0 58 41 98.5t100 40.5q55 0 95.5 -41t40.5 -97q0 -58 -40.5 -98.5t-97.5 -40.5z" />
    <glyph glyph-name="onedotenleader" unicode="&#x2024;" horiz-adv-x="250" 
d="M82 0v96h87v-96h-87z" />
    <glyph glyph-name="twodotenleader" unicode="&#x2025;" horiz-adv-x="500" 
d="M332 0v96h87v-96h-87zM82 0v96h87v-96h-87z" />
    <glyph glyph-name="ellipsis" unicode="&#x2026;" horiz-adv-x="520" 
d="M384 0v107h97v-107h-97zM211 0v107h97v-107h-97zM38 0v107h97v-107h-97z" />
    <glyph glyph-name="perthousand" unicode="&#x2030;" horiz-adv-x="770" 
d="M123 317q-93 0 -93 116v124q0 117 93 117q92 0 92 -117v-124q0 -116 -92 -116zM103 0l276 667h55l-276 -667h-55zM123 370q18 0 25 11.5t7 41.5v145q0 30 -7 41.5t-25 11.5q-19 0 -26 -11.5t-7 -41.5v-145q0 -30 7 -41.5t26 -11.5zM556 110v124q0 116 92 116t92 -116
v-124q0 -117 -92 -117t-92 117zM323 110v124q0 116 92 116t92 -116v-124q0 -117 -92 -117t-92 117zM616 99q0 -29 7 -41t25 -12t25 12t7 41v145q0 30 -7 41.5t-25 11.5t-25 -11.5t-7 -41.5v-145zM383 99q0 -29 7 -41t25 -12t25 12t7 41v145q0 30 -7 41.5t-25 11.5t-25 -11.5
t-7 -41.5v-145z" />
    <glyph glyph-name="uni2032" unicode="&#x2032;" horiz-adv-x="197" 
d="M59 400l-17 267h112l-17 -267h-78z" />
    <glyph glyph-name="uni2033" unicode="&#x2033;" horiz-adv-x="362" 
d="M227 400l-17 267h109l-17 -267h-75zM59 400l-17 267h109l-17 -267h-75z" />
    <glyph glyph-name="guilsinglleft" unicode="&#x2039;" horiz-adv-x="169" 
d="M136 93l-103 85v144l103 85v-120l-38 -37l38 -37v-120z" />
    <glyph glyph-name="guilsinglright" unicode="&#x203a;" horiz-adv-x="169" 
d="M33 93v120l38 37l-38 37v120l103 -85v-144z" />
    <glyph glyph-name="fraction" unicode="&#x2044;" horiz-adv-x="120" 
d="M-41 -33h-52l250 733h56z" />
    <glyph glyph-name="zero.superior" unicode="&#x2070;" 
d="M139 261q-111 0 -111 134v144q0 134 111 134q110 0 110 -134v-144q0 -134 -110 -134zM139 322q23 0 32 13t9 48v168q0 35 -9 48t-32 13t-32.5 -13.5t-9.5 -47.5v-168q0 -34 9.5 -47.5t32.5 -13.5z" />
    <glyph glyph-name="four.superior" unicode="&#x2074;" 
d="M144 267v99h-131v66l127 235h73v-241h49v-60h-49v-99h-69zM75 424h71v145z" />
    <glyph glyph-name="five.superior" unicode="&#x2075;" 
d="M136 261q-51 0 -78 28t-27 81v14h69q-1 -6 -1 -13q0 -49 36 -49q24 0 32 17.5t8 68.5q0 49 -8.5 67.5t-31.5 18.5q-22 0 -41 -32h-62l5 205h193v-60h-133l-1 -79q27 21 61 21q47 0 69 -34q20 -29 20 -104q0 -78 -23 -112q-27 -38 -87 -38z" />
    <glyph glyph-name="six.superior" unicode="&#x2076;" 
d="M140 261q-110 0 -110 141v141q0 62 27 95q30 35 83 35q48 0 76.5 -28t28.5 -75v-12h-69l1 13q3 41 -37 41q-24 0 -32.5 -16.5t-8.5 -63.5v-40q23 26 62 26q89 0 89 -122q0 -135 -110 -135zM139 322q22 0 31 15.5t9 53.5q0 36 -9 51t-30 15q-22 0 -41 -23v-52
q0 -60 40 -60z" />
    <glyph glyph-name="seven.superior" unicode="&#x2077;" 
d="M68 267l95 340h-138v60h211v-46l-96 -354h-72z" />
    <glyph glyph-name="eight.superior" unicode="&#x2078;" 
d="M138 261q-54 0 -82.5 31t-28.5 90q0 76 47 96q-42 20 -42 86q0 52 28 80.5t79 28.5t78.5 -28.5t27.5 -80.5q0 -65 -42 -86q47 -21 47 -96q0 -121 -112 -121zM139 507q37 0 37 52q0 53 -38 53q-37 0 -37 -52q0 -53 38 -53zM139 322q40 0 40 61q0 62 -40 62q-41 0 -41 -61
q0 -62 41 -62z" />
    <glyph glyph-name="nine.superior" unicode="&#x2079;" 
d="M137 260q-48 0 -76.5 28t-28.5 75v12h69l-1 -13q-3 -41 37 -41q24 0 32.5 16.5t8.5 64.5v39q-22 -25 -62 -25q-89 0 -89 122q0 135 110 135t110 -141v-141q0 -63 -27 -96q-30 -35 -83 -35zM137 477q22 0 41 22v53q0 60 -40 60q-22 0 -31 -15.5t-9 -53.5q0 -36 9 -51
t30 -15z" />
    <glyph glyph-name="plus.superior" unicode="&#x207a;" horiz-adv-x="341" 
d="M135 312v113h-116v65h116v114h70v-114h116v-65h-116v-113h-70z" />
    <glyph glyph-name="minus.superior" unicode="&#x207b;" horiz-adv-x="341" 
d="M19 425v65h302v-65h-302z" />
    <glyph glyph-name="parenleft.superior" unicode="&#x207d;" horiz-adv-x="182" 
d="M117 199q-92 119 -92 247t92 247l43 -28q-69 -104 -69 -219t69 -219z" />
    <glyph glyph-name="parenright.superior" unicode="&#x207e;" horiz-adv-x="182" 
d="M64 199l-42 28q69 103 69 219t-69 219l42 28q93 -118 93 -247t-93 -247z" />
    <glyph glyph-name="Euro" unicode="&#x20ac;" horiz-adv-x="509" 
d="M139 64q-19 31 -25.5 68t-6.5 111v58h-69l26 62h43v67q0 79 8 116.5t31 68.5q45 62 141 62q86 0 133.5 -54.5t47.5 -152.5v-20h-103v14q0 116 -79 116q-41 0 -60 -33q-16 -29 -16 -96v-88h211l-26 -62h-185v-72q0 -69 11 -99q17 -43 67 -43q80 0 80 130q0 10 -1 17h104
v-23q0 -108 -46.5 -164.5t-136.5 -56.5q-104 0 -149 74z" />
    <glyph glyph-name="afii61289" unicode="&#x2113;" horiz-adv-x="500" 
d="M140 82q0 22 6 104q-37 -42 -50 -42q-5 0 -10 7t-5 14q0 12 17 28q21 19 56 61q40 216 89 317.5t113 101.5q32 0 51.5 -23.5t19.5 -63.5q0 -86 -66 -189q-31 -49 -113 -134q-28 -153 -28 -197q0 -25 17 -25q21 0 45 51q10 19 21 19q16 0 16 -17q0 -23 -22 -58
q-35 -55 -82 -55q-75 0 -75 101zM258 324q40 43 66 87q24 42 41 92.5t17 82.5q0 15 -7 25t-17 10q-28 0 -50 -65t-50 -232z" />
    <glyph glyph-name="uni2117" unicode="&#x2117;" horiz-adv-x="778" 
d="M44 333q0 145 101.5 245.5t248.5 100.5q139 0 239.5 -102t100.5 -244q0 -143 -101 -244t-244 -101t-244 101t-101 244zM104 333q0 -119 84 -204t201 -85q118 0 201.5 85t83.5 204t-83 204.5t-198 85.5q-121 0 -205 -84t-84 -206zM299 132v400h99q57 0 87 -30t30 -86
q0 -30 -8 -55t-36 -46.5t-73 -21.5h-31v-161h-68zM367 356h19q33 0 46 12.5t13 44.5q0 31 -13 43.5t-46 12.5h-19v-113z" />
    <glyph glyph-name="trademark" unicode="&#x2122;" horiz-adv-x="583" 
d="M255 287v380h94l50 -217l51 217h93v-380h-64v253l-59 -253h-42l-59 253v-253h-64zM95 287v320h-75v60h217v-60h-75v-320h-67z" />
    <glyph glyph-name="Omega" unicode="&#x2126;" horiz-adv-x="666" 
d="M28 0v84h170q-172 101 -172 282q0 133 89.5 225t217.5 92q129 0 218.5 -92.5t89.5 -225.5q0 -180 -172 -281h170v-84h-263v78q60 33 99 80q68 84 68 191q0 104 -60.5 176.5t-148.5 72.5t-149 -72.5t-61 -176.5q0 -180 167 -271v-78h-263z" />
    <glyph glyph-name="estimated" unicode="&#x212e;" horiz-adv-x="870" 
d="M159 82q-111 98 -111 250q0 155 113 250t280 95q166 0 273.5 -99.5t107.5 -263.5h-612v-183q87 -102 233 -102q143 0 227 102h100q-111 -142 -337 -142q-160 0 -274 93zM210 356h457v172q-82 108 -233 108q-145 0 -224 -108v-172z" />
    <glyph glyph-name="onethird" unicode="&#x2153;" horiz-adv-x="673" 
d="M183 -33l250 733h57l-255 -733h-52zM118 267v301h-62v42q63 25 89 57h42v-400h-69zM421 105q0 9 1 14h70v-11q0 -53 41 -53t41 64q0 34 -13 46.5t-48 14.5v61q35 1 46.5 11t11.5 41q0 52 -37 52q-20 0 -29 -12t-9 -40h-69v10q0 46 30 74.5t78 28.5q49 0 76 -29.5
t27 -82.5q0 -64 -45 -82q28 -9 40 -30.5t12 -62.5q0 -59 -29.5 -92t-83.5 -33q-51 0 -81 30t-30 81z" />
    <glyph glyph-name="twothirds" unicode="&#x2154;" horiz-adv-x="673" 
d="M184 -33l249 733h57l-254 -733h-52zM25 266v58q100 120 126.5 161.5t26.5 79.5q0 47 -38 47q-42 0 -42 -52v-15h-69v17q0 52 30 81.5t83 29.5q50 0 78.5 -29t28.5 -79q0 -48 -28 -92q-20 -33 -96 -125q-6 -8 -18 -22h133v-60h-215zM422 105q0 9 1 14h70v-11q0 -53 41 -53
t41 64q0 34 -13 46.5t-48 14.5v61q35 1 46.5 11t11.5 41q0 52 -37 52q-20 0 -29 -12t-9 -40h-69v10q0 46 30 74.5t78 28.5q49 0 76 -29.5t27 -82.5q0 -64 -45 -82q28 -9 40 -30.5t12 -62.5q0 -59 -29.5 -92t-83.5 -33q-51 0 -81 30t-30 81z" />
    <glyph glyph-name="oneeighth" unicode="&#x215b;" horiz-adv-x="673" 
d="M183 -33l250 733h57l-255 -733h-52zM118 267v301h-62v42q63 25 89 57h42v-400h-69zM423 115q0 76 47 96q-42 21 -42 86q0 52 28 80.5t79 28.5t78.5 -28.5t27.5 -80.5q0 -65 -41 -86q46 -21 46 -96q0 -121 -112 -121q-54 0 -82.5 31t-28.5 90zM497 293q0 -53 38 -53
q37 0 37 52q0 53 -38 53q-37 0 -37 -52zM494 117q0 -62 41 -62q40 0 40 61q0 62 -40 62q-41 0 -41 -61z" />
    <glyph glyph-name="threeeighths" unicode="&#x215c;" horiz-adv-x="673" 
d="M184 -33l250 733h56l-254 -733h-52zM136 260q-51 0 -81 30t-30 81q0 9 1 14h70v-11q0 -53 41 -53t41 63q0 35 -13 48t-48 14v62q35 1 46.5 11t11.5 41q0 52 -37 52q-20 0 -29 -12t-9 -40h-69v10q0 46 30 74.5t78 28.5q49 0 76 -29.5t27 -82.5q0 -63 -45 -83
q52 -15 52 -93q0 -59 -29.5 -92t-83.5 -33zM424 115q0 74 46 96q-41 20 -41 86q0 52 28 80.5t79 28.5t78.5 -28.5t27.5 -80.5q0 -65 -42 -86q47 -21 47 -96q0 -121 -112 -121q-54 0 -82.5 31t-28.5 90zM498 293q0 -53 38 -53q37 0 37 52q0 53 -38 53q-37 0 -37 -52zM495 117
q0 -62 41 -62q40 0 40 61q0 62 -40 62q-41 0 -41 -61z" />
    <glyph glyph-name="fiveeighths" unicode="&#x215d;" horiz-adv-x="673" 
d="M184 -33l249 733h57l-254 -733h-52zM136 261q-51 0 -78 28t-27 81v14h69q-1 -6 -1 -13q0 -49 36 -49q24 0 32 17.5t8 68.5q0 49 -8.5 67.5t-31.5 18.5q-22 0 -41 -32h-62l5 205h193v-60h-133l-1 -79q27 21 61 21q47 0 69 -34q20 -29 20 -104q0 -78 -23 -112
q-27 -38 -87 -38zM423 115q0 75 47 96q-41 20 -41 86q0 52 27.5 80.5t78.5 28.5t78.5 -28.5t27.5 -80.5q0 -65 -41 -86q47 -21 47 -96q0 -121 -112 -121t-112 121zM498 293q0 -53 37 -53t37 52q0 53 -37 53t-37 -52zM494 117q0 -62 41 -62t41 61q0 62 -41 62t-41 -61z" />
    <glyph glyph-name="seveneighths" unicode="&#x215e;" horiz-adv-x="673" 
d="M183 -33l250 733h56l-254 -733h-52zM68 267l95 340h-138v60h211v-46l-96 -354h-72zM423 115q0 76 47 96q-42 20 -42 86q0 52 28 80.5t79 28.5t78.5 -28.5t27.5 -80.5q0 -65 -42 -86q47 -21 47 -96q0 -121 -112 -121q-54 0 -82.5 31t-28.5 90zM497 293q0 -53 38 -53
q37 0 37 52q0 53 -38 53q-37 0 -37 -52zM494 117q0 -62 41 -62q40 0 40 61q0 62 -40 62q-41 0 -41 -61z" />
    <glyph glyph-name="partialdiff" unicode="&#x2202;" horiz-adv-x="500" 
d="M29 215q0 92 59.5 155.5t144.5 63.5q59 0 99 -26q10 -7 43 -40l-9 18l-12 26.5t-13 26.5q-31 61 -101.5 102t-161.5 52l12 76q89 -12 147.5 -36t107.5 -70q127 -118 127 -317q0 -98 -41 -159q-30 -46 -77.5 -71.5t-102.5 -25.5q-94 0 -158 65t-64 160zM115 214
q0 -60 40 -103.5t95 -43.5q58 0 96.5 43t38.5 107q0 62 -37 103.5t-92 41.5q-59 0 -100 -43t-41 -105z" />
    <glyph glyph-name="Delta" unicode="&#x2206;" horiz-adv-x="630" 
d="M7 0l258 667h99l259 -667h-616zM131 84h366l-182 480z" />
    <glyph glyph-name="product" unicode="&#x220f;" horiz-adv-x="667" 
d="M24 -99h74v844h-74v78h618v-78h-74v-844h74v-78h-233v78h72v844h-297v-844h72v-78h-232v78z" />
    <glyph glyph-name="summation" unicode="&#x2211;" horiz-adv-x="667" 
d="M34 -75l241 416l-241 381v101h570v-237h-87l-10 148h-366l247 -393l-246 -430h374l6 150h91v-238h-579v102z" />
    <glyph glyph-name="minus" unicode="&#x2212;" horiz-adv-x="410" 
d="M38 302v79h335v-79h-335z" />
    <glyph glyph-name="radical" unicode="&#x221a;" horiz-adv-x="667" 
d="M160 0l-78 283h-82v80h139l38 -130q5 -16 29 -137h5q1 3 1.5 5.5t1 4.5l1 4t0.5 3t1 2v1l31 129l10 42q5 22 44 154l110 386h256v-80h-186l-213 -747h-108z" />
    <glyph glyph-name="infinity" unicode="&#x221e;" horiz-adv-x="667" 
d="M170 188q-67 0 -109 42.5t-42 110.5q0 67 42.5 109.5t109.5 42.5q90 0 162 -106q73 106 166 106q66 0 108 -43t42 -111q0 -67 -42 -109.5t-107 -42.5q-94 0 -165 107q-74 -106 -165 -106zM368 341q31 -49 60 -70.5t63 -21.5q37 0 62 26t25 65q0 40 -25 65.5t-63 25.5
q-62 0 -122 -90zM178 250q33 0 60.5 20.5t60.5 69.5q-2 4 -5 9q-55 82 -117 82q-38 0 -62.5 -25.5t-24.5 -64.5q0 -40 25 -65.5t63 -25.5z" />
    <glyph glyph-name="integral" unicode="&#x222b;" horiz-adv-x="500" 
d="M100 -78q21 -10 40 -10q42 0 53 34q5 13 5 95v545q0 84 1.5 103.5t7.5 42.5q12 42 49.5 66.5t90.5 24.5q31 0 70 -10l-18 -91q-21 10 -41 10q-40 0 -52 -34q-5 -12 -5 -66v-571q0 -98 -4.5 -128t-22.5 -55q-40 -55 -141 -55q-30 0 -51 9z" />
    <glyph glyph-name="approxequal" unicode="&#x2248;" horiz-adv-x="500" 
d="M62 348l-52 36q52 120 140 120q37 0 115 -37q63 -31 88 -31q26 0 43 13t42 52l52 -36q-51 -119 -149 -119q-19 0 -39.5 7.5t-76.5 34.5q-53 25 -80 25q-23 0 -41 -14t-42 -51zM62 163l-52 36q53 120 140 120q38 0 115 -38q64 -31 88 -31q25 0 42.5 13.5t42.5 51.5l52 -36
q-51 -119 -149 -119q-18 0 -38 7.5t-78 35.5q-50 25 -80 25q-23 0 -41.5 -14t-41.5 -51z" />
    <glyph glyph-name="notequal" unicode="&#x2260;" horiz-adv-x="410" 
d="M79 163l25 54h-66v79h103l41 88h-144v79h181l41 88l72 -34l-25 -54h66v-79h-103l-41 -88h144v-79h-181l-41 -88z" />
    <glyph glyph-name="lessequal" unicode="&#x2264;" horiz-adv-x="500" 
d="M33 352v86l433 172v-95l-322 -120l322 -120v-95zM33 62v89h433v-89h-433z" />
    <glyph glyph-name="greaterequal" unicode="&#x2265;" horiz-adv-x="500" 
d="M33 180v95l322 120l-322 120v95l433 -172v-86zM33 62v89h433v-89h-433z" />
    <glyph glyph-name="lozenge" unicode="&#x25ca;" horiz-adv-x="667" 
d="M334 -26l-260 360l260 359l259 -359zM334 63l197 271l-197 270l-197 -270z" />
    <glyph glyph-name="fi" unicode="&#xe103;" horiz-adv-x="415" 
d="M73 0v414h-67v83h67v47q0 45 7 67.5t24 37.5q31 25 94 25q33 0 100 -7v-87q-54 9 -82 9q-29 0 -39.5 -13.5t-10.5 -51.5v-27h205v-497h-93v414h-112v-414h-93z" />
    <glyph glyph-name="fl" unicode="&#xe104;" horiz-adv-x="415" 
d="M73 0v414h-67v83h67v47q0 45 7 67.5t24 37.5q29 25 83 25q15 0 57 -4q24 -3 34 -3h93v-667h-93v581q-38 8 -68 8q-25 0 -34.5 -14t-9.5 -51v-27h71v-83h-71v-414h-93z" />
    <glyph glyph-name="onesuperior" unicode="&#xe105;" 
d="M118 267v301h-62v42q63 25 89 57h42v-400h-69z" />
    <glyph glyph-name="twosuperior" unicode="&#xe107;" 
d="M25 266v58q100 120 126.5 161.5t26.5 79.5q0 47 -38 47q-42 0 -42 -52v-15h-69v17q0 52 30 81.5t83 29.5q50 0 78.5 -29t28.5 -79q0 -48 -28 -92q-20 -33 -96 -125q-6 -8 -18 -22h133v-60h-215z" />
    <glyph glyph-name="threesuperior" unicode="&#xe108;" 
d="M136 260q-51 0 -81 30t-30 81q0 9 1 14h70v-11q0 -53 41 -53t41 63q0 35 -13 48t-48 14v62q35 1 46.5 11t11.5 41q0 52 -37 52q-20 0 -29 -12t-9 -40h-69v10q0 46 30 74.5t78 28.5q49 0 76 -29.5t27 -82.5q0 -63 -45 -83q52 -15 52 -93q0 -59 -29.5 -92t-83.5 -33z" />
    <glyph glyph-name="onehalf.alt" unicode="&#xec73;" horiz-adv-x="282" 
d="M127 393v206h-44v29q42 15 63 39h29v-274h-48zM0 310v44h282v-44h-282zM61 0v40q71 83 89 110.5t18 53.5q0 32 -27 32q-29 0 -29 -35v-10h-48v11q0 36 20.5 56t57.5 20q35 0 55 -19.5t20 -54.5q0 -30 -14 -54t-72 -94q-3 -3 -12 -15h92v-41h-150z" />
    <glyph glyph-name="onethird.alt" unicode="&#xec74;" horiz-adv-x="282" 
d="M127 393v206h-44v29q42 15 63 39h29v-274h-48zM0 310v44h282v-44h-282zM62 72v9h50q-1 -3 -1 -8q0 -36 29 -36t29 43q0 24 -9 33t-34 10v41q24 1 32 8t8 28q0 36 -26 36t-26 -30v-6h-48v7q0 31 21 50.5t54 19.5q34 0 53 -20t19 -57q0 -43 -31 -56q36 -10 36 -63
q0 -40 -20.5 -62.5t-58.5 -22.5q-35 0 -56 20.5t-21 55.5z" />
    <glyph glyph-name="twothirds.alt" unicode="&#xec75;" horiz-adv-x="282" 
d="M61 393v40q72 84 89.5 111t17.5 53q0 32 -27 32q-29 0 -29 -35v-10h-48v11q0 36 20.5 56t57.5 20q35 0 55 -19.5t20 -54.5q0 -29 -13.5 -51.5t-72.5 -96.5l-12 -15h92v-41h-150zM0 310v44h282v-44h-282zM62 72v9h50q-1 -3 -1 -8q0 -36 29 -36t29 43q0 24 -9 33t-34 10v41
q24 1 32 8t8 28q0 36 -26 36t-26 -30v-6h-48v7q0 31 21 50.5t54 19.5q34 0 53 -20t19 -57q0 -43 -31 -56q36 -10 36 -63q0 -40 -20.5 -62.5t-58.5 -22.5q-35 0 -56 20.5t-21 55.5z" />
    <glyph glyph-name="onequarter.alt" unicode="&#xec76;" horiz-adv-x="282" 
d="M127 393v206h-44v29q42 15 63 39h29v-274h-48zM0 310v44h282v-44h-282zM53 68v45l89 160h51v-164h34v-41h-34v-68h-48v68h-92zM96 107h50v99z" />
    <glyph glyph-name="threequarters.alt" unicode="&#xec77;" horiz-adv-x="282" 
d="M139 389q-35 0 -56 20.5t-21 55.5v9h50q-1 -3 -1 -8q0 -36 29 -36t29 43q0 24 -9 33t-34 10v42q24 1 32 8t8 28q0 36 -26 36t-26 -30v-6h-48v7q0 31 21 50.5t54 19.5q34 0 53 -20t19 -57q0 -43 -31 -56q36 -12 36 -64q0 -40 -20.5 -62.5t-58.5 -22.5zM0 310v44h282v-44
h-282zM53 68v45l89 160h51v-164h34v-41h-34v-68h-48v68h-92zM96 107h50v99z" />
    <glyph glyph-name="oneeighth.alt" unicode="&#xec7c;" horiz-adv-x="282" 
d="M127 393v206h-44v29q42 15 63 39h29v-274h-48zM0 310v44h282v-44h-282zM63 79q0 52 33 65q-30 14 -30 59q0 35 19.5 54.5t54.5 19.5q36 0 55.5 -19.5t19.5 -54.5q0 -44 -29 -59q33 -13 33 -66q0 -40 -20 -61t-58 -21q-78 0 -78 83zM140 164q27 0 27 35q0 37 -27 37
q-26 0 -26 -36t26 -36zM112 79q0 -42 29 -42t29 41q0 43 -29 43t-29 -42z" />
    <glyph glyph-name="threeeighths.alt" unicode="&#xec7d;" horiz-adv-x="282" 
d="M139 389q-35 0 -56 20.5t-21 55.5v9h50q-1 -3 -1 -8q0 -36 29 -36t29 43q0 24 -9 33t-34 10v42q24 1 32 8t8 28q0 36 -26 36t-26 -30v-6h-48v7q0 31 21 50.5t54 19.5q34 0 53 -20t19 -57q0 -43 -31 -56q36 -12 36 -64q0 -40 -20.5 -62.5t-58.5 -22.5zM0 310v44h282v-44
h-282zM63 79q0 52 33 65q-30 14 -30 59q0 35 19.5 54.5t54.5 19.5q36 0 55.5 -19.5t19.5 -54.5q0 -44 -29 -59q33 -13 33 -66q0 -40 -20 -61t-58 -21q-78 0 -78 83zM140 164q27 0 27 35q0 37 -27 37q-26 0 -26 -36t26 -36zM112 79q0 -42 29 -42t29 41q0 43 -29 43t-29 -42z
" />
    <glyph glyph-name="fiveeighths.alt" unicode="&#xec7e;" horiz-adv-x="282" 
d="M139 390q-38 0 -55 19.5t-18 64.5h48q1 -27 5.5 -35t19.5 -8q16 0 22 12t6 47q0 34 -6 46.5t-22 12.5t-29 -22h-43l3 140h135v-41h-93l-1 -54q20 14 43 14q33 0 47.5 -22t14.5 -72q0 -55 -18 -78.5t-59 -23.5zM0 310v44h282v-44h-282zM63 79q0 52 33 65q-30 14 -30 59
q0 35 19.5 54.5t54.5 19.5q36 0 55.5 -19.5t19.5 -54.5q0 -44 -29 -59q33 -13 33 -66q0 -40 -20 -61t-58 -21q-78 0 -78 83zM140 164q27 0 27 35q0 37 -27 37q-26 0 -26 -36t26 -36zM112 79q0 -42 29 -42t29 41q0 43 -29 43t-29 -42z" />
    <glyph glyph-name="seveneighths.alt" unicode="&#xec7f;" horiz-adv-x="282" 
d="M92 393l67 233h-97v41h148v-32l-67 -242h-51zM0 310v44h282v-44h-282zM63 79q0 52 33 65q-30 14 -30 59q0 35 19.5 54.5t54.5 19.5q36 0 55.5 -19.5t19.5 -54.5q0 -44 -29 -59q33 -13 33 -66q0 -40 -20 -61t-58 -21q-78 0 -78 83zM140 164q27 0 27 35q0 37 -27 37
q-26 0 -26 -36t26 -36zM112 79q0 -42 29 -42t29 41q0 43 -29 43t-29 -42z" />
    <glyph glyph-name="zero.denominator" unicode="&#xf655;" 
d="M28 128v144q0 134 111 134q110 0 110 -134v-144q0 -134 -110 -134q-111 0 -111 134zM139 55q23 0 32 13t9 48v168q0 35 -9 48t-32 13t-32.5 -13.5t-9.5 -47.5v-168q0 -34 9.5 -47.5t32.5 -13.5z" />
    <glyph glyph-name="one.denominator" unicode="&#xf656;" 
d="M118 0v301h-62v42q63 25 89 57h42v-400h-69z" />
    <glyph glyph-name="two.denominator" unicode="&#xf657;" 
d="M25 0v58q99 118 126 160.5t27 80.5q0 46 -38 46q-42 0 -42 -51v-15h-69v17q0 52 30 81t83 29q50 0 78.5 -29t28.5 -79q0 -47 -28 -91q-20 -33 -96 -125q-6 -8 -18 -22h133v-60h-215z" />
    <glyph glyph-name="three.denominator" unicode="&#xf658;" 
d="M25 105q0 9 1 14h70v-11q0 -53 41 -53t41 64q0 34 -13 46.5t-48 14.5v61q35 1 46.5 11t11.5 41q0 52 -37 52q-20 0 -29 -12t-9 -40h-69v10q0 46 30 74.5t78 28.5q49 0 76 -29.5t27 -82.5q0 -64 -45 -82q28 -9 40 -30.5t12 -62.5q0 -59 -29.5 -92t-83.5 -33q-51 0 -81 30
t-30 81z" />
    <glyph glyph-name="four.denominator" unicode="&#xf659;" 
d="M13 100v66l127 234h73v-240h49v-60h-49v-100h-69v100h-131zM75 158h71v145z" />
    <glyph glyph-name="five.denominator" unicode="&#xf65a;" 
d="M31 103v14h69q-1 -6 -1 -13q0 -50 36 -50q24 0 32 17.5t8 69.5q0 49 -8.5 67.5t-31.5 18.5q-22 0 -41 -32h-62l5 205h193v-60h-133l-1 -79q27 21 61 21q47 0 69 -34q20 -29 20 -104q0 -78 -23 -112q-27 -38 -87 -38q-51 0 -78 28t-27 81z" />
    <glyph glyph-name="six.denominator" unicode="&#xf65b;" 
d="M30 135v141q0 62 27 95q30 35 83 35q48 0 76.5 -28t28.5 -75v-12h-69l1 13q3 41 -37 41q-24 0 -32.5 -16.5t-8.5 -63.5v-40q23 26 62 26q89 0 89 -122q0 -135 -110 -135t-110 141zM139 55q22 0 31 15.5t9 53.5q0 36 -9 51t-30 15q-22 0 -41 -22v-53q0 -60 40 -60z" />
    <glyph glyph-name="seven.denominator" unicode="&#xf65c;" 
d="M68 0l95 340h-138v60h211v-46l-96 -354h-72z" />
    <glyph glyph-name="eight.denominator" unicode="&#xf65d;" 
d="M27 115q0 76 47 96q-42 20 -42 86q0 52 28 80.5t79 28.5t78.5 -28.5t27.5 -80.5q0 -65 -42 -86q47 -21 47 -96q0 -121 -112 -121q-54 0 -82.5 31t-28.5 90zM139 240q37 0 37 52q0 53 -38 53q-37 0 -37 -52q0 -53 38 -53zM139 55q40 0 40 61q0 62 -40 62q-41 0 -41 -61
q0 -62 41 -62z" />
    <glyph glyph-name="nine.denominator" unicode="&#xf65e;" 
d="M32 97v12h69l-1 -13q-3 -41 37 -41q24 0 32.5 16.5t8.5 63.5v40q-23 -26 -62 -26q-89 0 -89 122q0 135 110 135t110 -141v-141q0 -62 -27 -95q-30 -35 -83 -35q-48 0 -76.5 28t-28.5 75zM137 210q22 0 41 23v52q0 60 -40 60q-22 0 -31 -15.5t-9 -53.5q0 -36 9 -51t30 -15
z" />
    <glyph glyph-name="zero.numerator" unicode="&#xf661;" 
d="M139 261q-111 0 -111 134v144q0 134 111 134q110 0 110 -134v-144q0 -134 -110 -134zM139 322q23 0 32 13t9 48v168q0 35 -9 48t-32 13t-32.5 -13.5t-9.5 -47.5v-168q0 -34 9.5 -47.5t32.5 -13.5z" />
    <glyph glyph-name="one.numerator" unicode="&#xf662;" 
d="M118 267v301h-62v42q63 25 89 57h42v-400h-69z" />
    <glyph glyph-name="two.numerator" unicode="&#xf663;" 
d="M25 266v58q100 120 126.5 161.5t26.5 79.5q0 47 -38 47q-42 0 -42 -52v-15h-69v17q0 52 30 81.5t83 29.5q50 0 78.5 -29t28.5 -79q0 -48 -28 -92q-20 -33 -96 -125q-6 -8 -18 -22h133v-60h-215z" />
    <glyph glyph-name="three.numerator" unicode="&#xf664;" 
d="M136 260q-51 0 -81 30t-30 81q0 9 1 14h70v-11q0 -53 41 -53t41 63q0 35 -13 48t-48 14v62q35 1 46.5 11t11.5 41q0 52 -37 52q-20 0 -29 -12t-9 -40h-69v10q0 46 30 74.5t78 28.5q49 0 76 -29.5t27 -82.5q0 -63 -45 -83q52 -15 52 -93q0 -59 -29.5 -92t-83.5 -33z" />
    <glyph glyph-name="four.numerator" unicode="&#xf665;" 
d="M144 267v99h-131v66l127 235h73v-241h49v-60h-49v-99h-69zM75 424h71v145z" />
    <glyph glyph-name="five.numerator" unicode="&#xf666;" 
d="M136 261q-51 0 -78 28t-27 81v14h69q-1 -6 -1 -13q0 -49 36 -49q24 0 32 17.5t8 68.5q0 49 -8.5 67.5t-31.5 18.5q-22 0 -41 -32h-62l5 205h193v-60h-133l-1 -79q27 21 61 21q47 0 69 -34q20 -29 20 -104q0 -78 -23 -112q-27 -38 -87 -38z" />
    <glyph glyph-name="six.numerator" unicode="&#xf667;" 
d="M140 261q-110 0 -110 141v141q0 62 27 95q30 35 83 35q48 0 76.5 -28t28.5 -75v-12h-69l1 13q3 41 -37 41q-24 0 -32.5 -16.5t-8.5 -63.5v-40q23 26 62 26q89 0 89 -122q0 -135 -110 -135zM139 322q22 0 31 15.5t9 53.5q0 36 -9 51t-30 15q-22 0 -41 -23v-52
q0 -60 40 -60z" />
    <glyph glyph-name="seven.numerator" unicode="&#xf668;" 
d="M68 267l95 340h-138v60h211v-46l-96 -354h-72z" />
    <glyph glyph-name="eight.numerator" unicode="&#xf669;" 
d="M138 261q-54 0 -82.5 31t-28.5 90q0 76 47 96q-42 20 -42 86q0 52 28 80.5t79 28.5t78.5 -28.5t27.5 -80.5q0 -65 -42 -86q47 -21 47 -96q0 -121 -112 -121zM139 507q37 0 37 52q0 53 -38 53q-37 0 -37 -52q0 -53 38 -53zM139 322q40 0 40 61q0 62 -40 62q-41 0 -41 -61
q0 -62 41 -62z" />
    <glyph glyph-name="nine.numerator" unicode="&#xf66a;" 
d="M137 260q-48 0 -76.5 28t-28.5 75v12h69l-1 -13q-3 -41 37 -41q24 0 32.5 16.5t8.5 64.5v39q-22 -25 -62 -25q-89 0 -89 122q0 135 110 135t110 -141v-141q0 -63 -27 -96q-30 -35 -83 -35zM137 477q22 0 41 22v53q0 60 -40 60q-22 0 -31 -15.5t-9 -53.5q0 -36 9 -51
t30 -15z" />
    <glyph glyph-name="cent.superior" unicode="&#xf6e0;" 
d="M115 242v71q-43 7 -61 32.5t-18 79.5v85q0 52 18 77.5t61 32.5v67h47v-67q78 -10 78 -97v-14h-67q1 5 1 11q0 45 -35 45q-21 0 -29 -13.5t-8 -48.5v-71q0 -37 8 -50.5t29 -13.5q35 0 35 49q0 6 -1 11h67v-14q0 -88 -78 -101v-71h-47z" />
    <glyph glyph-name="comma.superior" unicode="&#xf6e2;" horiz-adv-x="147" 
d="M40 184l27 82h-26v71h65v-68l-36 -85h-30z" />
    <glyph glyph-name="dollar.superior" unicode="&#xf6e4;" 
d="M114 197v66q-53 9 -94 59l49 42q37 -42 71 -42q19 0 30.5 12t11.5 32q0 22 -13 36.5t-58 44.5q-48 31 -66 57t-18 62q0 41 23 68.5t64 35.5v58h47v-57q47 -6 84 -46l-49 -45q-26 32 -57 32q-20 0 -31.5 -11t-11.5 -30q0 -21 11 -33.5t54 -39.5q52 -33 72 -61t20 -68
q0 -43 -24.5 -71.5t-67.5 -34.5v-66h-47z" />
    <glyph glyph-name="hyphen.superior" unicode="&#xf6e6;" horiz-adv-x="148" 
d="M25 391v56h97v-56h-97z" />
    <glyph glyph-name="period.superior" unicode="&#xf6e8;" horiz-adv-x="147" 
d="M41 266v71h65v-71h-65z" />
    <glyph glyph-name="apple" unicode="&#xf8ff;" horiz-adv-x="800" 
d="M35 101v649h629q42 0 71.5 -29.5t29.5 -71.5v-649h-629q-42 0 -71.5 29.5t-29.5 71.5zM303 387q34 0 52 19t18 53v169q0 72 -70 72t-70 -72v-169q0 -34 18 -53t52 -19zM400 390h54v234q0 23 16 23t16 -23v-234h54v240q0 68 -58 68q-22 0 -27 -10v9h-55v-307zM581 459
q0 -34 18 -53t52 -19t52 19t18 53v34h-54v-31q0 -23 -16 -23t-16 23v128h78v52h-79v55h-54v-55h-18v-52h19v-131zM92 390h54v103h59v60h-59v84h67v60h-121v-307zM303 440q-16 0 -16 22v162q0 23 16 23t16 -23v-162q0 -22 -16 -22zM526 122q0 -34 18 -53t52 -19t52 19t18 53
v12h-54v-9q0 -22 -16 -22t-16 22v39h86v127q0 72 -70 72t-70 -72v-169zM90 131q0 -81 73 -81t73 89q0 25 -12 45.5t-54 49.5q-26 17 -26 38q0 38 19 38q18 0 18 -32v-25h54v29q0 81 -72 81q-36 0 -55 -23.5t-19 -65.5q0 -17 3.5 -29t19 -30t44.5 -37q25 -17 25 -37
q0 -38 -19 -38q-18 0 -18 32v10h-54v-14zM365 122q0 -34 18 -53t52 -19t52 19t18 53v34h-54v-31q0 -22 -16 -22t-16 22v128h78v52h-79v55h-54v-55h-18v-52h19v-131zM266 299h54v61h-54v-61zM580 210v77q0 23 16 23t16 -23v-77h-32zM266 53h54v215h-54v-215zM706 53h6v27
l9 -21h4l9 21v-27h6v35h-8l-9 -21l-9 21h-8v-35zM674 82h10v-29h6v29h10v6h-26v-6z" />
    </font>
</defs>
</svg>
