<?xml version="1.0" standalone="no"?>
<!DOCTYPE svg PUBLIC "-//W3C//DTD SVG 1.1//EN" "http://www.w3.org/Graphics/SVG/1.1/DTD/svg11.dtd" >
<svg xmlns="http://www.w3.org/2000/svg" xmlns:xlink="http://www.w3.org/1999/xlink" version="1.1">
<metadata>
Created by FontForge 20141024 at Mon Mar  7 14:58:17 2016
 By Jimmy Warting
Copyright 1997, 2001 , 2002Adobe Systems Incorporated. All Rights Reserved. Flood is a trademark of Adobe Systems Incorporated.
</metadata>
<defs>
<font id="FloodStd" horiz-adv-x="500" >
  <font-face 
    font-family="Flood Std"
    font-weight="400"
    font-style="italic"
    font-stretch="normal"
    units-per-em="1000"
    panose-1="0 0 5 0 0 0 0 0 0 0"
    ascent="662"
    descent="-338"
    x-height="567"
    cap-height="631"
    bbox="-175 -304 1222 871"
    underline-thickness="100"
    underline-position="-25"
    slope="-30"
    stemh="100"
    stemv="100"
    unicode-range="U+0020-FB02"
  />
<missing-glyph horiz-adv-x="701" 
d="M201 0v700h500v-700h-500zM451 395l170 255h-340zM481 350l170 -255v510zM281 50h340l-170 255zM251 605v-510l170 255z" />
    <glyph glyph-name=".notdef" horiz-adv-x="701" 
d="M201 0v700h500v-700h-500zM451 395l170 255h-340zM481 350l170 -255v510zM281 50h340l-170 255zM251 605v-510l170 255z" />
    <glyph glyph-name="space" unicode=" " horiz-adv-x="275" 
 />
    <glyph glyph-name="exclam" unicode="!" horiz-adv-x="341" 
d="M241 556l-13 -24l-13 2l18 28zM406 557c0 -44 -56 -73 -111 -161c-39 -62 -131 -215 -211 -286l-4 22c22 28 35 48 34 68l-31 -24c2 24 -5 46 14 77c-2 4 -3 8 -5 12c13 21 22 42 22 71c58 79 31 90 89 176l26 5c50 75 95 134 119 134c28 0 58 -60 58 -94zM53 -43
l-30 -47c-6 13 -20 22 -29 14c-9 16 -21 40 -41 53c-22 14 -28 36 -28 76c16 27 30 58 55 58c48 0 62 -87 73 -154z" />
    <glyph glyph-name="quotedbl" unicode="&#x22;" horiz-adv-x="360" 
d="M425 564c-12 -22 -23 -35 -45 -31c-22 -32 -41 -64 -54 -93l10 -10c7 14 27 50 40 71l13 -3c-22 -44 -53 -102 -68 -159l-55 16c-13 19 -24 39 -28 66c2 14 25 180 117 180c31 0 54 -19 70 -37zM220 479h-11c-7 -29 -19 -60 -33 -88l5 -11l-28 -39l-7 6
c-16 -17 -37 -27 -59 -27c-6 12 -17 23 -17 36c0 59 34 177 62 249c12 7 31 13 47 13l3 -18c38 -18 38 -43 38 -121z" />
    <glyph glyph-name="numbersign" unicode="#" horiz-adv-x="707" 
d="M672 372c-76 -23 -134 -27 -182 -56l-13 -37c46 9 101 29 131 38c14 -27 46 -45 46 -66c0 -27 -91 -35 -243 -87l6 -20l-17 -3c8 -10 3 -21 -1 -30c-14 -29 -30 -66 -45 -100c-12 8 11 35 -1 42l-50 -115l-6 6c15 33 20 59 28 81c-15 6 -23 -60 -46 -62c7 16 10 37 6 55
c20 23 35 58 40 95c-12 -3 -16 -19 -23 -38l-8 5l18 49c-67 -6 -128 -49 -131 -130c-15 0 -12 -11 -7 -19c-11 -14 -47 -74 -59 -112c-8 4 -15 9 -21 18l14 33l-12 8l-19 -20c5 28 30 53 15 74c9 17 20 43 32 74l-89 -42c4 12 9 21 20 29c2 8 4 12 6 20c26 14 82 27 84 51
l-79 -36c9 20 68 49 107 67c2 8 -4 12 -12 12c7 21 15 41 21 60l-117 -36v15l12 10c0 31 6 28 28 47l-7 9c31 18 77 44 124 69c59 159 126 303 175 303c11 0 26 -7 39 -15c0 -30 26 -22 26 -43c0 -37 -70 -71 -80 -126c-22 -12 -38 -38 -49 -78c37 16 70 41 109 54l-9 8
c24 55 67 155 97 155c17 0 51 -50 70 -66c-9 -20 -23 -31 -36 -42l-14 -37l46 5c26 3 53 -28 76 -54v-22zM364 235l-28 -6v1c24 11 40 37 34 64c-31 -5 -71 -25 -89 -37c-18 -33 -28 -47 -22 -58l42 15c10 4 19 7 27 11c9 -15 27 -5 36 10zM118 235l-6 7l-20 -14v-11z
M124 -19h-14c0 -10 -1 -24 -5 -37l10 -3zM348 -7l-14 -32l-6 7c6 15 8 27 20 25zM97 119l10 15l39 18c0 -5 -11 -19 -49 -33zM111 -144l-4 -22l-9 4l3 25z" />
    <glyph glyph-name="dollar" unicode="$" horiz-adv-x="521" 
d="M473 551l-2 -12c34 -9 51 -38 47 -74c4 -3 6 -7 6 -11c0 -20 -33 -48 -69 -56c-5 6 -7 11 -7 15c0 11 17 14 11 22c-58 0 -100 -7 -142 -26c-11 -27 -22 -55 -31 -81l-11 -7c-1 -2 -1 -5 -3 -7c40 -27 79 -41 105 -71l11 6c28 -30 42 -65 40 -89l-7 -75l-16 3
c-28 -38 -85 -70 -140 -95c-29 12 -44 7 -43 -18c-24 -8 -45 -15 -63 -19c-5 -15 -10 -30 -16 -43l5 -14c-6 -20 -24 -57 -43 -78l-13 30l4 42l-5 3l1 34l8 1l3 22c-13 6 -27 19 -43 33c-36 8 -45 29 -40 46c-13 18 -22 34 -21 45c2 16 13 35 21 42c8 -6 13 -11 20 -1
c16 -14 32 -39 48 -39c10 0 22 1 36 4c11 53 25 112 44 175c-13 12 -36 32 -41 57c-5 31 -14 65 -13 85c4 50 71 100 147 129c5 14 12 28 18 42l55 69c32 10 57 12 73 12l9 -11l-14 -16l9 -9l15 13l6 -7c-15 -22 -29 -44 -42 -67c28 0 60 -1 83 -4zM494 393l-8 6l23 16
c0 -11 -3 -12 -15 -22zM212 137l-7 -29c26 11 53 25 77 40v19c-15 14 -26 35 -38 46c-8 -23 -15 -48 -23 -72zM263 11l4 -6l36 17l2 10zM253 508c-31 -11 -58 -24 -59 -38l57 33c1 2 1 3 2 5z" />
    <glyph glyph-name="percent" unicode="%" horiz-adv-x="692" 
d="M727 469l-30 -29l-11 6c-136 -75 -262 -155 -357 -225l-12 -24c-96 -82 -202 -192 -306 -283c-19 37 11 80 59 135c8 10 13 18 9 24l-44 -48l-6 4c20 25 44 58 64 69c19 41 105 128 165 179c10 14 5 18 -4 30c-36 -22 -77 -39 -123 -41l-10 18l-8 -12
c-21 23 -24 35 -21 59l-14 24c12 73 88 147 157 147c37 0 64 -80 64 -163l13 -21l88 84l8 -6l112 80l-7 8c49 33 123 67 163 80l9 -9l-8 -11c20 -14 40 -26 50 -40v-35zM549 173c-11 -10 -6 -24 -2 -30l-18 -27v-74c-35 -43 -73 -72 -119 -72c-37 0 -53 27 -61 56h-11
c0 97 81 210 153 210c45 0 58 -41 58 -63zM430 53h-26c-3 -9 0 -14 5 -14c6 0 14 4 21 14z" />
    <glyph glyph-name="ampersand" unicode="&#x26;" horiz-adv-x="638" 
d="M309 186c-16 29 -31 59 -42 90c-66 -26 -120 -85 -140 -131l6 -13c50 0 113 24 176 54zM169 114l-4 9h-27l5 -6zM603 209c-21 -9 -27 -20 -1 -25c0 -4 -1 -9 -2 -13c-16 -6 -43 -9 -64 -18c-26 -11 -48 -23 -69 -35c22 -24 46 -44 68 -63c22 -18 15 -52 -4 -78l5 -8
l-6 -11l-8 7c-4 -4 -8 -6 -12 -9l-53 45h-12c-23 24 -49 55 -71 83l-9 -5l5 -20c-49 -28 -102 -50 -182 -55l5 -13c-17 2 -32 0 -44 12c-66 1 -99 57 -139 124v74l17 11c58 139 167 158 208 229c-1 35 3 70 12 105l99 63c18 -10 46 22 79 22c19 0 50 -18 57 -35
s27 -64 27 -80c0 -34 -87 -100 -179 -172c8 -38 26 -79 53 -120c80 42 150 83 181 83c20 -26 -7 -71 38 -58c0 -15 1 -27 1 -40zM264 287l-5 15l-31 -23l2 -7z" />
    <glyph glyph-name="quoteright" unicode="&#x2019;" horiz-adv-x="215" 
d="M280 525c0 -10 -2 -23 -7 -35l-6 7c-52 -57 -113 -150 -165 -150h-42v22c6 3 17 24 30 54l22 11l-13 8c35 76 83 182 127 182c31 0 54 -49 54 -99z" />
    <glyph glyph-name="parenleft" unicode="(" horiz-adv-x="480" 
d="M252 -141c-33 0 -106 16 -161 71l-41 123c0 322 297 518 468 642c5 4 10 8 16 8c11 0 9 -30 19 -26l16 6c6 -13 16 -28 16 -39c0 -69 -305 -189 -418 -479c-17 2 -18 -12 -7 -26l-6 -19h-14c-1 -45 -3 -97 32 -139c43 -24 78 -30 121 -30c47 0 70 4 130 3l10 -17
c-6 -4 -12 -9 -18 -13c-10 4 -20 4 -30 -2c-11 -7 -26 -12 -46 -24c-5 -3 -8 -13 -6 -18c-32 -13 -57 -21 -81 -21zM306 -115l-4 6l-35 -6l7 -9zM392 -102l-35 -19l-13 5c10 5 39 26 48 14z" />
    <glyph glyph-name="parenright" unicode=")" horiz-adv-x="480" 
d="M238 700c33 0 106 -16 161 -71l41 -123c0 -322 -297 -518 -468 -642c-5 -4 -10 -8 -16 -8c-11 0 -9 30 -19 26l-16 -6c-6 13 -16 28 -16 39c0 69 305 189 418 479c17 -2 18 12 7 26l6 19h14c1 45 3 97 -32 139c-43 24 -78 30 -121 30c-47 0 -70 -4 -130 -3l-10 17
c6 4 12 9 18 13c10 -4 20 -4 30 2c11 7 28 12 55 23c7 3 2 12 -3 19c32 13 57 21 81 21zM98 661l35 19l13 -5c-10 -5 -39 -26 -48 -14zM184 674l4 -6l35 6l-7 9z" />
    <glyph glyph-name="asterisk" unicode="*" horiz-adv-x="328" 
d="M155 362l-5 13c-6 -25 -15 -55 -20 -86h-1c-2 5 -4 11 -7 15c5 32 13 64 23 96c-24 -2 -57 -10 -81 -15c-3 3 -6 5 -7 8l31 7c-12 10 -18 7 -34 3c-1 13 9 26 9 46c12 2 38 10 57 17c-41 45 -75 102 -50 127c44 -31 68 -67 111 -94c23 54 50 101 79 132
c30 -8 41 -43 55 -63l-20 -35c12 4 22 12 33 22c2 -1 4 -3 6 -3c45 -6 46 -44 56 -48c-18 -23 -70 -54 -110 -72c35 -35 57 -75 64 -102c-61 0 -77 35 -115 57c-20 -61 -42 -107 -45 -153c-10 0 -16 1 -22 3l4 21h-9l-7 -12c-7 7 -12 17 -16 28c6 32 14 61 21 88z" />
    <glyph glyph-name="plus" unicode="+" horiz-adv-x="625" 
d="M551 216c-67 -14 -161 -32 -252 -44c-30 -61 -54 -123 -54 -172l-55 12c-10 19 -28 42 -28 61c0 24 7 54 18 86c-23 -2 -44 -3 -64 -3c0 24 -13 40 -36 40c0 27 7 56 15 74c42 11 93 14 144 17c36 66 76 130 100 169c17 7 33 7 43 4v-16c17 -10 25 -33 25 -47v-53h-14
c-8 -16 -18 -34 -29 -53c16 0 31 1 43 2v-11c20 -5 49 -7 71 -7l22 -30c27 1 31 -16 51 -29zM286 170c-4 -1 -8 -1 -12 -2l-28 -78l5 -7z" />
    <glyph glyph-name="comma" unicode="," horiz-adv-x="204" 
d="M119 14l-98 -128c-40 -53 -110 -68 -136 -87l12 32l-12 11c25 69 73 134 104 188l-5 16c9 23 18 55 14 84c7 4 19 10 27 10c51 0 73 -74 94 -126z" />
    <glyph glyph-name="hyphen" unicode="-" horiz-adv-x="504" 
d="M499 204c-134 -41 -308 -58 -435 -64c-2 16 -20 31 -39 37c0 21 6 54 17 77c62 50 190 20 286 29l-5 -13c19 -5 51 -9 77 -9l24 -36c31 4 55 -7 75 -21z" />
    <glyph glyph-name="period" unicode="." horiz-adv-x="170" 
d="M88 31c-5 -23 -55 -86 -91 -98l-55 63l10 13c-24 55 16 128 55 128c32 0 66 -51 81 -106z" />
    <glyph glyph-name="slash" unicode="/" horiz-adv-x="385" 
d="M520 556c-98 -74 -193 -158 -266 -249c-94 -118 -222 -287 -292 -371l-2 -17c-37 -44 -68 -78 -95 -93v40c6 13 13 27 20 41l-7 10l24 38l5 -3c82 159 213 370 445 628l82 51c35 -3 58 -12 73 -20l7 -28l-21 -11l4 -13l21 7zM-15 -19v13l-26 -35l1 -9z" />
    <glyph glyph-name="zero" unicode="0" horiz-adv-x="594" 
d="M549 384l-10 -14c48 -67 2 -163 -69 -244c-2 40 -31 -6 -34 -36c-23 -22 -46 -40 -70 -56c-13 0 -27 2 -43 -12c-26 -23 -75 -39 -111 -48c-10 9 -26 20 -35 11l-54 40c-27 -30 -61 35 -88 98c0 315 305 480 356 480c21 0 75 -24 100 -39l25 -66l11 2
c-1 -18 -7 -35 -19 -53c-11 -18 13 -37 41 -63zM439 453c-96 0 -201 -124 -256 -240c-10 0 -24 -7 -29 -16l19 -6c-15 -36 -26 -70 -30 -97l65 10c58 23 162 112 197 183c-26 66 -22 106 12 124c18 9 22 25 22 42z" />
    <glyph glyph-name="one" unicode="1" horiz-adv-x="394" 
d="M385 486c-85 -218 -155 -286 -214 -528l-28 -17c-2 2 -4 5 -7 8l25 71c-21 4 -31 -30 -37 -61c-15 13 -32 26 -43 34c0 16 -4 21 -20 11c-1 14 -6 27 -6 39s20 24 20 46c0 66 73 233 125 321c-17 2 -67 -24 -95 -40c-39 40 -68 124 -15 138c72 19 143 67 217 87
c23 0 48 -10 60 -14c8 -26 15 -58 18 -95z" />
    <glyph glyph-name="two" unicode="2" horiz-adv-x="723" 
d="M697 115c-21 -2 -45 -7 -51 0l47 9zM440 269l-38 -20l-2 6l38 25zM703 154c-14 -31 -54 -26 -105 -33c-45 -6 -56 -39 -122 -61v9c18 7 37 16 48 24l-3 7c-57 -30 -73 -7 -80 -49c-41 -8 -14 18 -60 18l-25 -26c-54 -11 -122 -28 -184 -37c-18 18 -38 14 -34 -4
c-14 -1 -29 -2 -42 -2c-28 0 -42 40 -63 72c10 15 17 31 -3 35c106 160 387 256 387 318c-10 14 -26 21 -46 21c-41 0 -97 -25 -141 -49c-21 -12 -22 13 -48 50c-20 28 -1 35 -21 50c14 12 12 29 33 41c58 34 201 41 283 49l-4 -11c76 0 126 -47 126 -92
c0 -41 -11 -84 -36 -115c-30 -4 -51 -30 -53 -60l-56 -31l-3 9c15 9 32 19 31 34c-83 -44 -184 -89 -238 -152c96 -6 234 24 318 32c40 -17 57 -24 100 -24l4 -9h-42l7 -10z" />
    <glyph glyph-name="three" unicode="3" horiz-adv-x="600" 
d="M560 280c0 -76 -10 -145 -68 -197l-13 6c-56 -49 -107 -69 -166 -99l-5 11c-30 -13 -64 -26 -98 -38l-5 17c-11 -1 -21 -11 -23 -26c-66 -21 -127 -36 -194 -45c-6 -1 -12 2 -11 12c1 11 25 28 19 40l-30 -13c-16 39 -12 74 -2 106c71 0 152 -2 211 29
c4 -10 18 -10 39 -4c59 17 212 69 225 130c-26 30 -90 21 -165 30l-5 -12c-54 27 -71 18 -90 70l10 44c54 14 134 77 153 118c-70 0 -181 -39 -235 -67c-3 6 -6 14 -8 20l69 33c-16 14 -44 -5 -72 -23c-6 24 -8 50 -8 76c0 38 95 81 169 81c16 0 32 -1 48 -2l8 -9
c49 0 101 -7 136 -10c19 -23 31 -47 36 -74c-9 -43 -26 -86 -41 -116c57 -19 90 -50 116 -88zM337 22l-3 9l-31 -13l6 -11zM169 -34c-6 5 -13 6 -20 5s-14 -3 -23 -5l2 -11z" />
    <glyph glyph-name="four" unicode="4" horiz-adv-x="689" 
d="M684 374c-7 -77 -81 -124 -100 -132c-18 -8 -42 -20 -56 -48c-13 -26 -37 -55 -58 -90c-19 1 -35 -4 -41 -23l22 -10c-2 -4 -4 -10 -6 -14l-21 11l-8 -22l17 -12c-9 -26 -13 -53 -10 -80c-56 -21 -39 22 -73 -1c-15 26 -31 45 -61 58c0 58 56 113 69 169
c-38 11 -31 -1 -97 -2l-5 -18c-29 4 -44 7 -49 -1s-25 -3 -64 27l-11 -9c-54 28 -97 79 -97 113c0 38 179 262 278 346c12 -7 33 -6 45 -3c29 -18 23 -52 9 -103l-10 6c-33 -68 -106 -167 -150 -244c46 0 95 2 133 16l-2 -14c75 -5 128 106 146 168l40 27
c40 -54 57 -89 48 -141c29 -4 69 29 95 48c4 -14 4 -26 17 -22zM422 29l-10 5l-7 -20l7 -6zM249 179l-22 3l-7 -7l27 -4zM373 313l-24 -8v8l21 11zM586 335l-18 -8l-3 -11c12 -1 15 5 21 19z" />
    <glyph glyph-name="five" unicode="5" horiz-adv-x="584" 
d="M673 537c-102 -61 -273 -54 -361 -71c-17 -17 -35 -39 -30 -63l15 -72c8 -44 57 -47 101 -69c25 -38 38 -85 37 -131c-3 -73 -103 -136 -199 -170c-82 0 -126 18 -184 78c0 4 0 10 -1 14l36 -18c-7 18 -22 24 -38 37c-1 6 -1 14 -1 20l27 24l28 -13c25 -12 11 -38 33 -38
c7 0 144 45 153 138c-20 58 -71 78 -127 113l-30 108l-57 -7c-18 51 11 81 40 114l27 6c6 22 22 47 32 70c15 0 23 3 30 3c9 0 19 -3 41 -19l348 75c40 -7 71 -54 71 -69c0 -8 -4 -15 -8 -20zM640 559l-2 11l-53 -19l-6 -11zM322 21v13c-24 0 -28 -9 -51 -39z" />
    <glyph glyph-name="six" unicode="6" horiz-adv-x="585" 
d="M570 642c0 -50 -8 -98 -19 -142l-169 -109c0 -10 -7 -20 -17 -28l-6 10l-30 -24l8 -6c-20 -15 -42 -32 -51 -57c4 -7 11 -12 19 -13c3 -1 9 -1 59 -5l5 10c77 0 106 -45 106 -111c4 -5 8 -8 8 -20s-23 -63 -46 -95l-15 4c-32 -54 -156 -89 -230 -105
c-14 10 -24 10 -24 -8c-38 10 -131 85 -131 139h15c11 38 -7 90 39 172l-14 2c44 60 109 135 177 205c19 0 31 4 22 22c99 99 201 181 247 181c15 0 31 -11 47 -22zM47 92h-11l-1 27c11 -9 12 -19 12 -27zM304 121c-33 23 -37 52 -108 58l-57 -97c21 -8 35 -13 44 5
c32 3 83 14 121 34zM280 293l-7 9c-8 -10 -12 -22 -8 -29zM329 113c-9 5 -21 -4 -31 -10l8 -5z" />
    <glyph glyph-name="seven" unicode="7" horiz-adv-x="656" 
d="M661 235c-97 -46 -188 -79 -269 -100c-37 -65 -73 -133 -100 -207c-17 -8 -31 -28 -3 -77h-35c-25 24 -61 56 -75 85c14 9 10 17 -16 27c17 46 43 97 70 146h-18c-17 0 -30 4 -43 9l-10 -8l-23 16l3 14c-23 25 -32 59 -32 82c0 24 41 77 72 77c22 0 48 -20 74 -23
c35 -4 69 -7 106 -9l3 7l-22 13c48 74 89 134 97 162c-52 18 -145 -43 -168 -15s-52 -20 -70 -22s-43 -6 -55 -7c-11 -1 -20 -10 -24 -15c-29 29 -83 59 -83 98c0 17 17 40 31 61c59 15 173 27 276 32v12l22 1c5 0 9 -3 13 -9v-1h1c1 -2 4 -7 5 -10l21 2v9c29 1 56 1 79 1
l13 12c10 -18 18 -35 23 -56c12 -5 22 -12 22 -25v-84l-9 -13c0 -24 -1 -42 -1 -54h-13c-17 -32 -35 -67 -56 -103h28c0 -36 53 -17 84 -12v-11l-24 -8l7 -11c22 5 41 6 43 20c22 -8 42 3 56 5v-11zM553 217l-7 12l-9 -3l5 -10zM383 309l-6 5l-15 -23l9 -6zM275 -56l-10 10
c-5 -14 -2 -23 2 -31z" />
    <glyph glyph-name="eight" unicode="8" horiz-adv-x="566" 
d="M542 402c0 -26 -43 -59 -105 -102c-19 8 -39 6 -21 -15c-17 -13 -37 -26 -56 -40l-4 19l-20 -13l10 -16l-11 -7l-10 15c-10 -11 -17 -24 -12 -34c-8 -5 -15 -12 -23 -17c27 -54 57 -105 57 -155c0 -45 -74 -114 -101 -114s-63 12 -93 20c-30 24 -118 122 -118 172
s59 115 133 176c-19 42 -33 88 -30 138h-11c28 107 79 194 207 194c58 0 111 -17 152 -59l25 -75c28 -18 31 -57 31 -87zM466 336l-5 11l-32 -30l7 -5zM264 76c-4 26 -12 51 -23 75c-25 -23 -48 -47 -71 -72c4 -15 26 -33 45 -42zM546 354l-24 -22l-2 11l26 34v-23zM332 507
l-10 7c-6 -6 -22 -21 -17 -33zM393 441c-10 18 -31 39 -48 56c-64 -50 -91 -98 -96 -144c57 41 113 73 144 88z" />
    <glyph glyph-name="nine" unicode="9" horiz-adv-x="552" 
d="M534 460c1 -67 -23 -96 -38 -146c-17 8 -13 -16 -24 -33c-13 -21 -35 -15 -24 -40c-15 -6 -28 -17 -38 -29c-12 1 -18 -5 -24 -11l10 -13c-4 -8 -7 -16 -10 -25l-29 -13c-21 -35 -52 -79 -89 -127c-26 16 -63 -28 -86 -58l4 -11c10 11 20 21 35 10
c-13 -14 -26 -29 -38 -43l-39 -42c-52 11 -55 49 -89 63l-1 53c6 0 18 3 13 9l-13 8v13c70 41 129 132 191 208c-4 4 -6 10 -3 14c9 10 16 21 26 33l-106 18c-9 21 -29 42 -41 32c-41 38 -78 85 -79 124c-1 51 39 78 75 112c71 23 201 43 293 43c18 -21 34 -33 68 -33
c34 -22 55 -59 56 -116zM405 473c-62 7 -149 2 -186 -40c14 -33 65 -58 92 -96c30 43 61 88 94 136zM287 71c-13 0 -21 -9 -31 -22l11 -4zM241 -9c-5 -6 -12 -16 -16 -22l-6 17c5 5 11 7 22 5zM174 564c-16 -2 -35 -8 -48 -12l4 -7c19 6 40 5 44 19z" />
    <glyph glyph-name="colon" unicode=":" horiz-adv-x="274" 
d="M209 265l-93 -96l-16 8l7 32c-13 27 -26 61 -23 97c-9 5 -13 14 -13 22c0 23 34 57 62 57c42 0 76 -46 76 -120zM116 5l-5 -15c-24 2 -51 -54 -85 -71c-11 17 -28 34 -52 41l8 26l-17 9c4 49 13 111 50 111c39 0 77 -58 101 -101z" />
    <glyph glyph-name="semicolon" unicode=";" horiz-adv-x="274" 
d="M213 285c-36 -21 -51 -67 -90 -92c-40 0 -66 41 -55 73h-16c1 13 31 118 82 118c46 0 79 -32 79 -99zM138 55c0 -126 -168 -258 -263 -223c27 28 78 91 101 116l-17 6c21 57 65 120 94 188c35 -15 85 -54 85 -87z" />
    <glyph glyph-name="less" unicode="&#x3c;" horiz-adv-x="625" 
d="M474 392l-27 -28l23 -5c-45 -52 -181 -95 -197 -136l133 -90l-21 -12l56 -52l-5 -12c-199 16 -220 93 -310 127l28 74c16 18 37 34 58 53l22 19c50 43 108 81 153 117c28 -3 70 -20 87 -55z" />
    <glyph glyph-name="equal" unicode="=" horiz-adv-x="625" 
d="M147 236l-59 56c0 77 114 97 221 97c41 0 78 -11 111 -17l56 -40l-13 -11l41 -25c-55 0 -263 -23 -309 -36c-15 -4 -20 -13 -18 -22c45 0 129 1 150 9l93 -17l-6 -11l71 -10c8 -10 20 -23 34 -31c-15 -4 -30 -9 -28 -16l52 4c8 -4 18 -5 27 -6v-1
c-136 -46 -325 -44 -470 -44c0 19 -12 36 -35 36c0 37 45 76 82 85z" />
    <glyph glyph-name="greater" unicode="&#x3e;" horiz-adv-x="625" 
d="M130 102l27 29l-23 5c45 51 181 94 197 135l-133 91l21 11l-56 53l5 11c199 -15 220 -92 310 -127l-28 -73c-16 -18 -37 -35 -58 -54l-22 -19c-50 -43 -108 -81 -153 -116c-28 3 -70 20 -87 54z" />
    <glyph glyph-name="question" unicode="?" horiz-adv-x="468" 
d="M513 507c-9 -25 -13 -53 -16 -73c-12 -86 -101 -222 -270 -290c0 27 -6 40 -30 37v36c89 65 175 151 198 220c0 20 -17 31 -3 41c-11 15 -24 18 -44 17c-54 -2 -167 -43 -218 -44v4c-18 14 -29 19 -34 19c-8 0 -8 -5 -8 -10c1 -3 1 -5 2 -7c-30 12 -45 42 -45 87
c0 21 15 41 41 45c91 13 241 31 293 31c34 0 53 -28 96 -34zM199 36l-14 -113l-49 23c-5 18 -25 47 -43 63c0 24 -13 50 -13 70c0 32 13 69 36 69c60 0 68 -37 83 -112z" />
    <glyph glyph-name="at" unicode="@" horiz-adv-x="869" 
d="M558 633h16c14 0 27 -1 40 -3c20 -30 53 -18 78 -28c89 -51 155 -159 155 -286c0 -172 -178 -361 -293 -361c-31 0 -60 20 -81 42c3 9 2 20 -4 31c-17 -20 -60 -74 -90 -74c-45 0 -88 93 -88 135c0 81 65 224 134 224c66 0 71 -49 94 -80l28 19c29 -18 43 -52 28 -77
c-12 -20 -31 -49 -53 -79c-6 -12 -5 -26 14 -31c6 -2 12 -2 19 -2c70 0 196 129 196 273c0 125 -66 192 -175 192c-40 0 -80 -9 -119 -27l-9 11c-18 -40 -84 -50 -118 -81l14 -6c-13 -12 -27 -19 -39 -32c-1 5 -4 11 -8 14c-36 -12 -69 -78 -68 -95c-3 -5 -13 -13 -16 -18
l-9 6c-5 -10 -13 -23 -10 -38c-45 -62 -70 -155 -70 -219c0 -71 25 -135 57 -181c-8 -7 -6 -27 8 -37l3 -40c-26 11 -51 27 -73 48c-8 11 -15 30 -10 38l-3 4c-32 10 -55 90 -57 145l-14 7l-10 1c-6 19 -7 39 -1 58c7 6 15 8 23 12l2 14h-22c4 26 11 54 20 82l36 8
c15 38 34 80 39 113l-7 8c-21 -35 -30 -65 -48 -72c30 86 86 168 155 224c79 42 149 77 147 110c21 11 44 20 67 27l16 -11c27 3 71 6 63 28l24 3c6 -11 15 -17 24 -18c10 -2 20 2 28 8l-29 3zM452 194l-7 19c-20 -15 -46 -47 -49 -61c19 10 38 28 56 42zM45 80l-10 -3
l-1 -22h9zM495 626l2 -7l-28 -8l-10 8c12 3 24 5 36 7zM343 572l-1 -11l-30 -20v12zM299 544l2 -11c-11 -9 -26 -18 -49 -28v1c12 11 34 28 47 38zM73 241l-9 -23h-9l8 23h10zM39 -23l-8 2l-4 37l9 -3z" />
    <glyph glyph-name="A" unicode="A" horiz-adv-x="569" 
d="M528 195c-18 -2 -37 -6 -54 -8c-8 -17 -5 -61 -26 -81c14 -8 6 -33 -7 -45c6 -15 10 -26 -11 -54c-1 -4 9 1 11 3c-2 -34 -10 -61 -20 -91c-31 0 -59 30 -75 24c1 20 -2 28 -16 28l1 14c5 0 9 3 10 10c-5 0 -9 3 -9 10c2 23 14 52 20 82c7 0 7 -13 6 -28c7 0 18 41 20 64
l-12 5c-1 -16 -1 -38 -13 -33c3 14 6 49 9 61l17 -21c-1 12 4 15 2 30c-57 2 -208 -79 -253 -110l-5 -13l4 -12c-17 -35 -32 -76 -48 -97l-63 27c-3 31 -46 44 -35 70h-16c22 151 189 313 283 439c47 62 94 104 133 135c7 6 35 -4 37 15c13 -4 41 -16 56 -28l-18 -6
c-1 -17 24 2 29 -2c37 -32 16 -86 35 -115c1 -5 -1 -91 -16 -100c2 -2 3 -2 6 -4c-6 -22 -14 -51 -16 -79c-1 -12 37 -46 34 -90zM447 481l-3 10c-19 -1 -65 -57 -108 -114l-5 5c3 8 6 14 2 18c-16 -18 -23 -27 -14 -46c-15 -20 -29 -38 -42 -54c-18 -23 -45 -66 -68 -99
c20 12 35 33 75 50c35 15 56 19 92 29c3 26 13 45 17 59l17 -15c12 31 26 112 37 157zM399 293h-11c-4 -12 3 -12 10 -11zM398 299l-1 10l-4 1l-4 -11h9zM363 55l-6 -3l-4 -13h6zM222 129c-13 10 -46 -12 -65 -22c-5 -7 -7 -11 -11 -18zM234 135c9 5 24 11 35 18v1
c-22 -1 -31 -3 -35 -19zM434 463l-8 -31h-9l8 27zM167 125c4 2 27 10 33 24c-8 -3 -14 -4 -21 -7z" />
    <glyph glyph-name="B" unicode="B" horiz-adv-x="616" 
d="M262 225c-20 0 -40 14 -52 14c-11 0 -13 -7 -18 -7l10 -8c-5 -9 -12 -19 -19 -19c10 -14 3 -30 -5 -50c-8 -7 -19 -12 -23 -21c13 0 9 -6 5 -10c-10 -8 -16 -14 -5 -33l17 21l-1 -31h-7c-2 -5 -4 -11 -4 -18c44 20 80 33 90 23c5 13 23 22 45 34c10 -18 14 2 24 2
c8 0 19 -3 23 14c43 20 91 44 129 94c-89 34 -127 -5 -209 -5zM124 412l51 41c19 53 53 130 81 172h18c40 0 54 -33 60 -47h-14c0 -12 5 -28 12 -28c28 0 51 25 83 36c19 6 49 11 59 11c22 0 47 -59 56 -86c-10 -1 -18 -8 -10 -18c-15 -24 -30 -66 -49 -64
c-13 1 -46 -36 -57 -35c-19 2 -32 -19 -52 -35l-7 5c-11 -8 -34 -23 -43 -35l4 -3c32 2 78 7 114 7c49 0 88 -28 119 -51c15 -24 34 -78 44 -110c-7 -4 -13 1 -20 -2c-14 -21 -101 -88 -106 -88c-22 1 -48 -6 -70 -17l4 -15c-23 -21 -60 -29 -74 -15c-5 -5 -8 -16 -11 -24
c-107 -58 -185 -77 -174 -99c-7 -6 -14 -8 -21 -8c-22 0 -39 30 -68 34c2 11 2 23 -10 17c3 14 0 36 -5 50c17 8 36 16 53 25c-18 5 -30 23 -44 29l9 15c-10 8 -13 15 -17 24l102 273c-16 8 -19 23 -17 41zM398 260l-20 3l-1 -8c10 -2 20 -1 21 5zM463 89l-2 9l-16 -5
c-1 -7 14 -5 18 -4zM210 -19l-18 1l5 -5c2 -1 4 -1 5 -1c2 0 5 2 8 5zM377 46c5 0 10 4 14 12c-9 1 -24 -4 -29 -8c5 -3 10 -4 15 -4zM174 179h-11c0 -6 -3 -14 -7 -18l4 -7c8 7 14 17 14 25zM242 -4c-10 -4 -20 -1 -25 0c0 -5 6 -13 17 -13s13 13 8 13zM150 84
c-6 3 -10 -1 -15 -7l7 -4zM195 161l-16 -33c-3 2 -4 4 -2 8c1 8 12 20 18 25zM440 66l-29 -13c0 10 7 16 19 16c4 0 7 -1 10 -3zM530 160l7 -8l19 16c-5 7 -19 -4 -26 -8zM214 208l-17 -38c-5 2 4 30 11 43z" />
    <glyph glyph-name="C" unicode="C" horiz-adv-x="534" 
d="M523 477c-41 -10 -90 -30 -125 -55c-29 -21 -51 -45 -63 -56l-6 10c-11 -18 -49 -48 -77 -73c-1 -5 -4 -16 -7 -21c-18 -19 -117 -133 -117 -182c0 -12 5 -19 16 -19c36 0 119 24 179 33c14 2 25 -4 30 -10c-48 -10 -116 -22 -127 -42c19 -12 52 -4 67 11
c53 10 120 24 171 31l16 -4l24 3l11 -7l-52 -8c-13 -2 -27 -6 -18 -19l7 -10c-9 -4 -120 -37 -186 -58c-11 -4 -18 -14 -12 -21c-21 -5 -53 -14 -76 -14c-11 0 -20 16 -30 16c-24 0 -30 25 -62 21c-18 17 -56 81 -64 96c-5 8 -7 23 -7 34v27c16 14 17 35 17 56l10 -6
c7 11 -1 25 4 36c21 42 61 109 74 109s-6 -15 8 -15c11 0 32 52 43 52h12c-3 7 -4 19 -5 28h7c26 63 217 176 252 176c12 0 36 -11 51 -19c14 -33 42 -59 35 -100zM387 22v-1c-19 -11 -38 -22 -55 -22c-5 0 -10 1 -14 3c19 8 46 13 69 20zM293 -17c-6 0 -13 1 -19 4l33 11
c12 -9 1 -15 -14 -15zM127 331c-8 3 -13 1 -18 -8l10 -6zM174 218l-9 5l-12 -19c-4 -7 -15 -23 -10 -32zM134 158h-10l-7 -14l6 -8zM495 74l-30 -10l-10 12l27 4zM399 112c-18 0 -35 2 -43 6c40 7 82 15 112 17c-5 -17 -39 -23 -69 -23zM212 286l9 -6c21 21 21 25 21 29
c-10 0 -19 -10 -30 -23zM216 274l-9 6l-6 -10l7 -6zM113 307l-8 9l-14 -23l9 -7z" />
    <glyph glyph-name="D" unicode="D" horiz-adv-x="665" 
d="M670 377c-17 -26 -41 -64 -63 -85c-7 -7 -19 -12 -27 -11l15 16c-6 2 -16 1 -22 -5s-22 -19 -42 -35l18 -4c-109 -94 -243 -177 -359 -228l-9 -55c-19 10 -34 0 -55 0c-61 0 -81 67 -103 96c4 11 7 24 8 38l25 11c14 7 24 13 31 30c16 37 23 69 35 113l-4 15
c14 45 45 79 47 118c1 28 -36 46 -35 71c1 26 50 39 76 53l10 -7c47 51 50 154 103 154c9 0 45 -59 50 -72c4 -16 -5 -35 -9 -56c34 0 71 10 122 3c-10 -19 20 -14 26 0c10 -8 38 -5 60 -12c92 -28 97 -105 102 -148zM612 316l-13 3l-8 -9l13 -3zM568 446
c-169 0 -231 -54 -285 -71l-1 -31c-4 -5 -12 -8 -18 -15v-1c16 13 14 -32 5 -32c-5 1 -9 3 -13 6v-1c4 -6 6 -13 7 -21c-1 -23 -21 -51 -26 -89c36 22 117 54 167 97c4 -4 8 -4 15 -6l-6 14l9 6c4 -7 8 -8 10 -8c10 0 29 16 64 57c26 -9 78 58 72 95zM516 238l-9 3l-33 -18
c6 -4 14 -6 21 0zM479 210v1c-18 0 -34 -10 -54 -23c-22 -14 -57 -34 -89 -54c-1 -6 -4 -13 -11 -17c-7 7 -18 4 -29 -6c6 0 16 -3 23 -7c57 35 114 77 160 106zM237 64v-1l51 25c-4 2 -7 11 -2 17v1c-15 -8 -40 -31 -49 -42zM225 68l-31 -17l-2 -10l28 15z" />
    <glyph glyph-name="E" unicode="E" horiz-adv-x="537" 
d="M570 491c2 -10 -16 -16 -26 -24c-91 -41 -184 -44 -272 -69c-11 -18 -25 -41 -42 -68c40 4 123 38 152 38s38 -10 59 -46c-4 -11 1 -21 11 -26l-7 -22c-61 -10 -210 -34 -260 -56c-26 -11 -49 -121 -50 -144c31 -23 78 -13 107 -6l6 -10c7 0 16 6 16 12
c15 2 20 -22 34 -18c65 18 142 44 192 60c3 1 7 2 8 -1c2 -5 -13 -12 -21 -16l-68 -25c6 -4 17 -11 24 -15c3 -1 1 -3 -2 -4c-50 -17 -112 -34 -168 -48c15 -7 37 -7 56 -2c40 11 95 30 144 47c3 1 10 4 5 -6c-6 -10 -14 -17 -28 -22c-65 -25 -149 -55 -210 -55
c-117 0 -200 53 -196 199c2 74 63 165 136 318c-5 25 -4 49 14 76c50 -6 79 71 114 71c19 0 72 -15 85 -19c1 -22 -4 -45 -18 -72c17 -4 65 -9 87 -9l9 -19c5 0 14 6 25 6s35 -10 49 -12c2 0 4 -2 2 -4c-40 -36 -68 -14 -61 -44c30 12 55 19 83 32c4 2 10 9 11 3zM487 494
c-1 5 -15 6 -21 4l3 -12zM139 193v-11h1c6 8 14 16 18 26c-13 1 -17 -5 -19 -15zM129 108l-8 10c-4 -18 -5 -31 3 -37zM429 114c-12 -14 -38 -21 -57 -20c-28 -21 -63 -35 -75 -16c46 10 92 25 129 40c4 2 5 -1 3 -4zM255 397l-13 -3l-17 -28l13 3zM219 352
c-7 0 -20 -14 -23 -25l13 2zM147 176l-10 -1l-11 -37l7 -9z" />
    <glyph glyph-name="F" unicode="F" horiz-adv-x="517" 
d="M519 273l58 9c1 -11 -3 -20 -19 -24l-61 -16c9 -11 33 -7 61 0l-5 -12c-70 -22 -163 -59 -219 -64l-116 -11c-25 -10 -43 -33 -60 -62l6 -9c-17 -33 -45 -92 -61 -126l-8 5c-7 -10 1 -22 1 -34c0 -11 -8 -25 -16 -40l-37 -12c-14 -5 -22 6 -29 17l-8 -7
c-12 12 -17 24 -10 32c-8 13 -14 25 -16 38c16 32 33 78 46 107c15 32 10 56 -16 72l-8 48c10 4 26 17 28 34l58 17l-6 10c29 7 19 33 33 68l93 232c12 29 29 63 59 80l56 31c69 0 164 -80 164 -177c0 -31 -10 -55 -21 -70c-14 2 -25 14 -36 17c0 27 -11 54 -28 73
c-59 -24 -96 -129 -148 -215c9 -9 31 4 51 -8l-31 -7l9 -7c30 4 72 11 101 15c5 1 16 -9 6 -12c-7 -2 -14 -6 -14 -14l79 15l18 -11l28 6c7 1 15 3 18 12zM483 226c-7 8 -15 8 -27 7c-30 -2 -39 -11 -58 -16c-3 -1 -3 -9 0 -8c31 8 50 12 55 8zM53 106c0 4 -4 8 -13 13
l5 -26c5 5 8 9 8 13zM386 206c4 1 2 10 0 9c-12 -4 -25 -2 -28 -7c-2 -3 -3 -10 0 -9zM149 99l20 34c-6 -1 -31 -14 -31 -25c0 -5 6 -9 11 -9zM114 68l19 48c-7 -3 -16 -11 -22 -24c-3 -6 -1 -19 3 -24zM105 -2c-6 0 -12 -3 -16 -8l-7 -14l7 -7z" />
    <glyph glyph-name="G" unicode="G" horiz-adv-x="590" 
d="M52 269l-8 13c18 17 75 168 201 232c11 5 5 15 17 23c59 37 93 51 183 51c64 -17 51 -60 94 -86c0 -14 -9 -23 -19 -33c9 -3 16 -11 20 -17c-1 -5 -5 -10 -9 -11c-9 9 -30 25 -52 25c-110 0 -349 -179 -332 -321c71 -12 179 9 204 21c13 6 27 22 35 35
c26 41 64 88 96 121c4 -4 9 -7 14 -10c-8 -9 -19 -28 -17 -35l25 30c21 -10 42 -17 46 -57c25 0 -5 -47 4 -58c-71 -72 -96 -90 -111 -103c-9 -27 -21 -62 -36 -98l4 -7c16 30 26 61 37 89l11 5c-26 -64 -51 -145 -85 -205c-9 -16 4 -23 -5 -41c-8 -17 -17 -44 -37 -44h-17
v13c-43 -9 -65 16 -73 44l25 44c-16 -4 -23 -17 -28 -32h-17c26 55 45 99 64 141c16 35 27 10 27 65l-18 -6c-14 17 -48 6 -72 -13c-85 -1 -129 16 -166 88h-12c-19 50 -8 93 7 137zM517 281c-5 10 -10 14 -15 7l-20 -27c14 2 26 13 35 20zM135 149l2 38
c-8 -9 -12 -18 -12 -25c0 -6 4 -11 10 -13z" />
    <glyph glyph-name="H" unicode="H" horiz-adv-x="650" 
d="M389 -39c7 -15 25 14 47 60c13 -7 -5 -37 -16 -58c-15 -28 -30 -83 -45 -83c-27 16 -86 55 -86 99c0 60 44 151 74 206l-5 9c-24 0 -110 -12 -119 -12c-3 4 -8 7 -13 7c-16 0 -24 -12 -30 -27c-19 -46 -51 -164 -61 -210c-21 0 -26 11 -38 23c-1 -1 -3 -2 -5 -2h-5
c-4 0 -7 2 -11 3l5 12c-60 39 -27 76 -15 154c-23 5 -55 1 -81 1c11 20 32 24 50 33l-16 9l58 24c6 15 14 22 21 36c18 33 24 79 42 113c47 89 110 186 141 264c4 3 1 8 14 8c53 0 49 -31 78 -58c1 -34 8 -58 -7 -109h-7c-10 -32 -46 -81 -67 -125c-19 -9 -31 -29 -31 -47
l21 6c28 33 68 37 107 37c13 0 33 -6 48 -11c62 77 101 166 147 254c4 7 13 12 23 12c35 0 48 -51 48 -89c0 -23 -3 -50 -19 -62c-3 -28 -13 -55 -36 -68c8 -19 -23 -56 -38 -83c-13 4 -30 -10 -37 -22s-19 -35 -28 -54c-2 -4 6 -9 11 1l12 25c5 10 14 18 23 17
c-32 -57 -47 -115 -86 -171l-11 4c-4 2 -13 -4 -17 -10c-4 -7 -12 -19 -20 -33c-9 -14 0 -38 1 -48c-7 -12 -21 -22 -21 -35zM447 69l-19 -32c-2 -4 -5 -4 -5 -1l-1 11l15 22c2 3 5 5 7 3zM499 191c-4 1 -11 -2 -13 -6l-41 -80c12 1 21 18 27 31zM394 4c-3 0 -10 0 -13 -6
l-10 -20l6 -8zM293 79l11 40l11 -4c-6 -27 -20 -36 -22 -36zM-20 157l-6 -15l-19 -4c0 3 13 13 22 21c2 2 5 2 3 -2zM190 177c-9 0 -15 -14 -20 -27l9 -3z" />
    <glyph glyph-name="I" unicode="I" horiz-adv-x="360" 
d="M385 547c0 -27 -4 -63 -9 -93h-11c-27 -38 -43 -108 -89 -133l4 -12l-39 -22c-39 -56 -56 -125 -78 -182c-3 -8 -16 -24 -3 -28c3 -1 10 20 11 23c23 52 40 130 76 171c14 5 4 -7 2 -10c-35 -59 -52 -127 -81 -197c-20 -47 -27 -90 -22 -110c-18 6 -34 13 -50 22v32
c-7 -6 -10 -13 -11 -24c-23 17 -42 40 -55 75c0 180 186 426 258 558c6 8 19 14 30 14c10 0 20 -4 31 -7v-24c20 -8 36 -31 36 -53zM153 60c-14 14 -10 -2 -11 -5l-11 -27c-1 -3 2 -13 8 -3z" />
    <glyph glyph-name="J" unicode="J" horiz-adv-x="551" 
d="M581 509c0 -35 -40 -54 -57 -87c-17 -35 -27 -57 -37 -86c-30 -24 -51 -69 -51 -115c-6 -5 -13 0 -17 6c-9 14 -32 1 -24 -30l20 5c2 -5 -2 -19 -7 -31l-22 16l-9 -9l7 -7c-4 -17 -23 -67 0 -65c-4 -12 -10 -26 -22 -14c-10 -13 -7 -23 6 -22c-1 -16 -17 -11 -27 -3
l-13 -12l8 -4c-4 -11 -6 -23 -1 -38c7 15 13 30 24 33c-36 -93 -94 -186 -165 -255c-148 0 -214 140 -214 263c0 63 11 126 53 185c59 0 101 -50 101 -144l-35 -27c-15 -29 -25 -65 -25 -90c0 -42 13 -68 46 -68c39 0 71 74 111 141c65 147 97 365 214 518
c21 27 43 60 59 60c17 0 34 -13 54 -27c12 -25 23 -70 23 -93zM402 156l-12 -35c-11 4 1 32 5 41zM361 133l-16 -24l11 -12c5 10 5 26 5 36zM220 -165v7l-14 -10l3 -10zM275 -70l-23 -27l4 -4l-15 -17l11 -2l20 28c6 8 10 15 3 22zM275 -57l10 -14l18 26
c-10 1 -21 -1 -28 -12zM199 -148c0 -3 1 -7 3 -11c14 5 29 13 44 32c-20 -4 -47 -7 -47 -21zM487 371c-8 0 -19 -10 -27 -28l15 -3z" />
    <glyph glyph-name="K" unicode="K" horiz-adv-x="715" 
d="M740 496l-21 -11c6 -6 9 -4 15 -4v-52c-34 4 -75 -49 -81 -49c-14 0 8 11 -6 11c-8 0 -24 -13 -38 -32l-15 11c-15 -15 -42 -26 -68 -41c5 -6 15 -4 26 1c-5 -16 -16 -16 -19 -16c-13 0 -12 9 -20 9c-4 0 -174 -75 -184 -79c27 -31 77 -71 102 -94l-7 -5
c13 -7 39 -13 40 -23c0 -3 -2 -5 -5 -8c27 -22 38 -18 60 -32l-12 -10c15 -15 29 -20 50 -16c36 -23 56 -73 114 -73c13 0 32 -7 41 -15c-25 -4 -63 -5 -86 -5c-44 0 -125 53 -178 85l-2 -11c-75 50 -152 108 -243 161c-16 -23 -30 -48 -44 -76c-6 3 -10 7 -3 21h-11
c-12 -15 -20 -41 2 -48c-20 -45 -36 -93 -48 -142c-20 0 -39 7 -54 20c0 10 -1 18 -4 24l-8 -12c-5 7 -7 14 -4 24c-4 2 -9 3 -14 3c-2 37 8 77 24 105l-9 7c70 180 180 358 267 507c57 7 78 -84 78 -114c0 -28 -88 -136 -74 -153c80 38 149 74 227 107l4 -6
c10 3 17 12 17 23c7 -6 10 -6 13 -6c7 0 12 7 5 14h1c29 0 101 50 122 50c15 0 35 -20 50 -50zM332 256l-4 9l-15 -7c0 -10 12 -6 19 -2zM722 499l-5 12c-4 -3 -13 -13 -10 -19zM370 285l-31 -14l1 -10c10 5 32 11 30 24zM190 202c-8 1 -16 -6 -20 -13l-21 -34h13zM130 88
l-8 6c-4 -6 -13 -30 -6 -36zM588 340l-29 -13c0 5 9 13 24 21zM663 22c-4 -5 -25 -5 -33 2l2 8zM608 62c-5 -9 -32 1 -61 19l6 8zM622 37l-2 -8c-15 1 -26 13 -24 17zM456 323l-49 -22c5 -1 9 -2 13 -2c18 1 32 13 36 24z" />
    <glyph glyph-name="L" unicode="L" horiz-adv-x="612" 
d="M672 237c3 -14 -61 -44 -112 -57c-21 -14 -37 -18 -47 -17c-12 0 -15 2 -17 5c-18 -18 11 -33 79 -6c5 1 13 -2 9 -4c-19 -9 -61 -31 -75 -31c-23 0 -40 -6 -61 -13c-63 -22 -163 -60 -235 -89c-13 -5 -34 -25 -46 -26c-12 -2 -37 -4 -50 -4c-8 0 -14 5 -17 11h-23
c-15 15 -32 46 -45 46h-12c17 176 197 446 288 563v16c56 0 85 -45 85 -93c0 -12 -51 -126 -69 -159c-12 -21 -44 -51 -61 -75c-9 -13 -15 -39 -23 -53c-11 -20 -45 -37 -33 -66c68 21 81 23 89 25c11 3 24 6 37 6c16 0 31 -5 39 -19c5 5 45 21 50 21c14 0 15 -5 29 -5
c13 0 65 17 99 27c1 -2 5 -4 12 -5v-1c-31 -10 -72 -20 -98 -36l10 -6c31 11 94 39 129 47c12 -4 26 -13 27 -15c15 6 41 20 42 13zM474 136l-16 7c-53 -10 -164 -51 -233 -85l1 -4zM662 256c0 -6 -17 -14 -24 -19c-5 4 -10 7 -15 9c4 3 39 15 39 10zM591 246l-17 -6
c-3 -1 -11 4 -8 5l20 6c11 3 10 -3 5 -5zM660 193l-60 -28c-7 -3 -11 -1 -14 3v1c59 26 66 30 74 24zM376 189l6 -8l22 12c-5 3 -16 4 -28 -4zM254 307v18c-10 0 -14 -12 -14 -18h14zM208 245l-12 3c-7 -18 -19 -35 -6 -41z" />
    <glyph glyph-name="M" unicode="M" horiz-adv-x="875" 
d="M860 412c0 -29 -12 -67 -30 -61c-22 7 -32 -40 -37 -51h-16c0 -12 14 -14 23 -17c-5 -11 -16 -14 -28 -13l-28 -88l12 6l21 64l6 -16l-14 -50c-5 -18 -14 -32 -24 -32c-14 0 -11 -18 -15 -31l-7 9l-6 -6c5 -10 15 -23 15 -35c0 -23 -25 -66 -42 -105l-17 15
c-2 -2 -5 -3 -8 -4s-6 -1 -10 -1c-38 0 -82 64 -82 100c0 41 82 188 118 267l-3 8c-29 -18 -100 -41 -103 -72l-177 -151c-17 23 -29 6 -50 6c-26 0 -41 49 -51 82c15 49 40 110 64 166l-10 20c-40 -33 -77 -84 -105 -128c-42 -68 -99 -173 -142 -251c-10 4 -2 21 5 35
c-11 3 -19 -14 -26 -33c-7 -20 -5 -42 1 -56c-5 -4 -10 -6 -16 -6c-41 0 -98 73 -98 95c0 24 84 157 130 229c52 83 103 160 171 211c19 29 60 87 96 87c56 0 76 -70 99 -126c-5 -26 -2 -64 8 -87c32 22 72 56 104 74c7 4 16 -2 21 -10c8 6 14 17 9 28c53 33 120 67 142 67
c19 0 43 -17 64 -33c17 -40 36 -73 36 -106zM790 336l-6 8l-11 -31c11 8 20 18 17 23zM737 194l31 94h-1c-14 -20 -33 -46 -33 -77c0 -6 1 -11 2 -17h1zM786 351h11l12 31c-14 0 -15 -13 -23 -31zM723 194c-3 -3 -4 -10 -5 -17c0 -5 1 -10 1 -12c8 6 13 25 4 29zM135 108
l-6 4l-11 -19l6 -6zM820 320l-8 -20h-11c4 8 14 18 19 20zM143 137l-9 -14l6 -5c5 10 10 14 3 19z" />
    <glyph glyph-name="N" unicode="N" horiz-adv-x="753" 
d="M522 365c29 45 96 140 155 197c11 7 31 12 52 13c36 1 64 -4 81 -16l-20 -14l2 -4c7 0 26 6 32 10l28 -30c-52 -24 -145 -93 -196 -163c-6 -8 -10 4 -16 0c-2 -36 -23 -55 -47 -93c-5 -9 -3 -22 -9 -36c0 -6 -15 -12 -18 -21c-25 -77 -59 -157 -91 -239l-45 21l-6 -14
c-64 17 -70 42 -79 109c-3 26 5 71 -2 93c-24 70 -1 100 -7 151l-5 39c-31 -10 -66 -40 -92 -87l3 -16c-50 -94 -95 -224 -140 -284h-28c-29 0 -45 67 -57 73l-6 44c-5 31 4 42 11 61c71 172 185 276 264 357c30 -11 112 -62 126 -99c12 -30 24 -93 34 -134
c68 118 168 265 190 273l21 3c-62 -61 -106 -133 -130 -168c-9 -15 -13 -21 -11 -22zM665 400c2 3 -5 9 -7 6c-8 -12 -24 -33 -14 -38zM645 517c1 -2 4 -6 8 -5l17 22l-8 4c-5 -4 -11 -11 -17 -21zM779 538l-19 -14l2 -9c10 7 19 8 17 23zM584 208l-5 -34l-9 6
c1 14 2 33 14 28zM691 436c2 2 -2 11 -7 5l-20 -26c6 1 8 -1 9 -5zM289 486l-8 6l-22 -23c12 -10 23 10 30 17z" />
    <glyph glyph-name="O" unicode="O" horiz-adv-x="654" 
d="M624 300c0 -33 -17 -78 -53 -107c5 -10 -2 -21 -13 -21l-7 13c-8 -2 -14 -6 -8 -17c-11 0 -29 -9 -29 -20c0 -15 -17 -10 -29 -13c-11 -11 -20 -24 -32 -40l-11 10c-26 -16 -12 -27 -39 -40c-16 -8 -35 -7 -53 -11c-3 -3 9 -7 8 -11l-18 -6l-28 17
c-16 -10 -4 -33 -24 -40c-24 -8 -43 -15 -71 -24c-17 17 -37 11 -51 0c-35 22 -78 55 -104 77c-24 19 -32 68 -32 116c0 243 303 400 378 400c29 0 43 -18 74 -42c0 -46 49 -83 90 -111c39 -26 52 -76 52 -130zM365 68c0 7 -5 10 -15 10c0 -3 -4 -10 -2 -12c4 -3 12 0 17 2z
M519 333l-56 65c-3 9 -5 15 -9 11s-8 -6 -11 -6c-7 0 -11 8 -12 8c-53 0 -145 -61 -187 -127c-48 -23 -81 -80 -103 -149c23 2 53 4 71 11l180 75c20 8 63 29 82 53zM409 97l-5 10c-18 -9 -25 -14 -24 -25zM192 258l23 28c-15 9 -33 -5 -35 -16c0 -6 3 -11 12 -12zM189 13
l30 -5c-4 6 -11 11 -18 11c-4 -1 -8 -2 -12 -6zM440 115c-3 3 -5 14 -8 16l-16 -17l4 -11z" />
    <glyph glyph-name="P" unicode="P" horiz-adv-x="510" 
d="M545 459c0 -70 -53 -101 -130 -155l-8 7c-68 -40 -142 -94 -173 -74c-12 -20 -35 -79 -40 -79s-2 26 -13 7c-11 -20 -34 -60 -32 -89c0 -6 16 4 14 -2l-45 -131c-3 -10 -8 -33 -9 -46c-9 0 -64 20 -78 40c-16 24 -21 59 -21 79c32 99 107 274 161 390
c-15 11 -30 25 -38 35c7 9 13 23 15 35l-25 6c7 10 19 17 27 22v16c95 -6 85 111 123 111c10 0 15 -2 22 -4c15 -5 28 -13 45 -15c8 -20 18 -38 22 -60c31 -1 62 -2 98 -8c53 -8 85 -28 85 -85zM454 365l-62 -37c-4 -3 4 -10 14 -3c20 12 56 29 48 40zM353 297
c-12 13 -18 -5 -34 -5h-13c-13 0 -24 -14 -26 -28c24 7 52 21 73 33zM383 313c-5 5 -26 7 -34 -5c8 0 9 -10 17 -5zM482 377c0 3 -5 4 -10 1s-10 -4 -12 -10c-3 -8 22 -2 22 9zM177 127c14 6 -2 -25 -7 -38c-4 0 -10 -6 -13 -3c3 14 14 39 20 41z" />
    <glyph glyph-name="Q" unicode="Q" horiz-adv-x="736" 
d="M831 -162c-8 -12 -10 -25 -17 -35l-34 9h-4c-13 23 -28 40 -49 51l35 -48c-48 13 -64 79 -89 106c-26 29 -34 62 -64 89v14c-40 42 -75 83 -106 124c-25 -16 -44 -45 -64 -62c-3 6 4 17 2 26c-29 -19 -63 -99 -114 -99c-10 0 -19 2 -34 -3c-23 -26 -79 -20 -116 -33
c-7 7 -21 30 -28 20l-5 -7c-15 20 -34 42 -48 55l-3 -10l-21 11c-18 32 -31 78 -37 115c35 176 134 344 306 406c25 23 78 36 115 36c38 0 68 -39 90 -59l12 -71h10c-6 -14 -5 -42 -17 -60c-10 -15 -35 -30 -56 -51c12 -21 21 -45 30 -66l-13 -14c3 -31 118 -208 219 -298
c40 -36 96 -91 100 -146zM474 443h-27c-87 0 -170 -113 -209 -143c-16 -24 -41 -74 -51 -74c-9 5 -16 4 -26 -5l16 -10c-7 -4 -14 -9 -17 -17l-31 -82h58c37 0 164 62 179 75c19 16 52 54 52 65c0 22 -57 59 -57 113c0 34 61 46 101 44zM182 241l31 41
c-11 0 -32 -18 -34 -32c0 -3 0 -7 3 -9zM343 34l41 33v1c-20 -6 -45 -17 -46 -27c-1 -2 1 -5 5 -7zM185 3l-17 14c-8 -6 1 -17 11 -25zM260 18c0 -5 12 -10 23 -3c-7 2 -11 6 -15 9c-6 -1 -8 -4 -8 -6z" />
    <glyph glyph-name="R" unicode="R" horiz-adv-x="621" 
d="M486 353l-11 11c-43 -27 -27 -40 -78 -70c-15 21 -44 4 -74 -24c95 -87 200 -229 297 -229c47 0 97 14 119 20c11 -3 27 -15 35 -25c-19 -5 -37 -10 -56 -17l2 -2c13 0 33 -2 27 -6c-10 -8 -48 -29 -85 -42c-8 -3 4 -8 9 -7c41 14 81 43 112 64c4 -4 8 -9 10 -13
c-53 -49 -148 -99 -223 -99c-38 13 -81 31 -107 57c-49 48 -183 239 -243 270c-26 -36 -67 -116 -81 -155c-6 -13 13 -39 8 -58c-6 -22 -33 -38 -55 -60c-19 0 -45 16 -53 37l-15 41c24 16 -9 7 -9 26c0 52 164 412 262 559c82 0 55 -70 70 -101c31 13 71 29 106 29
c22 0 39 -2 57 -7l-7 -16c14 -4 30 -4 30 9l19 -8c-1 -5 -5 -11 -8 -14c8 -6 17 -6 19 5c20 -19 28 -33 28 -56c0 -12 -5 -28 -13 -35c-27 -24 -55 -52 -92 -84zM497 545c-11 4 -30 2 -37 -2l32 -5zM649 -36l-45 -10c-14 4 -24 -6 -1 -13c19 3 42 10 56 15v1
c-5 0 -7 5 -10 7zM385 287l-27 -13l-6 9c11 8 28 14 33 4zM159 155l-5 8l-29 -53l5 -12z" />
    <glyph glyph-name="S" unicode="S" horiz-adv-x="515" 
d="M468 589l-1 -12c36 -9 54 -41 51 -79c5 -4 7 -9 7 -14c0 -21 -34 -49 -72 -57c-21 27 12 28 2 39c-101 0 -152 -20 -239 -82v-15l42 -30c43 -30 85 -44 115 -77l11 7c29 -31 46 -69 44 -95l-6 -80l-17 4c-29 -40 -87 -76 -146 -102c-31 13 -48 8 -47 -19
c-48 -18 -91 -27 -109 -27c-14 0 -38 16 -62 39c-40 8 -49 32 -44 50c-13 18 -22 35 -22 46c0 25 17 40 33 52c17 -14 43 -49 61 -49c47 0 140 27 204 83v10c-25 24 -45 68 -63 56c-27 36 -39 51 -57 38c-14 12 -41 36 -46 64c-6 32 -18 69 -17 90c6 82 168 164 295 164
c25 0 58 -1 83 -4zM494 421l-9 7l25 17c0 -12 -3 -13 -16 -24zM290 443v1c-36 -11 -73 -26 -74 -42zM200 -17v12l-35 -15l5 -7z" />
    <glyph glyph-name="T" unicode="T" horiz-adv-x="578" 
d="M407 632l43 -86c66 14 140 30 186 36c43 -11 78 -29 91 -65c-17 -15 -8 -41 1 -56c-5 -3 -10 -5 -16 -7l-2 6c-6 3 -11 4 -14 4c-4 0 -7 -3 -7 -7c0 -3 1 -6 2 -8c-60 -12 -148 -4 -231 -40h-14v11c-9 1 -16 -4 -22 -12c-34 -4 -45 -17 -66 -80c-3 -9 -15 -21 -21 -26
l9 -5c-5 -21 -20 -61 -30 -60c-11 1 -1 21 -7 20c-11 -2 -12 -24 -17 -40c5 -13 6 -21 6 -29c-5 -13 -10 -35 -17 -35c-10 0 -4 19 -8 27c-9 -19 -16 -37 -23 -54l8 -5c5 9 10 12 19 10c-19 -52 -36 -104 -47 -149c-24 -2 -48 1 -65 5l4 11c-26 9 -24 43 -28 82
c-4 5 -8 14 -8 21c0 25 57 173 107 287h-78c-44 0 -47 -14 -79 -6c-15 23 -33 67 -33 97c0 12 4 23 14 33c39 -4 132 -8 193 4c101 21 57 116 150 116zM328 279l-4 7l-10 -18l6 -7z" />
    <glyph glyph-name="U" unicode="U" horiz-adv-x="655" 
d="M685 473l-14 -50c-20 2 -48 -13 -24 -29c7 -4 -1 -19 -13 -18l-14 7c-13 -24 -29 -56 -16 -57l-11 -21c-19 1 -21 -26 -83 -102l8 -10c25 32 49 66 69 99c7 -9 5 -18 2 -24c-140 -258 -346 -288 -404 -288c-7 0 -7 3 -8 5c0 3 0 5 -7 5s-6 -2 -6 -5c1 -2 2 -5 -5 -5
c-28 0 -41 27 -55 44l-11 -5c-40 24 -58 70 -58 117c0 40 10 82 27 119c46 100 121 280 158 364c12 10 22 14 31 14c22 -1 53 -82 61 -103l14 10v-23c-29 -53 -71 -140 -97 -197c-6 10 -6 16 -1 27c10 3 -4 14 -8 8c-24 -35 1 -53 -9 -74c-4 -9 -9 -19 -14 -31
c-9 4 -19 -7 -24 -17c6 -3 12 0 18 4h1c-7 -15 -15 -34 -21 -48c-4 6 -5 14 2 29l-6 6c-8 -15 -18 -33 -18 -45c0 -7 4 -11 13 -12c-4 -10 -8 -20 -11 -28c204 0 295 152 377 322c3 9 19 4 28 10c9 5 5 14 -11 12c16 36 36 93 40 109c2 9 8 11 16 11c6 0 13 -8 22 -15
c11 -9 24 -14 29 -16c5 -11 7 -31 8 -51c1 -24 4 -46 25 -48zM254 420l-25 -41c-1 -2 -3 -6 -2 -7l13 -8c7 10 24 46 14 56zM226 12c7 0 16 2 23 3c-13 23 -49 15 -39 3c4 -5 9 -6 16 -6zM511 184l-10 10c-15 -15 -28 -28 -18 -41zM426 94c-24 1 -41 -18 -76 -37l2 -10
c21 10 57 33 74 47zM339 40c-3 7 -12 7 -19 5c-17 -6 -41 -3 -39 -26c20 4 40 12 58 21z" />
    <glyph glyph-name="V" unicode="V" horiz-adv-x="585" 
d="M643 497c18 22 46 58 76 83c6 4 13 3 14 -2c-50 -41 -85 -125 -138 -159c-41 5 -30 -45 -48 -46c-14 0 -21 -20 -31 -34c-78 -110 -222 -245 -332 -365l-62 21c-17 30 -46 58 -47 99c-2 57 16 385 20 444c1 23 -21 62 2 80c77 -31 109 -105 113 -189c-12 -34 9 -60 6 -89
l-11 -2c-5 -31 -12 -62 -21 -91l16 -44c99 90 180 188 260 295c42 -2 31 37 82 32l39 42c8 9 23 7 27 -2c-11 -15 -54 -62 -94 -98c-4 -4 2 -7 10 -4c38 31 101 97 114 115c13 -1 25 26 43 11c-11 -9 -30 -26 -27 -43c10 12 25 28 35 25l3 -1c-15 -17 -40 -50 -56 -76z
M178 274h-11c-1 -8 2 -16 9 -16zM550 410l-33 -19c6 -5 12 -6 16 -6c10 1 16 12 17 25zM180 281c0 9 8 22 -7 22l-4 -18zM634 484c-6 -3 -9 3 -10 1l-21 -21c-12 -6 -8 -21 5 -11c14 11 23 25 26 31zM690 586c2 4 5 9 9 14c3 4 8 7 12 7c3 0 6 -1 9 -6c-5 -3 -10 -7 -20 -18
c-2 3 -6 3 -10 3zM593 408l-8 -17l-9 8c4 10 11 13 17 9zM486 343l-15 -22l6 -12c17 18 16 30 9 34z" />
    <glyph glyph-name="W" unicode="W" horiz-adv-x="845" 
d="M991 521c-33 -27 -64 -71 -106 -70c-50 -46 -131 -130 -167 -164l-15 13c10 -41 -26 -69 -52 -108c-10 5 1 18 9 31c-11 8 -22 -9 -33 -26s-19 -29 -11 -42c-43 -48 -125 -167 -161 -167c-14 0 -21 43 -42 61l-6 -7l-28 41c-13 19 -32 82 -54 107
c-51 -62 -138 -206 -151 -206c-11 0 -35 38 -44 38c-4 0 -7 -1 -9 -5c-38 44 -52 122 -55 215c-4 103 6 222 10 325l13 10c47 -23 80 -107 90 -152c16 -74 -50 -193 -12 -222l142 194l23 8l53 79c11 17 9 56 28 56c21 0 48 -26 56 -53l25 -86c-35 -47 -55 -114 -90 -155
c21 -2 36 -30 52 -30c27 0 231 321 340 337c11 2 32 4 45 4c-9 -9 -17 -19 -5 -23l45 35c7 -1 17 -10 20 -19l42 -7c-5 -10 -16 -23 -29 -32l8 -3c21 0 47 49 69 23zM901 494l-20 -14l2 -9c10 7 19 8 18 23zM874 476l-55 -43l2 -10c27 21 51 35 53 53zM686 280l-9 -13l6 -7
c6 9 10 14 3 20zM677 251l-5 5l-13 -18l6 -6zM720 311l35 33c-29 15 -34 -21 -36 -33h1zM376 439l-26 -41l11 2c10 13 21 29 15 39z" />
    <glyph glyph-name="X" unicode="X" horiz-adv-x="525" 
d="M614 548l-264 -241l12 -4c-21 -15 -40 -30 -54 -48h-17v-29c0 -33 23 -81 39 -111h9c28 -58 114 -126 153 -159c-20 -10 -55 -7 -73 6l-42 30c-14 4 -31 6 -43 -2c-33 26 -68 46 -56 61c-46 34 -68 58 -79 82l-48 -48c-6 5 -18 3 -24 -3l-73 -71c-40 -4 -90 -91 -139 -91
c-2 0 -3 1 -3 2c0 5 16 15 20 20c1 1 1 2 2 3l44 42l-2 12l-35 -32c3 22 0 49 10 76l33 31c4 14 11 26 20 39l14 -7l54 51c12 12 33 30 32 52c19 17 35 33 48 51c8 1 16 3 21 9c0 2 -2 5 -2 7c-32 112 -35 223 6 335c8 6 21 14 27 6l-17 -54c13 10 21 35 30 54
c57 -8 57 -47 88 -49l11 -21c-17 -35 -28 -88 -29 -114l-6 -15l8 -5c64 65 140 151 201 207h16v-14c10 5 20 28 46 24l-9 -16c46 -10 77 -35 77 -52c0 -5 -1 -10 -6 -14zM356 274l-18 -19h-14l24 22zM384 -30l-17 -3l-24 17c11 5 25 -1 41 -14zM1 21l-17 -14l3 -10
c10 5 14 15 14 24zM65 163l-10 -10l-7 7c6 5 11 10 17 15v-12zM49 147l-31 -29l-7 3c9 11 20 22 31 33z" />
    <glyph glyph-name="Y" unicode="Y" horiz-adv-x="572" 
d="M388 117l-7 -7l-14 13c-10 -8 -27 -20 -8 -44c-8 -12 -16 -27 -24 -43c-9 -4 -17 -10 -24 -17l8 -20l-4 -7l-12 16c-16 -22 -27 -53 -32 -83l19 -9c-4 -16 -6 -32 -7 -45c-8 -4 -21 -6 -31 -6c-33 0 -58 12 -74 26c-1 10 -7 14 -14 14c-8 10 -11 18 -10 21
c16 84 80 177 121 292l-7 6c-31 0 -56 6 -83 19c-4 -6 -10 -8 -18 0l-66 65h-12c-61 89 -16 193 39 285l14 -6c2 5 4 9 6 11c3 3 6 5 9 5c6 0 56 -21 81 -32l16 -28c-9 -57 -45 -85 -51 -143l-15 -12c-7 -42 -3 -67 21 -98c67 -6 119 25 149 67l106 149l8 -13l40 58
c7 10 16 10 25 3c26 21 48 23 66 14c-1 -12 4 -17 21 -19c11 -15 19 -36 23 -59c-10 -25 -26 -49 -47 -73c-39 6 -43 -12 -56 -39l14 -7c-39 -41 -78 -81 -91 -119l-14 13c-1 -40 -30 -66 -45 -89c-7 -11 -5 -25 -7 -37l-10 7c1 7 1 13 -4 17c-11 -19 -17 -27 1 -46z
M280 -90l-11 5l-3 -17l8 -4zM572 386l-6 12c5 5 14 16 26 10c-6 -7 -13 -15 -20 -22zM364 73l10 -9c-3 -6 -9 -11 -19 -7zM306 -36l-14 -40c-13 9 -4 35 13 41z" />
    <glyph glyph-name="Z" unicode="Z" horiz-adv-x="635" 
d="M724 94l47 1c4 -2 11 -7 11 -14c-63 -2 -140 -7 -203 -19c-20 -4 -15 -19 -30 -31c-3 5 -17 7 -26 5l-2 -12c-38 -4 -35 -3 -73 -10c-33 41 -83 10 -115 -14c-30 0 -59 3 -87 7v-14l-174 22c-33 43 -62 71 -62 105c0 93 261 202 395 315c-52 14 -134 -27 -168 5
c-6 -3 -7 -8 -8 -14c-15 -1 -30 -4 -46 -2s-60 70 -58 83s17 12 9 32c100 39 248 47 327 47c44 0 96 -5 129 -15c10 -29 12 -62 12 -89l12 -11v-15h-15c-16 -57 -86 -77 -124 -135l-8 11c-31 -30 -120 -72 -179 -111l-9 -19c-17 1 -43 -10 -64 -25v-15l-11 -9l-8 8
c-8 -8 -14 -16 -18 -24c55 -3 113 -2 171 0l8 -10l6 10c12 0 25 1 37 2c32 -11 50 -18 47 2c71 14 127 7 199 11c1 -6 -3 -19 -11 -22c-25 -1 -34 -1 -54 -3c-25 -2 -99 -11 -114 -23l1 -5c77 8 200 22 269 22c8 0 12 -2 9 -4c-10 -4 -17 -10 -22 -23zM745 135
c-24 0 -50 -1 -74 -2c-15 9 -15 16 -15 19c26 1 60 0 81 -1c10 -1 10 -10 8 -16zM771 64c5 -2 2 -10 -5 -9c-53 0 -125 -8 -188 -16c8 24 176 32 193 25zM779 136h-21c2 7 4 13 10 14c11 2 17 -5 23 -10c1 -1 -3 -4 -12 -4zM407 6v-1c-20 -2 -33 -3 -47 -4c14 19 32 16 47 5
zM420 448l-11 16l-10 -3l13 -20zM841 85l-44 -3c-4 3 -7 8 -7 13l29 1c11 -1 32 -1 32 -8c0 -2 -4 -3 -10 -3z" />
    <glyph glyph-name="bracketleft" unicode="[" horiz-adv-x="467" 
d="M411 -45v-16c-87 -26 -220 -83 -308 -83c-18 19 -51 40 -72 51c-5 19 -22 32 -22 50c0 33 15 73 15 113l15 10l108 254c47 44 68 129 125 255c12 6 24 13 36 19c1 -6 5 -12 11 -16l8 26c74 38 156 73 224 84c24 -21 51 -40 51 -68c0 -22 -21 -55 -41 -55
c-29 0 -58 25 -243 -19c29 -62 15 -111 -34 -211c-6 -12 -12 -23 -18 -36c-5 0 -13 7 -16 0l-13 -31c-2 -4 2 -8 4 -4c9 17 12 18 17 18c-7 -14 -7 -27 -18 -36c-8 -2 -6 5 -9 10c-7 -19 -25 -38 -34 -58c-4 -9 10 -1 16 -7c-13 -33 -24 -50 -39 -77c-5 -9 -19 -4 -29 -1
c-13 -23 -34 -58 -26 -67c14 -15 1 -40 -19 -84c60 -24 169 -12 256 -17c0 -5 -25 -8 -37 -9c-3 -3 -4 -8 1 -8l48 4c5 0 -3 7 1 14c15 -1 29 -3 42 -5zM155 143l8 -6l18 39c-2 2 -7 0 -8 -2z" />
    <glyph glyph-name="backslash" unicode="\" horiz-adv-x="452" 
d="M423 -146l-14 25l-10 -5c-31 80 -79 143 -101 228c-66 152 -159 347 -243 480v38c6 6 16 11 23 11c20 0 66 -14 82 -29l18 3c54 -87 105 -179 128 -287c26 -37 41 -82 54 -125l-10 -5c12 -20 20 -33 12 -49c14 -12 21 -23 27 -36c4 -10 6 -20 8 -30c-7 2 -13 0 -16 -2
l21 -23c4 -24 4 -49 11 -71c13 -45 29 -97 10 -123z" />
    <glyph glyph-name="bracketright" unicode="]" horiz-adv-x="467" 
d="M436 557l-6 -6v-46c-45 -143 -129 -254 -172 -372c-10 -26 -19 -54 -28 -83c-8 -5 -14 -15 -17 -24c-3 -11 -15 -44 -23 -66l8 -20c-6 -23 -13 -44 -22 -65c-20 -6 -98 -5 -211 0c4 24 -28 16 -37 2c-30 2 -63 6 -100 12l-3 13l36 9l60 -11l3 10c-10 4 -33 3 -30 9
c102 24 195 44 211 64c12 15 44 15 53 15l-18 34c10 10 12 21 -5 29c48 108 177 384 215 523l-41 6l-10 -11c-31 24 -82 -3 -130 -27c-32 22 -82 45 -82 78c0 24 16 32 29 42c87 15 193 14 262 14c15 -9 25 -21 33 -36c12 -2 18 -13 19 -26zM259 171h1c11 29 29 61 14 69
c-10 -20 -19 -52 -15 -69z" />
    <glyph glyph-name="asciicircum" unicode="^" horiz-adv-x="625" 
d="M535 398c-7 -29 -25 -19 -35 -35c-63 26 -55 76 -98 119c-82 -21 -174 -119 -204 -119c-15 0 -38 31 -67 55c8 16 6 31 -3 43c51 46 191 120 239 142l15 -11l17 8c42 -48 90 -123 128 -181l-13 -10z" />
    <glyph glyph-name="underscore" unicode="_" 
d="M-86 -75h500l-28 -100h-500z" />
    <glyph glyph-name="quoteleft" unicode="&#x2018;" horiz-adv-x="176" 
d="M241 532c-103 -93 -56 -137 -65 -219c-10 5 -20 10 -28 17c5 10 2 20 -12 36l-11 -12c-26 32 -40 74 -50 130c12 53 63 142 102 142c31 0 59 -45 64 -94z" />
    <glyph glyph-name="a" unicode="a" horiz-adv-x="569" 
d="M528 195c-18 -2 -37 -6 -54 -8c-8 -17 -5 -61 -26 -81c14 -8 6 -33 -7 -45c6 -15 10 -26 -11 -54c-1 -4 9 1 11 3c-2 -34 -10 -61 -20 -91c-31 0 -59 30 -75 24c1 20 -2 28 -16 28l1 14c5 0 9 3 10 10c-5 0 -9 3 -9 10c2 23 14 52 20 82c7 0 7 -13 6 -28c7 0 18 41 20 64
l-12 5c-1 -16 -1 -38 -13 -33c3 14 6 49 9 61l17 -21c-1 12 4 15 2 30c-57 2 -208 -79 -253 -110l-5 -13l4 -12c-17 -35 -32 -76 -48 -97l-63 27c-3 31 -46 44 -35 70h-16c22 151 189 313 283 439c47 62 94 104 133 135c7 6 35 -4 37 15c13 -4 41 -16 56 -28l-18 -6
c-1 -17 24 2 29 -2c37 -32 16 -86 35 -115c1 -5 -1 -91 -16 -100c2 -2 3 -2 6 -4c-6 -22 -14 -51 -16 -79c-1 -12 37 -46 34 -90zM447 481l-3 10c-19 -1 -65 -57 -108 -114l-5 5c3 8 6 14 2 18c-16 -18 -23 -27 -14 -46c-15 -20 -29 -38 -42 -54c-18 -23 -45 -66 -68 -99
c20 12 35 33 75 50c35 15 56 19 92 29c3 26 13 45 17 59l17 -15c12 31 26 112 37 157zM399 293h-11c-4 -12 3 -12 10 -11zM398 299l-1 10l-4 1l-4 -11h9zM363 55l-6 -3l-4 -13h6zM222 129c-13 10 -46 -12 -65 -22c-5 -7 -7 -11 -11 -18zM234 135c9 5 24 11 35 18v1
c-22 -1 -31 -3 -35 -19zM434 463l-8 -31h-9l8 27zM167 125c4 2 27 10 33 24c-8 -3 -14 -4 -21 -7z" />
    <glyph glyph-name="b" unicode="b" horiz-adv-x="616" 
d="M262 225c-20 0 -40 14 -52 14c-11 0 -13 -7 -18 -7l10 -8c-5 -9 -12 -19 -19 -19c10 -14 3 -30 -5 -50c-8 -7 -19 -12 -23 -21c13 0 9 -6 5 -10c-10 -8 -16 -14 -5 -33l17 21l-1 -31h-7c-2 -5 -4 -11 -4 -18c44 20 80 33 90 23c5 13 23 22 45 34c10 -18 14 2 24 2
c8 0 19 -3 23 14c43 20 91 44 129 94c-89 34 -127 -5 -209 -5zM124 412l51 41c19 53 53 130 81 172h18c40 0 54 -33 60 -47h-14c0 -12 5 -28 12 -28c28 0 51 25 83 36c19 6 49 11 59 11c22 0 47 -59 56 -86c-10 -1 -18 -8 -10 -18c-15 -24 -30 -66 -49 -64
c-13 1 -46 -36 -57 -35c-19 2 -32 -19 -52 -35l-7 5c-11 -8 -34 -23 -43 -35l4 -3c32 2 78 7 114 7c49 0 88 -28 119 -51c15 -24 34 -78 44 -110c-7 -4 -13 1 -20 -2c-14 -21 -101 -88 -106 -88c-22 1 -48 -6 -70 -17l4 -15c-23 -21 -60 -29 -74 -15c-5 -5 -8 -16 -11 -24
c-107 -58 -185 -77 -174 -99c-7 -6 -14 -8 -21 -8c-22 0 -39 30 -68 34c2 11 2 23 -10 17c3 14 0 36 -5 50c17 8 36 16 53 25c-18 5 -30 23 -44 29l9 15c-10 8 -13 15 -17 24l102 273c-16 8 -19 23 -17 41zM398 260l-20 3l-1 -8c10 -2 20 -1 21 5zM463 89l-2 9l-16 -5
c-1 -7 14 -5 18 -4zM210 -19l-18 1l5 -5c2 -1 4 -1 5 -1c2 0 5 2 8 5zM377 46c5 0 10 4 14 12c-9 1 -24 -4 -29 -8c5 -3 10 -4 15 -4zM174 179h-11c0 -6 -3 -14 -7 -18l4 -7c8 7 14 17 14 25zM242 -4c-10 -4 -20 -1 -25 0c0 -5 6 -13 17 -13s13 13 8 13zM150 84
c-6 3 -10 -1 -15 -7l7 -4zM195 161l-16 -33c-3 2 -4 4 -2 8c1 8 12 20 18 25zM440 66l-29 -13c0 10 7 16 19 16c4 0 7 -1 10 -3zM530 160l7 -8l19 16c-5 7 -19 -4 -26 -8zM214 208l-17 -38c-5 2 4 30 11 43z" />
    <glyph glyph-name="c" unicode="c" horiz-adv-x="534" 
d="M523 477c-41 -10 -90 -30 -125 -55c-29 -21 -51 -45 -63 -56l-6 10c-11 -18 -49 -48 -77 -73c-1 -5 -4 -16 -7 -21c-18 -19 -117 -133 -117 -182c0 -12 5 -19 16 -19c36 0 119 24 179 33c14 2 25 -4 30 -10c-48 -10 -116 -22 -127 -42c19 -12 52 -4 67 11
c53 10 120 24 171 31l16 -4l24 3l11 -7l-52 -8c-13 -2 -27 -6 -18 -19l7 -10c-9 -4 -120 -37 -186 -58c-11 -4 -18 -14 -12 -21c-21 -5 -53 -14 -76 -14c-11 0 -20 16 -30 16c-24 0 -30 25 -62 21c-18 17 -56 81 -64 96c-5 8 -7 23 -7 34v27c16 14 17 35 17 56l10 -6
c7 11 -1 25 4 36c21 42 61 109 74 109s-6 -15 8 -15c11 0 32 52 43 52h12c-3 7 -4 19 -5 28h7c26 63 217 176 252 176c12 0 36 -11 51 -19c14 -33 42 -59 35 -100zM387 22v-1c-19 -11 -38 -22 -55 -22c-5 0 -10 1 -14 3c19 8 46 13 69 20zM293 -17c-6 0 -13 1 -19 4l33 11
c12 -9 1 -15 -14 -15zM127 331c-8 3 -13 1 -18 -8l10 -6zM174 218l-9 5l-12 -19c-4 -7 -15 -23 -10 -32zM134 158h-10l-7 -14l6 -8zM495 74l-30 -10l-10 12l27 4zM399 112c-18 0 -35 2 -43 6c40 7 82 15 112 17c-5 -17 -39 -23 -69 -23zM212 286l9 -6c21 21 21 25 21 29
c-10 0 -19 -10 -30 -23zM216 274l-9 6l-6 -10l7 -6zM113 307l-8 9l-14 -23l9 -7z" />
    <glyph glyph-name="d" unicode="d" horiz-adv-x="665" 
d="M670 377c-17 -26 -41 -64 -63 -85c-7 -7 -19 -12 -27 -11l15 16c-6 2 -16 1 -22 -5s-22 -19 -42 -35l18 -4c-109 -94 -243 -177 -359 -228l-9 -55c-19 10 -34 0 -55 0c-61 0 -81 67 -103 96c4 11 7 24 8 38l25 11c14 7 24 13 31 30c16 37 23 69 35 113l-4 15
c14 45 45 79 47 118c1 28 -36 46 -35 71c1 26 50 39 76 53l10 -7c47 51 50 154 103 154c9 0 45 -59 50 -72c4 -16 -5 -35 -9 -56c34 0 71 10 122 3c-10 -19 20 -14 26 0c10 -8 38 -5 60 -12c92 -28 97 -105 102 -148zM612 316l-13 3l-8 -9l13 -3zM568 446
c-169 0 -231 -54 -285 -71l-1 -31c-4 -5 -12 -8 -18 -15v-1c16 13 14 -32 5 -32c-5 1 -9 3 -13 6v-1c4 -6 6 -13 7 -21c-1 -23 -21 -51 -26 -89c36 22 117 54 167 97c4 -4 8 -4 15 -6l-6 14l9 6c4 -7 8 -8 10 -8c10 0 29 16 64 57c26 -9 78 58 72 95zM516 238l-9 3l-33 -18
c6 -4 14 -6 21 0zM479 210v1c-18 0 -34 -10 -54 -23c-22 -14 -57 -34 -89 -54c-1 -6 -4 -13 -11 -17c-7 7 -18 4 -29 -6c6 0 16 -3 23 -7c57 35 114 77 160 106zM237 64v-1l51 25c-4 2 -7 11 -2 17v1c-15 -8 -40 -31 -49 -42zM225 68l-31 -17l-2 -10l28 15z" />
    <glyph glyph-name="e" unicode="e" horiz-adv-x="537" 
d="M570 491c2 -10 -16 -16 -26 -24c-91 -41 -184 -44 -272 -69c-11 -18 -25 -41 -42 -68c40 4 123 38 152 38s38 -10 59 -46c-4 -11 1 -21 11 -26l-7 -22c-61 -10 -210 -34 -260 -56c-26 -11 -49 -121 -50 -144c31 -23 78 -13 107 -6l6 -10c7 0 16 6 16 12
c15 2 20 -22 34 -18c65 18 142 44 192 60c3 1 7 2 8 -1c2 -5 -13 -12 -21 -16l-68 -25c6 -4 17 -11 24 -15c3 -1 1 -3 -2 -4c-50 -17 -112 -34 -168 -48c15 -7 37 -7 56 -2c40 11 95 30 144 47c3 1 10 4 5 -6c-6 -10 -14 -17 -28 -22c-65 -25 -149 -55 -210 -55
c-117 0 -200 53 -196 199c2 74 63 165 136 318c-5 25 -4 49 14 76c50 -6 79 71 114 71c19 0 72 -15 85 -19c1 -22 -4 -45 -18 -72c17 -4 65 -9 87 -9l9 -19c5 0 14 6 25 6s35 -10 49 -12c2 0 4 -2 2 -4c-40 -36 -68 -14 -61 -44c30 12 55 19 83 32c4 2 10 9 11 3zM487 494
c-1 5 -15 6 -21 4l3 -12zM139 193v-11h1c6 8 14 16 18 26c-13 1 -17 -5 -19 -15zM129 108l-8 10c-4 -18 -5 -31 3 -37zM429 114c-12 -14 -38 -21 -57 -20c-28 -21 -63 -35 -75 -16c46 10 92 25 129 40c4 2 5 -1 3 -4zM255 397l-13 -3l-17 -28l13 3zM219 352
c-7 0 -20 -14 -23 -25l13 2zM147 176l-10 -1l-11 -37l7 -9z" />
    <glyph glyph-name="f" unicode="f" horiz-adv-x="517" 
d="M519 273l58 9c1 -11 -3 -20 -19 -24l-61 -16c9 -11 33 -7 61 0l-5 -12c-70 -22 -163 -59 -219 -64l-116 -11c-25 -10 -43 -33 -60 -62l6 -9c-17 -33 -45 -92 -61 -126l-8 5c-7 -10 1 -22 1 -34c0 -11 -8 -25 -16 -40l-37 -12c-14 -5 -22 6 -29 17l-8 -7
c-12 12 -17 24 -10 32c-8 13 -14 25 -16 38c16 32 33 78 46 107c15 32 10 56 -16 72l-8 48c10 4 26 17 28 34l58 17l-6 10c29 7 19 33 33 68l93 232c12 29 29 63 59 80l56 31c69 0 164 -80 164 -177c0 -31 -10 -55 -21 -70c-14 2 -25 14 -36 17c0 27 -11 54 -28 73
c-59 -24 -96 -129 -148 -215c9 -9 31 4 51 -8l-31 -7l9 -7c30 4 72 11 101 15c5 1 16 -9 6 -12c-7 -2 -14 -6 -14 -14l79 15l18 -11l28 6c7 1 15 3 18 12zM483 226c-7 8 -15 8 -27 7c-30 -2 -39 -11 -58 -16c-3 -1 -3 -9 0 -8c31 8 50 12 55 8zM53 106c0 4 -4 8 -13 13
l5 -26c5 5 8 9 8 13zM386 206c4 1 2 10 0 9c-12 -4 -25 -2 -28 -7c-2 -3 -3 -10 0 -9zM149 99l20 34c-6 -1 -31 -14 -31 -25c0 -5 6 -9 11 -9zM114 68l19 48c-7 -3 -16 -11 -22 -24c-3 -6 -1 -19 3 -24zM105 -2c-6 0 -12 -3 -16 -8l-7 -14l7 -7z" />
    <glyph glyph-name="g" unicode="g" horiz-adv-x="590" 
d="M52 269l-8 13c18 17 75 168 201 232c11 5 5 15 17 23c59 37 93 51 183 51c64 -17 51 -60 94 -86c0 -14 -9 -23 -19 -33c9 -3 16 -11 20 -17c-1 -5 -5 -10 -9 -11c-9 9 -30 25 -52 25c-110 0 -349 -179 -332 -321c71 -12 179 9 204 21c13 6 27 22 35 35
c26 41 64 88 96 121c4 -4 9 -7 14 -10c-8 -9 -19 -28 -17 -35l25 30c21 -10 42 -17 46 -57c25 0 -5 -47 4 -58c-71 -72 -96 -90 -111 -103c-9 -27 -21 -62 -36 -98l4 -7c16 30 26 61 37 89l11 5c-26 -64 -51 -145 -85 -205c-9 -16 4 -23 -5 -41c-8 -17 -17 -44 -37 -44h-17
v13c-43 -9 -65 16 -73 44l25 44c-16 -4 -23 -17 -28 -32h-17c26 55 45 99 64 141c16 35 27 10 27 65l-18 -6c-14 17 -48 6 -72 -13c-85 -1 -129 16 -166 88h-12c-19 50 -8 93 7 137zM517 281c-5 10 -10 14 -15 7l-20 -27c14 2 26 13 35 20zM135 149l2 38
c-8 -9 -12 -18 -12 -25c0 -6 4 -11 10 -13z" />
    <glyph glyph-name="h" unicode="h" horiz-adv-x="650" 
d="M389 -39c7 -15 25 14 47 60c13 -7 -5 -37 -16 -58c-15 -28 -30 -83 -45 -83c-27 16 -86 55 -86 99c0 60 44 151 74 206l-5 9c-24 0 -110 -12 -119 -12c-3 4 -8 7 -13 7c-16 0 -24 -12 -30 -27c-19 -46 -51 -164 -61 -210c-21 0 -26 11 -38 23c0 0 -1 -1 -2 -1
c-1 -1 -2 -1 -3 -1h-5c-4 0 -7 2 -11 3l5 12c-60 39 -27 76 -15 154c-23 5 -55 1 -81 1c11 20 32 24 50 33l-16 9l58 24c6 15 14 22 21 36c18 33 24 79 42 113c47 89 110 186 141 264c4 3 1 8 14 8c53 0 49 -31 78 -58c1 -34 8 -58 -7 -109h-7c-10 -32 -46 -81 -67 -125
c-19 -9 -31 -29 -31 -47l21 6c28 33 68 37 107 37c13 0 33 -6 48 -11c62 77 101 166 147 254c4 7 13 12 23 12c35 0 48 -51 48 -89c0 -23 -3 -50 -19 -62c-3 -28 -13 -55 -36 -68c8 -19 -23 -56 -38 -83c-13 4 -30 -10 -37 -22s-19 -35 -28 -54c-2 -4 6 -9 11 1l12 25
c5 10 14 18 23 17c-32 -57 -47 -115 -86 -171l-11 4c-4 2 -13 -4 -17 -10c-4 -7 -12 -19 -20 -33c-9 -14 0 -38 1 -48c-7 -12 -21 -22 -21 -35zM447 69l-19 -32c-2 -4 -5 -4 -5 -1l-1 11l15 22c2 3 5 5 7 3zM499 191c-4 1 -11 -2 -13 -6l-41 -80c12 1 21 18 27 31zM394 4
c-3 0 -10 0 -13 -6l-10 -20l6 -8zM293 79l11 40l11 -4c-6 -27 -20 -36 -22 -36zM-20 157l-6 -15l-19 -4c0 3 13 13 22 21c2 2 5 2 3 -2zM190 177c-9 0 -15 -14 -20 -27l9 -3z" />
    <glyph glyph-name="i" unicode="i" horiz-adv-x="360" 
d="M385 547c0 -27 -4 -63 -9 -93h-11c-27 -38 -43 -108 -89 -133l4 -12l-39 -22c-39 -56 -56 -125 -78 -182c-3 -8 -16 -24 -3 -28c3 -1 10 20 11 23c23 52 40 130 76 171c14 5 4 -7 2 -10c-35 -59 -52 -127 -81 -197c-20 -47 -27 -90 -22 -110c-18 6 -34 13 -50 22v32
c-7 -6 -10 -13 -11 -24c-23 17 -42 40 -55 75c0 180 186 426 258 558c6 8 19 14 30 14c10 0 20 -4 31 -7v-24c20 -8 36 -31 36 -53zM153 60c-14 14 -10 -2 -11 -5l-11 -27c-1 -3 2 -13 8 -3z" />
    <glyph glyph-name="j" unicode="j" horiz-adv-x="551" 
d="M581 509c0 -35 -40 -54 -57 -87c-17 -35 -27 -57 -37 -86c-30 -24 -51 -69 -51 -115c-6 -5 -13 0 -17 6c-9 14 -32 1 -24 -30l20 5c2 -5 -2 -19 -7 -31l-22 16l-9 -9l7 -7c-4 -17 -23 -67 0 -65c-4 -12 -10 -26 -22 -14c-10 -13 -7 -23 6 -22c-1 -16 -17 -11 -27 -3
l-13 -12l8 -4c-4 -11 -6 -23 -1 -38c7 15 13 30 24 33c-36 -93 -94 -186 -165 -255c-148 0 -214 140 -214 263c0 63 11 126 53 185c59 0 101 -50 101 -144l-35 -27c-15 -29 -25 -65 -25 -90c0 -42 13 -68 46 -68c39 0 71 74 111 141c65 147 97 365 214 518
c21 27 43 60 59 60c17 0 34 -13 54 -27c12 -25 23 -70 23 -93zM402 156l-12 -35c-11 4 1 32 5 41zM361 133l-16 -24l11 -12c5 10 5 26 5 36zM220 -165v7l-14 -10l3 -10zM275 -70l-23 -27l4 -4l-15 -17l11 -2l20 28c6 8 10 15 3 22zM275 -57l10 -14l18 26
c-10 1 -21 -1 -28 -12zM199 -148c0 -3 1 -7 3 -11c14 5 29 13 44 32c-20 -4 -47 -7 -47 -21zM487 371c-8 0 -19 -10 -27 -28l15 -3z" />
    <glyph glyph-name="k" unicode="k" horiz-adv-x="715" 
d="M740 496l-21 -11c6 -6 9 -4 15 -4v-52c-34 4 -75 -49 -81 -49c-14 0 8 11 -6 11c-8 0 -24 -13 -38 -32l-15 11c-15 -15 -42 -26 -68 -41c5 -6 15 -4 26 1c-5 -16 -16 -16 -19 -16c-13 0 -12 9 -20 9c-4 0 -174 -75 -184 -79c27 -31 77 -71 102 -94l-7 -5
c13 -7 39 -13 40 -23c0 -3 -2 -5 -5 -8c27 -22 38 -18 60 -32l-12 -10c15 -15 29 -20 50 -16c36 -23 56 -73 114 -73c13 0 32 -7 41 -15c-25 -4 -63 -5 -86 -5c-44 0 -125 53 -178 85l-2 -11c-75 50 -152 108 -243 161c-16 -23 -30 -48 -44 -76c-6 3 -10 7 -3 21h-11
c-12 -15 -20 -41 2 -48c-20 -45 -36 -93 -48 -142c-20 0 -39 7 -54 20c0 10 -1 18 -4 24l-8 -12c-5 7 -7 14 -4 24c-4 2 -9 3 -14 3c-2 37 8 77 24 105l-9 7c70 180 180 358 267 507c57 7 78 -84 78 -114c0 -28 -88 -136 -74 -153c80 38 149 74 227 107l4 -6
c10 3 17 12 17 23c7 -6 10 -6 13 -6c7 0 12 7 5 14h1c29 0 101 50 122 50c15 0 35 -20 50 -50zM332 256l-4 9l-15 -7c0 -10 12 -6 19 -2zM722 499l-5 12c-4 -3 -13 -13 -10 -19zM370 285l-31 -14l1 -10c10 5 32 11 30 24zM190 202c-8 1 -16 -6 -20 -13l-21 -34h13zM130 88
l-8 6c-4 -6 -13 -30 -6 -36zM588 340l-29 -13c0 5 9 13 24 21zM663 22c-4 -5 -25 -5 -33 2l2 8zM608 62c-5 -9 -32 1 -61 19l6 8zM622 37l-2 -8c-15 1 -26 13 -24 17zM456 323l-49 -22c5 -1 9 -2 13 -2c18 1 32 13 36 24z" />
    <glyph glyph-name="l" unicode="l" horiz-adv-x="612" 
d="M672 237c3 -14 -61 -44 -112 -57c-21 -14 -37 -18 -47 -17c-12 0 -15 2 -17 5c-18 -18 11 -33 79 -6c5 1 13 -2 9 -4c-19 -9 -61 -31 -75 -31c-23 0 -40 -6 -61 -13c-63 -22 -163 -60 -235 -89c-13 -5 -34 -25 -46 -26c-12 -2 -37 -4 -50 -4c-8 0 -14 5 -17 11h-23
c-15 15 -32 46 -45 46h-12c17 176 197 446 288 563v16c56 0 85 -45 85 -93c0 -12 -51 -126 -69 -159c-12 -21 -44 -51 -61 -75c-9 -13 -15 -39 -23 -53c-11 -20 -45 -37 -33 -66c68 21 81 23 89 25c11 3 24 6 37 6c16 0 31 -5 39 -19c5 5 45 21 50 21c14 0 15 -5 29 -5
c13 0 65 17 99 27c1 -2 5 -4 12 -5v-1c-31 -10 -72 -20 -98 -36l10 -6c31 11 94 39 129 47c12 -4 26 -13 27 -15c15 6 41 20 42 13zM474 136l-16 7c-53 -10 -164 -51 -233 -85l1 -4zM662 256c0 -6 -17 -14 -24 -19c-5 4 -10 7 -15 9c4 3 39 15 39 10zM591 246l-17 -6
c-3 -1 -11 4 -8 5l20 6c11 3 10 -3 5 -5zM660 193l-60 -28c-7 -3 -11 -1 -14 3v1c59 26 66 30 74 24zM376 189l6 -8l22 12c-5 3 -16 4 -28 -4zM254 307v18c-10 0 -14 -12 -14 -18h14zM208 245l-12 3c-7 -18 -19 -35 -6 -41z" />
    <glyph glyph-name="m" unicode="m" horiz-adv-x="875" 
d="M860 412c0 -29 -12 -67 -30 -61c-22 7 -32 -40 -37 -51h-16c0 -12 14 -14 23 -17c-5 -11 -16 -14 -28 -13l-28 -88l12 6l21 64l6 -16l-14 -50c-5 -18 -14 -32 -24 -32c-14 0 -11 -18 -15 -31l-7 9l-6 -6c5 -10 15 -23 15 -35c0 -23 -25 -66 -42 -105l-17 15
c-2 -2 -5 -3 -8 -4s-6 -1 -10 -1c-38 0 -82 64 -82 100c0 41 82 188 118 267l-3 8c-29 -18 -100 -41 -103 -72l-177 -151c-17 23 -29 6 -50 6c-26 0 -41 49 -51 82c15 49 40 110 64 166l-10 20c-40 -33 -77 -84 -105 -128c-42 -68 -99 -173 -142 -251c-10 4 -2 21 5 35
c-11 3 -19 -14 -26 -33c-7 -20 -5 -42 1 -56c-5 -4 -10 -6 -16 -6c-41 0 -98 73 -98 95c0 24 84 157 130 229c52 83 103 160 171 211c19 29 60 87 96 87c56 0 76 -70 99 -126c-5 -26 -2 -64 8 -87c32 22 72 56 104 74c7 4 16 -2 21 -10c8 6 14 17 9 28c53 33 120 67 142 67
c19 0 43 -17 64 -33c17 -40 36 -73 36 -106zM790 336l-6 8l-11 -31c11 8 20 18 17 23zM737 194l31 94h-1c-14 -20 -33 -46 -33 -77c0 -6 1 -11 2 -17h1zM786 351h11l12 31c-14 0 -15 -13 -23 -31zM723 194c-3 -3 -4 -10 -5 -17c0 -5 1 -10 1 -12c8 6 13 25 4 29zM135 108
l-6 4l-11 -19l6 -6zM820 320l-8 -20h-11c4 8 14 18 19 20zM143 137l-9 -14l6 -5c5 10 10 14 3 19z" />
    <glyph glyph-name="n" unicode="n" horiz-adv-x="753" 
d="M522 365c29 45 96 140 155 197c11 7 31 12 52 13c36 1 64 -4 81 -16l-20 -14l2 -4c7 0 26 6 32 10l28 -30c-52 -24 -145 -93 -196 -163c-6 -8 -10 4 -16 0c-2 -36 -23 -55 -47 -93c-5 -9 -3 -22 -9 -36c0 -6 -15 -12 -18 -21c-25 -77 -59 -157 -91 -239l-45 21l-6 -14
c-64 17 -70 42 -79 109c-3 26 5 71 -2 93c-24 70 -1 100 -7 151l-5 39c-31 -10 -66 -40 -92 -87l3 -16c-50 -94 -95 -224 -140 -284h-28c-29 0 -45 67 -57 73l-6 44c-5 31 4 42 11 61c71 172 185 276 264 357c30 -11 112 -62 126 -99c12 -30 24 -93 34 -134
c68 118 168 265 190 273l21 3c-62 -61 -106 -133 -130 -168c-9 -15 -13 -21 -11 -22zM665 400c2 3 -5 9 -7 6c-8 -12 -24 -33 -14 -38zM645 517c1 -2 4 -6 8 -5l17 22l-8 4c-5 -4 -11 -11 -17 -21zM779 538l-19 -14l2 -9c10 7 19 8 17 23zM584 208l-5 -34l-9 6
c1 14 2 33 14 28zM691 436c2 2 -2 11 -7 5l-20 -26c6 1 8 -1 9 -5zM289 486l-8 6l-22 -23c12 -10 23 10 30 17z" />
    <glyph glyph-name="o" unicode="o" horiz-adv-x="654" 
d="M624 300c0 -33 -17 -78 -53 -107c5 -10 -2 -21 -13 -21l-7 13c-8 -2 -14 -6 -8 -17c-11 0 -29 -9 -29 -20c0 -15 -17 -10 -29 -13c-11 -11 -20 -24 -32 -40l-11 10c-26 -16 -12 -27 -39 -40c-16 -8 -35 -7 -53 -11c-3 -3 9 -7 8 -11l-18 -6l-28 17
c-16 -10 -4 -33 -24 -40c-24 -8 -43 -15 -71 -24c-17 17 -37 11 -51 0c-35 22 -78 55 -104 77c-24 19 -32 68 -32 116c0 243 303 400 378 400c29 0 43 -18 74 -42c0 -46 49 -83 90 -111c39 -26 52 -76 52 -130zM365 68c0 7 -5 10 -15 10c0 -3 -4 -10 -2 -12c4 -3 12 0 17 2z
M519 333l-56 65c-3 9 -5 15 -9 11s-8 -6 -11 -6c-7 0 -11 8 -12 8c-53 0 -145 -61 -187 -127c-48 -23 -81 -80 -103 -149c23 2 53 4 71 11l180 75c20 8 63 29 82 53zM409 97l-5 10c-18 -9 -25 -14 -24 -25zM192 258l23 28c-15 9 -33 -5 -35 -16c0 -6 3 -11 12 -12zM189 13
l30 -5c-4 6 -11 11 -18 11c-4 -1 -8 -2 -12 -6zM440 115c-3 3 -5 14 -8 16l-16 -17l4 -11z" />
    <glyph glyph-name="p" unicode="p" horiz-adv-x="510" 
d="M545 459c0 -70 -53 -101 -130 -155l-8 7c-68 -40 -142 -94 -173 -74c-12 -20 -35 -79 -40 -79s-2 26 -13 7c-11 -20 -34 -60 -32 -89c0 -6 16 4 14 -2l-45 -131c-3 -10 -8 -33 -9 -46c-9 0 -64 20 -78 40c-16 24 -21 59 -21 79c32 99 107 274 161 390
c-15 11 -30 25 -38 35c7 9 13 23 15 35l-25 6c7 10 19 17 27 22v16c95 -6 85 111 123 111c10 0 15 -2 22 -4c15 -5 28 -13 45 -15c8 -20 18 -38 22 -60c31 -1 62 -2 98 -8c53 -8 85 -28 85 -85zM454 365l-62 -37c-4 -3 4 -10 14 -3c20 12 56 29 48 40zM353 297
c-12 13 -18 -5 -34 -5h-13c-13 0 -24 -14 -26 -28c24 7 52 21 73 33zM383 313c-5 5 -26 7 -34 -5c8 0 9 -10 17 -5zM482 377c0 3 -5 4 -10 1s-10 -4 -12 -10c-3 -8 22 -2 22 9zM177 127c14 6 -2 -25 -7 -38c-4 0 -10 -6 -13 -3c3 14 14 39 20 41z" />
    <glyph glyph-name="q" unicode="q" horiz-adv-x="736" 
d="M831 -162c-8 -12 -10 -25 -17 -35l-34 9h-4c-13 23 -28 40 -49 51l35 -48c-48 13 -64 79 -89 106c-26 29 -34 62 -64 89v14c-40 42 -75 83 -106 124c-25 -16 -44 -45 -64 -62c-3 6 4 17 2 26c-29 -19 -63 -99 -114 -99c-10 0 -19 2 -34 -3c-23 -26 -79 -20 -116 -33
c-7 7 -21 30 -28 20l-5 -7c-15 20 -34 42 -48 55l-3 -10l-21 11c-18 32 -31 78 -37 115c35 176 134 344 306 406c25 23 78 36 115 36c38 0 68 -39 90 -59l12 -71h10c-6 -14 -5 -42 -17 -60c-10 -15 -35 -30 -56 -51c12 -21 21 -45 30 -66l-13 -14c3 -31 118 -208 219 -298
c40 -36 96 -91 100 -146zM474 443h-27c-87 0 -170 -113 -209 -143c-16 -24 -41 -74 -51 -74c-9 5 -16 4 -26 -5l16 -10c-7 -4 -14 -9 -17 -17l-31 -82h58c37 0 164 62 179 75c19 16 52 54 52 65c0 22 -57 59 -57 113c0 34 61 46 101 44zM182 241l31 41
c-11 0 -32 -18 -34 -32c0 -3 0 -7 3 -9zM343 34l41 33v1c-20 -6 -45 -17 -46 -27c-1 -2 1 -5 5 -7zM185 3l-17 14c-8 -6 1 -17 11 -25zM260 18c0 -5 12 -10 23 -3c-7 2 -11 6 -15 9c-6 -1 -8 -4 -8 -6z" />
    <glyph glyph-name="r" unicode="r" horiz-adv-x="621" 
d="M486 353l-11 11c-43 -27 -27 -40 -78 -70c-15 21 -44 4 -74 -24c95 -87 200 -229 297 -229c47 0 97 14 119 20c11 -3 27 -15 35 -25c-19 -5 -37 -10 -56 -17l2 -2c13 0 33 -2 27 -6c-10 -8 -48 -29 -85 -42c-8 -3 4 -8 9 -7c41 14 81 43 112 64c4 -4 8 -9 10 -13
c-53 -49 -148 -99 -223 -99c-38 13 -81 31 -107 57c-49 48 -183 239 -243 270c-26 -36 -67 -116 -81 -155c-6 -13 13 -39 8 -58c-6 -22 -33 -38 -55 -60c-19 0 -45 16 -53 37l-15 41c24 16 -9 7 -9 26c0 52 164 412 262 559c82 0 55 -70 70 -101c31 13 71 29 106 29
c22 0 39 -2 57 -7l-7 -16c14 -4 30 -4 30 9l19 -8c-1 -5 -5 -11 -8 -14c8 -6 17 -6 19 5c20 -19 28 -33 28 -56c0 -12 -5 -28 -13 -35c-27 -24 -55 -52 -92 -84zM497 545c-11 4 -30 2 -37 -2l32 -5zM649 -36l-45 -10c-14 4 -24 -6 -1 -13c19 3 42 10 56 15v1
c-5 0 -7 5 -10 7zM385 287l-27 -13l-6 9c11 8 28 14 33 4zM159 155l-5 8l-29 -53l5 -12z" />
    <glyph glyph-name="s" unicode="s" horiz-adv-x="515" 
d="M468 589l-1 -12c36 -9 54 -41 51 -79c5 -4 7 -9 7 -14c0 -21 -34 -49 -72 -57c-21 27 12 28 2 39c-101 0 -152 -20 -239 -82v-15l42 -30c43 -30 85 -44 115 -77l11 7c29 -31 46 -69 44 -95l-6 -80l-17 4c-29 -40 -87 -76 -146 -102c-31 13 -48 8 -47 -19
c-48 -18 -91 -27 -109 -27c-14 0 -38 16 -62 39c-40 8 -49 32 -44 50c-13 18 -22 35 -22 46c0 25 17 40 33 52c17 -14 43 -49 61 -49c47 0 140 27 204 83v10c-25 24 -45 68 -63 56c-27 36 -39 51 -57 38c-14 12 -41 36 -46 64c-6 32 -18 69 -17 90c6 82 168 164 295 164
c25 0 58 -1 83 -4zM494 421l-9 7l25 17c0 -12 -3 -13 -16 -24zM290 443v1c-36 -11 -73 -26 -74 -42zM200 -17v12l-35 -15l5 -7z" />
    <glyph glyph-name="t" unicode="t" horiz-adv-x="578" 
d="M407 632l43 -86c66 14 140 30 186 36c43 -11 78 -29 91 -65c-17 -15 -8 -41 1 -56c-5 -3 -10 -5 -16 -7l-2 6c-6 3 -11 4 -14 4c-4 0 -7 -3 -7 -7c0 -3 1 -6 2 -8c-60 -12 -148 -4 -231 -40h-14v11c-9 1 -16 -4 -22 -12c-34 -4 -45 -17 -66 -80c-3 -9 -15 -21 -21 -26
l9 -5c-5 -21 -20 -61 -30 -60c-11 1 -1 21 -7 20c-11 -2 -12 -24 -17 -40c5 -13 6 -21 6 -29c-5 -13 -10 -35 -17 -35c-10 0 -4 19 -8 27c-9 -19 -16 -37 -23 -54l8 -5c5 9 10 12 19 10c-19 -52 -36 -104 -47 -149c-24 -2 -48 1 -65 5l4 11c-26 9 -24 43 -28 82
c-4 5 -8 14 -8 21c0 25 57 173 107 287h-78c-44 0 -47 -14 -79 -6c-15 23 -33 67 -33 97c0 12 4 23 14 33c39 -4 132 -8 193 4c101 21 57 116 150 116zM328 279l-4 7l-10 -18l6 -7z" />
    <glyph glyph-name="u" unicode="u" horiz-adv-x="655" 
d="M685 473l-14 -50c-20 2 -48 -13 -24 -29c7 -4 -1 -19 -13 -18l-14 7c-13 -24 -29 -56 -16 -57l-11 -21c-19 1 -21 -26 -83 -102l8 -10c25 32 49 66 69 99c7 -9 5 -18 2 -24c-140 -258 -346 -288 -404 -288c-7 0 -7 3 -8 5c0 3 0 5 -7 5s-6 -2 -6 -5c1 -2 2 -5 -5 -5
c-28 0 -41 27 -55 44l-11 -5c-40 24 -58 70 -58 117c0 40 10 82 27 119c46 100 121 280 158 364c12 10 22 14 31 14c22 -1 53 -82 61 -103l14 10v-23c-29 -53 -71 -140 -97 -197c-6 10 -6 16 -1 27c10 3 -4 14 -8 8c-24 -35 1 -53 -9 -74c-4 -9 -9 -19 -14 -31
c-9 4 -19 -7 -24 -17c6 -3 12 0 18 4h1c-7 -15 -15 -34 -21 -48c-4 6 -5 14 2 29l-6 6c-8 -15 -18 -33 -18 -45c0 -7 4 -11 13 -12c-4 -10 -8 -20 -11 -28c204 0 295 152 377 322c3 9 19 4 28 10c9 5 5 14 -11 12c16 36 36 93 40 109c2 9 8 11 16 11c6 0 13 -8 22 -15
c11 -9 24 -14 29 -16c5 -11 7 -31 8 -51c1 -24 4 -46 25 -48zM254 420l-25 -41c-1 -2 -3 -6 -2 -7l13 -8c7 10 24 46 14 56zM226 12c7 0 16 2 23 3c-13 23 -49 15 -39 3c4 -5 9 -6 16 -6zM511 184l-10 10c-15 -15 -28 -28 -18 -41zM426 94c-24 1 -41 -18 -76 -37l2 -10
c21 10 57 33 74 47zM339 40c-3 7 -12 7 -19 5c-17 -6 -41 -3 -39 -26c20 4 40 12 58 21z" />
    <glyph glyph-name="v" unicode="v" horiz-adv-x="585" 
d="M643 497c18 22 46 58 76 83c6 4 13 3 14 -2c-50 -41 -85 -125 -138 -159c-41 5 -30 -45 -48 -46c-14 0 -21 -20 -31 -34c-78 -110 -222 -245 -332 -365l-62 21c-17 30 -46 58 -47 99c-2 57 16 385 20 444c1 23 -21 62 2 80c77 -31 109 -105 113 -189c-12 -34 9 -60 6 -89
l-11 -2c-5 -31 -12 -62 -21 -91l16 -44c99 90 180 188 260 295c42 -2 31 37 82 32l39 42c8 9 23 7 27 -2c-11 -15 -54 -62 -94 -98c-4 -4 2 -7 10 -4c38 31 101 97 114 115c13 -1 25 26 43 11c-11 -9 -30 -26 -27 -43c10 12 25 28 35 25l3 -1c-15 -17 -40 -50 -56 -76z
M178 274h-11c-1 -8 2 -16 9 -16zM550 410l-33 -19c6 -5 12 -6 16 -6c10 1 16 12 17 25zM180 281c0 9 8 22 -7 22l-4 -18zM634 484c-6 -3 -9 3 -10 1l-21 -21c-12 -6 -8 -21 5 -11c14 11 23 25 26 31zM690 586c2 4 5 9 9 14c3 4 8 7 12 7c3 0 6 -1 9 -6c-5 -3 -10 -7 -20 -18
c-2 3 -6 3 -10 3zM593 408l-8 -17l-9 8c4 10 11 13 17 9zM486 343l-15 -22l6 -12c17 18 16 30 9 34z" />
    <glyph glyph-name="w" unicode="w" horiz-adv-x="845" 
d="M991 521c-33 -27 -64 -71 -106 -70c-50 -46 -131 -130 -167 -164l-15 13c10 -41 -26 -69 -52 -108c-10 5 1 18 9 31c-11 8 -22 -9 -33 -26s-19 -29 -11 -42c-43 -48 -125 -167 -161 -167c-14 0 -21 43 -42 61l-6 -7l-28 41c-13 19 -32 82 -54 107
c-51 -62 -138 -206 -151 -206c-11 0 -35 38 -44 38c-4 0 -7 -1 -9 -5c-38 44 -52 122 -55 215c-4 103 6 222 10 325l13 10c47 -23 80 -107 90 -152c16 -74 -50 -193 -12 -222l142 194l23 8l53 79c11 17 9 56 28 56c21 0 48 -26 56 -53l25 -86c-35 -47 -55 -114 -90 -155
c21 -2 36 -30 52 -30c27 0 231 321 340 337c11 2 32 4 45 4c-9 -9 -17 -19 -5 -23l45 35c7 -1 17 -10 20 -19l42 -7c-5 -10 -16 -23 -29 -32l8 -3c21 0 47 49 69 23zM901 494l-20 -14l2 -9c10 7 19 8 18 23zM874 476l-55 -43l2 -10c27 21 51 35 53 53zM686 280l-9 -13l6 -7
c6 9 10 14 3 20zM677 251l-5 5l-13 -18l6 -6zM720 311l35 33c-29 15 -34 -21 -36 -33h1zM376 439l-26 -41l11 2c10 13 21 29 15 39z" />
    <glyph glyph-name="x" unicode="x" horiz-adv-x="525" 
d="M614 548l-264 -241l12 -4c-21 -15 -40 -30 -54 -48h-17v-29c0 -33 23 -81 39 -111h9c28 -58 114 -126 153 -159c-20 -10 -55 -7 -73 6l-42 30c-14 4 -31 6 -43 -2c-33 26 -68 46 -56 61c-46 34 -68 58 -79 82l-48 -48c-6 5 -18 3 -24 -3l-73 -71c-40 -4 -90 -91 -139 -91
c-2 0 -3 1 -3 2c0 5 16 15 20 20c1 1 1 2 2 3l44 42l-2 12l-35 -32c3 22 0 49 10 76l33 31c4 14 11 26 20 39l14 -7l54 51c12 12 33 30 32 52c19 17 35 33 48 51c8 1 16 3 21 9c0 2 -2 5 -2 7c-32 112 -35 223 6 335c8 6 21 14 27 6l-17 -54c13 10 21 35 30 54
c57 -8 57 -47 88 -49l11 -21c-17 -35 -28 -88 -29 -114l-6 -15l8 -5c64 65 140 151 201 207h16v-14c10 5 20 28 46 24l-9 -16c46 -10 77 -35 77 -52c0 -5 -1 -10 -6 -14zM356 274l-18 -19h-14l24 22zM384 -30l-17 -3l-24 17c11 5 25 -1 41 -14zM1 21l-17 -14l3 -10
c10 5 14 15 14 24zM65 163l-10 -10l-7 7c6 5 11 10 17 15v-12zM49 147l-31 -29l-7 3c9 11 20 22 31 33z" />
    <glyph glyph-name="y" unicode="y" horiz-adv-x="572" 
d="M388 117l-7 -7l-14 13c-10 -8 -27 -20 -8 -44c-8 -12 -16 -27 -24 -43c-9 -4 -17 -10 -24 -17l8 -20l-4 -7l-12 16c-16 -22 -27 -53 -32 -83l19 -9c-4 -16 -6 -32 -7 -45c-8 -4 -21 -6 -31 -6c-33 0 -58 12 -74 26c-1 10 -7 14 -14 14c-8 10 -11 18 -10 21
c16 84 80 177 121 292l-7 6c-31 0 -56 6 -83 19c-4 -6 -10 -8 -18 0l-66 65h-12c-61 89 -16 193 39 285l14 -6c2 5 4 9 6 11c3 3 6 5 9 5c6 0 56 -21 81 -32l16 -28c-9 -57 -45 -85 -51 -143l-15 -12c-7 -42 -3 -67 21 -98c67 -6 119 25 149 67l106 149l8 -13l40 58
c7 10 16 10 25 3c26 21 48 23 66 14c-1 -12 4 -17 21 -19c11 -15 19 -36 23 -59c-10 -25 -26 -49 -47 -73c-39 6 -43 -12 -56 -39l14 -7c-39 -41 -78 -81 -91 -119l-14 13c-1 -40 -30 -66 -45 -89c-7 -11 -5 -25 -7 -37l-10 7c1 7 1 13 -4 17c-11 -19 -17 -27 1 -46z
M280 -90l-11 5l-3 -17l8 -4zM572 386l-6 12c5 5 14 16 26 10c-6 -7 -13 -15 -20 -22zM364 73l10 -9c-3 -6 -9 -11 -19 -7zM306 -36l-14 -40c-13 9 -4 35 13 41z" />
    <glyph glyph-name="z" unicode="z" horiz-adv-x="635" 
d="M724 94l47 1c4 -2 11 -7 11 -14c-63 -2 -140 -7 -203 -19c-20 -4 -15 -19 -30 -31c-3 5 -17 7 -26 5l-2 -12c-38 -4 -35 -3 -73 -10c-33 41 -83 10 -115 -14c-30 0 -59 3 -87 7v-14l-174 22c-33 43 -62 71 -62 105c0 93 261 202 395 315c-52 14 -134 -27 -168 5
c-6 -3 -7 -8 -8 -14c-15 -1 -30 -4 -46 -2s-60 70 -58 83s17 12 9 32c100 39 248 47 327 47c44 0 96 -5 129 -15c10 -29 12 -62 12 -89l12 -11v-15h-15c-16 -57 -86 -77 -124 -135l-8 11c-31 -30 -120 -72 -179 -111l-9 -19c-17 1 -43 -10 -64 -25v-15l-11 -9l-8 8
c-8 -8 -14 -16 -18 -24c55 -3 113 -2 171 0l8 -10l6 10c12 0 25 1 37 2c32 -11 50 -18 47 2c71 14 127 7 199 11c1 -6 -3 -19 -11 -22c-25 -1 -34 -1 -54 -3c-25 -2 -99 -11 -114 -23l1 -5c77 8 200 22 269 22c8 0 12 -2 9 -4c-10 -4 -17 -10 -22 -23zM745 135
c-24 0 -50 -1 -74 -2c-15 9 -15 16 -15 19c26 1 60 0 81 -1c10 -1 10 -10 8 -16zM771 64c5 -2 2 -10 -5 -9c-53 0 -125 -8 -188 -16c8 24 176 32 193 25zM779 136h-21c2 7 4 13 10 14c11 2 17 -5 23 -10c1 -1 -3 -4 -12 -4zM407 6v-1c-20 -2 -33 -3 -47 -4c14 19 32 16 47 5
zM420 448l-11 16l-10 -3l13 -20zM841 85l-44 -3c-4 3 -7 8 -7 13l29 1c11 -1 32 -1 32 -8c0 -2 -4 -3 -10 -3z" />
    <glyph glyph-name="braceleft" unicode="{" horiz-adv-x="513" 
d="M608 642l-12 -33c-24 -18 -64 -41 -86 -51s-21 11 -48 -1c-43 -19 -189 -79 -205 -146c32 -11 66 -21 90 -33c-7 -12 6 -14 15 -9c12 -8 20 -15 20 -24c0 -27 -31 -58 -58 -78c12 -10 35 -20 35 -35c0 -8 -67 -63 -124 -124c-52 -56 -93 -117 -92 -124c-1 -9 0 -14 4 -18
c30 0 77 10 107 19c6 -13 19 -20 36 -18l7 -23l27 -3c4 -13 21 -24 21 -40c-59 -17 -140 -46 -188 -46c-44 0 -81 38 -115 57c-2 11 -7 22 -7 36c-1 67 80 172 130 206l12 -3c11 14 20 33 22 51l-64 34c31 37 76 69 120 96c-41 21 -72 44 -73 96c0 23 11 46 31 69l14 -5
c6 17 24 19 34 32l-3 16c2 2 5 3 19 12c9 -12 33 7 45 16c-1 2 14 9 18 26c19 12 39 23 59 34l4 -15c32 14 60 27 89 43c5 3 4 10 -2 7c-19 -7 -28 -12 -35 -5l82 44h13c0 -15 4 -25 41 -17zM321 -49l-17 4l-4 13l10 1zM164 246l9 -3c9 11 63 54 78 64s-2 6 -14 0
s-63 -49 -73 -61z" />
    <glyph glyph-name="bar" unicode="|" horiz-adv-x="257" 
d="M224 750h102l-298 -1000h-102z" />
    <glyph glyph-name="braceright" unicode="}" horiz-adv-x="512" 
d="M212 589l-9 -1l-12 19l17 -5zM477 610c1 -67 -90 -154 -130 -207l-12 4c-11 -14 -20 -34 -22 -52l64 -34c-31 -37 -75 -69 -119 -96c41 -21 71 -43 72 -95c0 -23 -10 -47 -23 -81l-14 6c-9 -10 -30 -29 -40 -39l8 -9c-2 -2 -5 -4 -7 -6c-9 12 -32 -6 -44 -15
c-11 -9 -26 -17 -30 -34c-19 -12 -40 -23 -60 -34l-3 15c-32 -9 -64 -24 -90 -42l2 -8c19 7 28 12 35 5c-30 -16 -64 -28 -87 -36l-14 3c0 15 -5 25 -42 17l-16 43l11 33c24 18 71 30 93 40s21 -10 48 2c43 19 180 87 196 154c-36 19 -61 27 -87 36c7 12 -7 13 -16 8
c-12 8 -19 16 -19 25c0 27 30 58 57 78c-12 10 -35 19 -35 34s208 237 217 248l-2 18c-30 0 -80 -9 -110 -18c-6 13 -19 19 -36 17l-7 23l-27 3c-4 13 -20 24 -20 40c59 17 140 46 188 46c44 0 80 -38 114 -57c4 -11 7 -21 7 -35zM196 285c-11 -9 -27 -23 -38 -42
c12 -2 25 19 40 28c5 3 4 10 -2 14z" />
    <glyph glyph-name="asciitilde" unicode="~" horiz-adv-x="625" 
d="M529 275l5 -6l-19 -14c14 -10 46 -7 57 -29c-31 -47 -78 -99 -146 -96c-105 5 -104 85 -137 112c-62 -17 -145 -84 -179 -121c-68 20 -58 61 -55 92c31 31 52 50 29 60c47 48 107 102 160 102c15 0 35 -10 45 -23c66 0 30 -93 131 -93c29 0 62 20 94 37h1
c-6 -11 -7 -19 -7 -26zM79 259l-30 -33l-9 11l32 27z" />
    <glyph glyph-name="exclamdown" unicode="&#xa1;" horiz-adv-x="341" 
d="M416 508c-16 -27 -30 -58 -55 -58c-48 0 -62 87 -73 154l30 47c6 -13 20 -22 29 -14c9 -16 21 -40 41 -53c22 -14 28 -36 28 -76zM261 429c-22 -28 -35 -48 -34 -68l31 24c-2 -24 5 -46 -14 -77c2 -4 3 -8 5 -12c-13 -21 -22 -42 -22 -71c-58 -79 -31 -90 -89 -176
l-26 -5c-50 -75 -95 -134 -119 -134c-28 0 -58 60 -58 94c0 44 56 73 111 161c39 62 131 215 211 286zM126 27l-18 -28l-8 6l13 24z" />
    <glyph glyph-name="cent" unicode="&#xa2;" horiz-adv-x="496" 
d="M473 102c-85 -18 -135 -21 -135 -56c-31 -7 -64 -12 -96 -16c-12 -32 -25 -66 -37 -102l-1 -34c-5 -28 -15 -68 -30 -109c-14 15 -20 40 -31 64c9 45 16 94 17 151l-9 6c1 5 1 11 2 17c-24 -1 -47 -2 -67 -2c-28 35 -65 52 -79 102c48 165 207 249 303 293
c39 84 76 162 101 215c20 -4 23 -27 31 -43l10 23l13 -6c0 -8 2 -20 2 -30c-1 -52 -22 -94 -58 -167c17 -49 48 -78 26 -121c-30 -5 -63 -11 -95 -20c-18 -38 -37 -82 -58 -133h58c-8 -4 -13 -11 -23 -13c15 -9 76 13 103 -3l-76 -14l22 -7c25 -1 58 9 89 13zM236 231
c-54 -24 -99 -56 -121 -97h74l28 68h9zM423 63l-58 -12c4 19 38 22 58 27v-15zM413 599l-4 7l-15 -32l6 -5z" />
    <glyph glyph-name="sterling" unicode="&#xa3;" horiz-adv-x="680" 
d="M665 30c-44 -40 -101 -62 -174 -61l-17 -11c-66 0 -153 8 -222 30l-7 8c-25 7 -48 14 -72 22c-26 -42 -50 -73 -69 -87l-49 29c-31 54 -49 103 -65 170l12 9l-5 18c11 5 24 6 34 4l20 15c34 -5 66 -15 98 -26c10 17 19 37 29 58c-48 14 -32 37 -56 50l4 56
c14 -7 22 5 29 16h80c42 86 94 179 168 253v15c26 14 44 31 58 31s41 -7 82 -16c6 -14 19 -17 39 -24c4 -12 11 -30 11 -44c0 -44 -27 -115 -89 -177c-19 13 -35 9 -31 39c4 32 -16 35 8 65l-4 9c-35 -21 -77 -79 -121 -149c47 2 92 4 125 8c15 -2 26 -3 35 -6l-26 -6
c14 -9 34 -7 51 -5c15 -10 21 -22 52 -29c-2 -38 -58 -15 -74 -37h46l10 -10c-28 0 -213 -16 -280 -18l-4 -8h29c7 0 20 -2 17 -10l-53 -2c-17 -30 -35 -61 -52 -90c6 -2 12 -5 18 -7c14 -1 -3 -14 -7 -8l-16 6l-4 -9c118 -45 143 -59 337 16c-4 -9 -15 -17 -26 -24l5 -7
l37 18c23 -16 30 -36 45 -56c20 8 33 -9 44 -18zM143 141c-25 9 -49 16 -54 17c-13 2 -19 -2 -20 -5c26 -7 48 -14 69 -21c2 3 3 6 5 9zM611 123c4 -9 -2 -17 -12 -22l-12 9zM296 96c13 2 13 -13 -3 -11c-8 4 -22 8 -35 13l4 10c13 -4 25 -8 34 -12z" />
    <glyph glyph-name="fraction" unicode="&#x2044;" horiz-adv-x="723" 
d="M718 453l-29 -28l-12 5c-134 -74 -257 -154 -364 -246c-94 -82 -199 -189 -302 -279c-19 37 10 78 58 133c8 10 13 19 9 25l-43 -49l-6 5c20 25 44 57 63 67c26 57 181 202 215 217l88 84l8 -6l111 79l-7 7c48 32 121 67 161 80l8 -9l-7 -11c20 -14 39 -25 49 -39v-35z
" />
    <glyph glyph-name="yen" unicode="&#xa5;" horiz-adv-x="598" 
d="M592 480c-8 -7 -15 -15 -23 -23l-7 23c7 2 20 6 30 0zM663 544c-18 -15 -37 -32 -57 -51c-39 13 -55 -5 -84 -38l26 -19c-66 -67 -135 -148 -186 -227c29 -4 58 -6 82 -5l24 -32c28 5 51 -5 70 -17c-59 -20 -142 -32 -224 -40c-6 -11 -13 -22 -19 -34
c-8 -4 -16 -11 -24 -20l7 -18l-4 -7l-11 15c-25 -33 -42 -83 -19 -107c-3 -14 -6 -26 -7 -38c-24 0 -55 3 -81 12c10 30 -5 35 -26 25l-18 24c13 40 34 87 60 138c-31 -2 -59 -3 -83 -5c-3 20 -18 25 -38 30c-1 14 2 37 7 53c45 23 102 31 151 34c-15 61 -36 129 -81 165
c-7 20 -14 54 -42 82c-32 32 -56 77 -41 122c6 2 11 4 16 6c21 -24 45 -3 31 13c14 5 30 8 52 8c35 0 123 -177 143 -311c62 97 127 187 175 243l6 -13l60 71l9 -10c14 8 28 13 41 15s25 2 35 -1c-1 -9 4 -12 25 -12c16 -12 26 -31 25 -51zM265 9l-15 -42c-15 7 -4 37 14 42
h1zM275 284c-7 33 -11 65 -28 73l20 -86c3 5 5 9 8 13z" />
    <glyph glyph-name="florin" unicode="&#x192;" horiz-adv-x="643" 
d="M547 286v-8l49 9c10 2 25 3 34 -1v-1c-48 -13 -99 -26 -132 -40c-36 0 -82 -6 -118 -24l6 -9c-24 -19 -40 -69 -51 -107c-5 -4 -10 -1 -14 4c-8 11 -26 0 -18 -24l15 5c2 -4 0 -16 -3 -25l-20 6c-2 -14 -16 -58 3 -57c-2 -9 -8 -21 -18 -12c-8 -10 -5 -17 6 -17
c0 -13 -14 -8 -23 -2c-9 -18 -12 -37 -1 -43c5 12 9 24 18 26c-25 -74 -59 -147 -125 -202c-155 12 -200 118 -200 211c0 48 4 100 39 144c42 0 89 -58 93 -111l-27 -20c-2 -24 -15 -48 -15 -72s0 -58 28 -58c68 0 127 213 160 306c7 20 8 36 -2 48l-65 -7c0 7 -8 40 -23 37
l-1 13c-1 9 6 28 15 36c6 5 20 14 33 17c8 2 92 10 115 13c5 9 4 22 -3 37l87 186c11 23 31 49 55 62l45 25c56 0 134 -62 134 -139c0 -16 0 -26 -2 -39c-17 -17 -42 -21 -42 -3c0 21 -11 42 -25 57c-49 -19 -80 -102 -122 -169c7 -7 25 2 42 -7l-25 -5l7 -5
c25 3 54 7 132 20l13 -7c-29 -4 -73 -12 -69 -22l79 15c14 -8 21 -10 42 -4c-1 -18 -75 -30 -106 -37zM213 -128l-26 -33l12 -5l13 20c4 6 7 13 1 18zM310 53l-8 -27c-9 3 -1 25 2 32zM537 285l-22 -6v-8c11 3 21 4 22 14zM248 213l6 -29c5 4 8 9 8 14c-1 6 -5 11 -14 15z
M277 35l-12 -19l10 -9c4 8 2 20 2 28zM215 -115l9 -12l14 21c-8 1 -18 0 -23 -9zM192 -174v1c-20 -4 -46 -7 -35 -26c10 3 21 9 35 25zM360 208l8 24c-6 0 -15 -7 -20 -22z" />
    <glyph glyph-name="section" unicode="&#xa7;" horiz-adv-x="486" 
d="M242 92l29 18l-3 8l-25 -12c0 13 11 21 21 26c-29 76 -99 94 -154 97c-19 27 -59 56 -56 80c8 67 145 129 200 157c-8 13 -16 28 -18 43c30 82 89 153 145 153c57 0 116 -46 150 -93c-8 -24 -29 -53 -53 -67l-13 3c-5 36 -16 58 -48 58c-24 0 -67 -75 -70 -99
c-4 -32 125 -77 116 -140c-8 -63 -55 -96 -102 -122c21 -24 34 -46 40 -72c-6 -50 -33 -78 -80 -120c2 -9 0 -17 -12 -25l-69 -48l-3 10c-122 -78 -267 -130 -317 -145l-27 11c-13 -10 -28 -9 -43 -9c54 40 107 68 147 88c17 8 28 17 31 32l-63 -32c1 10 15 25 27 31
c22 11 44 23 66 35l-3 -18c14 9 21 21 18 26c83 42 163 98 169 126zM347 347c3 27 -37 56 -71 92c-14 -17 11 -32 11 -47c-1 -28 -95 -55 -99 -85c-2 -8 3 -15 8 -20c25 26 39 -18 59 -18c23 0 89 57 92 78zM-43 -99l-5 -13l-28 -15v9z" />
    <glyph glyph-name="currency" unicode="&#xa4;" horiz-adv-x="780" 
d="M700 112l-54 -52l-63 78c-32 -26 -74 -35 -109 -35s-76 7 -108 33l-62 -76l-54 52l66 70c-22 28 -43 72 -43 126c0 48 16 95 44 126l-66 64l53 52l62 -72c29 25 72 36 108 36c38 0 79 -7 111 -36l62 72l52 -52l-66 -64c29 -31 44 -78 44 -126c0 -46 -19 -95 -45 -125z
M475 441h-1c-64 0 -114 -57 -114 -133c0 -78 50 -132 115 -132s115 55 115 132c0 76 -50 133 -115 133z" />
    <glyph glyph-name="quotesingle" unicode="'" horiz-adv-x="179" 
d="M219 479h-10c-7 -29 -19 -60 -33 -88l4 -11l-27 -39l-7 6c-16 -17 -37 -27 -59 -27c-6 12 -17 23 -17 36c0 59 34 177 62 249c12 7 31 13 47 13l3 -18c38 -18 37 -43 37 -121z" />
    <glyph glyph-name="quotedblleft" unicode="&#x201c;" horiz-adv-x="347" 
d="M422 532h-13c-48 -74 -87 -199 -150 -248c0 23 1 34 -19 34c0 38 -9 66 -9 98c0 55 54 211 117 211c24 0 59 -31 74 -95zM225 552c-100 -90 -55 -134 -63 -213c-10 5 -19 10 -27 17c5 10 2 19 -12 35l-10 -12c-25 31 -38 72 -48 126c11 52 60 137 98 137
c30 0 57 -42 62 -90z" />
    <glyph glyph-name="guillemotleft" unicode="&#xab;" horiz-adv-x="448" 
d="M7 276c67 73 165 146 247 179c13 -20 3 -41 22 -56l-10 -59l7 -7c34 37 72 74 102 106c19 -3 47 -18 58 -50l-18 -25l15 -5c-30 -47 -120 -86 -131 -124l89 -82l-14 -10l37 -48l-3 -11c-133 15 -147 84 -207 116l19 67c10 16 24 32 38 49c-55 6 -127 -44 -155 -76l31 -60
h18c35 -26 63 -87 54 -106c-111 27 -158 57 -189 163c8 13 -7 25 -10 39z" />
    <glyph glyph-name="guilsinglleft" unicode="&#x2039;" horiz-adv-x="308" 
d="M10 261c54 80 161 166 250 190c16 -16 7 -41 21 -50l-38 -33c-5 -5 3 -7 7 -6l43 24l-5 -35c-51 -34 -127 -75 -164 -114c-4 -21 0 -39 11 -64h19c41 -30 66 -64 80 -103c-5 -1 -11 -2 -16 -2c-102 0 -201 109 -208 193z" />
    <glyph glyph-name="guilsinglright" unicode="&#x203a;" horiz-adv-x="308" 
d="M298 258c-54 -80 -161 -166 -250 -190c-16 16 -7 41 -21 50l38 33c5 5 -3 7 -7 6l-43 -24l5 35c51 34 127 75 164 114c4 21 0 39 -11 64h-19c-41 30 -66 64 -80 103c5 1 11 2 16 2c102 0 201 -109 208 -193z" />
    <glyph glyph-name="fi" unicode="&#xfb01;" horiz-adv-x="877" 
d="M519 273l58 9c1 -11 -3 -20 -19 -24l-61 -16c9 -11 33 -7 61 0l-5 -12c-70 -22 -163 -59 -219 -64l-116 -11c-25 -10 -43 -33 -60 -62l6 -9c-17 -33 -45 -92 -61 -126l-8 5c-7 -10 1 -22 1 -34c0 -11 -8 -25 -16 -40l-37 -12c-14 -5 -22 6 -29 17l-8 -7
c-12 12 -17 24 -10 32c-8 13 -14 25 -16 38c16 32 33 78 46 107c15 32 10 56 -16 72l-8 48c10 4 26 17 28 34l58 17l-6 10c29 7 19 33 33 68l93 232c12 29 29 63 59 80l56 31c69 0 164 -80 164 -177c0 -31 -10 -55 -21 -70c-14 2 -25 14 -36 17c0 27 -11 54 -28 73
c-59 -24 -96 -129 -148 -215c9 -9 31 4 51 -8l-31 -7l9 -7c30 4 72 11 101 15c5 1 16 -9 6 -12c-7 -2 -14 -6 -14 -14l79 15l18 -11l28 6c7 1 15 3 18 12zM483 226c-7 8 -15 8 -27 7c-30 -2 -39 -11 -58 -16c-3 -1 -3 -9 0 -8c31 8 50 12 55 8zM53 106c0 4 -4 8 -13 13
l5 -26c5 5 8 9 8 13zM902 547c0 -27 -4 -63 -9 -93h-11c-27 -38 -43 -108 -89 -133l4 -12l-39 -22c-39 -56 -56 -125 -78 -182c-3 -8 -16 -24 -3 -28c3 -1 10 20 11 23c23 52 40 130 76 171c14 5 4 -7 2 -10c-35 -59 -52 -127 -81 -197c-20 -47 -27 -90 -22 -110
c-18 6 -34 13 -50 22v32c-7 -6 -10 -13 -11 -24c-23 17 -42 40 -55 75c0 180 186 426 258 558c6 8 19 14 30 14c10 0 20 -4 31 -7v-24c20 -8 36 -31 36 -53zM670 60c-14 14 -10 -2 -11 -5l-11 -27c-1 -3 2 -13 8 -3zM386 206c4 1 2 10 0 9c-12 -4 -25 -2 -28 -7
c-2 -3 -3 -10 0 -9zM149 99l20 34c-6 -1 -31 -14 -31 -25c0 -5 6 -9 11 -9zM114 68l19 48c-7 -3 -16 -11 -22 -24c-3 -6 -1 -19 3 -24zM105 -2c-6 0 -12 -3 -16 -8l-7 -14l7 -7z" />
    <glyph glyph-name="fl" unicode="&#xfb02;" horiz-adv-x="1129" 
d="M519 273l58 9c1 -11 -3 -20 -19 -24l-61 -16c9 -11 33 -7 61 0l-5 -12c-70 -22 -163 -59 -219 -64l-116 -11c-25 -10 -43 -33 -60 -62l6 -9c-17 -33 -45 -92 -61 -126l-8 5c-7 -10 1 -22 1 -34c0 -11 -8 -25 -16 -40l-37 -12c-14 -5 -22 6 -29 17l-8 -7
c-12 12 -17 24 -10 32c-8 13 -14 25 -16 38c16 32 33 78 46 107c15 32 10 56 -16 72l-8 48c10 4 26 17 28 34l58 17l-6 10c29 7 19 33 33 68l93 232c12 29 29 63 59 80l56 31c69 0 164 -80 164 -177c0 -31 -10 -55 -21 -70c-14 2 -25 14 -36 17c0 27 -11 54 -28 73
c-59 -24 -96 -129 -148 -215c9 -9 31 4 51 -8l-31 -7l9 -7c30 4 72 11 101 15c5 1 16 -9 6 -12c-7 -2 -14 -6 -14 -14l79 15l18 -11l28 6c7 1 15 3 18 12zM483 226c-7 8 -15 8 -27 7c-30 -2 -39 -11 -58 -16c-3 -1 -3 -9 0 -8c31 8 50 12 55 8zM53 106c0 4 -4 8 -13 13
l5 -26c5 5 8 9 8 13zM1189 237c3 -14 -61 -44 -112 -57c-21 -14 -37 -18 -47 -17c-12 0 -15 2 -17 5c-18 -18 11 -33 79 -6c5 1 13 -2 9 -4c-19 -9 -61 -31 -75 -31c-23 0 -40 -6 -61 -13c-63 -22 -163 -60 -235 -89c-13 -5 -34 -25 -46 -26c-12 -2 -37 -4 -50 -4
c-8 0 -14 5 -17 11h-23c-15 15 -32 46 -45 46h-12c17 176 197 446 288 563v16c56 0 85 -45 85 -93c0 -12 -51 -126 -69 -159c-12 -21 -44 -51 -61 -75c-9 -13 -15 -39 -23 -53c-11 -20 -45 -37 -33 -66c68 21 81 23 89 25c11 3 24 6 37 6c16 0 31 -5 39 -19c5 5 45 21 50 21
c14 0 15 -5 29 -5c13 0 65 17 99 27c1 -2 5 -4 12 -5v-1c-31 -10 -72 -20 -98 -36l10 -6c31 11 94 39 129 47c12 -4 26 -13 27 -15c15 6 41 20 42 13zM991 136l-16 7c-53 -10 -164 -51 -233 -85l1 -4zM386 206c4 1 2 10 0 9c-12 -4 -25 -2 -28 -7c-2 -3 -3 -10 0 -9zM149 99
l20 34c-6 -1 -31 -14 -31 -25c0 -5 6 -9 11 -9zM114 68l19 48c-7 -3 -16 -11 -22 -24c-3 -6 -1 -19 3 -24zM105 -2c-6 0 -12 -3 -16 -8l-7 -14l7 -7zM1179 256c0 -6 -17 -14 -24 -19c-5 4 -10 7 -15 9c4 3 39 15 39 10zM1108 246l-17 -6c-3 -1 -11 4 -8 5l20 6
c11 3 10 -3 5 -5zM1177 193l-60 -28c-7 -3 -11 -1 -14 3v1c59 26 66 30 74 24zM893 189l6 -8l22 12c-5 3 -16 4 -28 -4zM771 307v18c-10 0 -14 -12 -14 -18h14zM725 245l-12 3c-7 -18 -19 -35 -6 -41z" />
    <glyph glyph-name="endash" unicode="&#x2013;" horiz-adv-x="663" 
d="M658 215c-134 -41 -467 -56 -594 -62c-6 19 -25 33 -39 37c0 21 8 49 20 65c78 37 288 44 343 44c30 0 67 -5 99 -8l-6 -10c19 -5 51 -9 77 -9l24 -36c31 4 56 -7 76 -21z" />
    <glyph glyph-name="dagger" unicode="&#x2020;" horiz-adv-x="475" 
d="M256 585c-8 -30 -15 -52 -21 -71l-11 5c12 43 21 66 32 66zM490 420c0 -20 -57 -35 -87 -41c-56 22 -94 4 -106 -67c-31 -53 -140 -307 -192 -431c-18 28 -5 68 4 103l-10 5c10 19 13 49 8 73c26 126 86 244 86 289c0 13 -6 19 -20 18l-108 -10c2 14 16 30 35 41
c4 8 6 19 6 31l97 23c32 11 44 40 54 83c11 47 18 94 59 94c36 0 50 -19 82 -19l27 -51l-42 -78l68 7c3 -8 11 -13 28 -18c4 -11 11 -32 11 -52zM224 373l-15 -2l-2 -18c6 1 14 12 17 20z" />
    <glyph glyph-name="daggerdbl" unicode="&#x2021;" horiz-adv-x="540" 
d="M515 425c0 -20 -56 -35 -86 -41c-54 21 -83 10 -104 -63c20 1 40 1 60 1c11 22 18 -13 36 7c9 11 46 -18 46 -66c0 -8 -3 -22 -11 -34c-79 1 -159 -2 -168 -2c-43 -91 -113 -225 -158 -346c-18 25 -8 64 4 103c3 9 6 15 2 16s-6 -4 -11 -11c-9 -14 -17 -25 -24 -25
c-5 0 -1 21 27 80c34 72 48 131 51 175c-59 -6 -109 -16 -132 -31l-41 5c23 17 43 32 70 43c3 5 7 10 11 13v1c-13 -5 -29 -12 -42 -19v1l7 12l60 27c24 16 53 27 86 35c20 17 28 35 28 48c0 14 -10 22 -28 20l-102 -13c2 14 18 28 36 37c4 7 10 19 10 31l84 20
c35 12 43 35 54 83c11 47 21 99 62 99c36 0 49 -19 81 -19l28 -51l-43 -78l69 7c3 -8 11 -13 28 -18c4 -11 10 -27 10 -47zM233 313l5 17c-6 -1 -14 -10 -18 -19c4 1 9 1 13 2z" />
    <glyph glyph-name="periodcentered" unicode="&#xb7;" horiz-adv-x="176" 
d="M161 230c-5 -23 -55 -86 -91 -98l-55 63l10 13c-24 55 16 128 55 128c32 0 66 -51 81 -106z" />
    <glyph glyph-name="paragraph" unicode="&#xb6;" horiz-adv-x="619" 
d="M634 513c0 -33 -53 -79 -64 -120c-6 -22 -18 -53 -32 -85l-12 4c-6 -17 -15 -31 -5 -45c-2 -5 -4 -9 -6 -14l-9 1l-20 -55l8 -6c-1 -2 -2 -3 -2 -5c0 -1 -1 -2 -1 -3c-10 1 -12 -3 -13 -10s-7 -13 4 -27c-15 -62 -35 -146 -54 -156v45l-19 -12c-19 18 -46 15 -46 56
c0 57 64 197 64 250l-7 2c-12 -34 -43 -81 -58 -99l-10 12c-4 -6 -8 -14 -2 -25s15 -18 15 -29c0 -9 -5 -18 -12 -27c-10 6 -22 -5 -11 -13c-15 -18 -28 -39 -13 -70l-5 -12l-12 6l-21 -65h9l-25 -61c-38 28 -97 51 -97 82c0 45 88 187 103 268c14 3 20 9 20 23
c-26 0 -84 -43 -112 -43c-27 0 -104 78 -104 101c0 69 174 222 276 247c49 -31 95 -87 123 -117c44 67 26 97 76 97c26 -29 74 -78 74 -95zM389 249l-13 -30l-7 8l14 26zM299 476c-41 0 -106 -70 -139 -113c0 -10 2 -18 6 -25l-15 -9l6 -7l15 7c2 -2 6 -5 9 -7l78 35
c0 28 29 79 40 119z" />
    <glyph glyph-name="bullet" unicode="&#x2022;" horiz-adv-x="412" 
d="M365 342c31 -13 -4 -39 -23 -60v-84c-38 -59 -138 -101 -197 -101c-52 0 -78 32 -92 83h-18c0 158 120 287 237 287c48 0 123 -63 93 -125zM97 161c5 0 11 2 18 5c-12 10 -17 15 -41 14c3 -10 9 -20 23 -19z" />
    <glyph glyph-name="quotesinglbase" unicode="&#x201a;" horiz-adv-x="120" 
d="M70 14c0 -10 -2 -23 -7 -35l-6 7c-52 -57 -113 -150 -165 -150h-42v22c6 3 17 24 30 54l22 11l-13 8c35 76 83 182 127 182c31 0 54 -49 54 -99z" />
    <glyph glyph-name="quotedblbase" unicode="&#x201e;" horiz-adv-x="305" 
d="M255 7l-17 -22l-11 7c-49 -76 -138 -132 -218 -170c-8 34 50 43 13 68c33 49 121 196 171 196c55 0 37 -40 62 -79zM74 17c0 -10 -3 -23 -7 -35l-7 7c-53 -58 -114 -153 -167 -153c-17 0 -30 11 -43 22c6 3 17 25 31 55l22 13l-13 6c35 77 86 186 130 186
c31 0 54 -49 54 -101z" />
    <glyph glyph-name="quotedblright" unicode="&#x201d;" horiz-adv-x="395" 
d="M470 516l-17 -22l-11 7c-49 -76 -138 -132 -218 -170c-8 34 50 43 13 68c33 49 121 196 171 196c55 0 37 -40 62 -79zM289 526c0 -10 -3 -23 -7 -35l-7 7c-53 -58 -114 -153 -167 -153c-17 0 -30 11 -43 22c6 3 17 25 31 55l22 13l-13 6c35 77 86 186 130 186
c31 0 54 -49 54 -101z" />
    <glyph glyph-name="guillemotright" unicode="&#xbb;" horiz-adv-x="448" 
d="M441 253c-67 -73 -165 -146 -247 -179c-13 20 -3 41 -22 56l11 58l-8 8c-34 -37 -72 -74 -102 -106c-19 3 -47 18 -58 50l18 25l-15 5c30 47 120 86 131 124l-89 82l14 10l-37 48l3 11c133 -15 147 -84 207 -116l-19 -67c-10 -16 -24 -32 -38 -49c55 -6 127 44 155 76
l-31 60h-18c-35 26 -63 87 -54 106c111 -27 158 -57 189 -163c-8 -13 7 -25 10 -39z" />
    <glyph glyph-name="ellipsis" unicode="&#x2026;" horiz-adv-x="683" 
d="M571 31c-5 -23 -55 -86 -91 -98l-55 63l-2 28c6 58 28 113 67 113c26 0 53 -34 71 -75c-22 -26 7 -21 10 -31zM327 31c-5 -23 -46 -95 -84 -95c-27 0 -77 39 -61 60l10 13c-24 55 38 127 77 127c32 0 43 -50 58 -105zM88 31c-5 -23 -55 -86 -91 -98l-55 63l19 28
c-36 44 7 113 46 113c21 0 74 -13 59 -51c9 -17 17 -36 22 -55z" />
    <glyph glyph-name="perthousand" unicode="&#x2030;" horiz-adv-x="832" 
d="M777 121c0 -77 -26 -171 -121 -171c-33 21 -58 32 -89 75c0 25 5 51 14 74l-1 2c-20 -12 -38 -5 -52 4v-64c-35 -43 -72 -72 -118 -72c-37 0 -53 27 -61 56h-11c0 97 81 210 153 210c37 0 52 -27 57 -49c15 -32 36 -44 56 -43c29 43 70 73 111 73c45 0 45 -41 45 -63
c-11 -10 -4 -31 17 -32zM726 468l-29 -29l-11 6c-136 -75 -262 -156 -357 -226l-12 -24c-96 -82 -202 -191 -306 -282c-19 37 11 80 59 135c8 10 13 18 9 24l-44 -48l-6 4c20 25 44 58 64 69c19 41 105 128 165 179c10 14 5 18 -4 30c-36 -22 -77 -39 -123 -41l-10 18
l-8 -12c-21 23 -24 35 -21 59l-14 24c12 73 88 147 157 147c37 0 64 -80 64 -163l13 -21l88 83l8 -5l112 80l-7 7c49 33 123 68 163 81l8 -9l-7 -11c20 -14 39 -26 49 -40v-35zM654 33h-27c-3 -9 0 -14 6 -14s14 4 21 14z" />
    <glyph glyph-name="questiondown" unicode="&#xbf;" horiz-adv-x="468" 
d="M-30 77c9 25 13 53 16 73c12 86 101 222 270 290c0 -27 6 -40 30 -37v-36c-89 -65 -175 -151 -198 -220c0 -20 17 -31 3 -41c11 -15 24 -18 44 -17c54 2 167 43 218 44v-4c18 -15 29 -19 35 -19c5 -1 7 6 7 10c-1 3 -1 5 -2 7c30 -12 45 -42 45 -87
c0 -21 -15 -41 -41 -45c-91 -13 -241 -31 -293 -31c-34 0 -53 28 -96 34zM284 548l14 113l49 -23c5 -18 25 -47 43 -63c0 -24 13 -50 13 -70c0 -32 -13 -69 -36 -69c-60 0 -68 37 -83 112z" />
    <glyph glyph-name="grave" unicode="`" 
d="M490 647c-26 -14 -38 -8 -71 15c-4 -12 22 -26 50 -46l-12 -7c-35 26 -94 62 -154 89l-9 -6c-39 19 -92 41 -129 54c0 41 53 88 80 88c57 0 199 -92 199 -137c12 -12 35 -37 46 -50z" />
    <glyph glyph-name="acute" unicode="&#xb4;" 
d="M525 756c0 -75 -150 -119 -207 -119c-12 0 -22 3 -28 7c-17 -2 -50 -6 -67 -7c9 12 14 24 16 33l38 14l-2 9c-16 -5 -42 -16 -58 -16c-5 0 -10 1 -12 4c55 15 119 47 169 75v11c38 20 87 49 119 71c22 -16 32 -53 32 -82z" />
    <glyph glyph-name="circumflex" unicode="&#x2c6;" 
d="M545 657c-7 -27 -23 -18 -32 -32c-57 23 -50 69 -89 108c-75 -19 -158 -108 -186 -108c-13 0 -34 28 -61 50c8 14 6 28 -2 39c46 42 173 109 217 129l14 -10l15 7c38 -43 82 -112 116 -164l-11 -9z" />
    <glyph glyph-name="tilde" unicode="&#x2dc;" 
d="M577 713c-22 -34 -57 -70 -107 -70c-77 0 -75 62 -99 82c-45 -12 -107 -63 -131 -89c-46 13 -42 39 -40 64c23 21 35 35 31 45c-14 -13 -30 -34 -41 -23c41 35 95 99 148 99c11 0 26 -7 33 -16c48 0 22 -68 95 -68c22 0 45 15 69 27c-4 -8 -5 -14 -5 -19l16 4l3 -5
l-14 -11c10 -8 34 -4 42 -20z" />
    <glyph glyph-name="macron" unicode="&#xaf;" 
d="M623 776c-12 -40 -8 -62 -57 -62c-24 0 -50 -34 -95 -20l-29 -22c-11 6 -41 20 -53 8h-67l-3 -8l63 -4c-1 -3 -2 -5 -2 -9c-39 0 -86 1 -114 6l-13 -6c-14 9 -29 18 -46 17c-9 10 -12 20 -12 28c0 24 28 44 42 71c121 -14 259 -21 386 1z" />
    <glyph glyph-name="breve" unicode="&#x2d8;" 
d="M583 838c-1 -18 -12 -35 -2 -50l-73 -62v-11c-31 -23 -79 -52 -138 -60c-22 7 -41 12 -72 12c-24 17 -38 46 -38 64c0 55 29 104 54 104c36 0 2 -73 41 -86l6 7c53 -12 85 8 126 34l4 -8l18 11l2 12c20 12 44 23 72 33z" />
    <glyph glyph-name="dotaccent" unicode="&#x2d9;" 
d="M490 737c0 -33 -53 -69 -111 -85c-24 6 -92 57 -104 95l67 57l12 -11c58 25 136 -16 136 -56z" />
    <glyph glyph-name="dieresis" unicode="&#xa8;" 
d="M565 733c-36 -21 -51 -65 -88 -89c-38 0 -63 40 -53 71h-15c1 13 30 115 79 115c45 0 77 -31 77 -97zM351 715l-88 -90l-15 8l7 30c-12 26 -25 58 -22 92c-9 5 -12 12 -12 20c0 27 33 55 59 55c40 0 71 -44 71 -115z" />
    <glyph glyph-name="ring" unicode="&#x2da;" 
d="M331 642l-12 -24c-50 8 -74 59 -74 106c21 31 44 55 67 75h23c5 8 2 12 -3 15c32 22 63 34 87 37c11 -14 26 -13 25 -2c37 -8 92 -42 92 -109l-12 -15c0 -65 -41 -93 -152 -118c-18 12 -33 21 -41 35zM461 768c-36 15 -152 -41 -152 -84c0 -8 6 -17 17 -29h1
c-2 9 -1 21 3 36c40 5 88 15 116 37z" />
    <glyph glyph-name="cedilla" unicode="&#xb8;" 
d="M279 -114c0 -56 -43 -108 -108 -147h-25l10 -9c-7 -4 -13 -7 -21 -11c-9 12 -22 8 -25 -11c-10 -5 -22 -8 -33 -12c12 24 20 36 1 45c34 27 104 78 104 112c-23 21 -55 23 -62 57l56 86h65l-21 -47c21 -19 59 -33 59 -63z" />
    <glyph glyph-name="hungarumlaut" unicode="&#x2dd;" 
d="M600 763l-14 -18l-9 5c-41 -64 -138 -122 -206 -154l-9 8c27 20 73 40 42 61c27 41 102 165 144 165c47 0 30 -34 52 -67zM448 772c0 -8 -2 -20 -6 -30l-6 6c-44 -49 -95 -129 -140 -129h-36v19c5 2 15 21 26 46l18 10l-11 6c30 65 71 156 109 156c26 0 46 -41 46 -84z
" />
    <glyph glyph-name="ogonek" unicode="&#x2db;" 
d="M506 -149l-22 -36c-17 2 -36 -15 -62 -31c-5 4 -22 4 -30 -4l19 -3c-19 -10 -40 -16 -66 -10l-16 -10c-49 15 -64 47 -64 78c0 48 42 112 69 136l91 16c-27 -36 -75 -89 -75 -119c55 -20 112 7 156 -17z" />
    <glyph glyph-name="caron" unicode="&#x2c7;" 
d="M570 759c-46 -42 -173 -108 -217 -128l-14 10l-15 -8c-38 43 -82 113 -116 165l12 8l-20 11c7 27 23 18 32 32c57 -23 50 -69 89 -108c75 19 158 107 186 107c13 0 34 -27 61 -49c-8 -14 -6 -29 2 -40z" />
    <glyph glyph-name="emdash" unicode="&#x2014;" horiz-adv-x="1000" 
d="M995 224c-293 -33 -804 -52 -931 -58c-2 17 -22 32 -39 37c0 15 5 42 20 65c78 37 348 16 403 16c30 0 184 8 372 4l-7 -8c19 -5 52 -8 79 -8l25 -30c32 3 57 -6 78 -18z" />
    <glyph glyph-name="AE" unicode="&#xc6;" horiz-adv-x="891" 
d="M399 176c-57 -1 -225 -85 -270 -116l-5 -13l4 -12c-17 -35 -32 -76 -48 -97l-58 24c-3 31 -53 45 -41 71h-16c22 152 190 315 284 441c47 62 95 104 134 135c7 6 35 -4 37 15c13 -4 47 -15 62 -28l-18 -6c-1 -17 24 2 29 -2c30 -27 22 -68 29 -98h3c2 20 5 40 19 61
c50 -6 78 69 112 69c19 0 70 -14 83 -18c2 -22 -5 -45 -17 -71c18 -1 62 -6 84 -6l10 -19c5 0 13 6 24 6s36 -10 50 -12c2 0 4 -2 2 -4c-40 -36 -69 -14 -62 -44c31 12 56 19 83 32c4 2 11 9 11 3c2 -10 -15 -16 -25 -24c-91 -41 -182 -43 -268 -69c-12 -18 -26 -43 -37 -58
c44 10 114 28 143 28s38 -10 59 -45c-4 -11 0 -20 10 -25l-5 -21c-76 -7 -206 -34 -256 -55c-24 -11 -48 -119 -48 -141c31 -23 78 -12 107 -5l6 -10c7 0 16 6 17 12c15 2 20 -22 34 -18c65 18 141 44 192 60c3 1 7 2 8 -1c1 -5 -14 -12 -21 -16l-68 -25c5 -4 16 -11 24 -15
c3 -1 1 -3 -2 -4c-50 -17 -112 -34 -168 -48c15 -7 37 -7 56 -2c40 11 95 30 144 47c3 1 10 4 5 -6c-6 -10 -15 -17 -29 -22c-64 -25 -148 -55 -209 -55c-112 0 -200 52 -196 195c0 3 2 9 2 12zM399 304l-1 10l-4 1l-4 -11h9zM400 298h-11c-4 -12 3 -12 10 -11zM448 486
l-3 10c-19 -1 -65 -57 -108 -114l-5 5c3 8 6 14 2 18c-16 -18 -23 -27 -14 -46c-15 -20 -29 -38 -42 -54c-18 -23 -45 -66 -68 -99c20 12 35 33 75 50c35 15 56 19 92 29c3 26 13 45 17 59l17 -15c12 31 26 112 37 157zM490 110l-8 9c-5 -17 -4 -29 4 -35zM841 490
c0 5 -14 6 -20 4l2 -12zM223 134c-13 10 -46 -12 -65 -22c-5 -7 -7 -11 -11 -18zM235 140c9 5 24 11 35 18v1c-22 -1 -31 -3 -35 -19zM614 393l-13 -3l-17 -27l13 3zM588 354c-8 0 -22 -16 -26 -27l15 4zM435 468l-8 -31h-9l8 27zM168 130c4 2 27 10 33 24
c-8 -3 -14 -4 -21 -7zM500 193l-1 -11c5 6 15 16 20 26c-11 1 -18 -5 -19 -15zM508 176h-10l-11 -36l8 -9zM792 118c-13 -14 -38 -21 -57 -20c-28 -21 -64 -35 -75 -16c46 10 91 25 129 40c4 2 5 -1 3 -4z" />
    <glyph glyph-name="ordfeminine" unicode="&#xaa;" horiz-adv-x="431" 
d="M377 495c0 -57 -15 -150 -55 -199c-30 10 -41 36 -48 70c10 13 20 28 28 43c-32 1 -66 -16 -98 -30l-21 12c-11 -15 -26 -38 -42 -38c-19 0 -40 47 -40 70c0 14 104 101 169 166c19 19 17 42 44 42c35 0 63 -82 63 -136zM324 550l-57 -65l48 -6l-10 -25h17
c15 41 19 78 2 96zM383 137l-164 -12l-8 8c-31 -9 -83 -9 -114 -19l-15 18c-27 -5 -40 -18 -55 -13c-10 3 -19 13 -32 13c112 87 315 113 363 98c19 -6 36 -57 25 -93zM71 103l-65 -22c12 19 37 26 51 30z" />
    <glyph glyph-name="Lslash" unicode="&#x141;" horiz-adv-x="621" 
d="M321 614v16c55 0 85 -44 85 -92c0 -9 -34 -86 -56 -132c14 0 30 3 47 6c25 -30 77 -13 88 -34c-67 -31 -141 -60 -215 -84c-6 -13 -11 -29 -17 -40c-11 -20 -44 -37 -32 -66c47 14 78 22 89 25c10 3 21 5 32 5c17 0 33 -4 41 -18c5 5 45 21 50 21c14 0 15 -5 29 -5
c13 0 65 17 99 27c1 -2 5 -4 12 -5v-1c-31 -10 -72 -20 -98 -36l10 -6c31 11 94 39 129 47c12 -4 26 -13 27 -15c15 6 39 18 40 11c3 -14 -59 -42 -110 -55c-21 -14 -37 -18 -47 -17c-10 0 -13 1 -17 5c-18 -18 11 -33 79 -6c5 1 13 -2 9 -4c-19 -9 -61 -31 -75 -31
c-23 0 -40 -6 -61 -13c-63 -21 -161 -59 -232 -88c-12 -5 -34 -24 -46 -25c-12 -2 -36 -4 -49 -4c-8 0 -14 5 -17 11h-23c-15 15 -32 46 -45 46h-12c5 55 27 120 57 186c-5 -1 -10 -3 -15 -4c-2 19 -17 29 -38 31c0 19 4 42 15 59c26 24 66 39 110 51c55 94 115 180 157 234
zM485 140l-16 6c-54 -11 -160 -50 -229 -84v-3zM222 248l-12 3c-7 -18 -18 -35 -5 -41zM673 259c0 -6 -17 -14 -24 -19c-5 4 -10 7 -15 9c4 3 39 15 39 10zM602 249l-17 -6c-3 -1 -11 4 -8 5l20 6c11 3 10 -3 5 -5zM671 196l-59 -27c-8 -4 -12 -2 -15 2v1c57 25 68 30 74 24
zM389 192l6 -8l21 12c-5 3 -15 4 -27 -4z" />
    <glyph glyph-name="Oslash" unicode="&#xd8;" horiz-adv-x="662" 
d="M587 234l-4 -21c-15 -15 -53 -25 -61 -53c-12 0 -33 -4 -31 -21l-38 -8c-10 -7 14 -9 -2 -21c-11 -8 -46 -2 -53 -11c-3 -3 9 -7 8 -11l-18 -6l-28 17c-16 -10 -4 -33 -24 -40c-24 -8 -43 -15 -72 -25c-29 -43 -58 -83 -82 -117v-17c-18 -26 -59 -78 -72 -78
c-8 0 -1 27 -2 39c5 14 11 29 17 44l-6 8l22 39l3 -2c12 29 26 59 41 91c-34 17 -70 37 -95 52c-28 16 -46 62 -55 106c-44 223 242 382 320 386c30 1 48 -14 85 -35c3 -16 13 -29 26 -42c23 31 47 62 72 95l77 57c35 -1 59 -7 74 -14l9 -27l-19 -13l5 -12l19 8l4 -10
c-51 -45 -101 -92 -147 -142c41 -23 64 -67 73 -114c6 -30 -9 -88 -46 -102zM420 443c-4 3 -8 5 -13 5c-58 -3 -148 -74 -182 -147c-48 -28 -67 -82 -78 -156c25 3 58 7 77 16l30 15c44 81 98 170 166 267zM172 271l20 31c-17 8 -35 -6 -35 -18c-1 -6 4 -12 15 -13zM445 153
l-30 -14l10 -11c12 7 25 15 20 25zM413 116c0 7 -5 10 -15 10c0 -3 -4 -10 -2 -12c4 -3 12 0 17 2zM529 378l-19 14c-18 -22 -35 -44 -50 -66l-13 -3c-14 -24 -29 -50 -46 -77l9 4c21 9 64 36 80 63zM203 -35v15l-21 -35v-11zM488 160c-3 3 -4 8 -5 12
c-11 -4 -23 -13 -22 -26z" />
    <glyph glyph-name="OE" unicode="&#x152;" horiz-adv-x="955" 
d="M558 433l7 -2c8 17 18 34 26 52c-4 24 -2 50 14 76c50 -6 80 70 114 70c19 0 71 -15 84 -19c1 -22 -5 -46 -19 -71c17 -4 64 -9 86 -9l10 -19c5 0 13 6 24 6s36 -10 50 -12c2 0 4 -2 2 -4c-40 -36 -69 -14 -61 -44c30 12 55 19 82 32c4 2 11 9 11 3
c2 -10 -15 -16 -25 -24c-91 -41 -181 -42 -270 -68c-11 -18 -25 -42 -43 -68c40 4 121 38 150 38s39 -9 60 -45c-4 -11 1 -21 10 -26l-6 -21c-60 -9 -208 -35 -258 -56c-24 -11 -49 -119 -49 -142c33 -25 76 -13 106 -6l5 -10c7 0 16 6 17 12c15 2 20 -22 34 -18
c65 18 141 44 192 60c3 1 7 2 8 -1c2 -5 -14 -12 -21 -16l-68 -25c5 -4 16 -11 24 -15c3 -1 1 -3 -2 -4c-50 -17 -112 -34 -168 -48c15 -7 37 -7 56 -2c40 11 95 30 144 47c3 1 10 4 5 -6c-6 -10 -15 -17 -29 -22c-64 -25 -148 -55 -209 -55c-106 0 -173 44 -185 161
c-9 -6 -13 -14 -19 -24l-11 10c-26 -16 -12 -27 -39 -40c-16 -8 -35 -7 -53 -11c-3 -3 9 -7 8 -11l-17 -6l-28 17c-16 -10 -4 -33 -24 -40c-24 -8 -43 -15 -71 -24c-17 17 -37 11 -51 0c-34 21 -74 53 -100 74c-23 19 -31 67 -31 114c0 237 295 390 368 390
c28 0 43 -16 73 -40c0 -45 47 -81 87 -108zM359 81c0 7 -5 10 -15 10c0 -3 -4 -10 -2 -12c4 -3 12 0 17 2zM507 337l-55 64c-1 6 -4 12 -6 12c-3 0 -8 -7 -15 -7c-6 0 -7 8 -11 8c-51 0 -141 -61 -182 -125c-46 -23 -79 -78 -100 -145c22 1 51 5 69 12l175 71
c19 8 61 29 80 53zM187 264l23 27c-15 9 -34 -5 -35 -17c0 -4 3 -9 12 -10zM184 26l30 -5c-3 5 -10 10 -17 10c-4 1 -9 -1 -13 -5zM403 110l-5 10c-18 -9 -25 -14 -24 -25zM551 113l-8 10c-5 -17 -5 -30 3 -36zM906 495c-1 5 -15 6 -21 4l2 -12zM434 128c-3 3 -5 14 -8 16
l-16 -17l4 -11zM676 399l-13 -3l-18 -28l13 3zM640 355c-7 0 -19 -15 -23 -26l12 3zM561 197l-1 -11c5 6 15 16 20 26c-13 1 -19 -5 -19 -15zM569 180h-11l-11 -37l8 -9zM850 120c-13 -14 -38 -21 -57 -20c-28 -21 -64 -35 -75 -16c46 10 91 25 129 40c4 2 5 -1 3 -4z" />
    <glyph glyph-name="ordmasculine" unicode="&#xba;" horiz-adv-x="446" 
d="M401 458c-38 -37 -135 -147 -194 -147c-15 0 -31 7 -43 12l-10 42h-18l-11 31c9 68 72 229 149 229c22 0 127 -38 127 -167zM319 485c5 21 4 38 -11 38c-30 0 -68 -79 -90 -126v-12l62 43c3 23 19 46 39 57zM278 407l-68 -48c39 0 62 16 67 43zM394 139l-166 -13l-9 9
c-32 -9 -84 -10 -115 -20l-15 19c-27 -5 -41 -18 -56 -13c-10 3 -19 13 -33 13c114 88 320 115 369 99c19 -6 37 -57 25 -94zM77 104l-65 -22c13 19 37 26 51 30z" />
    <glyph glyph-name="ae" unicode="&#xe6;" horiz-adv-x="891" 
d="M399 176c-57 -1 -225 -85 -270 -116l-5 -13l4 -12c-17 -35 -32 -76 -48 -97l-58 24c-3 31 -53 45 -41 71h-16c22 152 190 315 284 441c47 62 95 104 134 135c7 6 35 -4 37 15c13 -4 47 -15 62 -28l-18 -6c-1 -17 24 2 29 -2c30 -27 22 -68 29 -98h3c2 20 5 40 19 61
c50 -6 78 69 112 69c19 0 70 -14 83 -18c2 -22 -5 -45 -17 -71c18 -1 62 -6 84 -6l10 -19c5 0 13 6 24 6s36 -10 50 -12c2 0 4 -2 2 -4c-40 -36 -69 -14 -62 -44c31 12 56 19 83 32c4 2 11 9 11 3c2 -10 -15 -16 -25 -24c-91 -41 -182 -43 -268 -69c-12 -18 -26 -43 -37 -58
c44 10 114 28 143 28s38 -10 59 -45c-4 -11 0 -20 10 -25l-5 -21c-76 -7 -206 -34 -256 -55c-24 -11 -48 -119 -48 -141c31 -23 78 -12 107 -5l6 -10c7 0 16 6 17 12c15 2 20 -22 34 -18c65 18 141 44 192 60c3 1 7 2 8 -1c1 -5 -14 -12 -21 -16l-68 -25c5 -4 16 -11 24 -15
c3 -1 1 -3 -2 -4c-50 -17 -112 -34 -168 -48c15 -7 37 -7 56 -2c40 11 95 30 144 47c3 1 10 4 5 -6c-6 -10 -15 -17 -29 -22c-64 -25 -148 -55 -209 -55c-112 0 -200 52 -196 195c0 3 2 9 2 12zM399 304l-1 10l-4 1l-4 -11h9zM400 298h-11c-4 -12 3 -12 10 -11zM448 486
l-3 10c-19 -1 -65 -57 -108 -114l-5 5c3 8 6 14 2 18c-16 -18 -23 -27 -14 -46c-15 -20 -29 -38 -42 -54c-18 -23 -45 -66 -68 -99c20 12 35 33 75 50c35 15 56 19 92 29c3 26 13 45 17 59l17 -15c12 31 26 112 37 157zM490 110l-8 9c-5 -17 -4 -29 4 -35zM841 490
c0 5 -14 6 -20 4l2 -12zM223 134c-13 10 -46 -12 -65 -22c-5 -7 -7 -11 -11 -18zM235 140c9 5 24 11 35 18v1c-22 -1 -31 -3 -35 -19zM614 393l-13 -3l-17 -27l13 3zM588 354c-8 0 -22 -16 -26 -27l15 4zM435 468l-8 -31h-9l8 27zM168 130c4 2 27 10 33 24
c-8 -3 -14 -4 -21 -7zM500 193l-1 -11c5 6 15 16 20 26c-11 1 -18 -5 -19 -15zM508 176h-10l-11 -36l8 -9zM792 118c-13 -14 -38 -21 -57 -20c-28 -21 -64 -35 -75 -16c46 10 91 25 129 40c4 2 5 -1 3 -4z" />
    <glyph glyph-name="dotlessi" unicode="&#x131;" horiz-adv-x="360" 
d="M385 547c0 -27 -4 -63 -9 -93h-11c-27 -38 -43 -108 -89 -133l4 -12l-39 -22c-39 -56 -56 -125 -78 -182c-3 -8 -16 -24 -3 -28c3 -1 10 20 11 23c23 52 40 130 76 171c14 5 4 -7 2 -10c-35 -59 -52 -127 -81 -197c-20 -47 -27 -90 -22 -110c-18 6 -34 13 -50 22v32
c-7 -6 -10 -13 -11 -24c-23 17 -42 40 -55 75c0 180 186 426 258 558c6 8 19 14 30 14c10 0 20 -4 31 -7v-24c20 -8 36 -31 36 -53zM153 60c-14 14 -10 -2 -11 -5l-11 -27c-1 -3 2 -13 8 -3z" />
    <glyph glyph-name="lslash" unicode="&#x142;" horiz-adv-x="621" 
d="M321 614v16c55 0 85 -44 85 -92c0 -9 -34 -86 -56 -132c14 0 30 3 47 6c25 -30 77 -13 88 -34c-67 -31 -141 -60 -215 -84c-6 -13 -11 -29 -17 -40c-11 -20 -44 -37 -32 -66c47 14 78 22 89 25c10 3 21 5 32 5c17 0 33 -4 41 -18c5 5 45 21 50 21c14 0 15 -5 29 -5
c13 0 65 17 99 27c1 -2 5 -4 12 -5v-1c-31 -10 -72 -20 -98 -36l10 -6c31 11 94 39 129 47c12 -4 26 -13 27 -15c15 6 39 18 40 11c3 -14 -59 -42 -110 -55c-21 -14 -37 -18 -47 -17c-10 0 -13 1 -17 5c-18 -18 11 -33 79 -6c5 1 13 -2 9 -4c-19 -9 -61 -31 -75 -31
c-23 0 -40 -6 -61 -13c-63 -21 -161 -59 -232 -88c-12 -5 -34 -24 -46 -25c-12 -2 -36 -4 -49 -4c-8 0 -14 5 -17 11h-23c-15 15 -32 46 -45 46h-12c5 55 27 120 57 186c-5 -1 -10 -3 -15 -4c-2 19 -17 29 -38 31c0 19 4 42 15 59c26 24 66 39 110 51c55 94 115 180 157 234
zM485 140l-16 6c-54 -11 -160 -50 -229 -84v-3zM222 248l-12 3c-7 -18 -18 -35 -5 -41zM673 259c0 -6 -17 -14 -24 -19c-5 4 -10 7 -15 9c4 3 39 15 39 10zM602 249l-17 -6c-3 -1 -11 4 -8 5l20 6c11 3 10 -3 5 -5zM671 196l-59 -27c-8 -4 -12 -2 -15 2v1c57 25 68 30 74 24
zM389 192l6 -8l21 12c-5 3 -15 4 -27 -4z" />
    <glyph glyph-name="oslash" unicode="&#xf8;" horiz-adv-x="662" 
d="M587 234l-4 -21c-15 -15 -53 -25 -61 -53c-12 0 -33 -4 -31 -21l-38 -8c-10 -7 14 -9 -2 -21c-11 -8 -46 -2 -53 -11c-3 -3 9 -7 8 -11l-18 -6l-28 17c-16 -10 -4 -33 -24 -40c-24 -8 -43 -15 -72 -25c-29 -43 -58 -83 -82 -117v-17c-18 -26 -59 -78 -72 -78
c-8 0 -1 27 -2 39c5 14 11 29 17 44l-6 8l22 39l3 -2c12 29 26 59 41 91c-34 17 -70 37 -95 52c-28 16 -46 62 -55 106c-44 223 242 382 320 386c30 1 48 -14 85 -35c3 -16 13 -29 26 -42c23 31 47 62 72 95l77 57c35 -1 59 -7 74 -14l9 -27l-19 -13l5 -12l19 8l4 -10
c-51 -45 -101 -92 -147 -142c41 -23 64 -67 73 -114c6 -30 -9 -88 -46 -102zM420 443c-4 3 -8 5 -13 5c-58 -3 -148 -74 -182 -147c-48 -28 -67 -82 -78 -156c25 3 58 7 77 16l30 15c44 81 98 170 166 267zM172 271l20 31c-17 8 -35 -6 -35 -18c-1 -6 4 -12 15 -13zM445 153
l-30 -14l10 -11c12 7 25 15 20 25zM413 116c0 7 -5 10 -15 10c0 -3 -4 -10 -2 -12c4 -3 12 0 17 2zM529 378l-19 14c-18 -22 -35 -44 -50 -66l-13 -3c-14 -24 -29 -50 -46 -77l9 4c21 9 64 36 80 63zM203 -35v15l-21 -35v-11zM488 160c-3 3 -4 8 -5 12
c-11 -4 -23 -13 -22 -26z" />
    <glyph glyph-name="oe" unicode="&#x153;" horiz-adv-x="955" 
d="M558 433l7 -2c8 17 18 34 26 52c-4 24 -2 50 14 76c50 -6 80 70 114 70c19 0 71 -15 84 -19c1 -22 -5 -46 -19 -71c17 -4 64 -9 86 -9l10 -19c5 0 13 6 24 6s36 -10 50 -12c2 0 4 -2 2 -4c-40 -36 -69 -14 -61 -44c30 12 55 19 82 32c4 2 11 9 11 3
c2 -10 -15 -16 -25 -24c-91 -41 -181 -42 -270 -68c-11 -18 -25 -42 -43 -68c40 4 121 38 150 38s39 -9 60 -45c-4 -11 1 -21 10 -26l-6 -21c-60 -9 -208 -35 -258 -56c-24 -11 -49 -119 -49 -142c33 -25 76 -13 106 -6l5 -10c7 0 16 6 17 12c15 2 20 -22 34 -18
c65 18 141 44 192 60c3 1 7 2 8 -1c2 -5 -14 -12 -21 -16l-68 -25c5 -4 16 -11 24 -15c3 -1 1 -3 -2 -4c-50 -17 -112 -34 -168 -48c15 -7 37 -7 56 -2c40 11 95 30 144 47c3 1 10 4 5 -6c-6 -10 -15 -17 -29 -22c-64 -25 -148 -55 -209 -55c-106 0 -173 44 -185 161
c-9 -6 -13 -14 -19 -24l-11 10c-26 -16 -12 -27 -39 -40c-16 -8 -35 -7 -53 -11c-3 -3 9 -7 8 -11l-17 -6l-28 17c-16 -10 -4 -33 -24 -40c-24 -8 -43 -15 -71 -24c-17 17 -37 11 -51 0c-34 21 -74 53 -100 74c-23 19 -31 67 -31 114c0 237 295 390 368 390
c28 0 43 -16 73 -40c0 -45 47 -81 87 -108zM359 81c0 7 -5 10 -15 10c0 -3 -4 -10 -2 -12c4 -3 12 0 17 2zM507 337l-55 64c-1 6 -4 12 -6 12c-3 0 -8 -7 -15 -7c-6 0 -7 8 -11 8c-51 0 -141 -61 -182 -125c-46 -23 -79 -78 -100 -145c22 1 51 5 69 12l175 71
c19 8 61 29 80 53zM187 264l23 27c-15 9 -34 -5 -35 -17c0 -4 3 -9 12 -10zM184 26l30 -5c-3 5 -10 10 -17 10c-4 1 -9 -1 -13 -5zM403 110l-5 10c-18 -9 -25 -14 -24 -25zM551 113l-8 10c-5 -17 -5 -30 3 -36zM906 495c-1 5 -15 6 -21 4l2 -12zM434 128c-3 3 -5 14 -8 16
l-16 -17l4 -11zM676 399l-13 -3l-18 -28l13 3zM640 355c-7 0 -19 -15 -23 -26l12 3zM561 197l-1 -11c5 6 15 16 20 26c-13 1 -19 -5 -19 -15zM569 180h-11l-11 -37l8 -9zM850 120c-13 -14 -38 -21 -57 -20c-28 -21 -64 -35 -75 -16c46 10 91 25 129 40c4 2 5 -1 3 -4z" />
    <glyph glyph-name="germandbls" unicode="&#xdf;" horiz-adv-x="1030" 
d="M468 589l-1 -12c36 -9 54 -41 51 -79c5 -4 7 -9 7 -14c0 -21 -34 -49 -72 -57c-21 27 12 28 2 39c-101 0 -152 -20 -239 -82v-15l42 -30c43 -30 85 -44 115 -77l11 7c29 -31 46 -69 44 -95l-6 -80l-17 4c-29 -40 -87 -76 -146 -102c-31 13 -48 8 -47 -19
c-48 -18 -91 -27 -109 -27c-14 0 -38 16 -62 39c-40 8 -49 32 -44 50c-13 18 -22 35 -22 46c0 25 17 40 33 52c17 -14 43 -49 61 -49c47 0 140 27 204 83v10c-25 24 -45 68 -63 56c-27 36 -39 51 -57 38c-14 12 -41 36 -46 64c-6 32 -18 69 -17 90c6 82 168 164 295 164
c25 0 58 -1 83 -4zM494 421l-9 7l25 17c0 -12 -3 -13 -16 -24zM290 443v1c-36 -11 -73 -26 -74 -42zM200 -17v12l-35 -15l5 -7zM983 589l-1 -12c36 -9 54 -41 51 -79c5 -4 7 -9 7 -14c0 -21 -34 -49 -72 -57c-21 27 12 28 2 39c-101 0 -152 -20 -239 -82v-15l42 -30
c43 -30 85 -44 115 -77l11 7c29 -31 46 -69 44 -95l-6 -80l-17 4c-29 -40 -87 -76 -146 -102c-31 13 -48 8 -47 -19c-48 -18 -91 -27 -109 -27c-14 0 -38 16 -62 39c-40 8 -49 32 -44 50c-13 18 -22 35 -22 46c0 25 17 40 33 52c17 -14 43 -49 61 -49c47 0 140 27 204 83v10
c-25 24 -45 68 -63 56c-27 36 -39 51 -57 38c-14 12 -41 36 -46 64c-6 32 -18 69 -17 90c6 82 168 164 295 164c25 0 58 -1 83 -4zM1009 421l-9 7l25 17c0 -12 -3 -13 -16 -24zM805 443v1c-36 -11 -73 -26 -74 -42zM715 -17v12l-35 -15l5 -7z" />
    <glyph glyph-name="onesuperior" unicode="&#xb9;" horiz-adv-x="326" 
d="M346 573c-24 -76 -86 -158 -109 -282l-22 -18c-22 14 -39 25 -51 37h-11l-18 29l9 16c0 51 35 117 60 169l-47 -13c-12 12 -25 25 -25 43c0 22 15 37 36 41c46 8 96 33 130 44c9 0 22 -7 30 -11z" />
    <glyph glyph-name="logicalnot" unicode="&#xac;" horiz-adv-x="625" 
d="M462 109c-30 6 13 56 -11 69l-19 -78c-25 -8 -46 6 -76 15c1 48 13 84 24 123c-60 15 -199 -31 -229 -19c-13 5 -33 46 -41 84c32 8 58 9 82 17c-12 30 -79 -14 -84 11c83 27 270 46 323 48c26 -19 57 -26 84 -64c-10 -65 -33 -142 -53 -206z" />
    <glyph glyph-name="mu" unicode="&#xb5;" horiz-adv-x="581" 
d="M498 289l7 -4c22 46 28 98 48 96c-12 -42 -65 -181 -66 -185c-20 -60 -31 -135 -28 -204c-11 -10 -15 -13 -24 -16c-4 8 -17 1 -17 -5c-4 -1 -25 -1 -29 -1c-16 0 -22 1 -36 4c7 38 -2 55 -8 54l-4 -49c-5 2 -13 6 -17 9c4 33 4 47 9 77l-3 8c-44 -50 -72 -64 -106 -64
l-2 7c-9 0 -16 -7 -24 -7c-28 0 -56 37 -57 85h-5c-14 -66 -61 -216 -100 -277c-9 0 -30 27 -32 37c-2 2 -12 9 -15 2c-22 19 -39 40 -41 57l20 34c-8 7 -22 -17 -25 -26l-10 3c21 38 28 55 40 80c9 21 23 12 35 40c-3 6 -5 7 -8 10c16 46 33 96 51 135
c27 60 84 207 105 250c20 3 48 8 71 8c13 0 39 -14 44 -27l11 -3v-13c-15 -25 -49 -103 -62 -125c-4 6 -4 9 -1 16l-5 5c-14 -21 0 -32 -5 -45c-4 -10 -16 -47 -19 -57c10 -26 12 -51 52 -51c60 0 108 69 157 171c2 6 11 3 17 6c5 3 3 9 -7 7c10 22 22 64 24 73
c9 6 22 9 33 9c41 0 57 -6 79 -19c-27 -13 -22 -51 -47 -105zM294 52l-10 2c-14 -13 -27 -20 -38 -28c9 -4 34 13 48 26zM501 273l-8 3c-5 -12 -9 -22 -1 -27zM234 339l-12 -20c-2 -2 -6 -12 2 -15c6 9 16 29 10 35z" />
    <glyph glyph-name="trademark" unicode="&#x2122;" horiz-adv-x="579" 
d="M623 319l-11 -20c-22 18 -39 39 -49 66c10 15 18 29 -7 26c-2 12 -1 28 5 42h-1c-33 -47 -76 -69 -103 -73c-32 -5 -40 23 -59 39c4 20 22 50 15 68c-21 -22 -37 -56 -49 -84c-13 -29 -22 -50 -34 -52c-21 -3 -28 21 -39 34l5 14c-9 4 -15 6 -17 17
c-11 60 130 181 178 204l29 -7c-9 -6 -47 -28 -46 -39l5 -4c14 10 33 23 50 37c16 -8 18 -15 24 -31c4 -12 -45 -115 -54 -141c32 11 70 54 90 107l-9 13c8 12 25 17 37 19c27 4 51 -25 51 -57c0 -62 -39 -133 -11 -178zM83 575l63 30l-5 9c32 11 66 17 100 17
c50 0 104 -4 104 -66c0 -15 -7 -29 -16 -41c-24 9 -50 13 -76 16c-51 -70 -74 -153 -97 -235h-1c-8 31 -15 61 -30 88v1c0 44 15 89 25 131h20l4 17c-37 -1 -67 -11 -99 -30c7 22 12 40 8 63z" />
    <glyph glyph-name="Eth" unicode="&#xd0;" horiz-adv-x="729" 
d="M724 379c-35 -51 -59 -106 -90 -103l14 17c-15 8 -35 -20 -63 -43l15 -3c-111 -96 -250 -185 -356 -247l-19 -16c-17 0 -29 -11 -43 -11c-61 0 -71 70 -97 96l2 46h24c14 0 23 4 32 16c10 23 10 72 20 104c-22 -3 -43 -6 -63 -8c-1 20 -14 31 -33 36c1 18 3 33 11 54
c28 24 71 34 117 39c13 32 27 65 27 85c1 28 -36 50 -35 76s49 33 76 44l10 -9c46 44 47 112 101 111c8 0 49 -58 49 -72c-1 -9 -10 -22 -11 -30c30 -8 76 1 125 -13c-10 -18 21 -15 26 -2c10 -8 37 -12 59 -19c90 -28 96 -107 102 -148zM666 314l-14 3l-8 -11l14 -4z
M622 447c-149 -2 -207 -13 -262 -27c-9 -21 -18 -43 -24 -65c15 -2 33 -3 51 -2l20 -31c27 6 42 -3 59 -14c-49 -18 -99 -34 -154 -45c-8 -26 -19 -66 -25 -96c35 24 121 66 171 112c5 -3 10 -5 15 -4l-6 13l8 7c4 -7 10 -7 12 -7c13 0 45 36 64 61c26 -7 76 62 71 98z
M534 208v1c-19 -2 -36 -13 -57 -27c-20 -15 -54 -38 -88 -60c0 -7 -3 -14 -9 -19c-7 7 -18 3 -31 -7c7 0 16 -3 24 -7c55 39 115 86 161 119zM570 239l-9 4l-32 -23c6 -3 13 -5 21 2zM291 42v-1l50 30c-2 3 -5 11 -1 17v1c-15 -10 -41 -35 -49 -47zM276 44l-31 -19v-9l27 15
z" />
    <glyph glyph-name="onehalf" unicode="&#xbd;" horiz-adv-x="724" 
d="M749 38c-40 -31 -66 -27 -103 -21l-24 -19l-16 7c-23 -7 -48 -14 -73 -21c-3 7 -9 9 -16 7c-6 -2 -13 -8 -19 -17c-60 -15 -120 -26 -165 -26l-46 42c8 5 9 18 -3 26c36 58 149 134 210 179c-13 13 -75 -7 -112 -22c-20 17 -38 42 -38 67l16 26c50 13 148 30 199 32
l-3 -6l33 -9l7 7c17 -11 30 -30 30 -48c0 -17 -9 -43 -20 -67l-57 -44l-8 9c-24 -20 -71 -55 -99 -80l174 25l92 -23l-7 -20l47 10zM215 292c12 9 22 15 28 18l90 86l7 -6l114 81l-8 7c49 33 123 68 164 82l9 -9l-8 -12c21 -14 41 -26 51 -40v-35l-30 -29l-12 5
c-137 -76 -262 -157 -371 -251c-96 -84 -203 -192 -308 -284c-19 38 12 79 59 136c9 9 14 19 10 25l-45 -49l-6 4c21 26 45 58 65 69c19 42 108 133 169 184c-22 14 -39 25 -51 37h-11l-18 29l9 16c0 51 35 117 60 169l-47 -13c-12 12 -25 25 -25 43c0 22 15 37 36 41
c46 8 96 33 130 44c9 0 22 -7 30 -11l18 -55c-21 -78 -86 -158 -109 -282z" />
    <glyph glyph-name="plusminus" unicode="&#xb1;" horiz-adv-x="625" 
d="M553 257c-64 -13 -153 -29 -241 -40c-17 -36 -29 -73 -33 -107c12 2 24 3 36 5c54 -12 86 -15 135 -16l28 -24l-34 -8c10 -19 56 11 78 -13c-124 -26 -291 -63 -406 -63c-9 11 -19 18 -31 23c0 44 19 59 65 73c23 7 52 13 81 17c-16 13 -38 27 -39 43c-1 18 2 37 7 58
c-24 -2 -47 -2 -68 -2c-2 22 -16 36 -38 36c-2 25 3 50 10 66c42 11 93 15 143 17c30 57 65 112 88 150c16 6 31 6 42 4l1 -15c17 -9 26 -29 27 -42l3 -49h-13c-7 -14 -15 -29 -24 -45c14 0 25 1 36 2l1 -11c20 -4 49 -6 70 -6l24 -27c27 1 32 -14 52 -26zM300 216
c-3 0 -8 -2 -11 -2l-16 -51l5 -6z" />
    <glyph glyph-name="Thorn" unicode="&#xde;" horiz-adv-x="523" 
d="M492 328c0 -80 -29 -91 -133 -163l-8 8c-68 -40 -142 -94 -172 -75l-27 -73c-9 0 -1 26 -8 26s-31 -53 -31 -88h15c-14 -33 -18 -59 -19 -68c-23 9 -64 21 -78 41c-16 24 -21 59 -21 79c24 65 84 197 122 283c-14 11 -23 25 -31 34c0 11 12 16 8 24c-3 6 -15 3 -15 11
c0 9 20 24 32 26v15c109 -17 136 224 164 224c2 0 5 -1 7 -1c13 9 29 -13 61 -18c3 -14 14 -34 16 -53c-12 -37 -38 -100 -47 -138c26 -1 53 -2 83 -7c53 -8 82 -30 82 -87zM297 158c-12 13 -18 -5 -33 -5h-14c-13 0 -23 -13 -25 -27c24 7 51 20 72 32zM147 12l-14 -38
l-10 3c5 13 10 35 24 35zM426 237l-7 5l-17 -13c5 -7 16 1 24 8zM398 226l-63 -37l7 -7c27 17 64 34 56 44zM327 174c-5 5 -15 2 -28 -5l6 -7z" />
    <glyph glyph-name="onequarter" unicode="&#xbc;" horiz-adv-x="697" 
d="M672 169c-8 -37 -32 -70 -89 -85l-31 -82l-12 6c-15 -32 -10 -54 -6 -73l-49 -6l-54 41c0 28 17 63 33 85l-99 -16c-48 25 -96 35 -96 76s87 131 154 182h33c14 -17 14 -40 14 -54l-80 -121l74 11c29 4 75 54 75 93l30 22c23 -12 30 -46 30 -82l53 21c2 -8 12 -16 20 -18
zM305 629l18 -55c-24 -76 -86 -158 -108 -282c12 9 22 15 28 18l90 86l7 -6l114 81l-8 7c49 33 123 68 164 82l9 -9l-8 -12c21 -14 41 -26 51 -40v-35l-30 -29l-12 5c-137 -76 -262 -157 -371 -251c-96 -84 -203 -192 -308 -284c-19 38 12 79 59 136c9 9 14 19 10 25
l-45 -49l-6 4c21 26 45 58 65 69c19 42 108 133 168 184c-22 14 -39 25 -51 37h-11l-18 29l9 16c0 51 35 117 60 169l-47 -13c-12 12 -25 25 -25 43c0 22 15 37 36 41c46 8 96 33 130 44c9 0 22 -7 30 -11z" />
    <glyph glyph-name="divide" unicode="&#xf7;" horiz-adv-x="625" 
d="M563 226c-121 -47 -333 -67 -447 -67c0 25 -17 33 -36 33c0 63 19 87 74 91c53 4 124 10 165 18l12 26c-17 21 -22 50 -18 77c-27 21 10 61 42 61c29 -12 57 -36 57 -94l-70 -72c46 -11 95 -22 135 -22c12 -15 32 -29 41 -35l-5 -15l24 5zM312 56c-20 1 -33 -48 -68 -56
c-8 16 -24 28 -40 34l6 21l-15 7c0 36 17 84 41 84c34 0 76 -43 76 -90z" />
    <glyph glyph-name="brokenbar" unicode="&#xa6;" horiz-adv-x="257" 
d="M53 174h102l-104 -350h-102zM203 674h102l-106 -350h-102z" />
    <glyph glyph-name="degree" unicode="&#xb0;" horiz-adv-x="387" 
d="M352 504c-23 -35 -47 -61 -72 -83h-25c-5 -8 -2 -13 3 -16c-35 -24 -70 -37 -96 -40c-12 15 -27 13 -26 1c-39 8 -101 49 -101 121l12 15c0 71 46 102 167 129c19 -13 37 -23 45 -39l12 25c55 -9 81 -61 81 -113zM282 546c0 10 -8 24 -18 33c2 -10 1 -24 -4 -40
c-44 -6 -97 -17 -128 -41l-15 -43c39 -17 165 43 165 91z" />
    <glyph glyph-name="thorn" unicode="&#xfe;" horiz-adv-x="523" 
d="M492 328c0 -80 -29 -91 -133 -163l-8 8c-68 -40 -142 -94 -172 -75l-27 -73c-9 0 -1 26 -8 26s-31 -53 -31 -88h15c-14 -33 -18 -59 -19 -68c-23 9 -64 21 -78 41c-16 24 -21 59 -21 79c24 65 84 197 122 283c-14 11 -23 25 -31 34c0 11 12 16 8 24c-3 6 -15 3 -15 11
c0 9 20 24 32 26v15c109 -17 136 224 164 224c2 0 5 -1 7 -1c13 9 29 -13 61 -18c3 -14 14 -34 16 -53c-12 -37 -38 -100 -47 -138c26 -1 53 -2 83 -7c53 -8 82 -30 82 -87zM297 158c-12 13 -18 -5 -33 -5h-14c-13 0 -23 -13 -25 -27c24 7 51 20 72 32zM147 12l-14 -38
l-10 3c5 13 10 35 24 35zM426 237l-7 5l-17 -13c5 -7 16 1 24 8zM398 226l-63 -37l7 -7c27 17 64 34 56 44zM327 174c-5 5 -15 2 -28 -5l6 -7z" />
    <glyph glyph-name="threequarters" unicode="&#xbe;" horiz-adv-x="806" 
d="M781 168c-8 -37 -31 -69 -88 -84l-31 -82l-13 6c-15 -32 -10 -54 -6 -73l-48 -6l-55 41c0 28 17 63 33 85l-98 -16c-48 25 -96 35 -96 76s86 131 153 182h34c14 -17 13 -40 13 -54l-80 -121l74 11c29 4 75 53 75 92l30 23c23 -12 30 -46 30 -82l53 21c2 -8 12 -17 20 -19
zM403 444c0 -34 -11 -69 -34 -94c-13 6 -21 5 -32 -16c-81 -32 -183 -69 -278 -69l-6 21l-10 -3c-8 20 -8 45 -8 65c35 5 81 11 113 17c14 3 30 2 40 -2c60 14 127 41 127 57c0 11 -54 7 -114 12c-16 18 -42 37 -34 55l66 58c-27 0 -80 1 -108 -15c-10 12 -20 34 -20 48
c0 24 54 48 88 48c37 0 91 -6 129 -12c36 -41 23 -64 9 -103l53 -21c7 -13 19 -30 19 -46zM758 453l-29 -28l-11 5c-134 -74 -258 -154 -364 -246c-94 -82 -200 -189 -303 -279c-19 37 10 78 58 133c8 10 14 19 10 25l-44 -49l-6 5c20 25 44 57 63 67c26 57 181 202 215 217
l89 84l7 -6l111 79l-7 7c48 32 121 67 161 80l8 -9l-7 -11c20 -14 39 -25 49 -39v-35z" />
    <glyph glyph-name="twosuperior" unicode="&#xb2;" horiz-adv-x="520" 
d="M540 372c-40 -31 -66 -28 -103 -22l-25 -19l-15 8c-23 -8 -49 -15 -73 -22c-8 14 -23 8 -35 -9c-60 -15 -119 -26 -164 -26l-47 41c8 5 9 18 -3 26c36 58 150 134 211 179c-12 13 -75 -7 -112 -22c-24 21 -42 55 -42 86c62 22 154 36 218 39l-2 -5l32 -10l7 7
c17 -10 30 -30 30 -48c0 -17 -9 -43 -20 -67l-57 -44l-8 9c-23 -20 -72 -54 -99 -79l175 24l91 -22l-7 -21l46 10z" />
    <glyph glyph-name="registered" unicode="&#xae;" horiz-adv-x="432" 
d="M454 462c0 -93 -44 -176 -136 -210c-18 7 -32 0 -52 -13l-6 6l-20 -10h-21c-74 0 -142 76 -142 151c0 7 1 15 2 24l10 16v22c6 18 13 36 23 53l24 -15c-6 -16 -12 -29 -13 -35l-6 -5v-31c0 -53 16 -105 79 -105c33 0 67 13 98 33c-33 5 -60 32 -80 66
c-7 -17 -17 -42 -20 -63c-33 0 -29 27 -42 34l21 62c-15 12 -10 19 1 31l9 -5l22 66c49 -23 40 4 80 2c-2 -12 26 -36 34 -17c4 -7 10 -16 10 -25c0 -25 -35 -50 -80 -70c9 -27 54 -40 93 -42c28 29 46 63 50 92h7c1 10 0 26 -3 33c-2 5 -5 5 -8 1c-13 41 -46 83 -77 83
c-19 0 -32 -14 -42 -14c-14 0 -26 16 -38 35c18 12 37 19 53 19c74 0 170 -73 170 -169zM288 498l-39 -23l6 -5l22 10l-1 -10c31 15 21 22 12 28zM163 573l5 -12c-2 -5 -4 -10 -6 -17l-12 13c4 6 8 10 13 16zM141 532l7 -18c-3 -7 -6 -14 -9 -22l-19 22c4 7 9 15 13 21z" />
    <glyph glyph-name="minus" unicode="&#x2212;" horiz-adv-x="625" 
d="M554 234c-133 -29 -335 -61 -457 -61c0 22 -13 38 -37 38c0 47 23 86 75 90s123 9 178 20c55 -13 110 -25 161 -25c10 -19 12 -38 48 -36z" />
    <glyph glyph-name="eth" unicode="&#xf0;" horiz-adv-x="729" 
d="M724 379c-35 -51 -59 -106 -90 -103l14 17c-15 8 -35 -20 -63 -43l15 -3c-111 -96 -250 -185 -356 -247l-19 -16c-17 0 -29 -11 -43 -11c-61 0 -71 70 -97 96l2 46h24c14 0 23 4 32 16c10 23 10 72 20 104c-22 -3 -43 -6 -63 -8c-1 20 -14 31 -33 36c1 18 3 33 11 54
c28 24 71 34 117 39c13 32 27 65 27 85c1 28 -36 50 -35 76s49 33 76 44l10 -9c46 44 47 112 101 111c8 0 49 -58 49 -72c-1 -9 -10 -22 -11 -30c30 -8 76 1 125 -13c-10 -18 21 -15 26 -2c10 -8 37 -12 59 -19c90 -28 96 -107 102 -148zM666 314l-14 3l-8 -11l14 -4z
M622 447c-149 -2 -207 -13 -262 -27c-9 -21 -18 -43 -24 -65c15 -2 33 -3 51 -2l20 -31c27 6 42 -3 59 -14c-49 -18 -99 -34 -154 -45c-8 -26 -19 -66 -25 -96c35 24 121 66 171 112c5 -3 10 -5 15 -4l-6 13l8 7c4 -7 10 -7 12 -7c13 0 45 36 64 61c26 -7 76 62 71 98z
M534 208v1c-19 -2 -36 -13 -57 -27c-20 -15 -54 -38 -88 -60c0 -7 -3 -14 -9 -19c-7 7 -18 3 -31 -7c7 0 16 -3 24 -7c55 39 115 86 161 119zM570 239l-9 4l-32 -23c6 -3 13 -5 21 2zM291 42v-1l50 30c-2 3 -5 11 -1 17v1c-15 -10 -41 -35 -49 -47zM276 44l-31 -19v-9l27 15
z" />
    <glyph glyph-name="multiply" unicode="&#xd7;" horiz-adv-x="625" 
d="M525 391c0 -32 -106 -116 -193 -192c27 -55 73 -110 148 -143l-5 -13c-13 6 -36 -8 -49 -8c-52 0 -138 33 -166 98c-8 -9 -15 -18 -22 -26c-21 3 -51 -28 -79 -48s-52 -20 -48 -37l-32 -34c-10 53 -1 84 34 114c0 14 4 27 12 37l13 -8c9 13 28 24 39 31v23
c14 11 30 23 45 37c-25 54 -51 110 -51 150c0 41 9 70 29 70c39 0 90 -19 90 -49c0 -23 6 -52 14 -80c41 43 79 88 133 128c21 -10 88 -26 88 -50zM104 110l-24 -16c4 9 8 22 24 33v-17z" />
    <glyph glyph-name="threesuperior" unicode="&#xb3;" horiz-adv-x="448" 
d="M443 444c0 -34 -11 -69 -34 -94c-13 6 -21 5 -32 -16c-81 -32 -183 -69 -278 -69l-6 21l-10 -3c-8 20 -8 45 -8 65c35 5 81 11 113 17c14 3 30 2 40 -2c60 14 127 41 127 57c0 11 -54 7 -114 12c-16 18 -42 37 -34 55l66 58c-27 0 -80 1 -108 -15c-10 12 -20 34 -20 48
c0 24 54 48 88 48c37 0 91 -6 129 -12c36 -41 23 -64 9 -103l53 -21c7 -13 19 -30 19 -46z" />
    <glyph glyph-name="copyright" unicode="&#xa9;" horiz-adv-x="848" 
d="M518 225l-34 -18l-21 11c18 4 42 9 55 7zM460 192l32 11l6 -3c-12 -10 -23 -18 -38 -8zM79 118l-11 -17c-20 42 -25 81 -26 97h1c5 -8 12 -15 17 -18l-1 34c19 37 14 50 0 58c15 37 37 74 43 100l64 18c-3 -9 -14 -15 -16 -25c-13 -6 -19 -12 -7 -24
c-13 -48 -22 -96 -22 -149c0 -64 36 -117 91 -138c26 3 48 0 60 -2l10 -18h28l12 11c63 -5 114 14 152 33c28 14 34 40 54 24c4 3 8 6 6 14c37 30 70 63 96 98l-10 5c-26 -27 -40 -51 -58 -45c52 53 135 132 135 239c0 108 -102 183 -234 183c-32 26 -75 70 -56 102
c25 -4 49 -10 71 -15l-9 -6c18 -7 27 -12 40 -2c205 -60 297 -184 297 -345l-14 2c0 -14 4 -21 14 -29c-2 -28 -28 -37 -37 -55l27 -11c-4 -12 -9 -25 -15 -37c-41 18 -53 -20 -53 -81c-52 -63 -132 -120 -206 -153c-16 3 -50 -5 -78 -12l10 -14c-8 -2 -14 -3 -20 -4l-16 10
c-14 -3 -29 -6 -46 -18c-109 0 -224 48 -286 143c5 22 0 34 -7 47zM245 234l2 17c-9 15 -20 22 -20 33c-3 136 133 232 255 236c5 -6 11 -8 22 -2c18 -8 38 -34 54 -47v-19c-119 -38 -242 -89 -242 -209c14 -12 38 -13 55 -13l-6 -17c18 7 33 9 48 0l24 6l6 -7l-57 -17
c8 -13 18 -21 36 -17l-13 16l51 12l-12 -15l15 -11c-25 -19 -62 -24 -93 -24c-50 0 -87 40 -125 78zM508 128l7 -10c-16 -11 -27 -18 -47 -16zM328 56v1l40 6c5 -12 -25 -13 -40 -7z" />
    <glyph glyph-name="Aacute" unicode="&#xc1;" horiz-adv-x="569" 
d="M528 195c-18 -2 -37 -6 -54 -8c-8 -17 -5 -61 -26 -81c14 -8 6 -33 -7 -45c6 -15 10 -26 -11 -54c-1 -4 9 1 11 3c-2 -34 -10 -61 -20 -91c-31 0 -59 30 -75 24c1 20 -2 28 -16 28l1 14c5 0 9 3 10 10c-5 0 -9 3 -9 10c2 23 14 52 20 82c7 0 7 -13 6 -28c7 0 18 41 20 64
l-12 5c-1 -16 -1 -38 -13 -33c3 14 6 49 9 61l17 -21c-1 12 4 15 2 30c-57 2 -208 -79 -253 -110l-5 -13l4 -12c-17 -35 -32 -76 -48 -97l-63 27c-3 31 -46 44 -35 70h-16c22 151 189 313 283 439c47 62 94 104 133 135c7 6 35 -4 37 15c13 -4 41 -16 56 -28l-18 -6
c-1 -17 24 2 29 -2c37 -32 16 -86 35 -115c1 -5 -1 -91 -16 -100c2 -2 3 -2 6 -4c-6 -22 -14 -51 -16 -79c-1 -12 37 -46 34 -90zM447 481l-3 10c-19 -1 -65 -57 -108 -114l-5 5c3 8 6 14 2 18c-16 -18 -23 -27 -14 -46c-15 -20 -29 -38 -42 -54c-18 -23 -45 -66 -68 -99
c20 12 35 33 75 50c35 15 56 19 92 29c3 26 13 45 17 59l17 -15c12 31 26 112 37 157zM399 293h-11c-4 -12 3 -12 10 -11zM398 299l-1 10l-4 1l-4 -11h9zM363 55l-6 -3l-4 -13h6zM222 129c-13 10 -46 -12 -65 -22c-5 -7 -7 -11 -11 -18zM234 135c9 5 24 11 35 18v1
c-22 -1 -31 -3 -35 -19zM434 463l-8 -31h-9l8 27zM167 125c4 2 27 10 33 24c-8 -3 -14 -4 -21 -7zM650 776c0 -75 -150 -119 -207 -119c-12 0 -22 3 -28 7c-17 -2 -50 -6 -67 -7c9 12 14 24 16 33l38 14l-2 9c-16 -5 -42 -16 -58 -16c-5 0 -10 1 -12 4c55 15 119 47 169 75
v11c38 20 87 49 119 71c22 -16 32 -53 32 -82z" />
    <glyph glyph-name="Acircumflex" unicode="&#xc2;" horiz-adv-x="569" 
d="M528 195c-18 -2 -37 -6 -54 -8c-8 -17 -5 -61 -26 -81c14 -8 6 -33 -7 -45c6 -15 10 -26 -11 -54c-1 -4 9 1 11 3c-2 -34 -10 -61 -20 -91c-31 0 -59 30 -75 24c1 20 -2 28 -16 28l1 14c5 0 9 3 10 10c-5 0 -9 3 -9 10c2 23 14 52 20 82c7 0 7 -13 6 -28c7 0 18 41 20 64
l-12 5c-1 -16 -1 -38 -13 -33c3 14 6 49 9 61l17 -21c-1 12 4 15 2 30c-57 2 -208 -79 -253 -110l-5 -13l4 -12c-17 -35 -32 -76 -48 -97l-63 27c-3 31 -46 44 -35 70h-16c22 151 189 313 283 439c47 62 94 104 133 135c7 6 35 -4 37 15c13 -4 41 -16 56 -28l-18 -6
c-1 -17 24 2 29 -2c37 -32 16 -86 35 -115c1 -5 -1 -91 -16 -100c2 -2 3 -2 6 -4c-6 -22 -14 -51 -16 -79c-1 -12 37 -46 34 -90zM447 481l-3 10c-19 -1 -65 -57 -108 -114l-5 5c3 8 6 14 2 18c-16 -18 -23 -27 -14 -46c-15 -20 -29 -38 -42 -54c-18 -23 -45 -66 -68 -99
c20 12 35 33 75 50c35 15 56 19 92 29c3 26 13 45 17 59l17 -15c12 31 26 112 37 157zM399 293h-11c-4 -12 3 -12 10 -11zM398 299l-1 10l-4 1l-4 -11h9zM363 55l-6 -3l-4 -13h6zM222 129c-13 10 -46 -12 -65 -22c-5 -7 -7 -11 -11 -18zM234 135c9 5 24 11 35 18v1
c-22 -1 -31 -3 -35 -19zM434 463l-8 -31h-9l8 27zM167 125c4 2 27 10 33 24c-8 -3 -14 -4 -21 -7zM631 657c-7 -27 -23 -18 -32 -32c-57 23 -50 69 -89 108c-75 -19 -158 -108 -186 -108c-13 0 -34 28 -61 50c8 14 6 28 -2 39c46 42 173 109 217 129l14 -10l15 7
c38 -43 82 -112 116 -164l-11 -9z" />
    <glyph glyph-name="Adieresis" unicode="&#xc4;" horiz-adv-x="569" 
d="M528 195c-18 -2 -37 -6 -54 -8c-8 -17 -5 -61 -26 -81c14 -8 6 -33 -7 -45c6 -15 10 -26 -11 -54c-1 -4 9 1 11 3c-2 -34 -10 -61 -20 -91c-31 0 -59 30 -75 24c1 20 -2 28 -16 28l1 14c5 0 9 3 10 10c-5 0 -9 3 -9 10c2 23 14 52 20 82c7 0 7 -13 6 -28c7 0 18 41 20 64
l-12 5c-1 -16 -1 -38 -13 -33c3 14 6 49 9 61l17 -21c-1 12 4 15 2 30c-57 2 -208 -79 -253 -110l-5 -13l4 -12c-17 -35 -32 -76 -48 -97l-63 27c-3 31 -46 44 -35 70h-16c22 151 189 313 283 439c47 62 94 104 133 135c7 6 35 -4 37 15c13 -4 41 -16 56 -28l-18 -6
c-1 -17 24 2 29 -2c37 -32 16 -86 35 -115c1 -5 -1 -91 -16 -100c2 -2 3 -2 6 -4c-6 -22 -14 -51 -16 -79c-1 -12 37 -46 34 -90zM447 481l-3 10c-19 -1 -65 -57 -108 -114l-5 5c3 8 6 14 2 18c-16 -18 -23 -27 -14 -46c-15 -20 -29 -38 -42 -54c-18 -23 -45 -66 -68 -99
c20 12 35 33 75 50c35 15 56 19 92 29c3 26 13 45 17 59l17 -15c12 31 26 112 37 157zM399 293h-11c-4 -12 3 -12 10 -11zM398 299l-1 10l-4 1l-4 -11h9zM363 55l-6 -3l-4 -13h6zM222 129c-13 10 -46 -12 -65 -22c-5 -7 -7 -11 -11 -18zM234 135c9 5 24 11 35 18v1
c-22 -1 -31 -3 -35 -19zM434 463l-8 -31h-9l8 27zM167 125c4 2 27 10 33 24c-8 -3 -14 -4 -21 -7zM650 733c-36 -21 -51 -65 -88 -89c-38 0 -63 40 -53 71h-15c1 13 30 115 79 115c45 0 77 -31 77 -97zM436 715l-88 -90l-15 8l7 30c-12 26 -25 58 -22 92c-9 5 -12 12 -12 20
c0 27 33 55 59 55c40 0 71 -44 71 -115z" />
    <glyph glyph-name="Agrave" unicode="&#xc0;" horiz-adv-x="569" 
d="M528 195c-18 -2 -37 -6 -54 -8c-8 -17 -5 -61 -26 -81c14 -8 6 -33 -7 -45c6 -15 10 -26 -11 -54c-1 -4 9 1 11 3c-2 -34 -10 -61 -20 -91c-31 0 -59 30 -75 24c1 20 -2 28 -16 28l1 14c5 0 9 3 10 10c-5 0 -9 3 -9 10c2 23 14 52 20 82c7 0 7 -13 6 -28c7 0 18 41 20 64
l-12 5c-1 -16 -1 -38 -13 -33c3 14 6 49 9 61l17 -21c-1 12 4 15 2 30c-57 2 -208 -79 -253 -110l-5 -13l4 -12c-17 -35 -32 -76 -48 -97l-63 27c-3 31 -46 44 -35 70h-16c22 151 189 313 283 439c47 62 94 104 133 135c7 6 35 -4 37 15c13 -4 41 -16 56 -28l-18 -6
c-1 -17 24 2 29 -2c37 -32 16 -86 35 -115c1 -5 -1 -91 -16 -100c2 -2 3 -2 6 -4c-6 -22 -14 -51 -16 -79c-1 -12 37 -46 34 -90zM447 481l-3 10c-19 -1 -65 -57 -108 -114l-5 5c3 8 6 14 2 18c-16 -18 -23 -27 -14 -46c-15 -20 -29 -38 -42 -54c-18 -23 -45 -66 -68 -99
c20 12 35 33 75 50c35 15 56 19 92 29c3 26 13 45 17 59l17 -15c12 31 26 112 37 157zM399 293h-11c-4 -12 3 -12 10 -11zM398 299l-1 10l-4 1l-4 -11h9zM363 55l-6 -3l-4 -13h6zM222 129c-13 10 -46 -12 -65 -22c-5 -7 -7 -11 -11 -18zM234 135c9 5 24 11 35 18v1
c-22 -1 -31 -3 -35 -19zM434 463l-8 -31h-9l8 27zM167 125c4 2 27 10 33 24c-8 -3 -14 -4 -21 -7zM629 647c-26 -14 -38 -8 -71 15c-4 -12 22 -26 50 -46l-12 -7c-35 26 -94 62 -154 89l-9 -6c-39 19 -92 41 -129 54c0 41 53 88 80 88c57 0 199 -92 199 -137
c12 -12 35 -37 46 -50z" />
    <glyph glyph-name="Aring" unicode="&#xc5;" horiz-adv-x="569" 
d="M528 195c-18 -2 -37 -6 -54 -8c-8 -17 -5 -61 -26 -81c14 -8 6 -33 -7 -45c6 -15 10 -26 -11 -54c-1 -4 9 1 11 3c-2 -34 -10 -61 -20 -91c-31 0 -59 30 -75 24c1 20 -2 28 -16 28l1 14c5 0 9 3 10 10c-5 0 -9 3 -9 10c2 23 14 52 20 82c7 0 7 -13 6 -28c7 0 18 41 20 64
l-12 5c-1 -16 -1 -38 -13 -33c3 14 6 49 9 61l17 -21c-1 12 4 15 2 30c-57 2 -208 -79 -253 -110l-5 -13l4 -12c-17 -35 -32 -76 -48 -97l-63 27c-3 31 -46 44 -35 70h-16c22 151 189 313 283 439c47 62 94 104 133 135c7 6 35 -4 37 15c13 -4 41 -16 56 -28l-18 -6
c-1 -17 24 2 29 -2c37 -32 16 -86 35 -115c1 -5 -1 -91 -16 -100c2 -2 3 -2 6 -4c-6 -22 -14 -51 -16 -79c-1 -12 37 -46 34 -90zM447 481l-3 10c-19 -1 -65 -57 -108 -114l-5 5c3 8 6 14 2 18c-16 -18 -23 -27 -14 -46c-15 -20 -29 -38 -42 -54c-18 -23 -45 -66 -68 -99
c20 12 35 33 75 50c35 15 56 19 92 29c3 26 13 45 17 59l17 -15c12 31 26 112 37 157zM399 293h-11c-4 -12 3 -12 10 -11zM398 299l-1 10l-4 1l-4 -11h9zM363 55l-6 -3l-4 -13h6zM222 129c-13 10 -46 -12 -65 -22c-5 -7 -7 -11 -11 -18zM234 135c9 5 24 11 35 18v1
c-22 -1 -31 -3 -35 -19zM431 662l-12 -24c-50 8 -74 59 -74 106c21 31 44 55 67 75h23c5 8 2 12 -3 15c32 22 63 34 87 37c11 -14 26 -13 25 -2c37 -8 92 -42 92 -109l-12 -15c0 -65 -41 -93 -152 -118c-18 12 -33 21 -41 35zM561 788c-36 15 -152 -41 -152 -84
c0 -8 6 -17 17 -29h1c-2 9 -1 21 3 36c40 5 88 15 116 37zM434 463l-8 -31h-9l8 27zM167 125c4 2 27 10 33 24c-8 -3 -14 -4 -21 -7z" />
    <glyph glyph-name="Atilde" unicode="&#xc3;" horiz-adv-x="569" 
d="M528 195c-18 -2 -37 -6 -54 -8c-8 -17 -5 -61 -26 -81c14 -8 6 -33 -7 -45c6 -15 10 -26 -11 -54c-1 -4 9 1 11 3c-2 -34 -10 -61 -20 -91c-31 0 -59 30 -75 24c1 20 -2 28 -16 28l1 14c5 0 9 3 10 10c-5 0 -9 3 -9 10c2 23 14 52 20 82c7 0 7 -13 6 -28c7 0 18 41 20 64
l-12 5c-1 -16 -1 -38 -13 -33c3 14 6 49 9 61l17 -21c-1 12 4 15 2 30c-57 2 -208 -79 -253 -110l-5 -13l4 -12c-17 -35 -32 -76 -48 -97l-63 27c-3 31 -46 44 -35 70h-16c22 151 189 313 283 439c47 62 94 104 133 135c7 6 35 -4 37 15c13 -4 41 -16 56 -28l-18 -6
c-1 -17 24 2 29 -2c37 -32 16 -86 35 -115c1 -5 -1 -91 -16 -100c2 -2 3 -2 6 -4c-6 -22 -14 -51 -16 -79c-1 -12 37 -46 34 -90zM447 481l-3 10c-19 -1 -65 -57 -108 -114l-5 5c3 8 6 14 2 18c-16 -18 -23 -27 -14 -46c-15 -20 -29 -38 -42 -54c-18 -23 -45 -66 -68 -99
c20 12 35 33 75 50c35 15 56 19 92 29c3 26 13 45 17 59l17 -15c12 31 26 112 37 157zM399 293h-11c-4 -12 3 -12 10 -11zM398 299l-1 10l-4 1l-4 -11h9zM363 55l-6 -3l-4 -13h6zM222 129c-13 10 -46 -12 -65 -22c-5 -7 -7 -11 -11 -18zM234 135c9 5 24 11 35 18v1
c-22 -1 -31 -3 -35 -19zM434 463l-8 -31h-9l8 27zM167 125c4 2 27 10 33 24c-8 -3 -14 -4 -21 -7zM671 713c-22 -34 -57 -70 -107 -70c-77 0 -75 62 -99 82c-45 -12 -107 -63 -131 -89c-46 13 -42 39 -40 64c23 21 35 35 31 45c-14 -13 -30 -34 -41 -23c41 35 95 99 148 99
c11 0 26 -7 33 -16c48 0 22 -68 95 -68c22 0 45 15 69 27c-4 -8 -5 -14 -5 -19l16 4l3 -5l-14 -11c10 -8 34 -4 42 -20z" />
    <glyph glyph-name="Ccedilla" unicode="&#xc7;" horiz-adv-x="534" 
d="M269 -114c0 -56 -43 -108 -108 -147h-25l10 -9c-7 -4 -13 -7 -21 -11c-9 12 -22 8 -25 -11c-10 -5 -22 -8 -33 -12c12 24 20 36 1 45c34 27 104 78 104 112c-23 21 -55 23 -62 57l45 70c-3 1 -5 2 -7 2c-24 0 -30 25 -62 21c-18 17 -56 81 -64 96c-5 8 -7 23 -7 34v27
c16 14 17 35 17 56l10 -6c7 11 -1 25 4 36c21 42 61 109 74 109s-6 -15 8 -15c11 0 32 52 43 52h12c-3 7 -4 19 -5 28h7c26 63 217 176 252 176c12 0 36 -11 51 -19c14 -33 42 -59 35 -100c-41 -10 -90 -30 -125 -55c-29 -21 -51 -45 -63 -56l-6 10c-11 -18 -49 -48 -77 -73
c-1 -5 -4 -16 -7 -21c-18 -19 -117 -133 -117 -182c0 -12 5 -19 16 -19c36 0 119 24 179 33c14 2 25 -4 30 -10c-48 -10 -116 -22 -127 -42c19 -12 52 -4 67 11c53 10 120 24 171 31l16 -4l24 3l11 -7l-52 -8c-13 -2 -27 -6 -18 -19l7 -10c-9 -4 -120 -37 -186 -58
c-11 -4 -18 -14 -12 -21l-34 -8l-10 -23c21 -19 59 -33 59 -63zM387 22v-1c-18 -10 -37 -22 -54 -22c-5 0 -10 1 -15 3c19 8 46 13 69 20zM291 -17c-5 0 -11 2 -17 4l33 11c13 -9 0 -15 -16 -15zM127 331c-8 3 -13 1 -18 -8l10 -6zM174 218l-9 5l-12 -19
c-4 -7 -15 -23 -10 -32zM134 158h-10l-7 -14l6 -8zM495 74l-30 -10l-10 12l27 4zM356 118v1c44 7 84 14 112 16c-5 -17 -39 -23 -68 -23c-19 0 -36 2 -44 6zM212 286l9 -6c21 21 21 25 21 29c-10 0 -19 -10 -30 -23zM216 274l-9 6l-6 -10l7 -6zM113 307l-8 9l-14 -23l9 -7z
" />
    <glyph glyph-name="Eacute" unicode="&#xc9;" horiz-adv-x="537" 
d="M570 491c2 -10 -16 -16 -26 -24c-91 -41 -184 -44 -272 -69c-11 -18 -25 -41 -42 -68c40 4 123 38 152 38s38 -10 59 -46c-4 -11 1 -21 11 -26l-7 -22c-61 -10 -210 -34 -260 -56c-26 -11 -49 -121 -50 -144c31 -23 78 -13 107 -6l6 -10c7 0 16 6 16 12
c15 2 20 -22 34 -18c65 18 142 44 192 60c3 1 7 2 8 -1c2 -5 -13 -12 -21 -16l-68 -25c6 -4 17 -11 24 -15c3 -1 1 -3 -2 -4c-50 -17 -112 -34 -168 -48c15 -7 37 -7 56 -2c40 11 95 30 144 47c3 1 10 4 5 -6c-6 -10 -14 -17 -28 -22c-65 -25 -149 -55 -210 -55
c-117 0 -200 53 -196 199c2 74 63 165 136 318c-5 25 -4 49 14 76c50 -6 79 71 114 71c19 0 72 -15 85 -19c1 -22 -4 -45 -18 -72c17 -4 65 -9 87 -9l9 -19c5 0 14 6 25 6s35 -10 49 -12c2 0 4 -2 2 -4c-40 -36 -68 -14 -61 -44c30 12 55 19 83 32c4 2 10 9 11 3zM487 494
c-1 5 -15 6 -21 4l3 -12zM139 193v-11h1c6 8 14 16 18 26c-13 1 -17 -5 -19 -15zM129 108l-8 10c-4 -18 -5 -31 3 -37zM429 114c-12 -14 -38 -21 -57 -20c-28 -21 -63 -35 -75 -16c46 10 92 25 129 40c4 2 5 -1 3 -4zM255 397l-13 -3l-17 -28l13 3zM219 352
c-7 0 -20 -14 -23 -25l13 2zM147 176l-10 -1l-11 -37l7 -9zM581 781c0 -75 -150 -119 -207 -119c-12 0 -22 3 -28 7c-17 -2 -50 -6 -67 -7c9 12 14 24 16 33l38 14l-2 9c-16 -5 -42 -16 -58 -16c-5 0 -10 1 -12 4c55 15 119 47 169 75v11c38 20 87 49 119 71
c22 -16 32 -53 32 -82z" />
    <glyph glyph-name="Ecircumflex" unicode="&#xca;" horiz-adv-x="537" 
d="M570 491c2 -10 -16 -16 -26 -24c-91 -41 -184 -44 -272 -69c-11 -18 -25 -41 -42 -68c40 4 123 38 152 38s38 -10 59 -46c-4 -11 1 -21 11 -26l-7 -22c-61 -10 -210 -34 -260 -56c-26 -11 -49 -121 -50 -144c31 -23 78 -13 107 -6l6 -10c7 0 16 6 16 12
c15 2 20 -22 34 -18c65 18 142 44 192 60c3 1 7 2 8 -1c2 -5 -13 -12 -21 -16l-68 -25c6 -4 17 -11 24 -15c3 -1 1 -3 -2 -4c-50 -17 -112 -34 -168 -48c15 -7 37 -7 56 -2c40 11 95 30 144 47c3 1 10 4 5 -6c-6 -10 -14 -17 -28 -22c-65 -25 -149 -55 -210 -55
c-117 0 -200 53 -196 199c2 74 63 165 136 318c-5 25 -4 49 14 76c50 -6 79 71 114 71c19 0 72 -15 85 -19c1 -22 -4 -45 -18 -72c17 -4 65 -9 87 -9l9 -19c5 0 14 6 25 6s35 -10 49 -12c2 0 4 -2 2 -4c-40 -36 -68 -14 -61 -44c30 12 55 19 83 32c4 2 10 9 11 3zM487 494
c-1 5 -15 6 -21 4l3 -12zM139 193v-11h1c6 8 14 16 18 26c-13 1 -17 -5 -19 -15zM129 108l-8 10c-4 -18 -5 -31 3 -37zM429 114c-12 -14 -38 -21 -57 -20c-28 -21 -63 -35 -75 -16c46 10 92 25 129 40c4 2 5 -1 3 -4zM255 397l-13 -3l-17 -28l13 3zM219 352
c-7 0 -20 -14 -23 -25l13 2zM147 176l-10 -1l-11 -37l7 -9zM545 677c-7 -27 -23 -18 -32 -32c-57 23 -50 69 -89 108c-75 -19 -158 -108 -186 -108c-13 0 -34 28 -61 50c8 14 6 28 -2 39c46 42 173 109 217 129l14 -10l15 7c38 -43 82 -112 116 -164l-11 -9z" />
    <glyph glyph-name="Edieresis" unicode="&#xcb;" horiz-adv-x="537" 
d="M570 491c2 -10 -16 -16 -26 -24c-91 -41 -184 -44 -272 -69c-11 -18 -25 -41 -42 -68c40 4 123 38 152 38s38 -10 59 -46c-4 -11 1 -21 11 -26l-7 -22c-61 -10 -210 -34 -260 -56c-26 -11 -49 -121 -50 -144c31 -23 78 -13 107 -6l6 -10c7 0 16 6 16 12
c15 2 20 -22 34 -18c65 18 142 44 192 60c3 1 7 2 8 -1c2 -5 -13 -12 -21 -16l-68 -25c6 -4 17 -11 24 -15c3 -1 1 -3 -2 -4c-50 -17 -112 -34 -168 -48c15 -7 37 -7 56 -2c40 11 95 30 144 47c3 1 10 4 5 -6c-6 -10 -14 -17 -28 -22c-65 -25 -149 -55 -210 -55
c-117 0 -200 53 -196 199c2 74 63 165 136 318c-5 25 -4 49 14 76c50 -6 79 71 114 71c19 0 72 -15 85 -19c1 -22 -4 -45 -18 -72c17 -4 65 -9 87 -9l9 -19c5 0 14 6 25 6s35 -10 49 -12c2 0 4 -2 2 -4c-40 -36 -68 -14 -61 -44c30 12 55 19 83 32c4 2 10 9 11 3zM487 494
c-1 5 -15 6 -21 4l3 -12zM139 193v-11h1c6 8 14 16 18 26c-13 1 -17 -5 -19 -15zM129 108l-8 10c-4 -18 -5 -31 3 -37zM429 114c-12 -14 -38 -21 -57 -20c-28 -21 -63 -35 -75 -16c46 10 92 25 129 40c4 2 5 -1 3 -4zM255 397l-13 -3l-17 -28l13 3zM219 352
c-7 0 -20 -14 -23 -25l13 2zM147 176l-10 -1l-11 -37l7 -9zM538 733c-36 -21 -51 -65 -88 -89c-38 0 -63 40 -53 71h-15c1 13 30 115 79 115c45 0 77 -31 77 -97zM324 715l-88 -90l-15 8l7 30c-12 26 -25 58 -22 92c-9 5 -12 12 -12 20c0 27 33 55 59 55
c40 0 71 -44 71 -115z" />
    <glyph glyph-name="Egrave" unicode="&#xc8;" horiz-adv-x="537" 
d="M570 491c2 -10 -16 -16 -26 -24c-91 -41 -184 -44 -272 -69c-11 -18 -25 -41 -42 -68c40 4 123 38 152 38s38 -10 59 -46c-4 -11 1 -21 11 -26l-7 -22c-61 -10 -210 -34 -260 -56c-26 -11 -49 -121 -50 -144c31 -23 78 -13 107 -6l6 -10c7 0 16 6 16 12
c15 2 20 -22 34 -18c65 18 142 44 192 60c3 1 7 2 8 -1c2 -5 -13 -12 -21 -16l-68 -25c6 -4 17 -11 24 -15c3 -1 1 -3 -2 -4c-50 -17 -112 -34 -168 -48c15 -7 37 -7 56 -2c40 11 95 30 144 47c3 1 10 4 5 -6c-6 -10 -14 -17 -28 -22c-65 -25 -149 -55 -210 -55
c-117 0 -200 53 -196 199c2 74 63 165 136 318c-5 25 -4 49 14 76c50 -6 79 71 114 71c19 0 72 -15 85 -19c1 -22 -4 -45 -18 -72c17 -4 65 -9 87 -9l9 -19c5 0 14 6 25 6s35 -10 49 -12c2 0 4 -2 2 -4c-40 -36 -68 -14 -61 -44c30 12 55 19 83 32c4 2 10 9 11 3zM487 494
c-1 5 -15 6 -21 4l3 -12zM139 193v-11h1c6 8 14 16 18 26c-13 1 -17 -5 -19 -15zM129 108l-8 10c-4 -18 -5 -31 3 -37zM563 647c-26 -14 -38 -8 -71 15c-4 -12 22 -26 50 -46l-12 -7c-35 26 -94 62 -154 89l-9 -6c-39 19 -92 41 -129 54c0 41 53 88 80 88
c57 0 199 -92 199 -137c12 -12 35 -37 46 -50zM429 114c-12 -14 -38 -21 -57 -20c-28 -21 -63 -35 -75 -16c46 10 92 25 129 40c4 2 5 -1 3 -4zM255 397l-13 -3l-17 -28l13 3zM219 352c-7 0 -20 -14 -23 -25l13 2zM147 176l-10 -1l-11 -37l7 -9z" />
    <glyph glyph-name="Iacute" unicode="&#xcd;" horiz-adv-x="360" 
d="M385 547c0 -27 -4 -63 -9 -93h-11c-27 -38 -43 -108 -89 -133l4 -12l-39 -22c-39 -56 -56 -125 -78 -182c-3 -8 -16 -24 -3 -28c3 -1 10 20 11 23c23 52 40 130 76 171c14 5 4 -7 2 -10c-35 -59 -52 -127 -81 -197c-20 -47 -27 -90 -22 -110c-18 6 -34 13 -50 22v32
c-7 -6 -10 -13 -11 -24c-23 17 -42 40 -55 75c0 180 186 426 258 558c6 8 19 14 30 14c10 0 20 -4 31 -7v-24c20 -8 36 -31 36 -53zM153 60c-14 14 -10 -2 -11 -5l-11 -27c-1 -3 2 -13 8 -3zM595 786c0 -75 -150 -119 -207 -119c-12 0 -22 3 -28 7c-17 -2 -50 -6 -67 -7
c9 12 14 24 16 33l38 14l-2 9c-16 -5 -42 -16 -58 -16c-5 0 -10 1 -12 4c55 15 119 47 169 75v11c38 20 87 49 119 71c22 -16 32 -53 32 -82z" />
    <glyph glyph-name="Icircumflex" unicode="&#xce;" horiz-adv-x="360" 
d="M385 547c0 -27 -4 -63 -9 -93h-11c-27 -38 -43 -108 -89 -133l4 -12l-39 -22c-39 -56 -56 -125 -78 -182c-3 -8 -16 -24 -3 -28c3 -1 10 20 11 23c23 52 40 130 76 171c14 5 4 -7 2 -10c-35 -59 -52 -127 -81 -197c-20 -47 -27 -90 -22 -110c-18 6 -34 13 -50 22v32
c-7 -6 -10 -13 -11 -24c-23 17 -42 40 -55 75c0 180 186 426 258 558c6 8 19 14 30 14c10 0 20 -4 31 -7v-24c20 -8 36 -31 36 -53zM153 60c-14 14 -10 -2 -11 -5l-11 -27c-1 -3 2 -13 8 -3zM531 657c-7 -27 -23 -18 -32 -32c-57 23 -50 69 -89 108
c-75 -19 -158 -108 -186 -108c-13 0 -34 28 -61 50c8 14 6 28 -2 39c46 42 173 109 217 129l14 -10l15 7c38 -43 82 -112 116 -164l-11 -9z" />
    <glyph glyph-name="Idieresis" unicode="&#xcf;" horiz-adv-x="360" 
d="M385 547c0 -27 -4 -63 -9 -93h-11c-27 -38 -43 -108 -89 -133l4 -12l-39 -22c-39 -56 -56 -125 -78 -182c-3 -8 -16 -24 -3 -28c3 -1 10 20 11 23c23 52 40 130 76 171c14 5 4 -7 2 -10c-35 -59 -52 -127 -81 -197c-20 -47 -27 -90 -22 -110c-18 6 -34 13 -50 22v32
c-7 -6 -10 -13 -11 -24c-23 17 -42 40 -55 75c0 180 186 426 258 558c6 8 19 14 30 14c10 0 20 -4 31 -7v-24c20 -8 36 -31 36 -53zM153 60c-14 14 -10 -2 -11 -5l-11 -27c-1 -3 2 -13 8 -3zM541 733c-36 -21 -51 -65 -88 -89c-38 0 -63 40 -53 71h-15c1 13 30 115 79 115
c45 0 77 -31 77 -97zM327 715l-88 -90l-15 8l7 30c-12 26 -25 58 -22 92c-9 5 -12 12 -12 20c0 27 33 55 59 55c40 0 71 -44 71 -115z" />
    <glyph glyph-name="Igrave" unicode="&#xcc;" horiz-adv-x="360" 
d="M385 547c0 -27 -4 -63 -9 -93h-11c-27 -38 -43 -108 -89 -133l4 -12l-39 -22c-39 -56 -56 -125 -78 -182c-3 -8 -16 -24 -3 -28c3 -1 10 20 11 23c23 52 40 130 76 171c14 5 4 -7 2 -10c-35 -59 -52 -127 -81 -197c-20 -47 -27 -90 -22 -110c-18 6 -34 13 -50 22v32
c-7 -6 -10 -13 -11 -24c-23 17 -42 40 -55 75c0 180 186 426 258 558c6 8 19 14 30 14c10 0 20 -4 31 -7v-24c20 -8 36 -31 36 -53zM153 60c-14 14 -10 -2 -11 -5l-11 -27c-1 -3 2 -13 8 -3zM507 647c-26 -14 -38 -8 -71 15c-4 -12 22 -26 50 -46l-12 -7
c-35 26 -94 62 -154 89l-9 -6c-39 19 -92 41 -129 54c0 41 53 88 80 88c57 0 199 -92 199 -137c12 -12 35 -37 46 -50z" />
    <glyph glyph-name="Ntilde" unicode="&#xd1;" horiz-adv-x="753" 
d="M522 365c29 45 96 140 155 197c11 7 31 12 52 13c36 1 64 -4 81 -16l-20 -14l2 -4c7 0 26 6 32 10l28 -30c-52 -24 -145 -93 -196 -163c-6 -8 -10 4 -16 0c-2 -36 -23 -55 -47 -93c-5 -9 -3 -22 -9 -36c0 -6 -15 -12 -18 -21c-25 -77 -59 -157 -91 -239l-45 21l-6 -14
c-64 17 -70 42 -79 109c-3 26 5 71 -2 93c-24 70 -1 100 -7 151l-5 39c-31 -10 -66 -40 -92 -87l3 -16c-50 -94 -95 -224 -140 -284h-28c-29 0 -45 67 -57 73l-6 44c-5 31 4 42 11 61c71 172 185 276 264 357c30 -11 112 -62 126 -99c12 -30 24 -93 34 -134
c68 118 168 265 190 273l21 3c-62 -61 -106 -133 -130 -168c-9 -15 -13 -21 -11 -22zM665 400c2 3 -5 9 -7 6c-8 -12 -24 -33 -14 -38zM645 517c1 -2 4 -6 8 -5l17 22l-8 4c-5 -4 -11 -11 -17 -21zM779 538l-19 -14l2 -9c10 7 19 8 17 23zM584 208l-5 -34l-9 6
c1 14 2 33 14 28zM691 436c2 2 -2 11 -7 5l-20 -26c6 1 8 -1 9 -5zM289 486l-8 6l-22 -23c12 -10 23 10 30 17zM743 688c-22 -34 -57 -70 -107 -70c-77 0 -75 62 -99 82c-45 -12 -107 -63 -131 -89c-46 13 -42 39 -40 64c23 21 35 35 31 45c-14 -13 -30 -34 -41 -23
c41 35 95 99 148 99c11 0 26 -7 33 -16c48 0 22 -68 95 -68c22 0 45 15 69 27c-4 -8 -5 -14 -5 -19l16 4l3 -5l-14 -11c10 -8 34 -4 42 -20z" />
    <glyph glyph-name="Oacute" unicode="&#xd3;" horiz-adv-x="654" 
d="M624 300c0 -33 -17 -78 -53 -107c5 -10 -2 -21 -13 -21l-7 13c-8 -2 -14 -6 -8 -17c-11 0 -29 -9 -29 -20c0 -15 -17 -10 -29 -13c-11 -11 -20 -24 -32 -40l-11 10c-26 -16 -12 -27 -39 -40c-16 -8 -35 -7 -53 -11c-3 -3 9 -7 8 -11l-18 -6l-28 17
c-16 -10 -4 -33 -24 -40c-24 -8 -43 -15 -71 -24c-17 17 -37 11 -51 0c-35 22 -78 55 -104 77c-24 19 -32 68 -32 116c0 243 303 400 378 400c29 0 43 -18 74 -42c0 -46 49 -83 90 -111c39 -26 52 -76 52 -130zM365 68c0 7 -5 10 -15 10c0 -3 -4 -10 -2 -12c4 -3 12 0 17 2z
M519 333l-56 65c-3 9 -5 15 -9 11s-8 -6 -11 -6c-7 0 -11 8 -12 8c-53 0 -145 -61 -187 -127c-48 -23 -81 -80 -103 -149c23 2 53 4 71 11l180 75c20 8 63 29 82 53zM409 97l-5 10c-18 -9 -25 -14 -24 -25zM192 258l23 28c-15 9 -33 -5 -35 -16c0 -6 3 -11 12 -12zM189 13
l30 -5c-4 6 -11 11 -18 11c-4 -1 -8 -2 -12 -6zM440 115c-3 3 -5 14 -8 16l-16 -17l4 -11zM666 756c0 -75 -150 -119 -207 -119c-12 0 -22 3 -28 7c-17 -2 -50 -6 -67 -7c9 12 14 24 16 33l38 14l-2 9c-16 -5 -42 -16 -58 -16c-5 0 -10 1 -12 4c55 15 119 47 169 75v11
c38 20 87 49 119 71c22 -16 32 -53 32 -82z" />
    <glyph glyph-name="Ocircumflex" unicode="&#xd4;" horiz-adv-x="654" 
d="M624 300c0 -33 -17 -78 -53 -107c5 -10 -2 -21 -13 -21l-7 13c-8 -2 -14 -6 -8 -17c-11 0 -29 -9 -29 -20c0 -15 -17 -10 -29 -13c-11 -11 -20 -24 -32 -40l-11 10c-26 -16 -12 -27 -39 -40c-16 -8 -35 -7 -53 -11c-3 -3 9 -7 8 -11l-18 -6l-28 17
c-16 -10 -4 -33 -24 -40c-24 -8 -43 -15 -71 -24c-17 17 -37 11 -51 0c-35 22 -78 55 -104 77c-24 19 -32 68 -32 116c0 243 303 400 378 400c29 0 43 -18 74 -42c0 -46 49 -83 90 -111c39 -26 52 -76 52 -130zM365 68c0 7 -5 10 -15 10c0 -3 -4 -10 -2 -12c4 -3 12 0 17 2z
M519 333l-56 65c-3 9 -5 15 -9 11s-8 -6 -11 -6c-7 0 -11 8 -12 8c-53 0 -145 -61 -187 -127c-48 -23 -81 -80 -103 -149c23 2 53 4 71 11l180 75c20 8 63 29 82 53zM409 97l-5 10c-18 -9 -25 -14 -24 -25zM192 258l23 28c-15 9 -33 -5 -35 -16c0 -6 3 -11 12 -12zM189 13
l30 -5c-4 6 -11 11 -18 11c-4 -1 -8 -2 -12 -6zM440 115c-3 3 -5 14 -8 16l-16 -17l4 -11zM635 657c-7 -27 -23 -18 -32 -32c-57 23 -50 69 -89 108c-75 -19 -158 -108 -186 -108c-13 0 -34 28 -61 50c8 14 6 28 -2 39c46 42 173 109 217 129l14 -10l15 7
c38 -43 82 -112 116 -164l-11 -9z" />
    <glyph glyph-name="Odieresis" unicode="&#xd6;" horiz-adv-x="654" 
d="M624 300c0 -33 -17 -78 -53 -107c5 -10 -2 -21 -13 -21l-7 13c-8 -2 -14 -6 -8 -17c-11 0 -29 -9 -29 -20c0 -15 -17 -10 -29 -13c-11 -11 -20 -24 -32 -40l-11 10c-26 -16 -12 -27 -39 -40c-16 -8 -35 -7 -53 -11c-3 -3 9 -7 8 -11l-18 -6l-28 17
c-16 -10 -4 -33 -24 -40c-24 -8 -43 -15 -71 -24c-17 17 -37 11 -51 0c-35 22 -78 55 -104 77c-24 19 -32 68 -32 116c0 243 303 400 378 400c29 0 43 -18 74 -42c0 -46 49 -83 90 -111c39 -26 52 -76 52 -130zM365 68c0 7 -5 10 -15 10c0 -3 -4 -10 -2 -12c4 -3 12 0 17 2z
M519 333l-56 65c-3 9 -5 15 -9 11s-8 -6 -11 -6c-7 0 -11 8 -12 8c-53 0 -145 -61 -187 -127c-48 -23 -81 -80 -103 -149c23 2 53 4 71 11l180 75c20 8 63 29 82 53zM409 97l-5 10c-18 -9 -25 -14 -24 -25zM192 258l23 28c-15 9 -33 -5 -35 -16c0 -6 3 -11 12 -12zM189 13
l30 -5c-4 6 -11 11 -18 11c-4 -1 -8 -2 -12 -6zM440 115c-3 3 -5 14 -8 16l-16 -17l4 -11zM658 718c-36 -21 -51 -65 -88 -89c-38 0 -63 40 -53 71h-15c1 13 30 115 79 115c45 0 77 -31 77 -97zM444 700l-88 -90l-15 8l7 30c-12 26 -25 58 -22 92c-9 5 -12 12 -12 20
c0 27 33 55 59 55c40 0 71 -44 71 -115z" />
    <glyph glyph-name="Ograve" unicode="&#xd2;" horiz-adv-x="654" 
d="M624 300c0 -33 -17 -78 -53 -107c5 -10 -2 -21 -13 -21l-7 13c-8 -2 -14 -6 -8 -17c-11 0 -29 -9 -29 -20c0 -15 -17 -10 -29 -13c-11 -11 -20 -24 -32 -40l-11 10c-26 -16 -12 -27 -39 -40c-16 -8 -35 -7 -53 -11c-3 -3 9 -7 8 -11l-18 -6l-28 17
c-16 -10 -4 -33 -24 -40c-24 -8 -43 -15 -71 -24c-17 17 -37 11 -51 0c-35 22 -78 55 -104 77c-24 19 -32 68 -32 116c0 243 303 400 378 400c29 0 43 -18 74 -42c0 -46 49 -83 90 -111c39 -26 52 -76 52 -130zM365 68c0 7 -5 10 -15 10c0 -3 -4 -10 -2 -12c4 -3 12 0 17 2z
M519 333l-56 65c-3 9 -5 15 -9 11s-8 -6 -11 -6c-7 0 -11 8 -12 8c-53 0 -145 -61 -187 -127c-48 -23 -81 -80 -103 -149c23 2 53 4 71 11l180 75c20 8 63 29 82 53zM409 97l-5 10c-18 -9 -25 -14 -24 -25zM192 258l23 28c-15 9 -33 -5 -35 -16c0 -6 3 -11 12 -12zM189 13
l30 -5c-4 6 -11 11 -18 11c-4 -1 -8 -2 -12 -6zM440 115c-3 3 -5 14 -8 16l-16 -17l4 -11zM628 617c-26 -14 -38 -8 -71 15c-4 -12 22 -26 50 -46l-12 -7c-35 26 -94 62 -154 89l-9 -6c-39 19 -92 41 -129 54c0 41 53 88 80 88c57 0 199 -92 199 -137c12 -12 35 -37 46 -50z
" />
    <glyph glyph-name="Otilde" unicode="&#xd5;" horiz-adv-x="654" 
d="M624 300c0 -33 -17 -78 -53 -107c5 -10 -2 -21 -13 -21l-7 13c-8 -2 -14 -6 -8 -17c-11 0 -29 -9 -29 -20c0 -15 -17 -10 -29 -13c-11 -11 -20 -24 -32 -40l-11 10c-26 -16 -12 -27 -39 -40c-16 -8 -35 -7 -53 -11c-3 -3 9 -7 8 -11l-18 -6l-28 17
c-16 -10 -4 -33 -24 -40c-24 -8 -43 -15 -71 -24c-17 17 -37 11 -51 0c-35 22 -78 55 -104 77c-24 19 -32 68 -32 116c0 243 303 400 378 400c29 0 43 -18 74 -42c0 -46 49 -83 90 -111c39 -26 52 -76 52 -130zM365 68c0 7 -5 10 -15 10c0 -3 -4 -10 -2 -12c4 -3 12 0 17 2z
M519 333l-56 65c-3 9 -5 15 -9 11s-8 -6 -11 -6c-7 0 -11 8 -12 8c-53 0 -145 -61 -187 -127c-48 -23 -81 -80 -103 -149c23 2 53 4 71 11l180 75c20 8 63 29 82 53zM409 97l-5 10c-18 -9 -25 -14 -24 -25zM192 258l23 28c-15 9 -33 -5 -35 -16c0 -6 3 -11 12 -12zM189 13
l30 -5c-4 6 -11 11 -18 11c-4 -1 -8 -2 -12 -6zM440 115c-3 3 -5 14 -8 16l-16 -17l4 -11zM668 693c-22 -34 -57 -70 -107 -70c-77 0 -75 62 -99 82c-45 -12 -107 -63 -131 -89c-46 13 -42 39 -40 64c23 21 35 35 31 45c-14 -13 -30 -34 -41 -23c41 35 95 99 148 99
c11 0 26 -7 33 -16c48 0 22 -68 95 -68c22 0 45 15 69 27c-4 -8 -5 -14 -5 -19l16 4l3 -5l-14 -11c10 -8 34 -4 42 -20z" />
    <glyph glyph-name="Scaron" unicode="&#x160;" horiz-adv-x="515" 
d="M468 589l-1 -12c36 -9 54 -41 51 -79c5 -4 7 -9 7 -14c0 -21 -34 -49 -72 -57c-21 27 12 28 2 39c-101 0 -152 -20 -239 -82v-15l42 -30c43 -30 85 -44 115 -77l11 7c29 -31 46 -69 44 -95l-6 -80l-17 4c-29 -40 -87 -76 -146 -102c-31 13 -48 8 -47 -19
c-48 -18 -91 -27 -109 -27c-14 0 -38 16 -62 39c-40 8 -49 32 -44 50c-13 18 -22 35 -22 46c0 25 17 40 33 52c17 -14 43 -49 61 -49c47 0 140 27 204 83v10c-25 24 -45 68 -63 56c-27 36 -39 51 -57 38c-14 12 -41 36 -46 64c-6 32 -18 69 -17 90c6 82 168 164 295 164
c25 0 58 -1 83 -4zM494 421l-9 7l25 17c0 -12 -3 -13 -16 -24zM290 443v1c-36 -11 -73 -26 -74 -42zM200 -17v12l-35 -15l5 -7zM610 759c-46 -42 -173 -108 -217 -128l-14 10l-15 -8c-38 43 -82 113 -116 165l12 8l-20 11c7 27 23 18 32 32c57 -23 50 -69 89 -108
c75 19 158 107 186 107c13 0 34 -27 61 -49c-8 -14 -6 -29 2 -40z" />
    <glyph glyph-name="Uacute" unicode="&#xda;" horiz-adv-x="655" 
d="M685 473l-14 -50c-20 2 -48 -13 -24 -29c7 -4 -1 -19 -13 -18l-14 7c-13 -24 -29 -56 -16 -57l-11 -21c-19 1 -21 -26 -83 -102l8 -10c25 32 49 66 69 99c7 -9 5 -18 2 -24c-140 -258 -346 -288 -404 -288c-7 0 -7 3 -8 5c0 3 0 5 -7 5s-6 -2 -6 -5c1 -2 2 -5 -5 -5
c-28 0 -41 27 -55 44l-11 -5c-40 24 -58 70 -58 117c0 40 10 82 27 119c46 100 121 280 158 364c12 10 22 14 31 14c22 -1 53 -82 61 -103l14 10v-23c-29 -53 -71 -140 -97 -197c-6 10 -6 16 -1 27c10 3 -4 14 -8 8c-24 -35 1 -53 -9 -74c-4 -9 -9 -19 -14 -31
c-9 4 -19 -7 -24 -17c6 -3 12 0 18 4h1c-7 -15 -15 -34 -21 -48c-4 6 -5 14 2 29l-6 6c-8 -15 -18 -33 -18 -45c0 -7 4 -11 13 -12c-4 -10 -8 -20 -11 -28c204 0 295 152 377 322c3 9 19 4 28 10c9 5 5 14 -11 12c16 36 36 93 40 109c2 9 8 11 16 11c6 0 13 -8 22 -15
c11 -9 24 -14 29 -16c5 -11 7 -31 8 -51c1 -24 4 -46 25 -48zM254 420l-25 -41c-1 -2 -3 -6 -2 -7l13 -8c7 10 24 46 14 56zM226 12c7 0 16 2 23 3c-13 23 -49 15 -39 3c4 -5 9 -6 16 -6zM511 184l-10 10c-15 -15 -28 -28 -18 -41zM426 94c-24 1 -41 -18 -76 -37l2 -10
c21 10 57 33 74 47zM339 40c-3 7 -12 7 -19 5c-17 -6 -41 -3 -39 -26c20 4 40 12 58 21zM666 756c0 -75 -150 -119 -207 -119c-12 0 -22 3 -28 7c-17 -2 -50 -6 -67 -7c9 12 14 24 16 33l38 14l-2 9c-16 -5 -42 -16 -58 -16c-5 0 -10 1 -12 4c55 15 119 47 169 75v11
c38 20 87 49 119 71c22 -16 32 -53 32 -82z" />
    <glyph glyph-name="Ucircumflex" unicode="&#xdb;" horiz-adv-x="655" 
d="M685 473l-14 -50c-20 2 -48 -13 -24 -29c7 -4 -1 -19 -13 -18l-14 7c-13 -24 -29 -56 -16 -57l-11 -21c-19 1 -21 -26 -83 -102l8 -10c25 32 49 66 69 99c7 -9 5 -18 2 -24c-140 -258 -346 -288 -404 -288c-7 0 -7 3 -8 5c0 3 0 5 -7 5s-6 -2 -6 -5c1 -2 2 -5 -5 -5
c-28 0 -41 27 -55 44l-11 -5c-40 24 -58 70 -58 117c0 40 10 82 27 119c46 100 121 280 158 364c12 10 22 14 31 14c22 -1 53 -82 61 -103l14 10v-23c-29 -53 -71 -140 -97 -197c-6 10 -6 16 -1 27c10 3 -4 14 -8 8c-24 -35 1 -53 -9 -74c-4 -9 -9 -19 -14 -31
c-9 4 -19 -7 -24 -17c6 -3 12 0 18 4h1c-7 -15 -15 -34 -21 -48c-4 6 -5 14 2 29l-6 6c-8 -15 -18 -33 -18 -45c0 -7 4 -11 13 -12c-4 -10 -8 -20 -11 -28c204 0 295 152 377 322c3 9 19 4 28 10c9 5 5 14 -11 12c16 36 36 93 40 109c2 9 8 11 16 11c6 0 13 -8 22 -15
c11 -9 24 -14 29 -16c5 -11 7 -31 8 -51c1 -24 4 -46 25 -48zM254 420l-25 -41c-1 -2 -3 -6 -2 -7l13 -8c7 10 24 46 14 56zM226 12c7 0 16 2 23 3c-13 23 -49 15 -39 3c4 -5 9 -6 16 -6zM511 184l-10 10c-15 -15 -28 -28 -18 -41zM426 94c-24 1 -41 -18 -76 -37l2 -10
c21 10 57 33 74 47zM339 40c-3 7 -12 7 -19 5c-17 -6 -41 -3 -39 -26c20 4 40 12 58 21zM687 682c-7 -27 -23 -18 -32 -32c-57 23 -50 69 -89 108c-75 -19 -158 -108 -186 -108c-13 0 -34 28 -61 50c8 14 6 28 -2 39c46 42 173 109 217 129l14 -10l15 7
c38 -43 82 -112 116 -164l-11 -9z" />
    <glyph glyph-name="Udieresis" unicode="&#xdc;" horiz-adv-x="655" 
d="M685 473l-14 -50c-20 2 -48 -13 -24 -29c7 -4 -1 -19 -13 -18l-14 7c-13 -24 -29 -56 -16 -57l-11 -21c-19 1 -21 -26 -83 -102l8 -10c25 32 49 66 69 99c7 -9 5 -18 2 -24c-140 -258 -346 -288 -404 -288c-7 0 -7 3 -8 5c0 3 0 5 -7 5s-6 -2 -6 -5c1 -2 2 -5 -5 -5
c-28 0 -41 27 -55 44l-11 -5c-40 24 -58 70 -58 117c0 40 10 82 27 119c46 100 121 280 158 364c12 10 22 14 31 14c22 -1 53 -82 61 -103l14 10v-23c-29 -53 -71 -140 -97 -197c-6 10 -6 16 -1 27c10 3 -4 14 -8 8c-24 -35 1 -53 -9 -74c-4 -9 -9 -19 -14 -31
c-9 4 -19 -7 -24 -17c6 -3 12 0 18 4h1c-7 -15 -15 -34 -21 -48c-4 6 -5 14 2 29l-6 6c-8 -15 -18 -33 -18 -45c0 -7 4 -11 13 -12c-4 -10 -8 -20 -11 -28c204 0 295 152 377 322c3 9 19 4 28 10c9 5 5 14 -11 12c16 36 36 93 40 109c2 9 8 11 16 11c6 0 13 -8 22 -15
c11 -9 24 -14 29 -16c5 -11 7 -31 8 -51c1 -24 4 -46 25 -48zM254 420l-25 -41c-1 -2 -3 -6 -2 -7l13 -8c7 10 24 46 14 56zM226 12c7 0 16 2 23 3c-13 23 -49 15 -39 3c4 -5 9 -6 16 -6zM511 184l-10 10c-15 -15 -28 -28 -18 -41zM426 94c-24 1 -41 -18 -76 -37l2 -10
c21 10 57 33 74 47zM339 40c-3 7 -12 7 -19 5c-17 -6 -41 -3 -39 -26c20 4 40 12 58 21zM696 733c-36 -21 -51 -65 -88 -89c-38 0 -63 40 -53 71h-15c1 13 30 115 79 115c45 0 77 -31 77 -97zM482 715l-88 -90l-15 8l7 30c-12 26 -25 58 -22 92c-9 5 -12 12 -12 20
c0 27 33 55 59 55c40 0 71 -44 71 -115z" />
    <glyph glyph-name="Ugrave" unicode="&#xd9;" horiz-adv-x="655" 
d="M685 473l-14 -50c-20 2 -48 -13 -24 -29c7 -4 -1 -19 -13 -18l-14 7c-13 -24 -29 -56 -16 -57l-11 -21c-19 1 -21 -26 -83 -102l8 -10c25 32 49 66 69 99c7 -9 5 -18 2 -24c-140 -258 -346 -288 -404 -288c-7 0 -7 3 -8 5c0 3 0 5 -7 5s-6 -2 -6 -5c1 -2 2 -5 -5 -5
c-28 0 -41 27 -55 44l-11 -5c-40 24 -58 70 -58 117c0 40 10 82 27 119c46 100 121 280 158 364c12 10 22 14 31 14c22 -1 53 -82 61 -103l14 10v-23c-29 -53 -71 -140 -97 -197c-6 10 -6 16 -1 27c10 3 -4 14 -8 8c-24 -35 1 -53 -9 -74c-4 -9 -9 -19 -14 -31
c-9 4 -19 -7 -24 -17c6 -3 12 0 18 4h1c-7 -15 -15 -34 -21 -48c-4 6 -5 14 2 29l-6 6c-8 -15 -18 -33 -18 -45c0 -7 4 -11 13 -12c-4 -10 -8 -20 -11 -28c204 0 295 152 377 322c3 9 19 4 28 10c9 5 5 14 -11 12c16 36 36 93 40 109c2 9 8 11 16 11c6 0 13 -8 22 -15
c11 -9 24 -14 29 -16c5 -11 7 -31 8 -51c1 -24 4 -46 25 -48zM254 420l-25 -41c-1 -2 -3 -6 -2 -7l13 -8c7 10 24 46 14 56zM226 12c7 0 16 2 23 3c-13 23 -49 15 -39 3c4 -5 9 -6 16 -6zM511 184l-10 10c-15 -15 -28 -28 -18 -41zM426 94c-24 1 -41 -18 -76 -37l2 -10
c21 10 57 33 74 47zM339 40c-3 7 -12 7 -19 5c-17 -6 -41 -3 -39 -26c20 4 40 12 58 21zM570 657c-26 -14 -38 -8 -71 15c-4 -12 22 -26 50 -46l-12 -7c-35 26 -94 62 -154 89l-9 -6c-39 19 -92 41 -129 54c0 41 53 88 80 88c57 0 199 -92 199 -137c12 -12 35 -37 46 -50z
" />
    <glyph glyph-name="Yacute" unicode="&#xdd;" horiz-adv-x="572" 
d="M388 117l-7 -7l-14 13c-10 -8 -27 -20 -8 -44c-8 -12 -16 -27 -24 -43c-9 -4 -17 -10 -24 -17l8 -20l-4 -7l-12 16c-16 -22 -27 -53 -32 -83l19 -9c-4 -16 -6 -32 -7 -45c-8 -4 -21 -6 -31 -6c-33 0 -58 12 -74 26c-1 10 -7 14 -14 14c-8 10 -11 18 -10 21
c16 84 80 177 121 292l-7 6c-31 0 -56 6 -83 19c-4 -6 -10 -8 -18 0l-66 65h-12c-61 89 -16 193 39 285l14 -6c2 5 4 9 6 11c3 3 6 5 9 5c6 0 56 -21 81 -32l16 -28c-9 -57 -45 -85 -51 -143l-15 -12c-7 -42 -3 -67 21 -98c67 -6 119 25 149 67l106 149l8 -13l40 58
c7 10 16 10 25 3c26 21 48 23 66 14c-1 -12 4 -17 21 -19c11 -15 19 -36 23 -59c-10 -25 -26 -49 -47 -73c-39 6 -43 -12 -56 -39l14 -7c-39 -41 -78 -81 -91 -119l-14 13c-1 -40 -30 -66 -45 -89c-7 -11 -5 -25 -7 -37l-10 7c1 7 1 13 -4 17c-11 -19 -17 -27 1 -46z
M280 -90l-11 5l-3 -17l8 -4zM572 386l-6 12c5 5 14 16 26 10c-6 -7 -13 -15 -20 -22zM364 73l10 -9c-3 -6 -9 -11 -19 -7zM306 -36l-14 -40c-13 9 -4 35 13 41zM648 756c0 -75 -150 -119 -207 -119c-12 0 -22 3 -28 7c-17 -2 -50 -6 -67 -7c9 12 14 24 16 33l38 14l-2 9
c-16 -5 -42 -16 -58 -16c-5 0 -10 1 -12 4c55 15 119 47 169 75v11c38 20 87 49 119 71c22 -16 32 -53 32 -82z" />
    <glyph glyph-name="Ydieresis" unicode="&#x178;" horiz-adv-x="572" 
d="M388 117l-7 -7l-14 13c-10 -8 -27 -20 -8 -44c-8 -12 -16 -27 -24 -43c-9 -4 -17 -10 -24 -17l8 -20l-4 -7l-12 16c-16 -22 -27 -53 -32 -83l19 -9c-4 -16 -6 -32 -7 -45c-8 -4 -21 -6 -31 -6c-33 0 -58 12 -74 26c-1 10 -7 14 -14 14c-8 10 -11 18 -10 21
c16 84 80 177 121 292l-7 6c-31 0 -56 6 -83 19c-4 -6 -10 -8 -18 0l-66 65h-12c-61 89 -16 193 39 285l14 -6c2 5 4 9 6 11c3 3 6 5 9 5c6 0 56 -21 81 -32l16 -28c-9 -57 -45 -85 -51 -143l-15 -12c-7 -42 -3 -67 21 -98c67 -6 119 25 149 67l106 149l8 -13l40 58
c7 10 16 10 25 3c26 21 48 23 66 14c-1 -12 4 -17 21 -19c11 -15 19 -36 23 -59c-10 -25 -26 -49 -47 -73c-39 6 -43 -12 -56 -39l14 -7c-39 -41 -78 -81 -91 -119l-14 13c-1 -40 -30 -66 -45 -89c-7 -11 -5 -25 -7 -37l-10 7c1 7 1 13 -4 17c-11 -19 -17 -27 1 -46z
M280 -90l-11 5l-3 -17l8 -4zM572 386l-6 12c5 5 14 16 26 10c-6 -7 -13 -15 -20 -22zM364 73l10 -9c-3 -6 -9 -11 -19 -7zM306 -36l-14 -40c-13 9 -4 35 13 41zM616 733c-36 -21 -51 -65 -88 -89c-38 0 -63 40 -53 71h-15c1 13 30 115 79 115c45 0 77 -31 77 -97zM402 715
l-88 -90l-15 8l7 30c-12 26 -25 58 -22 92c-9 5 -12 12 -12 20c0 27 33 55 59 55c40 0 71 -44 71 -115z" />
    <glyph glyph-name="Zcaron" unicode="&#x17d;" horiz-adv-x="635" 
d="M724 94l47 1c4 -2 11 -7 11 -14c-63 -2 -140 -7 -203 -19c-20 -4 -15 -19 -30 -31c-3 5 -17 7 -26 5l-2 -12c-38 -4 -35 -3 -73 -10c-33 41 -83 10 -115 -14c-30 0 -59 3 -87 7v-14l-174 22c-33 43 -62 71 -62 105c0 93 261 202 395 315c-52 14 -134 -27 -168 5
c-6 -3 -7 -8 -8 -14c-15 -1 -30 -4 -46 -2s-60 70 -58 83s17 12 9 32c100 39 248 47 327 47c44 0 96 -5 129 -15c10 -29 12 -62 12 -89l12 -11v-15h-15c-16 -57 -86 -77 -124 -135l-8 11c-31 -30 -120 -72 -179 -111l-9 -19c-17 1 -43 -10 -64 -25v-15l-11 -9l-8 8
c-8 -8 -14 -16 -18 -24c55 -3 113 -2 171 0l8 -10l6 10c12 0 25 1 37 2c32 -11 50 -18 47 2c71 14 127 7 199 11c1 -6 -3 -19 -11 -22c-25 -1 -34 -1 -54 -3c-25 -2 -99 -11 -114 -23l1 -5c77 8 200 22 269 22c8 0 12 -2 9 -4c-10 -4 -17 -10 -22 -23zM745 135
c-24 0 -50 -1 -74 -2c-15 9 -15 16 -15 19c26 1 60 0 81 -1c10 -1 10 -10 8 -16zM771 64c5 -2 2 -10 -5 -9c-53 0 -125 -8 -188 -16c8 24 176 32 193 25zM779 136h-21c2 7 4 13 10 14c11 2 17 -5 23 -10c1 -1 -3 -4 -12 -4zM407 6v-1c-20 -2 -33 -3 -47 -4c14 19 32 16 47 5
zM420 448l-11 16l-10 -3l13 -20zM841 85l-44 -3c-4 3 -7 8 -7 13l29 1c11 -1 32 -1 32 -8c0 -2 -4 -3 -10 -3zM680 765c-46 -42 -173 -108 -217 -128l-14 10l-15 -8c-38 43 -82 113 -116 165l12 8l-20 11c7 27 23 18 32 32c57 -23 50 -69 89 -108c75 19 158 107 186 107
c13 0 34 -27 61 -49c-8 -14 -6 -29 2 -40z" />
    <glyph glyph-name="aacute" unicode="&#xe1;" horiz-adv-x="569" 
d="M528 195c-18 -2 -37 -6 -54 -8c-8 -17 -5 -61 -26 -81c14 -8 6 -33 -7 -45c6 -15 10 -26 -11 -54c-1 -4 9 1 11 3c-2 -34 -10 -61 -20 -91c-31 0 -59 30 -75 24c1 20 -2 28 -16 28l1 14c5 0 9 3 10 10c-5 0 -9 3 -9 10c2 23 14 52 20 82c7 0 7 -13 6 -28c7 0 18 41 20 64
l-12 5c-1 -16 -1 -38 -13 -33c3 14 6 49 9 61l17 -21c-1 12 4 15 2 30c-57 2 -208 -79 -253 -110l-5 -13l4 -12c-17 -35 -32 -76 -48 -97l-63 27c-3 31 -46 44 -35 70h-16c22 151 189 313 283 439c47 62 94 104 133 135c7 6 35 -4 37 15c13 -4 41 -16 56 -28l-18 -6
c-1 -17 24 2 29 -2c37 -32 16 -86 35 -115c1 -5 -1 -91 -16 -100c2 -2 3 -2 6 -4c-6 -22 -14 -51 -16 -79c-1 -12 37 -46 34 -90zM447 481l-3 10c-19 -1 -65 -57 -108 -114l-5 5c3 8 6 14 2 18c-16 -18 -23 -27 -14 -46c-15 -20 -29 -38 -42 -54c-18 -23 -45 -66 -68 -99
c20 12 35 33 75 50c35 15 56 19 92 29c3 26 13 45 17 59l17 -15c12 31 26 112 37 157zM399 293h-11c-4 -12 3 -12 10 -11zM398 299l-1 10l-4 1l-4 -11h9zM363 55l-6 -3l-4 -13h6zM222 129c-13 10 -46 -12 -65 -22c-5 -7 -7 -11 -11 -18zM234 135c9 5 24 11 35 18v1
c-22 -1 -31 -3 -35 -19zM434 463l-8 -31h-9l8 27zM167 125c4 2 27 10 33 24c-8 -3 -14 -4 -21 -7zM650 776c0 -75 -150 -119 -207 -119c-12 0 -22 3 -28 7c-17 -2 -50 -6 -67 -7c9 12 14 24 16 33l38 14l-2 9c-16 -5 -42 -16 -58 -16c-5 0 -10 1 -12 4c55 15 119 47 169 75
v11c38 20 87 49 119 71c22 -16 32 -53 32 -82z" />
    <glyph glyph-name="acircumflex" unicode="&#xe2;" horiz-adv-x="569" 
d="M528 195c-18 -2 -37 -6 -54 -8c-8 -17 -5 -61 -26 -81c14 -8 6 -33 -7 -45c6 -15 10 -26 -11 -54c-1 -4 9 1 11 3c-2 -34 -10 -61 -20 -91c-31 0 -59 30 -75 24c1 20 -2 28 -16 28l1 14c5 0 9 3 10 10c-5 0 -9 3 -9 10c2 23 14 52 20 82c7 0 7 -13 6 -28c7 0 18 41 20 64
l-12 5c-1 -16 -1 -38 -13 -33c3 14 6 49 9 61l17 -21c-1 12 4 15 2 30c-57 2 -208 -79 -253 -110l-5 -13l4 -12c-17 -35 -32 -76 -48 -97l-63 27c-3 31 -46 44 -35 70h-16c22 151 189 313 283 439c47 62 94 104 133 135c7 6 35 -4 37 15c13 -4 41 -16 56 -28l-18 -6
c-1 -17 24 2 29 -2c37 -32 16 -86 35 -115c1 -5 -1 -91 -16 -100c2 -2 3 -2 6 -4c-6 -22 -14 -51 -16 -79c-1 -12 37 -46 34 -90zM447 481l-3 10c-19 -1 -65 -57 -108 -114l-5 5c3 8 6 14 2 18c-16 -18 -23 -27 -14 -46c-15 -20 -29 -38 -42 -54c-18 -23 -45 -66 -68 -99
c20 12 35 33 75 50c35 15 56 19 92 29c3 26 13 45 17 59l17 -15c12 31 26 112 37 157zM399 293h-11c-4 -12 3 -12 10 -11zM398 299l-1 10l-4 1l-4 -11h9zM363 55l-6 -3l-4 -13h6zM222 129c-13 10 -46 -12 -65 -22c-5 -7 -7 -11 -11 -18zM234 135c9 5 24 11 35 18v1
c-22 -1 -31 -3 -35 -19zM434 463l-8 -31h-9l8 27zM167 125c4 2 27 10 33 24c-8 -3 -14 -4 -21 -7zM631 657c-7 -27 -23 -18 -32 -32c-57 23 -50 69 -89 108c-75 -19 -158 -108 -186 -108c-13 0 -34 28 -61 50c8 14 6 28 -2 39c46 42 173 109 217 129l14 -10l15 7
c38 -43 82 -112 116 -164l-11 -9z" />
    <glyph glyph-name="adieresis" unicode="&#xe4;" horiz-adv-x="569" 
d="M528 195c-18 -2 -37 -6 -54 -8c-8 -17 -5 -61 -26 -81c14 -8 6 -33 -7 -45c6 -15 10 -26 -11 -54c-1 -4 9 1 11 3c-2 -34 -10 -61 -20 -91c-31 0 -59 30 -75 24c1 20 -2 28 -16 28l1 14c5 0 9 3 10 10c-5 0 -9 3 -9 10c2 23 14 52 20 82c7 0 7 -13 6 -28c7 0 18 41 20 64
l-12 5c-1 -16 -1 -38 -13 -33c3 14 6 49 9 61l17 -21c-1 12 4 15 2 30c-57 2 -208 -79 -253 -110l-5 -13l4 -12c-17 -35 -32 -76 -48 -97l-63 27c-3 31 -46 44 -35 70h-16c22 151 189 313 283 439c47 62 94 104 133 135c7 6 35 -4 37 15c13 -4 41 -16 56 -28l-18 -6
c-1 -17 24 2 29 -2c37 -32 16 -86 35 -115c1 -5 -1 -91 -16 -100c2 -2 3 -2 6 -4c-6 -22 -14 -51 -16 -79c-1 -12 37 -46 34 -90zM447 481l-3 10c-19 -1 -65 -57 -108 -114l-5 5c3 8 6 14 2 18c-16 -18 -23 -27 -14 -46c-15 -20 -29 -38 -42 -54c-18 -23 -45 -66 -68 -99
c20 12 35 33 75 50c35 15 56 19 92 29c3 26 13 45 17 59l17 -15c12 31 26 112 37 157zM399 293h-11c-4 -12 3 -12 10 -11zM398 299l-1 10l-4 1l-4 -11h9zM363 55l-6 -3l-4 -13h6zM222 129c-13 10 -46 -12 -65 -22c-5 -7 -7 -11 -11 -18zM234 135c9 5 24 11 35 18v1
c-22 -1 -31 -3 -35 -19zM434 463l-8 -31h-9l8 27zM167 125c4 2 27 10 33 24c-8 -3 -14 -4 -21 -7zM650 733c-36 -21 -51 -65 -88 -89c-38 0 -63 40 -53 71h-15c1 13 30 115 79 115c45 0 77 -31 77 -97zM436 715l-88 -90l-15 8l7 30c-12 26 -25 58 -22 92c-9 5 -12 12 -12 20
c0 27 33 55 59 55c40 0 71 -44 71 -115z" />
    <glyph glyph-name="agrave" unicode="&#xe0;" horiz-adv-x="569" 
d="M528 195c-18 -2 -37 -6 -54 -8c-8 -17 -5 -61 -26 -81c14 -8 6 -33 -7 -45c6 -15 10 -26 -11 -54c-1 -4 9 1 11 3c-2 -34 -10 -61 -20 -91c-31 0 -59 30 -75 24c1 20 -2 28 -16 28l1 14c5 0 9 3 10 10c-5 0 -9 3 -9 10c2 23 14 52 20 82c7 0 7 -13 6 -28c7 0 18 41 20 64
l-12 5c-1 -16 -1 -38 -13 -33c3 14 6 49 9 61l17 -21c-1 12 4 15 2 30c-57 2 -208 -79 -253 -110l-5 -13l4 -12c-17 -35 -32 -76 -48 -97l-63 27c-3 31 -46 44 -35 70h-16c22 151 189 313 283 439c47 62 94 104 133 135c7 6 35 -4 37 15c13 -4 41 -16 56 -28l-18 -6
c-1 -17 24 2 29 -2c37 -32 16 -86 35 -115c1 -5 -1 -91 -16 -100c2 -2 3 -2 6 -4c-6 -22 -14 -51 -16 -79c-1 -12 37 -46 34 -90zM447 481l-3 10c-19 -1 -65 -57 -108 -114l-5 5c3 8 6 14 2 18c-16 -18 -23 -27 -14 -46c-15 -20 -29 -38 -42 -54c-18 -23 -45 -66 -68 -99
c20 12 35 33 75 50c35 15 56 19 92 29c3 26 13 45 17 59l17 -15c12 31 26 112 37 157zM399 293h-11c-4 -12 3 -12 10 -11zM398 299l-1 10l-4 1l-4 -11h9zM363 55l-6 -3l-4 -13h6zM222 129c-13 10 -46 -12 -65 -22c-5 -7 -7 -11 -11 -18zM234 135c9 5 24 11 35 18v1
c-22 -1 -31 -3 -35 -19zM434 463l-8 -31h-9l8 27zM167 125c4 2 27 10 33 24c-8 -3 -14 -4 -21 -7zM629 647c-26 -14 -38 -8 -71 15c-4 -12 22 -26 50 -46l-12 -7c-35 26 -94 62 -154 89l-9 -6c-39 19 -92 41 -129 54c0 41 53 88 80 88c57 0 199 -92 199 -137
c12 -12 35 -37 46 -50z" />
    <glyph glyph-name="aring" unicode="&#xe5;" horiz-adv-x="569" 
d="M528 195c-18 -2 -37 -6 -54 -8c-8 -17 -5 -61 -26 -81c14 -8 6 -33 -7 -45c6 -15 10 -26 -11 -54c-1 -4 9 1 11 3c-2 -34 -10 -61 -20 -91c-31 0 -59 30 -75 24c1 20 -2 28 -16 28l1 14c5 0 9 3 10 10c-5 0 -9 3 -9 10c2 23 14 52 20 82c7 0 7 -13 6 -28c7 0 18 41 20 64
l-12 5c-1 -16 -1 -38 -13 -33c3 14 6 49 9 61l17 -21c-1 12 4 15 2 30c-57 2 -208 -79 -253 -110l-5 -13l4 -12c-17 -35 -32 -76 -48 -97l-63 27c-3 31 -46 44 -35 70h-16c22 151 189 313 283 439c47 62 94 104 133 135c7 6 35 -4 37 15c13 -4 41 -16 56 -28l-18 -6
c-1 -17 24 2 29 -2c37 -32 16 -86 35 -115c1 -5 -1 -91 -16 -100c2 -2 3 -2 6 -4c-6 -22 -14 -51 -16 -79c-1 -12 37 -46 34 -90zM447 481l-3 10c-19 -1 -65 -57 -108 -114l-5 5c3 8 6 14 2 18c-16 -18 -23 -27 -14 -46c-15 -20 -29 -38 -42 -54c-18 -23 -45 -66 -68 -99
c20 12 35 33 75 50c35 15 56 19 92 29c3 26 13 45 17 59l17 -15c12 31 26 112 37 157zM399 293h-11c-4 -12 3 -12 10 -11zM398 299l-1 10l-4 1l-4 -11h9zM363 55l-6 -3l-4 -13h6zM222 129c-13 10 -46 -12 -65 -22c-5 -7 -7 -11 -11 -18zM234 135c9 5 24 11 35 18v1
c-22 -1 -31 -3 -35 -19zM431 662l-12 -24c-50 8 -74 59 -74 106c21 31 44 55 67 75h23c5 8 2 12 -3 15c32 22 63 34 87 37c11 -14 26 -13 25 -2c37 -8 92 -42 92 -109l-12 -15c0 -65 -41 -93 -152 -118c-18 12 -33 21 -41 35zM561 788c-36 15 -152 -41 -152 -84
c0 -8 6 -17 17 -29h1c-2 9 -1 21 3 36c40 5 88 15 116 37zM434 463l-8 -31h-9l8 27zM167 125c4 2 27 10 33 24c-8 -3 -14 -4 -21 -7z" />
    <glyph glyph-name="atilde" unicode="&#xe3;" horiz-adv-x="569" 
d="M528 195c-18 -2 -37 -6 -54 -8c-8 -17 -5 -61 -26 -81c14 -8 6 -33 -7 -45c6 -15 10 -26 -11 -54c-1 -4 9 1 11 3c-2 -34 -10 -61 -20 -91c-31 0 -59 30 -75 24c1 20 -2 28 -16 28l1 14c5 0 9 3 10 10c-5 0 -9 3 -9 10c2 23 14 52 20 82c7 0 7 -13 6 -28c7 0 18 41 20 64
l-12 5c-1 -16 -1 -38 -13 -33c3 14 6 49 9 61l17 -21c-1 12 4 15 2 30c-57 2 -208 -79 -253 -110l-5 -13l4 -12c-17 -35 -32 -76 -48 -97l-63 27c-3 31 -46 44 -35 70h-16c22 151 189 313 283 439c47 62 94 104 133 135c7 6 35 -4 37 15c13 -4 41 -16 56 -28l-18 -6
c-1 -17 24 2 29 -2c37 -32 16 -86 35 -115c1 -5 -1 -91 -16 -100c2 -2 3 -2 6 -4c-6 -22 -14 -51 -16 -79c-1 -12 37 -46 34 -90zM447 481l-3 10c-19 -1 -65 -57 -108 -114l-5 5c3 8 6 14 2 18c-16 -18 -23 -27 -14 -46c-15 -20 -29 -38 -42 -54c-18 -23 -45 -66 -68 -99
c20 12 35 33 75 50c35 15 56 19 92 29c3 26 13 45 17 59l17 -15c12 31 26 112 37 157zM399 293h-11c-4 -12 3 -12 10 -11zM398 299l-1 10l-4 1l-4 -11h9zM363 55l-6 -3l-4 -13h6zM222 129c-13 10 -46 -12 -65 -22c-5 -7 -7 -11 -11 -18zM234 135c9 5 24 11 35 18v1
c-22 -1 -31 -3 -35 -19zM434 463l-8 -31h-9l8 27zM167 125c4 2 27 10 33 24c-8 -3 -14 -4 -21 -7zM671 713c-22 -34 -57 -70 -107 -70c-77 0 -75 62 -99 82c-45 -12 -107 -63 -131 -89c-46 13 -42 39 -40 64c23 21 35 35 31 45c-14 -13 -30 -34 -41 -23c41 35 95 99 148 99
c11 0 26 -7 33 -16c48 0 22 -68 95 -68c22 0 45 15 69 27c-4 -8 -5 -14 -5 -19l16 4l3 -5l-14 -11c10 -8 34 -4 42 -20z" />
    <glyph glyph-name="ccedilla" unicode="&#xe7;" horiz-adv-x="534" 
d="M269 -114c0 -56 -43 -108 -108 -147h-25l10 -9c-7 -4 -13 -7 -21 -11c-9 12 -22 8 -25 -11c-10 -5 -22 -8 -33 -12c12 24 20 36 1 45c34 27 104 78 104 112c-23 21 -55 23 -62 57l45 70c-3 1 -5 2 -7 2c-24 0 -30 25 -62 21c-18 17 -56 81 -64 96c-5 8 -7 23 -7 34v27
c16 14 17 35 17 56l10 -6c7 11 -1 25 4 36c21 42 61 109 74 109s-6 -15 8 -15c11 0 32 52 43 52h12c-3 7 -4 19 -5 28h7c26 63 217 176 252 176c12 0 36 -11 51 -19c14 -33 42 -59 35 -100c-41 -10 -90 -30 -125 -55c-29 -21 -51 -45 -63 -56l-6 10c-11 -18 -49 -48 -77 -73
c-1 -5 -4 -16 -7 -21c-18 -19 -117 -133 -117 -182c0 -12 5 -19 16 -19c36 0 119 24 179 33c14 2 25 -4 30 -10c-48 -10 -116 -22 -127 -42c19 -12 52 -4 67 11c53 10 120 24 171 31l16 -4l24 3l11 -7l-52 -8c-13 -2 -27 -6 -18 -19l7 -10c-9 -4 -120 -37 -186 -58
c-11 -4 -18 -14 -12 -21l-34 -8l-10 -23c21 -19 59 -33 59 -63zM387 22v-1c-18 -10 -37 -22 -54 -22c-5 0 -10 1 -15 3c19 8 46 13 69 20zM291 -17c-5 0 -11 2 -17 4l33 11c13 -9 0 -15 -16 -15zM127 331c-8 3 -13 1 -18 -8l10 -6zM174 218l-9 5l-12 -19
c-4 -7 -15 -23 -10 -32zM134 158h-10l-7 -14l6 -8zM495 74l-30 -10l-10 12l27 4zM356 118v1c44 7 84 14 112 16c-5 -17 -39 -23 -68 -23c-19 0 -36 2 -44 6zM212 286l9 -6c21 21 21 25 21 29c-10 0 -19 -10 -30 -23zM216 274l-9 6l-6 -10l7 -6zM113 307l-8 9l-14 -23l9 -7z
" />
    <glyph glyph-name="eacute" unicode="&#xe9;" horiz-adv-x="537" 
d="M570 491c2 -10 -16 -16 -26 -24c-91 -41 -184 -44 -272 -69c-11 -18 -25 -41 -42 -68c40 4 123 38 152 38s38 -10 59 -46c-4 -11 1 -21 11 -26l-7 -22c-61 -10 -210 -34 -260 -56c-26 -11 -49 -121 -50 -144c31 -23 78 -13 107 -6l6 -10c7 0 16 6 16 12
c15 2 20 -22 34 -18c65 18 142 44 192 60c3 1 7 2 8 -1c2 -5 -13 -12 -21 -16l-68 -25c6 -4 17 -11 24 -15c3 -1 1 -3 -2 -4c-50 -17 -112 -34 -168 -48c15 -7 37 -7 56 -2c40 11 95 30 144 47c3 1 10 4 5 -6c-6 -10 -14 -17 -28 -22c-65 -25 -149 -55 -210 -55
c-117 0 -200 53 -196 199c2 74 63 165 136 318c-5 25 -4 49 14 76c50 -6 79 71 114 71c19 0 72 -15 85 -19c1 -22 -4 -45 -18 -72c17 -4 65 -9 87 -9l9 -19c5 0 14 6 25 6s35 -10 49 -12c2 0 4 -2 2 -4c-40 -36 -68 -14 -61 -44c30 12 55 19 83 32c4 2 10 9 11 3zM487 494
c-1 5 -15 6 -21 4l3 -12zM139 193v-11h1c6 8 14 16 18 26c-13 1 -17 -5 -19 -15zM129 108l-8 10c-4 -18 -5 -31 3 -37zM429 114c-12 -14 -38 -21 -57 -20c-28 -21 -63 -35 -75 -16c46 10 92 25 129 40c4 2 5 -1 3 -4zM255 397l-13 -3l-17 -28l13 3zM219 352
c-7 0 -20 -14 -23 -25l13 2zM147 176l-10 -1l-11 -37l7 -9zM581 781c0 -75 -150 -119 -207 -119c-12 0 -22 3 -28 7c-17 -2 -50 -6 -67 -7c9 12 14 24 16 33l38 14l-2 9c-16 -5 -42 -16 -58 -16c-5 0 -10 1 -12 4c55 15 119 47 169 75v11c38 20 87 49 119 71
c22 -16 32 -53 32 -82z" />
    <glyph glyph-name="ecircumflex" unicode="&#xea;" horiz-adv-x="537" 
d="M570 491c2 -10 -16 -16 -26 -24c-91 -41 -184 -44 -272 -69c-11 -18 -25 -41 -42 -68c40 4 123 38 152 38s38 -10 59 -46c-4 -11 1 -21 11 -26l-7 -22c-61 -10 -210 -34 -260 -56c-26 -11 -49 -121 -50 -144c31 -23 78 -13 107 -6l6 -10c7 0 16 6 16 12
c15 2 20 -22 34 -18c65 18 142 44 192 60c3 1 7 2 8 -1c2 -5 -13 -12 -21 -16l-68 -25c6 -4 17 -11 24 -15c3 -1 1 -3 -2 -4c-50 -17 -112 -34 -168 -48c15 -7 37 -7 56 -2c40 11 95 30 144 47c3 1 10 4 5 -6c-6 -10 -14 -17 -28 -22c-65 -25 -149 -55 -210 -55
c-117 0 -200 53 -196 199c2 74 63 165 136 318c-5 25 -4 49 14 76c50 -6 79 71 114 71c19 0 72 -15 85 -19c1 -22 -4 -45 -18 -72c17 -4 65 -9 87 -9l9 -19c5 0 14 6 25 6s35 -10 49 -12c2 0 4 -2 2 -4c-40 -36 -68 -14 -61 -44c30 12 55 19 83 32c4 2 10 9 11 3zM487 494
c-1 5 -15 6 -21 4l3 -12zM139 193v-11h1c6 8 14 16 18 26c-13 1 -17 -5 -19 -15zM129 108l-8 10c-4 -18 -5 -31 3 -37zM429 114c-12 -14 -38 -21 -57 -20c-28 -21 -63 -35 -75 -16c46 10 92 25 129 40c4 2 5 -1 3 -4zM255 397l-13 -3l-17 -28l13 3zM219 352
c-7 0 -20 -14 -23 -25l13 2zM147 176l-10 -1l-11 -37l7 -9zM545 677c-7 -27 -23 -18 -32 -32c-57 23 -50 69 -89 108c-75 -19 -158 -108 -186 -108c-13 0 -34 28 -61 50c8 14 6 28 -2 39c46 42 173 109 217 129l14 -10l15 7c38 -43 82 -112 116 -164l-11 -9z" />
    <glyph glyph-name="edieresis" unicode="&#xeb;" horiz-adv-x="537" 
d="M570 491c2 -10 -16 -16 -26 -24c-91 -41 -184 -44 -272 -69c-11 -18 -25 -41 -42 -68c40 4 123 38 152 38s38 -10 59 -46c-4 -11 1 -21 11 -26l-7 -22c-61 -10 -210 -34 -260 -56c-26 -11 -49 -121 -50 -144c31 -23 78 -13 107 -6l6 -10c7 0 16 6 16 12
c15 2 20 -22 34 -18c65 18 142 44 192 60c3 1 7 2 8 -1c2 -5 -13 -12 -21 -16l-68 -25c6 -4 17 -11 24 -15c3 -1 1 -3 -2 -4c-50 -17 -112 -34 -168 -48c15 -7 37 -7 56 -2c40 11 95 30 144 47c3 1 10 4 5 -6c-6 -10 -14 -17 -28 -22c-65 -25 -149 -55 -210 -55
c-117 0 -200 53 -196 199c2 74 63 165 136 318c-5 25 -4 49 14 76c50 -6 79 71 114 71c19 0 72 -15 85 -19c1 -22 -4 -45 -18 -72c17 -4 65 -9 87 -9l9 -19c5 0 14 6 25 6s35 -10 49 -12c2 0 4 -2 2 -4c-40 -36 -68 -14 -61 -44c30 12 55 19 83 32c4 2 10 9 11 3zM487 494
c-1 5 -15 6 -21 4l3 -12zM139 193v-11h1c6 8 14 16 18 26c-13 1 -17 -5 -19 -15zM129 108l-8 10c-4 -18 -5 -31 3 -37zM429 114c-12 -14 -38 -21 -57 -20c-28 -21 -63 -35 -75 -16c46 10 92 25 129 40c4 2 5 -1 3 -4zM255 397l-13 -3l-17 -28l13 3zM219 352
c-7 0 -20 -14 -23 -25l13 2zM147 176l-10 -1l-11 -37l7 -9zM538 733c-36 -21 -51 -65 -88 -89c-38 0 -63 40 -53 71h-15c1 13 30 115 79 115c45 0 77 -31 77 -97zM324 715l-88 -90l-15 8l7 30c-12 26 -25 58 -22 92c-9 5 -12 12 -12 20c0 27 33 55 59 55
c40 0 71 -44 71 -115z" />
    <glyph glyph-name="egrave" unicode="&#xe8;" horiz-adv-x="537" 
d="M570 491c2 -10 -16 -16 -26 -24c-91 -41 -184 -44 -272 -69c-11 -18 -25 -41 -42 -68c40 4 123 38 152 38s38 -10 59 -46c-4 -11 1 -21 11 -26l-7 -22c-61 -10 -210 -34 -260 -56c-26 -11 -49 -121 -50 -144c31 -23 78 -13 107 -6l6 -10c7 0 16 6 16 12
c15 2 20 -22 34 -18c65 18 142 44 192 60c3 1 7 2 8 -1c2 -5 -13 -12 -21 -16l-68 -25c6 -4 17 -11 24 -15c3 -1 1 -3 -2 -4c-50 -17 -112 -34 -168 -48c15 -7 37 -7 56 -2c40 11 95 30 144 47c3 1 10 4 5 -6c-6 -10 -14 -17 -28 -22c-65 -25 -149 -55 -210 -55
c-117 0 -200 53 -196 199c2 74 63 165 136 318c-5 25 -4 49 14 76c50 -6 79 71 114 71c19 0 72 -15 85 -19c1 -22 -4 -45 -18 -72c17 -4 65 -9 87 -9l9 -19c5 0 14 6 25 6s35 -10 49 -12c2 0 4 -2 2 -4c-40 -36 -68 -14 -61 -44c30 12 55 19 83 32c4 2 10 9 11 3zM487 494
c-1 5 -15 6 -21 4l3 -12zM139 193v-11h1c6 8 14 16 18 26c-13 1 -17 -5 -19 -15zM129 108l-8 10c-4 -18 -5 -31 3 -37zM563 647c-26 -14 -38 -8 -71 15c-4 -12 22 -26 50 -46l-12 -7c-35 26 -94 62 -154 89l-9 -6c-39 19 -92 41 -129 54c0 41 53 88 80 88
c57 0 199 -92 199 -137c12 -12 35 -37 46 -50zM429 114c-12 -14 -38 -21 -57 -20c-28 -21 -63 -35 -75 -16c46 10 92 25 129 40c4 2 5 -1 3 -4zM255 397l-13 -3l-17 -28l13 3zM219 352c-7 0 -20 -14 -23 -25l13 2zM147 176l-10 -1l-11 -37l7 -9z" />
    <glyph glyph-name="iacute" unicode="&#xed;" horiz-adv-x="360" 
d="M385 547c0 -27 -4 -63 -9 -93h-11c-27 -38 -43 -108 -89 -133l4 -12l-39 -22c-39 -56 -56 -125 -78 -182c-3 -8 -16 -24 -3 -28c3 -1 10 20 11 23c23 52 40 130 76 171c14 5 4 -7 2 -10c-35 -59 -52 -127 -81 -197c-20 -47 -27 -90 -22 -110c-18 6 -34 13 -50 22v32
c-7 -6 -10 -13 -11 -24c-23 17 -42 40 -55 75c0 180 186 426 258 558c6 8 19 14 30 14c10 0 20 -4 31 -7v-24c20 -8 36 -31 36 -53zM153 60c-14 14 -10 -2 -11 -5l-11 -27c-1 -3 2 -13 8 -3zM595 786c0 -75 -150 -119 -207 -119c-12 0 -22 3 -28 7c-17 -2 -50 -6 -67 -7
c9 12 14 24 16 33l38 14l-2 9c-16 -5 -42 -16 -58 -16c-5 0 -10 1 -12 4c55 15 119 47 169 75v11c38 20 87 49 119 71c22 -16 32 -53 32 -82z" />
    <glyph glyph-name="icircumflex" unicode="&#xee;" horiz-adv-x="360" 
d="M385 547c0 -27 -4 -63 -9 -93h-11c-27 -38 -43 -108 -89 -133l4 -12l-39 -22c-39 -56 -56 -125 -78 -182c-3 -8 -16 -24 -3 -28c3 -1 10 20 11 23c23 52 40 130 76 171c14 5 4 -7 2 -10c-35 -59 -52 -127 -81 -197c-20 -47 -27 -90 -22 -110c-18 6 -34 13 -50 22v32
c-7 -6 -10 -13 -11 -24c-23 17 -42 40 -55 75c0 180 186 426 258 558c6 8 19 14 30 14c10 0 20 -4 31 -7v-24c20 -8 36 -31 36 -53zM153 60c-14 14 -10 -2 -11 -5l-11 -27c-1 -3 2 -13 8 -3zM531 657c-7 -27 -23 -18 -32 -32c-57 23 -50 69 -89 108
c-75 -19 -158 -108 -186 -108c-13 0 -34 28 -61 50c8 14 6 28 -2 39c46 42 173 109 217 129l14 -10l15 7c38 -43 82 -112 116 -164l-11 -9z" />
    <glyph glyph-name="idieresis" unicode="&#xef;" horiz-adv-x="360" 
d="M385 547c0 -27 -4 -63 -9 -93h-11c-27 -38 -43 -108 -89 -133l4 -12l-39 -22c-39 -56 -56 -125 -78 -182c-3 -8 -16 -24 -3 -28c3 -1 10 20 11 23c23 52 40 130 76 171c14 5 4 -7 2 -10c-35 -59 -52 -127 -81 -197c-20 -47 -27 -90 -22 -110c-18 6 -34 13 -50 22v32
c-7 -6 -10 -13 -11 -24c-23 17 -42 40 -55 75c0 180 186 426 258 558c6 8 19 14 30 14c10 0 20 -4 31 -7v-24c20 -8 36 -31 36 -53zM153 60c-14 14 -10 -2 -11 -5l-11 -27c-1 -3 2 -13 8 -3zM541 733c-36 -21 -51 -65 -88 -89c-38 0 -63 40 -53 71h-15c1 13 30 115 79 115
c45 0 77 -31 77 -97zM327 715l-88 -90l-15 8l7 30c-12 26 -25 58 -22 92c-9 5 -12 12 -12 20c0 27 33 55 59 55c40 0 71 -44 71 -115z" />
    <glyph glyph-name="igrave" unicode="&#xec;" horiz-adv-x="360" 
d="M385 547c0 -27 -4 -63 -9 -93h-11c-27 -38 -43 -108 -89 -133l4 -12l-39 -22c-39 -56 -56 -125 -78 -182c-3 -8 -16 -24 -3 -28c3 -1 10 20 11 23c23 52 40 130 76 171c14 5 4 -7 2 -10c-35 -59 -52 -127 -81 -197c-20 -47 -27 -90 -22 -110c-18 6 -34 13 -50 22v32
c-7 -6 -10 -13 -11 -24c-23 17 -42 40 -55 75c0 180 186 426 258 558c6 8 19 14 30 14c10 0 20 -4 31 -7v-24c20 -8 36 -31 36 -53zM153 60c-14 14 -10 -2 -11 -5l-11 -27c-1 -3 2 -13 8 -3zM507 647c-26 -14 -38 -8 -71 15c-4 -12 22 -26 50 -46l-12 -7
c-35 26 -94 62 -154 89l-9 -6c-39 19 -92 41 -129 54c0 41 53 88 80 88c57 0 199 -92 199 -137c12 -12 35 -37 46 -50z" />
    <glyph glyph-name="ntilde" unicode="&#xf1;" horiz-adv-x="753" 
d="M522 365c29 45 96 140 155 197c11 7 31 12 52 13c36 1 64 -4 81 -16l-20 -14l2 -4c7 0 26 6 32 10l28 -30c-52 -24 -145 -93 -196 -163c-6 -8 -10 4 -16 0c-2 -36 -23 -55 -47 -93c-5 -9 -3 -22 -9 -36c0 -6 -15 -12 -18 -21c-25 -77 -59 -157 -91 -239l-45 21l-6 -14
c-64 17 -70 42 -79 109c-3 26 5 71 -2 93c-24 70 -1 100 -7 151l-5 39c-31 -10 -66 -40 -92 -87l3 -16c-50 -94 -95 -224 -140 -284h-28c-29 0 -45 67 -57 73l-6 44c-5 31 4 42 11 61c71 172 185 276 264 357c30 -11 112 -62 126 -99c12 -30 24 -93 34 -134
c68 118 168 265 190 273l21 3c-62 -61 -106 -133 -130 -168c-9 -15 -13 -21 -11 -22zM665 400c2 3 -5 9 -7 6c-8 -12 -24 -33 -14 -38zM645 517c1 -2 4 -6 8 -5l17 22l-8 4c-5 -4 -11 -11 -17 -21zM779 538l-19 -14l2 -9c10 7 19 8 17 23zM584 208l-5 -34l-9 6
c1 14 2 33 14 28zM691 436c2 2 -2 11 -7 5l-20 -26c6 1 8 -1 9 -5zM289 486l-8 6l-22 -23c12 -10 23 10 30 17zM743 688c-22 -34 -57 -70 -107 -70c-77 0 -75 62 -99 82c-45 -12 -107 -63 -131 -89c-46 13 -42 39 -40 64c23 21 35 35 31 45c-14 -13 -30 -34 -41 -23
c41 35 95 99 148 99c11 0 26 -7 33 -16c48 0 22 -68 95 -68c22 0 45 15 69 27c-4 -8 -5 -14 -5 -19l16 4l3 -5l-14 -11c10 -8 34 -4 42 -20z" />
    <glyph glyph-name="oacute" unicode="&#xf3;" horiz-adv-x="654" 
d="M624 300c0 -33 -17 -78 -53 -107c5 -10 -2 -21 -13 -21l-7 13c-8 -2 -14 -6 -8 -17c-11 0 -29 -9 -29 -20c0 -15 -17 -10 -29 -13c-11 -11 -20 -24 -32 -40l-11 10c-26 -16 -12 -27 -39 -40c-16 -8 -35 -7 -53 -11c-3 -3 9 -7 8 -11l-18 -6l-28 17
c-16 -10 -4 -33 -24 -40c-24 -8 -43 -15 -71 -24c-17 17 -37 11 -51 0c-35 22 -78 55 -104 77c-24 19 -32 68 -32 116c0 243 303 400 378 400c29 0 43 -18 74 -42c0 -46 49 -83 90 -111c39 -26 52 -76 52 -130zM365 68c0 7 -5 10 -15 10c0 -3 -4 -10 -2 -12c4 -3 12 0 17 2z
M519 333l-56 65c-3 9 -5 15 -9 11s-8 -6 -11 -6c-7 0 -11 8 -12 8c-53 0 -145 -61 -187 -127c-48 -23 -81 -80 -103 -149c23 2 53 4 71 11l180 75c20 8 63 29 82 53zM409 97l-5 10c-18 -9 -25 -14 -24 -25zM192 258l23 28c-15 9 -33 -5 -35 -16c0 -6 3 -11 12 -12zM189 13
l30 -5c-4 6 -11 11 -18 11c-4 -1 -8 -2 -12 -6zM440 115c-3 3 -5 14 -8 16l-16 -17l4 -11zM666 756c0 -75 -150 -119 -207 -119c-12 0 -22 3 -28 7c-17 -2 -50 -6 -67 -7c9 12 14 24 16 33l38 14l-2 9c-16 -5 -42 -16 -58 -16c-5 0 -10 1 -12 4c55 15 119 47 169 75v11
c38 20 87 49 119 71c22 -16 32 -53 32 -82z" />
    <glyph glyph-name="ocircumflex" unicode="&#xf4;" horiz-adv-x="654" 
d="M624 300c0 -33 -17 -78 -53 -107c5 -10 -2 -21 -13 -21l-7 13c-8 -2 -14 -6 -8 -17c-11 0 -29 -9 -29 -20c0 -15 -17 -10 -29 -13c-11 -11 -20 -24 -32 -40l-11 10c-26 -16 -12 -27 -39 -40c-16 -8 -35 -7 -53 -11c-3 -3 9 -7 8 -11l-18 -6l-28 17
c-16 -10 -4 -33 -24 -40c-24 -8 -43 -15 -71 -24c-17 17 -37 11 -51 0c-35 22 -78 55 -104 77c-24 19 -32 68 -32 116c0 243 303 400 378 400c29 0 43 -18 74 -42c0 -46 49 -83 90 -111c39 -26 52 -76 52 -130zM365 68c0 7 -5 10 -15 10c0 -3 -4 -10 -2 -12c4 -3 12 0 17 2z
M519 333l-56 65c-3 9 -5 15 -9 11s-8 -6 -11 -6c-7 0 -11 8 -12 8c-53 0 -145 -61 -187 -127c-48 -23 -81 -80 -103 -149c23 2 53 4 71 11l180 75c20 8 63 29 82 53zM409 97l-5 10c-18 -9 -25 -14 -24 -25zM192 258l23 28c-15 9 -33 -5 -35 -16c0 -6 3 -11 12 -12zM189 13
l30 -5c-4 6 -11 11 -18 11c-4 -1 -8 -2 -12 -6zM440 115c-3 3 -5 14 -8 16l-16 -17l4 -11zM635 657c-7 -27 -23 -18 -32 -32c-57 23 -50 69 -89 108c-75 -19 -158 -108 -186 -108c-13 0 -34 28 -61 50c8 14 6 28 -2 39c46 42 173 109 217 129l14 -10l15 7
c38 -43 82 -112 116 -164l-11 -9z" />
    <glyph glyph-name="odieresis" unicode="&#xf6;" horiz-adv-x="654" 
d="M624 300c0 -33 -17 -78 -53 -107c5 -10 -2 -21 -13 -21l-7 13c-8 -2 -14 -6 -8 -17c-11 0 -29 -9 -29 -20c0 -15 -17 -10 -29 -13c-11 -11 -20 -24 -32 -40l-11 10c-26 -16 -12 -27 -39 -40c-16 -8 -35 -7 -53 -11c-3 -3 9 -7 8 -11l-18 -6l-28 17
c-16 -10 -4 -33 -24 -40c-24 -8 -43 -15 -71 -24c-17 17 -37 11 -51 0c-35 22 -78 55 -104 77c-24 19 -32 68 -32 116c0 243 303 400 378 400c29 0 43 -18 74 -42c0 -46 49 -83 90 -111c39 -26 52 -76 52 -130zM365 68c0 7 -5 10 -15 10c0 -3 -4 -10 -2 -12c4 -3 12 0 17 2z
M519 333l-56 65c-3 9 -5 15 -9 11s-8 -6 -11 -6c-7 0 -11 8 -12 8c-53 0 -145 -61 -187 -127c-48 -23 -81 -80 -103 -149c23 2 53 4 71 11l180 75c20 8 63 29 82 53zM409 97l-5 10c-18 -9 -25 -14 -24 -25zM192 258l23 28c-15 9 -33 -5 -35 -16c0 -6 3 -11 12 -12zM189 13
l30 -5c-4 6 -11 11 -18 11c-4 -1 -8 -2 -12 -6zM440 115c-3 3 -5 14 -8 16l-16 -17l4 -11zM658 718c-36 -21 -51 -65 -88 -89c-38 0 -63 40 -53 71h-15c1 13 30 115 79 115c45 0 77 -31 77 -97zM444 700l-88 -90l-15 8l7 30c-12 26 -25 58 -22 92c-9 5 -12 12 -12 20
c0 27 33 55 59 55c40 0 71 -44 71 -115z" />
    <glyph glyph-name="ograve" unicode="&#xf2;" horiz-adv-x="654" 
d="M624 300c0 -33 -17 -78 -53 -107c5 -10 -2 -21 -13 -21l-7 13c-8 -2 -14 -6 -8 -17c-11 0 -29 -9 -29 -20c0 -15 -17 -10 -29 -13c-11 -11 -20 -24 -32 -40l-11 10c-26 -16 -12 -27 -39 -40c-16 -8 -35 -7 -53 -11c-3 -3 9 -7 8 -11l-18 -6l-28 17
c-16 -10 -4 -33 -24 -40c-24 -8 -43 -15 -71 -24c-17 17 -37 11 -51 0c-35 22 -78 55 -104 77c-24 19 -32 68 -32 116c0 243 303 400 378 400c29 0 43 -18 74 -42c0 -46 49 -83 90 -111c39 -26 52 -76 52 -130zM365 68c0 7 -5 10 -15 10c0 -3 -4 -10 -2 -12c4 -3 12 0 17 2z
M519 333l-56 65c-3 9 -5 15 -9 11s-8 -6 -11 -6c-7 0 -11 8 -12 8c-53 0 -145 -61 -187 -127c-48 -23 -81 -80 -103 -149c23 2 53 4 71 11l180 75c20 8 63 29 82 53zM409 97l-5 10c-18 -9 -25 -14 -24 -25zM192 258l23 28c-15 9 -33 -5 -35 -16c0 -6 3 -11 12 -12zM189 13
l30 -5c-4 6 -11 11 -18 11c-4 -1 -8 -2 -12 -6zM440 115c-3 3 -5 14 -8 16l-16 -17l4 -11zM628 617c-26 -14 -38 -8 -71 15c-4 -12 22 -26 50 -46l-12 -7c-35 26 -94 62 -154 89l-9 -6c-39 19 -92 41 -129 54c0 41 53 88 80 88c57 0 199 -92 199 -137c12 -12 35 -37 46 -50z
" />
    <glyph glyph-name="otilde" unicode="&#xf5;" horiz-adv-x="654" 
d="M624 300c0 -33 -17 -78 -53 -107c5 -10 -2 -21 -13 -21l-7 13c-8 -2 -14 -6 -8 -17c-11 0 -29 -9 -29 -20c0 -15 -17 -10 -29 -13c-11 -11 -20 -24 -32 -40l-11 10c-26 -16 -12 -27 -39 -40c-16 -8 -35 -7 -53 -11c-3 -3 9 -7 8 -11l-18 -6l-28 17
c-16 -10 -4 -33 -24 -40c-24 -8 -43 -15 -71 -24c-17 17 -37 11 -51 0c-35 22 -78 55 -104 77c-24 19 -32 68 -32 116c0 243 303 400 378 400c29 0 43 -18 74 -42c0 -46 49 -83 90 -111c39 -26 52 -76 52 -130zM365 68c0 7 -5 10 -15 10c0 -3 -4 -10 -2 -12c4 -3 12 0 17 2z
M519 333l-56 65c-3 9 -5 15 -9 11s-8 -6 -11 -6c-7 0 -11 8 -12 8c-53 0 -145 -61 -187 -127c-48 -23 -81 -80 -103 -149c23 2 53 4 71 11l180 75c20 8 63 29 82 53zM409 97l-5 10c-18 -9 -25 -14 -24 -25zM192 258l23 28c-15 9 -33 -5 -35 -16c0 -6 3 -11 12 -12zM189 13
l30 -5c-4 6 -11 11 -18 11c-4 -1 -8 -2 -12 -6zM440 115c-3 3 -5 14 -8 16l-16 -17l4 -11zM668 693c-22 -34 -57 -70 -107 -70c-77 0 -75 62 -99 82c-45 -12 -107 -63 -131 -89c-46 13 -42 39 -40 64c23 21 35 35 31 45c-14 -13 -30 -34 -41 -23c41 35 95 99 148 99
c11 0 26 -7 33 -16c48 0 22 -68 95 -68c22 0 45 15 69 27c-4 -8 -5 -14 -5 -19l16 4l3 -5l-14 -11c10 -8 34 -4 42 -20z" />
    <glyph glyph-name="scaron" unicode="&#x161;" horiz-adv-x="515" 
d="M468 589l-1 -12c36 -9 54 -41 51 -79c5 -4 7 -9 7 -14c0 -21 -34 -49 -72 -57c-21 27 12 28 2 39c-101 0 -152 -20 -239 -82v-15l42 -30c43 -30 85 -44 115 -77l11 7c29 -31 46 -69 44 -95l-6 -80l-17 4c-29 -40 -87 -76 -146 -102c-31 13 -48 8 -47 -19
c-48 -18 -91 -27 -109 -27c-14 0 -38 16 -62 39c-40 8 -49 32 -44 50c-13 18 -22 35 -22 46c0 25 17 40 33 52c17 -14 43 -49 61 -49c47 0 140 27 204 83v10c-25 24 -45 68 -63 56c-27 36 -39 51 -57 38c-14 12 -41 36 -46 64c-6 32 -18 69 -17 90c6 82 168 164 295 164
c25 0 58 -1 83 -4zM494 421l-9 7l25 17c0 -12 -3 -13 -16 -24zM290 443v1c-36 -11 -73 -26 -74 -42zM200 -17v12l-35 -15l5 -7zM610 759c-46 -42 -173 -108 -217 -128l-14 10l-15 -8c-38 43 -82 113 -116 165l12 8l-20 11c7 27 23 18 32 32c57 -23 50 -69 89 -108
c75 19 158 107 186 107c13 0 34 -27 61 -49c-8 -14 -6 -29 2 -40z" />
    <glyph glyph-name="uacute" unicode="&#xfa;" horiz-adv-x="655" 
d="M685 473l-14 -50c-20 2 -48 -13 -24 -29c7 -4 -1 -19 -13 -18l-14 7c-13 -24 -29 -56 -16 -57l-11 -21c-19 1 -21 -26 -83 -102l8 -10c25 32 49 66 69 99c7 -9 5 -18 2 -24c-140 -258 -346 -288 -404 -288c-7 0 -7 3 -8 5c0 3 0 5 -7 5s-6 -2 -6 -5c1 -2 2 -5 -5 -5
c-28 0 -41 27 -55 44l-11 -5c-40 24 -58 70 -58 117c0 40 10 82 27 119c46 100 121 280 158 364c12 10 22 14 31 14c22 -1 53 -82 61 -103l14 10v-23c-29 -53 -71 -140 -97 -197c-6 10 -6 16 -1 27c10 3 -4 14 -8 8c-24 -35 1 -53 -9 -74c-4 -9 -9 -19 -14 -31
c-9 4 -19 -7 -24 -17c6 -3 12 0 18 4h1c-7 -15 -15 -34 -21 -48c-4 6 -5 14 2 29l-6 6c-8 -15 -18 -33 -18 -45c0 -7 4 -11 13 -12c-4 -10 -8 -20 -11 -28c204 0 295 152 377 322c3 9 19 4 28 10c9 5 5 14 -11 12c16 36 36 93 40 109c2 9 8 11 16 11c6 0 13 -8 22 -15
c11 -9 24 -14 29 -16c5 -11 7 -31 8 -51c1 -24 4 -46 25 -48zM254 420l-25 -41c-1 -2 -3 -6 -2 -7l13 -8c7 10 24 46 14 56zM226 12c7 0 16 2 23 3c-13 23 -49 15 -39 3c4 -5 9 -6 16 -6zM511 184l-10 10c-15 -15 -28 -28 -18 -41zM426 94c-24 1 -41 -18 -76 -37l2 -10
c21 10 57 33 74 47zM339 40c-3 7 -12 7 -19 5c-17 -6 -41 -3 -39 -26c20 4 40 12 58 21zM666 756c0 -75 -150 -119 -207 -119c-12 0 -22 3 -28 7c-17 -2 -50 -6 -67 -7c9 12 14 24 16 33l38 14l-2 9c-16 -5 -42 -16 -58 -16c-5 0 -10 1 -12 4c55 15 119 47 169 75v11
c38 20 87 49 119 71c22 -16 32 -53 32 -82z" />
    <glyph glyph-name="ucircumflex" unicode="&#xfb;" horiz-adv-x="655" 
d="M685 473l-14 -50c-20 2 -48 -13 -24 -29c7 -4 -1 -19 -13 -18l-14 7c-13 -24 -29 -56 -16 -57l-11 -21c-19 1 -21 -26 -83 -102l8 -10c25 32 49 66 69 99c7 -9 5 -18 2 -24c-140 -258 -346 -288 -404 -288c-7 0 -7 3 -8 5c0 3 0 5 -7 5s-6 -2 -6 -5c1 -2 2 -5 -5 -5
c-28 0 -41 27 -55 44l-11 -5c-40 24 -58 70 -58 117c0 40 10 82 27 119c46 100 121 280 158 364c12 10 22 14 31 14c22 -1 53 -82 61 -103l14 10v-23c-29 -53 -71 -140 -97 -197c-6 10 -6 16 -1 27c10 3 -4 14 -8 8c-24 -35 1 -53 -9 -74c-4 -9 -9 -19 -14 -31
c-9 4 -19 -7 -24 -17c6 -3 12 0 18 4h1c-7 -15 -15 -34 -21 -48c-4 6 -5 14 2 29l-6 6c-8 -15 -18 -33 -18 -45c0 -7 4 -11 13 -12c-4 -10 -8 -20 -11 -28c204 0 295 152 377 322c3 9 19 4 28 10c9 5 5 14 -11 12c16 36 36 93 40 109c2 9 8 11 16 11c6 0 13 -8 22 -15
c11 -9 24 -14 29 -16c5 -11 7 -31 8 -51c1 -24 4 -46 25 -48zM254 420l-25 -41c-1 -2 -3 -6 -2 -7l13 -8c7 10 24 46 14 56zM226 12c7 0 16 2 23 3c-13 23 -49 15 -39 3c4 -5 9 -6 16 -6zM511 184l-10 10c-15 -15 -28 -28 -18 -41zM426 94c-24 1 -41 -18 -76 -37l2 -10
c21 10 57 33 74 47zM339 40c-3 7 -12 7 -19 5c-17 -6 -41 -3 -39 -26c20 4 40 12 58 21zM687 682c-7 -27 -23 -18 -32 -32c-57 23 -50 69 -89 108c-75 -19 -158 -108 -186 -108c-13 0 -34 28 -61 50c8 14 6 28 -2 39c46 42 173 109 217 129l14 -10l15 7
c38 -43 82 -112 116 -164l-11 -9z" />
    <glyph glyph-name="udieresis" unicode="&#xfc;" horiz-adv-x="655" 
d="M685 473l-14 -50c-20 2 -48 -13 -24 -29c7 -4 -1 -19 -13 -18l-14 7c-13 -24 -29 -56 -16 -57l-11 -21c-19 1 -21 -26 -83 -102l8 -10c25 32 49 66 69 99c7 -9 5 -18 2 -24c-140 -258 -346 -288 -404 -288c-7 0 -7 3 -8 5c0 3 0 5 -7 5s-6 -2 -6 -5c1 -2 2 -5 -5 -5
c-28 0 -41 27 -55 44l-11 -5c-40 24 -58 70 -58 117c0 40 10 82 27 119c46 100 121 280 158 364c12 10 22 14 31 14c22 -1 53 -82 61 -103l14 10v-23c-29 -53 -71 -140 -97 -197c-6 10 -6 16 -1 27c10 3 -4 14 -8 8c-24 -35 1 -53 -9 -74c-4 -9 -9 -19 -14 -31
c-9 4 -19 -7 -24 -17c6 -3 12 0 18 4h1c-7 -15 -15 -34 -21 -48c-4 6 -5 14 2 29l-6 6c-8 -15 -18 -33 -18 -45c0 -7 4 -11 13 -12c-4 -10 -8 -20 -11 -28c204 0 295 152 377 322c3 9 19 4 28 10c9 5 5 14 -11 12c16 36 36 93 40 109c2 9 8 11 16 11c6 0 13 -8 22 -15
c11 -9 24 -14 29 -16c5 -11 7 -31 8 -51c1 -24 4 -46 25 -48zM254 420l-25 -41c-1 -2 -3 -6 -2 -7l13 -8c7 10 24 46 14 56zM226 12c7 0 16 2 23 3c-13 23 -49 15 -39 3c4 -5 9 -6 16 -6zM511 184l-10 10c-15 -15 -28 -28 -18 -41zM426 94c-24 1 -41 -18 -76 -37l2 -10
c21 10 57 33 74 47zM339 40c-3 7 -12 7 -19 5c-17 -6 -41 -3 -39 -26c20 4 40 12 58 21zM696 733c-36 -21 -51 -65 -88 -89c-38 0 -63 40 -53 71h-15c1 13 30 115 79 115c45 0 77 -31 77 -97zM482 715l-88 -90l-15 8l7 30c-12 26 -25 58 -22 92c-9 5 -12 12 -12 20
c0 27 33 55 59 55c40 0 71 -44 71 -115z" />
    <glyph glyph-name="ugrave" unicode="&#xf9;" horiz-adv-x="655" 
d="M685 473l-14 -50c-20 2 -48 -13 -24 -29c7 -4 -1 -19 -13 -18l-14 7c-13 -24 -29 -56 -16 -57l-11 -21c-19 1 -21 -26 -83 -102l8 -10c25 32 49 66 69 99c7 -9 5 -18 2 -24c-140 -258 -346 -288 -404 -288c-7 0 -7 3 -8 5c0 3 0 5 -7 5s-6 -2 -6 -5c1 -2 2 -5 -5 -5
c-28 0 -41 27 -55 44l-11 -5c-40 24 -58 70 -58 117c0 40 10 82 27 119c46 100 121 280 158 364c12 10 22 14 31 14c22 -1 53 -82 61 -103l14 10v-23c-29 -53 -71 -140 -97 -197c-6 10 -6 16 -1 27c10 3 -4 14 -8 8c-24 -35 1 -53 -9 -74c-4 -9 -9 -19 -14 -31
c-9 4 -19 -7 -24 -17c6 -3 12 0 18 4h1c-7 -15 -15 -34 -21 -48c-4 6 -5 14 2 29l-6 6c-8 -15 -18 -33 -18 -45c0 -7 4 -11 13 -12c-4 -10 -8 -20 -11 -28c204 0 295 152 377 322c3 9 19 4 28 10c9 5 5 14 -11 12c16 36 36 93 40 109c2 9 8 11 16 11c6 0 13 -8 22 -15
c11 -9 24 -14 29 -16c5 -11 7 -31 8 -51c1 -24 4 -46 25 -48zM254 420l-25 -41c-1 -2 -3 -6 -2 -7l13 -8c7 10 24 46 14 56zM226 12c7 0 16 2 23 3c-13 23 -49 15 -39 3c4 -5 9 -6 16 -6zM511 184l-10 10c-15 -15 -28 -28 -18 -41zM426 94c-24 1 -41 -18 -76 -37l2 -10
c21 10 57 33 74 47zM339 40c-3 7 -12 7 -19 5c-17 -6 -41 -3 -39 -26c20 4 40 12 58 21zM570 657c-26 -14 -38 -8 -71 15c-4 -12 22 -26 50 -46l-12 -7c-35 26 -94 62 -154 89l-9 -6c-39 19 -92 41 -129 54c0 41 53 88 80 88c57 0 199 -92 199 -137c12 -12 35 -37 46 -50z
" />
    <glyph glyph-name="yacute" unicode="&#xfd;" horiz-adv-x="572" 
d="M388 117l-7 -7l-14 13c-10 -8 -27 -20 -8 -44c-8 -12 -16 -27 -24 -43c-9 -4 -17 -10 -24 -17l8 -20l-4 -7l-12 16c-16 -22 -27 -53 -32 -83l19 -9c-4 -16 -6 -32 -7 -45c-8 -4 -21 -6 -31 -6c-33 0 -58 12 -74 26c-1 10 -7 14 -14 14c-8 10 -11 18 -10 21
c16 84 80 177 121 292l-7 6c-31 0 -56 6 -83 19c-4 -6 -10 -8 -18 0l-66 65h-12c-61 89 -16 193 39 285l14 -6c2 5 4 9 6 11c3 3 6 5 9 5c6 0 56 -21 81 -32l16 -28c-9 -57 -45 -85 -51 -143l-15 -12c-7 -42 -3 -67 21 -98c67 -6 119 25 149 67l106 149l8 -13l40 58
c7 10 16 10 25 3c26 21 48 23 66 14c-1 -12 4 -17 21 -19c11 -15 19 -36 23 -59c-10 -25 -26 -49 -47 -73c-39 6 -43 -12 -56 -39l14 -7c-39 -41 -78 -81 -91 -119l-14 13c-1 -40 -30 -66 -45 -89c-7 -11 -5 -25 -7 -37l-10 7c1 7 1 13 -4 17c-11 -19 -17 -27 1 -46z
M280 -90l-11 5l-3 -17l8 -4zM572 386l-6 12c5 5 14 16 26 10c-6 -7 -13 -15 -20 -22zM364 73l10 -9c-3 -6 -9 -11 -19 -7zM306 -36l-14 -40c-13 9 -4 35 13 41zM648 756c0 -75 -150 -119 -207 -119c-12 0 -22 3 -28 7c-17 -2 -50 -6 -67 -7c9 12 14 24 16 33l38 14l-2 9
c-16 -5 -42 -16 -58 -16c-5 0 -10 1 -12 4c55 15 119 47 169 75v11c38 20 87 49 119 71c22 -16 32 -53 32 -82z" />
    <glyph glyph-name="ydieresis" unicode="&#xff;" horiz-adv-x="572" 
d="M388 117l-7 -7l-14 13c-10 -8 -27 -20 -8 -44c-8 -12 -16 -27 -24 -43c-9 -4 -17 -10 -24 -17l8 -20l-4 -7l-12 16c-16 -22 -27 -53 -32 -83l19 -9c-4 -16 -6 -32 -7 -45c-8 -4 -21 -6 -31 -6c-33 0 -58 12 -74 26c-1 10 -7 14 -14 14c-8 10 -11 18 -10 21
c16 84 80 177 121 292l-7 6c-31 0 -56 6 -83 19c-4 -6 -10 -8 -18 0l-66 65h-12c-61 89 -16 193 39 285l14 -6c2 5 4 9 6 11c3 3 6 5 9 5c6 0 56 -21 81 -32l16 -28c-9 -57 -45 -85 -51 -143l-15 -12c-7 -42 -3 -67 21 -98c67 -6 119 25 149 67l106 149l8 -13l40 58
c7 10 16 10 25 3c26 21 48 23 66 14c-1 -12 4 -17 21 -19c11 -15 19 -36 23 -59c-10 -25 -26 -49 -47 -73c-39 6 -43 -12 -56 -39l14 -7c-39 -41 -78 -81 -91 -119l-14 13c-1 -40 -30 -66 -45 -89c-7 -11 -5 -25 -7 -37l-10 7c1 7 1 13 -4 17c-11 -19 -17 -27 1 -46z
M280 -90l-11 5l-3 -17l8 -4zM572 386l-6 12c5 5 14 16 26 10c-6 -7 -13 -15 -20 -22zM364 73l10 -9c-3 -6 -9 -11 -19 -7zM306 -36l-14 -40c-13 9 -4 35 13 41zM616 733c-36 -21 -51 -65 -88 -89c-38 0 -63 40 -53 71h-15c1 13 30 115 79 115c45 0 77 -31 77 -97zM402 715
l-88 -90l-15 8l7 30c-12 26 -25 58 -22 92c-9 5 -12 12 -12 20c0 27 33 55 59 55c40 0 71 -44 71 -115z" />
    <glyph glyph-name="zcaron" unicode="&#x17e;" horiz-adv-x="635" 
d="M724 94l47 1c4 -2 11 -7 11 -14c-63 -2 -140 -7 -203 -19c-20 -4 -15 -19 -30 -31c-3 5 -17 7 -26 5l-2 -12c-38 -4 -35 -3 -73 -10c-33 41 -83 10 -115 -14c-30 0 -59 3 -87 7v-14l-174 22c-33 43 -62 71 -62 105c0 93 261 202 395 315c-52 14 -134 -27 -168 5
c-6 -3 -7 -8 -8 -14c-15 -1 -30 -4 -46 -2s-60 70 -58 83s17 12 9 32c100 39 248 47 327 47c44 0 96 -5 129 -15c10 -29 12 -62 12 -89l12 -11v-15h-15c-16 -57 -86 -77 -124 -135l-8 11c-31 -30 -120 -72 -179 -111l-9 -19c-17 1 -43 -10 -64 -25v-15l-11 -9l-8 8
c-8 -8 -14 -16 -18 -24c55 -3 113 -2 171 0l8 -10l6 10c12 0 25 1 37 2c32 -11 50 -18 47 2c71 14 127 7 199 11c1 -6 -3 -19 -11 -22c-25 -1 -34 -1 -54 -3c-25 -2 -99 -11 -114 -23l1 -5c77 8 200 22 269 22c8 0 12 -2 9 -4c-10 -4 -17 -10 -22 -23zM745 135
c-24 0 -50 -1 -74 -2c-15 9 -15 16 -15 19c26 1 60 0 81 -1c10 -1 10 -10 8 -16zM771 64c5 -2 2 -10 -5 -9c-53 0 -125 -8 -188 -16c8 24 176 32 193 25zM779 136h-21c2 7 4 13 10 14c11 2 17 -5 23 -10c1 -1 -3 -4 -12 -4zM407 6v-1c-20 -2 -33 -3 -47 -4c14 19 32 16 47 5
zM420 448l-11 16l-10 -3l13 -20zM841 85l-44 -3c-4 3 -7 8 -7 13l29 1c11 -1 32 -1 32 -8c0 -2 -4 -3 -10 -3zM680 765c-46 -42 -173 -108 -217 -128l-14 10l-15 -8c-38 43 -82 113 -116 165l12 8l-20 11c7 27 23 18 32 32c57 -23 50 -69 89 -108c75 19 158 107 186 107
c13 0 34 -27 61 -49c-8 -14 -6 -29 2 -40z" />
    <glyph glyph-name="Delta" unicode="&#x2206;" horiz-adv-x="686" 
d="M-122 0l39 68l558 552h161l-83 -552l-39 -68h-636zM77 99h342l41 272c8 40 18 105 28 142h-4c-24 -27 -85 -89 -124 -130z" />
    <glyph glyph-name="Omega" unicode="&#x2126;" horiz-adv-x="765" 
d="M97 98l2 3c-40 42 -63 121 3 236c89 154 293 278 490 278c203 0 248 -133 165 -277c-66 -115 -175 -191 -272 -237l-2 -3h148l-56 -98h-290l43 75c102 43 208 113 281 240c61 105 46 203 -72 203c-113 0 -244 -86 -314 -207c-66 -114 -51 -199 6 -236l-43 -75h-290l56 98
h145z" />
    <glyph glyph-name="pi" unicode="&#x3c0;" horiz-adv-x="626" 
d="M658 354h-72l-121 -209c-39 -69 -61 -117 -70 -145h-132c-2 16 23 69 61 134l127 220h-140c-65 -106 -194 -284 -267 -354h-131c83 89 206 254 265 354c-46 0 -80 -2 -110 -10l32 80c35 19 94 30 188 30h440z" />
    <glyph glyph-name="Euro" unicode="&#x20ac;" horiz-adv-x="578" 
d="M540 429c-29 15 -58 25 -81 24s-43 -8 -61 -21c-29 -21 -44 -48 -56 -59l-13 3c-2 -4 -5 -7 -9 -11h3c16 0 41 0 54 2l16 -30c14 4 27 7 39 7c11 0 23 -6 32 -11c-57 -25 -139 -43 -220 -58c-2 0 -3 1 -5 1c-10 -11 -28 -33 -48 -58h49c11 0 22 6 33 6c18 0 36 1 51 3
l25 -20c7 2 14 3 21 3c19 0 36 -7 50 -15c-57 -24 -131 -37 -212 -52c-23 -2 -46 -2 -68 -3c-7 -16 -12 -29 -12 -40c0 -12 5 -19 16 -19c36 0 119 24 179 33h5c11 0 21 -5 25 -10c-48 -13 -118 -29 -127 -42c6 -4 15 -5 23 -5c16 0 34 6 44 16c53 10 120 24 171 31l16 -4
l24 3l11 -7l-52 -8c-10 -2 -21 -5 -21 -12c0 -2 1 -4 3 -7l7 -10c-9 -4 -120 -37 -186 -58c-8 -3 -14 -9 -14 -15c0 -2 0 -4 2 -6c-21 -5 -53 -14 -76 -14c-11 0 -20 16 -30 16c-22 0 -29 21 -55 21h-19c-18 17 -44 81 -52 96c-3 4 -5 12 -6 19c-12 -3 -22 -6 -31 -7
c0 9 -13 15 -20 28c-2 12 -8 22 -8 35c0 2 1 5 1 8c23 8 48 15 74 21v13l10 -6c2 4 3 8 3 12c0 5 -1 9 -1 14c0 3 1 7 2 10c2 4 5 10 7 15c-16 -3 -31 -5 -44 -7c-4 20 -19 24 -40 27c-1 5 -1 9 -1 13c0 7 1 14 6 21c35 21 80 15 122 17c10 14 19 23 24 23c4 0 5 -1 5 -3
c0 -3 -2 -6 -2 -9c0 -2 1 -3 5 -3c11 0 32 52 43 52h12c-3 7 -4 19 -5 28h7c26 63 217 176 252 176c83 0 127 -26 155 -59c-4 -12 -9 -26 -13 -39c-6 3 -18 5 -22 9l-20 1c16 -8 28 -16 41 -27l-6 -7c-28 17 -52 30 -83 33l-27 -2c25 -5 83 -26 113 -47
c-8 -14 -21 -22 -35 -29zM152 170c-2 1 -4 1 -6 1c-5 0 -8 -3 -12 -9l10 -6zM387 22v-1c-19 -11 -38 -22 -55 -22c-5 0 -10 1 -14 3c19 8 46 13 69 20zM124 325l-8 9l-14 -23l9 -7zM136 151h-10l-7 -14l6 -8zM399 107c-18 0 -35 7 -43 11c40 7 82 15 112 17
c-5 -17 -39 -28 -69 -28zM203 256l-9 5l-12 -19c-3 -6 -11 -18 -11 -27c0 -2 0 -3 1 -5zM216 287l9 -6c21 21 21 25 21 29c-10 0 -19 -10 -30 -23zM495 74l-30 -10l-10 12l27 4zM293 -17c-6 0 -13 1 -19 4l33 11c4 -2 5 -5 5 -7c0 -5 -8 -8 -19 -8zM217 273l-9 6l-6 -10
l7 -6z" />
    <glyph glyph-name="estimated" unicode="&#x212e;" horiz-adv-x="959" 
d="M929 280h-566c-2 0 -4 -1 -4 -4v-171c0 -8 3 -14 7 -20c55 -57 131 -92 214 -92c91 0 171 40 225 103h51c-63 -73 -164 -121 -277 -121c-192 0 -349 140 -349 313c0 174 157 315 349 315c194 0 350 -141 350 -315v-8zM801 302v172c0 8 -3 15 -9 21
c-54 54 -129 89 -212 89s-158 -36 -213 -92c-5 -6 -8 -13 -8 -22v-168c0 -2 2 -6 4 -6h434c3 0 4 4 4 6z" />
    <glyph glyph-name="partialdiff" unicode="&#x2202;" horiz-adv-x="593" 
d="M258 527l9 85c41 20 126 54 227 54c163 0 220 -127 99 -336c-118 -204 -321 -353 -501 -353c-152 0 -148 122 -98 209c73 129 221 225 352 225c91 0 112 -58 114 -84h1c4 7 12 20 16 27c68 118 53 213 -56 213c-68 0 -130 -25 -163 -40zM163 75c76 0 174 81 228 156
c8 30 -3 85 -70 85c-70 0 -155 -58 -196 -130c-37 -63 -22 -111 38 -111z" />
    <glyph glyph-name="product" unicode="&#x220f;" horiz-adv-x="938" 
d="M918 497h-109v-580h-128v580h-223v-580h-129v580h-108v108h697v-108z" />
    <glyph glyph-name="summation" unicode="&#x2211;" horiz-adv-x="782" 
d="M766 -83h-545v72l247 269l-235 264v83h513v-106h-330v-3l202 -224l-221 -244v-3h369v-108z" />
    <glyph glyph-name="uni2219" unicode="&#x2219;" horiz-adv-x="176" 
d="M161 230c-5 -23 -55 -86 -91 -98l-55 63l10 13c-24 55 16 128 55 128c32 0 66 -51 81 -106z" />
    <glyph glyph-name="radical" unicode="&#x221a;" horiz-adv-x="805" 
d="M825 721l-237 -850h-104l-159 381l-74 -29l-22 64l172 70l114 -296c8 -23 16 -47 22 -67l1 -1c5 19 11 46 17 72l177 656h93z" />
    <glyph glyph-name="infinity" unicode="&#x221e;" horiz-adv-x="827" 
d="M782 251v-1c0 -102 -76 -163 -154 -163c-52 0 -107 25 -171 107c-48 -59 -98 -107 -174 -107c-79 0 -150 64 -150 158c0 96 68 162 159 162c71 0 122 -43 171 -104c40 44 87 105 171 104c83 -1 148 -62 148 -156zM291 154h2c52 0 94 50 128 89c-38 51 -72 99 -133 99
c-50 0 -86 -40 -86 -97c0 -49 38 -91 89 -91zM627 342h-1c-56 0 -99 -59 -129 -93c57 -71 89 -95 133 -95c53 0 82 50 82 91c0 57 -35 97 -85 97z" />
    <glyph glyph-name="integral" unicode="&#x222b;" horiz-adv-x="572" 
d="M565 738l-13 -80c-10 5 -24 8 -38 8c-20 0 -40 -8 -52 -23c-20 -25 -26 -71 -26 -144c0 -140 16 -258 16 -413c0 -81 -16 -137 -37 -170c-27 -48 -77 -67 -126 -67c-29 0 -63 7 -80 15l16 83c10 -5 27 -10 46 -10c17 0 35 6 46 18c19 23 29 56 29 133
c0 157 -16 277 -16 424c0 100 18 157 61 197c28 29 72 40 114 40c24 0 49 -6 60 -11z" />
    <glyph glyph-name="approxequal" unicode="&#x2248;" horiz-adv-x="644" 
d="M561 406l46 -46c-38 -58 -86 -93 -138 -93c-43 0 -70 14 -114 38c-27 15 -53 30 -87 30c-44 0 -72 -31 -100 -66l-46 46c31 51 90 92 150 92c47 0 78 -18 106 -34c38 -21 56 -33 88 -33c38 0 66 24 95 66zM561 230l46 -47c-37 -57 -84 -92 -139 -92c-42 0 -71 15 -113 38
c-29 16 -54 30 -86 30c-46 0 -73 -32 -101 -67l-46 46c31 52 90 93 150 93c47 0 78 -18 105 -33c30 -17 53 -34 89 -34c39 0 64 22 95 66z" />
    <glyph glyph-name="notequal" unicode="&#x2260;" horiz-adv-x="691" 
d="M544 460l-38 -81h138v-71h-169l-57 -124h226v-71h-258l-51 -111l-58 27l40 84h-135v71h166l57 124h-223v71h253l50 108z" />
    <glyph glyph-name="lessequal" unicode="&#x2264;" horiz-adv-x="745" 
d="M696 96l-457 204v77l457 203v-80l-380 -160v-2l380 -162v-80zM698 -10h-463v73h463v-73z" />
    <glyph glyph-name="greaterequal" unicode="&#x2265;" horiz-adv-x="744" 
d="M239 580l458 -204v-76l-457 -204v80l379 162v1l-380 161v80zM694 -10h-458v73h458v-73z" />
    <glyph glyph-name="lozenge" unicode="&#x25ca;" horiz-adv-x="807" 
d="M760 302l-207 -346h-100l-205 346l206 346h100zM646 299l-125 217c-6 12 -14 29 -17 40h-3c-4 -12 -11 -27 -18 -40l-122 -212l125 -219c7 -14 14 -29 17 -38h3c4 9 11 28 17 38z" />
    <glyph glyph-name="uni02C9" unicode="&#x2c9;" 
d="M623 776c-12 -40 -8 -62 -57 -62c-24 0 -50 -34 -95 -20l-29 -22c-11 6 -41 20 -53 8h-67l-3 -8l63 -4c-1 -3 -2 -5 -2 -9c-39 0 -86 1 -114 6l-13 -6c-14 9 -29 18 -46 17c-9 10 -12 20 -12 28c0 24 28 44 42 71c121 -14 259 -21 386 1z" />
    <glyph glyph-name="orn.001" unicode="&#xe000;" horiz-adv-x="1227" 
d="M887 493l-7 16c30 24 58 49 82 76l-4 19c15 4 34 4 48 4c83 0 216 -103 216 -178c0 -17 -8 -36 -20 -36c-11 5 -21 -2 -36 -15v-1c8 3 16 3 23 1l-24 -18l-9 8c-10 -10 -20 -21 -34 -27c-37 -16 -209 -149 -265 -213c4 -8 8 -18 9 -28c-12 -7 -24 -5 -32 1
c-32 -1 -69 -7 -82 -11c-15 -4 -26 -18 -31 -36c-11 3 -20 6 -28 9c-20 -5 -74 -70 -87 -70c-6 0 -62 31 -62 38s61 58 81 81c-13 14 -20 31 -4 45c34 31 61 57 36 91h-24c-11 0 -16 5 -16 12c0 12 12 29 34 41c17 -12 64 -42 89 -42c-4 8 -6 20 -7 31c-5 -4 -12 -8 -20 -8
c-11 0 -26 20 -51 47c26 32 68 68 119 105l5 -18c-18 -13 -31 -28 -39 -41v-1c23 15 55 38 83 58h1l-6 -19l1 -1c71 56 134 111 147 147c-7 -4 -45 -35 -86 -67zM684 114l4 -5c36 17 83 24 122 27c-31 66 -65 94 -110 106c36 -48 35 -88 -16 -128zM707 201l-6 -38
c8 6 14 17 14 27c0 5 -3 9 -8 11zM1145 506h-1c13 -14 28 -34 28 -50c-67 -56 -257 -183 -353 -271c9 -11 16 -19 22 -29c100 122 265 228 354 288c0 28 -26 52 -50 62zM749 304v-15c14 14 31 28 43 38c8 7 13 17 14 24c-19 -15 -42 -33 -57 -47zM-28 132h43
c111 0 262 -115 312 -148v1c-6 13 -35 64 -49 64c-19 0 -61 47 -61 61c0 18 27 69 42 69c51 0 211 -95 322 -217c-10 -10 -31 -34 -51 -34c-18 0 -68 68 -177 113c16 -34 48 -78 52 -110c-13 -14 -25 -34 -43 -34c-27 0 -167 124 -315 162l-91 -20c-4 6 -11 13 -11 21
c0 24 20 51 27 72zM67 63v-1l44 -12c-7 14 -26 15 -44 13zM831 471c4 -10 3 -15 2 -20c-13 -10 -25 -19 -35 -26l-5 18c12 9 25 19 38 28zM313 -57l-35 21c3 12 -19 17 -39 18l79 -49z" />
    <glyph glyph-name="uni00A0" unicode="&#xa0;" horiz-adv-x="275" 
 />
    <glyph glyph-name="uni00AD" unicode="&#xad;" horiz-adv-x="504" 
d="M499 204c-134 -41 -308 -58 -435 -64c-2 16 -20 31 -39 37c0 21 6 54 17 77c62 50 190 20 286 29l-5 -13c19 -5 51 -9 77 -9l24 -36c31 4 55 -7 75 -21z" />
    <glyph glyph-name="uni03A9" unicode="&#x3a9;" horiz-adv-x="765" 
d="M97 98l2 3c-40 42 -63 121 3 236c89 154 293 278 490 278c203 0 248 -133 165 -277c-66 -115 -175 -191 -272 -237l-2 -3h148l-56 -98h-290l43 75c102 43 208 113 281 240c61 105 46 203 -72 203c-113 0 -244 -86 -314 -207c-66 -114 -51 -199 6 -236l-43 -75h-290l56 98
h145z" />
    <glyph glyph-name="afii61289" unicode="&#x2113;" horiz-adv-x="547" 
d="M414 163l25 -55c-112 -96 -219 -131 -303 -131c-108 0 -131 55 -104 136c1 3 3 6 4 8c-24 -11 -44 -22 -68 -33l1 65c38 20 79 39 116 58l116 200c98 171 216 239 322 239c107 0 112 -74 64 -157c-63 -110 -196 -202 -390 -308l-10 -19c-28 -55 -7 -86 41 -86
c58 0 132 41 186 83zM345 440l-85 -146c107 66 197 136 232 198c26 44 27 74 -11 74c-30 0 -81 -30 -136 -126z" />
    </font>
</defs>
</svg>
