<svg xmlns="http://www.w3.org/2000/svg" viewBox="0 0 612 792" enable-background="new 0 0 612 792"><path fill="#fff" d="M273.9 398.8C430.3 368 546.3 217.1 567.3 178c20.9-37.7 30.8-75.4 30.8-75.4-34.9 46.1-156.5 78.3-237.5 99.2-5.7 99.2-86.7 197-86.7 197zm194.2-61.4c-88 74-157.9 62.9-266.9 134.1-79.7 53.1-89.4 122.9-89.4 149.5 15.4 1.4 72.6 1.4 219.4-23.7 160.6-28 258.5-197 275.2-285.1 11.2-53.1 5.6-118.8 0-162.1-30.7 100.6-100.6 156.5-138.3 187.3zm-286.4 96.3C239 382 280.9 316.3 304.6 274.4c12.6-22.3 14-44.7 12.6-60.1-1.4 0-2.8 1.4-5.6 1.4-65.6 21-195.6 51.7-273.8 183.1-79.7 132.8-8.4 290.6-8.4 290.6l7-7c5.5-110.4 90.7-199.8 145.3-248.7z"/></svg>